<svg id="Слой_1" data-name="Слой 1" xmlns="http://www.w3.org/2000/svg" viewBox="0 0 128 128"><defs><style>.cls-4,.cls-6,.cls-7,.cls-8{fill:none}.cls-3{fill:#fff}.cls-4,.cls-7,.cls-8{stroke:#000}.cls-3,.cls-4,.cls-6,.cls-7,.cls-8{stroke-linecap:round}.cls-3,.cls-4,.cls-8{stroke-linejoin:round}.cls-3,.cls-4{stroke-width:3px}.cls-3,.cls-6{stroke:#fc592a}.cls-5{fill:#fc592a}.cls-6,.cls-7{stroke-miterlimit:10}.cls-6,.cls-7,.cls-8{stroke-width:2px}</style></defs><path fill="none" d="M0 0h128v128H0z"/><path d="M109.44 26.611v77.722a5.952 5.952 0 0 1-5.952 5.952H24.512a5.952 5.952 0 0 1-5.952-5.952V26.61H35.2l1-.184h8.653l-1 .184h40.345v-.184h8.653v.184z" stroke-width="3" stroke-linejoin="round" stroke-linecap="round" stroke="#000" fill="#fff"/><path class="cls-3" d="M35.149 15.795h8.653v21.632h-8.653zM84.198 15.795h8.653v21.632h-8.653z"/><path class="cls-4" d="M32.986 58.074h62.029v39.514H32.986zM19.917 47.093h89.446M58.227 37.44h-2.88M65.446 37.44h-2.892M72.653 37.44h-2.88"/><path class="cls-5" d="M57.06 68.938a7.033 7.033 0 0 1 2.343.37 5.364 5.364 0 0 1 1.786 1.027 4.512 4.512 0 0 1 1.136 1.538 4.62 4.62 0 0 1 .396 1.91 5.58 5.58 0 0 1-.201 1.577 3.661 3.661 0 0 1-.585 1.187 3.558 3.558 0 0 1-.935.858 5.797 5.797 0 0 1-1.253.585 4.9 4.9 0 0 1 2.52 1.622 4.392 4.392 0 0 1 .83 2.74 5.643 5.643 0 0 1-.519 2.48 5.35 5.35 0 0 1-1.402 1.813 6.17 6.17 0 0 1-2.045 1.11 7.97 7.97 0 0 1-2.461.375 8.446 8.446 0 0 1-2.467-.323 5.365 5.365 0 0 1-1.831-.962 5.772 5.772 0 0 1-1.325-1.558 10.503 10.503 0 0 1-.935-2.13l1.416-.585a1.883 1.883 0 0 1 .74-.155 1.26 1.26 0 0 1 .604.143.982.982 0 0 1 .409.415c.156.302.326.602.512.897a3.703 3.703 0 0 0 .67.785 3.165 3.165 0 0 0 .915.558 3.32 3.32 0 0 0 1.253.215 3.546 3.546 0 0 0 1.428-.268 3.069 3.069 0 0 0 1.02-.692 2.872 2.872 0 0 0 .61-.955 2.933 2.933 0 0 0 .201-1.06 4.86 4.86 0 0 0-.143-1.225 1.815 1.815 0 0 0-.597-.943 3.247 3.247 0 0 0-1.305-.61 9.406 9.406 0 0 0-2.28-.22v-2.3a7.705 7.705 0 0 0 1.962-.207 3.312 3.312 0 0 0 1.24-.578 1.96 1.96 0 0 0 .643-.89 3.433 3.433 0 0 0 .182-1.142 2.64 2.64 0 0 0-.727-2.02 2.798 2.798 0 0 0-1.987-.68 2.935 2.935 0 0 0-1.897.602 3.153 3.153 0 0 0-1.051 1.55 1.417 1.417 0 0 1-.429.708 1.125 1.125 0 0 1-.714.212 2.785 2.785 0 0 1-.441-.037l-1.688-.295a6.954 6.954 0 0 1 .753-2.37 5.687 5.687 0 0 1 1.395-1.703 5.829 5.829 0 0 1 1.922-1.025 7.649 7.649 0 0 1 2.332-.344zM67.5 85.52h3.804V74.575c0-.425.013-.87.039-1.337l-2.701 2.257a.925.925 0 0 1-.344.195 1.19 1.19 0 0 1-.344.052 1.029 1.029 0 0 1-.474-.11.875.875 0 0 1-.318-.252l-1.013-1.39 5.726-4.87h2.637v16.4h3.376v2.403H67.499z"/><path class="cls-6" d="M14.566 10.79V8.934M14.566 16.397v-1.869M18.406 12.659h-1.92M12.634 12.659h-1.92M119.526 91.43v-1.856M119.526 97.037v-1.869M123.366 93.299h-1.92M117.594 93.299h-1.92M32.486 117.03v-1.856M32.486 122.637v-1.869M36.326 118.899h-1.92M30.554 118.899h-1.92"/><path class="cls-7" d="M8.95 71.526l1.357-1.318M4.867 75.482l1.357-1.319M10.307 75.482L8.95 74.163M6.224 71.526l-1.357-1.318M81.19 4.966l1.357-1.318M77.107 8.922l1.357-1.319M82.547 8.922L81.19 7.603M78.464 4.966l-1.357-1.318"/><path class="cls-8" d="M23.56 100.48v-32M28.68 105.6H40.2M23.56 100.48c0 5.12 0 5.12 5.12 5.12M43.4 105.6h2.56M49.16 105.6h1.28M104.16 42.24H79.84"/></svg>
