<svg id="Слой_1" data-name="Слой 1" xmlns="http://www.w3.org/2000/svg" viewBox="0 0 128 128"><defs><style>.cls-1{fill:#fff}.cls-2{fill:#f53}.cls-3,.cls-5,.cls-6{fill:none;stroke-linecap:round;stroke-width:2px}.cls-3{stroke-linejoin:round;stroke:#fc592a}.cls-5,.cls-6{stroke:#f53;stroke-miterlimit:10}.cls-6{stroke:#000}</style></defs><path class="cls-1" d="M64 89.48c-13.504 0-24.49-12.619-24.49-28.13 0-.533.01-1.056.038-1.579.575-11.627 7.617-20.388 18.379-22.87h.004a.147.147 0 0 1 .122.082l4.79 8.269A1.5 1.5 0 0 0 64.14 46h.045a1.5 1.5 0 0 0 1.295-.827l4.15-8.26a.145.145 0 0 1 .119-.086c10.952 2.375 18.117 11.164 18.703 22.938.03.53.038 1.053.038 1.585 0 15.511-10.986 28.13-24.49 28.13z"/><path d="M70.49 38.545c9.659 2.549 15.933 10.613 16.464 21.308.025.445.036.92.036 1.497 0 14.684-10.313 26.63-22.99 26.63S41.01 76.034 41.01 61.35c0-.576.011-1.052.036-1.512.522-10.556 6.702-18.596 16.22-21.222l4.278 7.388A3 3 0 0 0 64.14 47.5l.09-.001a3 3 0 0 0 2.59-1.652l3.67-7.302m-.741-3.218a1.642 1.642 0 0 0-1.459.913l-4.15 8.26-4.79-8.27a1.644 1.644 0 0 0-1.41-.83 1.548 1.548 0 0 0-.35.04c-10.8 2.49-18.9 11.31-19.54 24.25-.03.55-.04 1.1-.04 1.66 0 16.37 11.64 29.63 25.99 29.63s25.99-13.26 25.99-29.63c0-.56-.01-1.11-.04-1.66-.65-13.07-8.91-21.95-19.88-24.33a1.575 1.575 0 0 0-.321-.033z"/><path class="cls-1" d="M29.775 75.313h68.732a1.497 1.497 0 0 1 1.497 1.497v39.95a1.497 1.497 0 0 1-1.497 1.497H29.776a1.498 1.498 0 0 1-1.498-1.498v-39.95a1.497 1.497 0 0 1 1.497-1.496z"/><path class="cls-2" d="M98.504 76.813l.002 39.944-68.728.002-.003-39.947h68.729m.002-3h-68.73a2.998 2.998 0 0 0-2.998 2.998v39.95a2.998 2.998 0 0 0 2.997 2.997h68.731a2.998 2.998 0 0 0 2.998-2.998V76.81a2.998 2.998 0 0 0-2.998-2.998z"/><path class="cls-3" d="M32.898 79.642h3.942M40.386 79.642h7.872M35.803 83.2h7.859M47.605 83.2h3.929M52.059 79.642h.282M95 103.296v-7.859M83 103.296h11.802M90.853 99.366h-3.93"/><path stroke-width="3" stroke-linecap="round" stroke="#fc592a" stroke-linejoin="round" fill="none" d="M28.301 108.083h71.68"/><path class="cls-5" d="M116.006 98.714v-1.972M116.006 104.614v-1.971M119.936 100.685h-1.958M114.035 100.685h-1.958M11.776 49.549v-1.971M11.776 55.45v-1.972M15.706 51.507h-1.972M9.805 51.507H7.834M37.338 5.734V3.763M37.338 11.635V9.664M41.267 7.706h-1.958M35.366 7.706h-1.958"/><path class="cls-6" d="M19.61 119.501l1.382-1.395M15.437 123.674l1.382-1.396M20.992 123.674l-1.382-1.396M16.819 119.501l-1.382-1.395M115.098 32.422l1.382-1.395M110.925 36.595l1.395-1.395M116.48 36.595l-1.382-1.395M112.32 32.422l-1.395-1.395"/><path fill="none" d="M0 0h128v128H0z"/><path d="M64 8.632a10.517 10.517 0 1 1-10.517 10.517A10.529 10.529 0 0 1 64 8.632m0-3a13.517 13.517 0 1 0 13.517 13.517A13.517 13.517 0 0 0 64 5.632z"/><path class="cls-1" d="M24.494 61.238h79.294a1.502 1.502 0 0 1 1.502 1.502v11.058a1.502 1.502 0 0 1-1.502 1.502H24.494a1.503 1.503 0 0 1-1.503-1.503V62.74a1.502 1.502 0 0 1 1.503-1.502z"/><path class="cls-2" d="M103.788 62.738l.002.002-.002 11.06-79.297-.003.003-11.06h79.294m0-3H24.494a3.003 3.003 0 0 0-3.003 3.003v11.057a3.003 3.003 0 0 0 3.003 3.003h79.294a3.003 3.003 0 0 0 3.002-3.003V62.74a3.003 3.003 0 0 0-3.002-3.002z"/><path class="cls-1" d="M71.735 45.045h4.74a.898.898 0 0 1 .899.898v1.925a.898.898 0 0 1-.898.899h-4.74a.899.899 0 0 1-.9-.9v-1.924a.898.898 0 0 1 .9-.898z"/><path class="cls-2" d="M76.374 46.045v1.721h-4.537v-1.721h4.537m.102-2h-4.74a1.899 1.899 0 0 0-1.9 1.898v1.925a1.899 1.899 0 0 0 1.9 1.898h4.74a1.899 1.899 0 0 0 1.898-1.898v-1.925a1.899 1.899 0 0 0-1.898-1.898z"/></svg>
