<svg id="Слой_1" data-name="Слой 1" xmlns="http://www.w3.org/2000/svg" viewBox="0 0 128 128"><defs><style>.cls-2,.cls-3,.cls-6,.cls-7{fill:none}.cls-2,.cls-3,.cls-7{stroke:#000}.cls-2,.cls-3,.cls-6,.cls-7{stroke-linecap:round}.cls-2,.cls-3{stroke-linejoin:round}.cls-2{stroke-width:3px}.cls-3,.cls-6,.cls-7{stroke-width:2px}.cls-6{stroke:#fc592a}.cls-6,.cls-7{stroke-miterlimit:10}</style></defs><path fill="none" d="M0 0h128v128H0z"/><path class="cls-2" d="M102.835 33.28v74.46h-32.32V78.52l1.202-2.802c-3.08-12.46-1.19-28.539-1.202-38.352V33.28z"/><path class="cls-2" d="M75.379 28.89h22.029v4.403H75.379zM86.393 18.061v10.278M109.44 107.739H24.243"/><path class="cls-3" d="M76.844 40.64h19.098M76.844 46.515h19.098M78.316 52.39h17.626M78.316 58.266h17.626M78.022 64.141h17.92M76.844 70.016h19.098M76.844 75.891h19.098M76.844 81.766h19.098M76.844 87.642h19.098M76.844 93.517h19.098M76.844 99.392h19.098"/><path d="M78.592 57.536a29.26 29.26 0 0 1-5.875 17.626l-2.202 2.764-21.299 26.612-23.5-29.44a29.376 29.376 0 1 1 52.876-17.562z" stroke="#fc592a" fill="#fff" stroke-width="3" stroke-linejoin="round" stroke-linecap="round"/><circle class="cls-2" cx="49.216" cy="57.536" r="19.098"/><path stroke="#fc592a" stroke-width="3" stroke-linejoin="round" stroke-linecap="round" fill="none" d="M49.216 62.72l5.453 2.867-1.05-6.067 4.416-4.301-6.093-.883-2.726-5.517-2.726 5.517-6.08.883 4.403 4.301-1.037 6.067 5.44-2.867z"/><path class="cls-2" d="M49.216 82.688v1.28M49.216 88.563v1.28M49.216 94.438v1.28"/><path class="cls-6" d="M109.286 14.63v-1.856M109.286 20.237v-1.869M113.126 16.499h-1.92M107.354 16.499h-1.92M14.566 27.43v-1.856M14.566 33.037v-1.869M18.406 29.299h-1.92M12.634 29.299h-1.92M93.926 114.47v-1.856M93.926 120.077v-1.869M97.766 116.339h-1.92M91.994 116.339h-1.92"/><path class="cls-7" d="M19.75 93.286l1.357-1.318M15.667 97.242l1.357-1.319M21.107 97.242l-1.357-1.319M17.024 93.286l-1.357-1.318M59.43 10.086l1.357-1.318M55.347 14.042l1.357-1.319M60.787 14.042l-1.357-1.319M56.704 10.086l-1.357-1.318"/><path d="M24.68 57.96A24.32 24.32 0 0 1 49 33.64" stroke="#fc592a" stroke-width="2" stroke-linejoin="round" stroke-linecap="round" fill="none"/></svg>
