<svg id="Слой_1" xmlns="http://www.w3.org/2000/svg" viewBox="0 0 128 128"><style>.st1,.st3{stroke-width:3}.st1{fill:none;stroke-linecap:round;stroke-miterlimit:10;stroke:#000}.st3{stroke:#fc592a;stroke-linejoin:round}.st3,.st4,.st5,.st6{fill:none;stroke-linecap:round}.st4{stroke-linejoin:round;stroke:#000;stroke-width:3}.st5,.st6{stroke:#fc592a;stroke-width:2;stroke-miterlimit:10}.st6{stroke:#000}</style><path fill="none" d="M0 0h128v128H0z"/><path class="st1" d="M94.1 118.4V18.6"/><path fill="none" stroke="#fc592a" stroke-width="3" stroke-linecap="round" stroke-miterlimit="10" d="M82.8 118.4V76.2"/><path class="st1" d="M77.1 72.9V19.2M51.2 118.4V50.6"/><path class="st3" d="M51.2 41.3V10.2"/><path class="st1" d="M77.1 18.8c0-4.7 3.7-8.5 8.4-8.5h.1M94.1 18.8c0-4.7-3.7-8.5-8.4-8.5h-.1M60.8 41.6c0 4.9-4 9-9 9M42.2 118.4V50.6M32.6 41.6c0 4.9 4 9 9 9"/><path class="st4" d="M60.8 41.2V10"/><path class="st3" d="M42.2 41.3V10.2"/><path class="st4" d="M32.6 41.4V10.3"/><path class="st5" d="M17.1 28.7v-1.8M17.1 34.3v-1.9M21 30.6h-2M15.2 30.6h-1.9M113.1 59.4v-1.8M113.1 65v-1.8M117 61.3h-2M111.2 61.3h-1.9M67 110.6v-1.8M67 116.2v-1.8M70.9 112.5H69M65.1 112.5h-1.9"/><path class="st6" d="M27.4 83l1.4-1.3M23.3 87l1.4-1.3M28.8 87l-1.4-1.3M24.7 83l-1.4-1.3M62 58.7l1.3-1.3M57.9 62.7l1.4-1.3M63.3 62.7L62 61.4M59.3 58.7l-1.4-1.3M81.4 19.6c0-2.8 2.3-5.1 5.1-5.1M81.4 23.1v2M81.4 29.1v1"/></svg>
