<svg id="Слой_1" xmlns="http://www.w3.org/2000/svg" viewBox="0 0 128 128"><style>.st0{stroke:#000;stroke-width:3;stroke-linejoin:round}.st0,.st1,.st2,.st4,.st5,.st7{fill:none;stroke-linecap:round}.st1{stroke:#f53;stroke-linejoin:round;stroke-width:3}.st2,.st4,.st5,.st7{stroke-width:2}.st2{stroke-linejoin:round;stroke:#000}.st4,.st5,.st7{stroke:#f53;stroke-miterlimit:10}.st5,.st7{stroke:#000}.st7{stroke-linejoin:round}</style><path class="st0" d="M52.6 120.5H22.5c-1.4 0-2.5-.9-2.8-2.3l-6.8-39.7c-.2-1.5.8-2.9 2.3-3.2h44.2c1.5 0 2.8 1.2 2.8 2.7v.5l-6.8 39.7c-.2 1.3-1.4 2.3-2.8 2.3z"/><path class="st1" d="M24 71.5c.1-7.4 6.2-13.3 13.5-13.2M51.1 71.5C51 64.2 45 58.3 37.6 58.3M68.6 97.9c0-7.3 8.7-13.2 19.3-13.2M107.4 97.9c0-7.3-8.7-13.2-19.3-13.2M68.6 97.9v16.9M107.4 97.9v16.9M68.6 114.8c0 3.1-3.5 6.6-7.7 6.6M107.4 114.8c0 3.1 3.5 6.6 7.7 6.6M101.5 103.5v11.3M101.5 114.8c0 3.1 3.5 6.6 7.7 6.6M95.7 103.5v11.3M95.7 114.8c0 3.1 3.5 6.6 7.7 6.6M89.9 103.5v11.3M89.9 114.8c0 3.1 3.5 6.6 7.7 6.6M74.4 103.5v11.3M74.4 114.8c0 3.1-3.5 6.6-7.7 6.6M80.2 103.5v11.3M80.2 114.8c0 3.1-3.5 6.6-7.7 6.6M86 103.5v11.3M86 114.8c0 3.1-3.5 6.6-7.7 6.6"/><path class="st0" d="M88 80.9V7.5"/><path class="st2" d="M25.8 115.6c-1.1 0-2-.8-2.2-1.8l-3.1-18.2M25.9 115.6h7.8"/><path d="M103.5 99.9c0-5.8-6.9-10.5-15.5-10.5" fill="none" stroke="#f53" stroke-width="2" stroke-linecap="round" stroke-linejoin="round"/><path class="st4" d="M117.4 55.5v-1.8M117.4 61.2v-1.9M121.3 57.4h-2M115.4 57.4h-1.9"/><path class="st5" d="M28.3 27.9l1.4-1.4M24.2 31.8l1.4-1.3M29.7 31.8l-1.4-1.3M25.6 27.9l-1.4-1.4M116.2 101.3l1.3-1.4M112 105.2l1.4-1.3M117.5 105.2l-1.3-1.3M113.4 101.3l-1.4-1.4"/><path class="st4" d="M70.9 8.5V6.6M70.9 14.1v-1.9M74.7 10.4h-1.9M68.9 10.4H67"/><path fill="none" d="M0 0h128v128H0z"/><path class="st4" d="M59.3 42v-1.9M59.3 47.7v-1.9M63.1 43.9h-1.9M57.3 43.9h-1.9"/><path class="st7" d="M37.2 115.6h2.6M42.9 115.6h.6"/></svg>
