<svg xmlns="http://www.w3.org/2000/svg" viewBox="0 0 597 545"><path d="M409.3 196.5l64.1-137.6-37.2-17.3L345 237.5h89.4V319h41V196.5h-66.1zm58.2 114.6h-25.3v-81.5h-84.9L440.1 52 463 62.7l-66 141.6h70.5v106.8zM344.7 318.9V67.7l-20.5-20.5h-93.3l-20.5 20.5V319h41V88.2h52.3V319h41zM243.6 80.3v230.8h-25.3V70.9L234.2 55H321l15.9 15.9V311h-25.3V80.3h-68zM144.2 359.2l331.2.3V331H144.2v28.2zm323.3-20.3v12.7l-315.5-.3v-12.5l315.5.1z"/><path d="M144.5 318.9h41V196.5h-66.1L195.7 32h279.7V4.8H163.8L55.1 237.5h89.4v81.4zm-77-89.3L168.8 12.7h298.7v11.4H190.6l-83.5 180.2h70.5V311h-25.3v-81.5H67.5z"/><path d="M452.6 66.5l-8.7-4-74.2 159.2h80.4v81.5h9.6v-91h-75zM319.5 303.2h9.5v-229l-11.3-11.3h-80.3l-11.3 11.3v229h9.6V72.5h83.8zM160.2 303.2h9.6v-91H94.9l87.4-188.1h-9.8L79.8 221.7h80.4zM69.5 525.1c0 2.5-.9 4.7-2.7 6.6-1.8 1.9-4 2.8-6.6 2.8s-4.8-.9-6.7-2.8c-1.9-1.9-2.8-4-2.8-6.6v-36.6c0-1.9-.4-3.7-1.1-5.3-.7-1.6-1.7-3.1-2.9-4.3-1.2-1.2-2.6-2.2-4.3-2.9-1.6-.7-3.4-1.1-5.3-1.1-1.8 0-3.6.4-5.3 1.1-1.7.7-3.1 1.7-4.3 2.9-1.2 1.2-2.2 2.6-2.9 4.3-.7 1.6-1.1 3.4-1.1 5.3v36.6c0 2.5-.9 4.7-2.7 6.6-1.8 1.9-4 2.8-6.6 2.8-2.6 0-4.8-.9-6.7-2.8-1.9-1.9-2.8-4-2.8-6.6v-56.5c0-2.5.9-4.7 2.8-6.6 1.9-1.9 4.1-2.8 6.7-2.8 2.6 0 4.8.9 6.6 2.8 1.8 1.9 2.7 4 2.7 6.6.8-.9 1.8-1.9 3.1-3s2.9-2.1 4.7-3c1.8-.9 3.9-1.7 6.2-2.3s5-1 7.9-1c3.3 0 6.4.6 9.3 1.7 2.9 1.1 5.5 2.7 7.7 4.7s3.9 4.4 5.2 7.2c1.3 2.8 1.9 5.9 1.9 9.4v42.8zM100 533.4c-4.6-1.9-8.6-4.5-11.9-7.9s-6-7.4-8-12.1c-1.9-4.7-2.9-9.9-2.9-15.6 0-5.7 1-10.9 2.9-15.6 1.9-4.7 4.6-8.8 8-12.1 3.4-3.4 7.4-6 11.9-7.9 4.6-1.9 9.5-2.8 14.7-2.8 5.3 0 10.2.9 14.8 2.8 4.6 1.9 8.6 4.5 11.9 7.9s6 7.4 8 12.1c1.9 4.7 2.9 9.9 2.9 15.6s-1 10.9-2.9 15.6c-1.9 4.7-4.6 8.8-8 12.1s-7.4 6-11.9 7.9c-4.6 1.9-9.5 2.8-14.8 2.8-5.2 0-10.1-1-14.7-2.8zm33.8-45.1c-1-3-2.3-5.6-4-7.9-1.7-2.3-3.9-4.1-6.4-5.5-2.6-1.3-5.4-2-8.6-2-3.2 0-6.1.7-8.6 2s-4.7 3.2-6.4 5.5c-1.8 2.3-3.1 4.9-4.1 7.9-1 3-1.4 6.1-1.4 9.4 0 3.3.5 6.4 1.4 9.5 1 3 2.3 5.7 4.1 7.9 1.8 2.2 3.9 4 6.4 5.4 2.5 1.3 5.4 2 8.6 2 3.2 0 6.1-.7 8.6-2 2.6-1.3 4.7-3.1 6.4-5.4 1.7-2.2 3.1-4.9 4-7.9 1-3 1.4-6.2 1.4-9.5 0-3.2-.5-6.4-1.4-9.4zM186.2 459.3v1.7h9.2c1.6 0 3 .6 4.2 1.8 1.2 1.2 1.8 2.6 1.8 4.2 0 1.7-.6 3.2-1.8 4.3-1.2 1.1-2.6 1.7-4.2 1.7h-9.2v52.2c0 2.5-.9 4.7-2.8 6.6-1.9 1.9-4 2.8-6.6 2.8-2.6 0-4.8-.9-6.7-2.8-1.9-1.9-2.8-4-2.8-6.6V473h-5.5c-1.6 0-3-.6-4.2-1.7-1.2-1.1-1.8-2.6-1.8-4.3 0-1.6.6-3 1.8-4.2s2.6-1.8 4.2-1.8h5.5v-16.2c0-2.6.9-4.8 2.8-6.6 1.9-1.8 4.1-2.7 6.7-2.7 2.5 0 4.7.9 6.6 2.7 1.9 1.8 2.8 4 2.8 6.6v14.5zM270.9 525.1c0 2.5-.9 4.7-2.8 6.6-1.9 1.9-4 2.8-6.6 2.8-2.6 0-4.8-.9-6.7-2.8-1.9-1.9-2.8-4-2.8-6.6V473h-5.5c-1.6 0-3-.6-4.2-1.7-1.2-1.1-1.8-2.6-1.8-4.3 0-1.6.6-3 1.8-4.2s2.6-1.8 4.2-1.8h5.5v-1.7c0-4.1.3-7.8 1-11.2.6-3.4 1.8-6.2 3.4-8.6 1.6-2.4 3.9-4.2 6.7-5.5 2.9-1.3 6.5-1.9 10.9-1.9 4.5 0 8.1.5 10.8 1.4 2.7 1 4.1 3 4.1 6.2 0 2.2-.5 4.1-1.6 5.5-1 1.4-3.1 2.1-6.1 2.1-3.7 0-6.4.8-8 2.5-1.6 1.7-2.5 4.8-2.5 9.4v1.7h9.2c1.6 0 3 .6 4.2 1.8 1.2 1.2 1.8 2.6 1.8 4.2 0 1.7-.6 3.2-1.8 4.3-1.2 1.1-2.6 1.7-4.2 1.7h-9.2l.2 52.2zM315.6 533.4c-4.6-1.9-8.6-4.5-11.9-7.9-3.4-3.4-6-7.4-8-12.1-1.9-4.7-2.9-9.9-2.9-15.6 0-5.7 1-10.9 2.9-15.6 1.9-4.7 4.6-8.8 8-12.1 3.4-3.4 7.4-6 11.9-7.9 4.6-1.9 9.5-2.8 14.7-2.8 5.3 0 10.2.9 14.8 2.8 4.6 1.9 8.6 4.5 11.9 7.9s6 7.4 8 12.1c1.9 4.7 2.9 9.9 2.9 15.6s-1 10.9-2.9 15.6c-1.9 4.7-4.6 8.8-8 12.1-3.4 3.4-7.4 6-11.9 7.9-4.6 1.9-9.5 2.8-14.8 2.8-5.3 0-10.1-1-14.7-2.8zm33.7-45.1c-1-3-2.3-5.6-4-7.9-1.7-2.3-3.9-4.1-6.4-5.5-2.6-1.3-5.4-2-8.6-2-3.2 0-6.1.7-8.6 2s-4.7 3.2-6.4 5.5c-1.8 2.3-3.1 4.9-4.1 7.9-1 3-1.4 6.1-1.4 9.4 0 3.3.5 6.4 1.4 9.5 1 3 2.3 5.7 4.1 7.9 1.8 2.2 3.9 4 6.4 5.4 2.5 1.3 5.4 2 8.6 2 3.2 0 6.1-.7 8.6-2 2.6-1.3 4.7-3.1 6.4-5.4 1.7-2.2 3.1-4.9 4-7.9 1-3 1.4-6.2 1.4-9.5 0-3.2-.4-6.4-1.4-9.4zM375.5 468.7c0-2.5.9-4.7 2.8-6.6 1.9-1.9 4.1-2.8 6.7-2.8 2.6 0 4.8.9 6.6 2.8 1.8 1.9 2.7 4 2.7 6.6v36.6c0 1.9.4 3.7 1.1 5.3.7 1.6 1.7 3.1 2.9 4.3 1.2 1.3 2.7 2.2 4.3 2.9 1.7.7 3.4 1 5.3 1s3.7-.3 5.3-1c1.6-.7 3.1-1.7 4.3-2.9 1.2-1.3 2.2-2.7 2.9-4.3.7-1.6 1.1-3.4 1.1-5.3v-36.6c0-2.5.9-4.7 2.8-6.6 1.9-1.9 4.1-2.8 6.7-2.8 2.6 0 4.8.9 6.6 2.8 1.8 1.9 2.7 4 2.7 6.6v56.5c0 2.5-.9 4.7-2.7 6.6-1.8 1.9-4 2.8-6.6 2.8-2.6 0-4.8-.9-6.6-2.8-1.8-1.9-2.7-4-2.7-6.6-.8 1-1.8 2-3.1 3-1.3 1.1-2.9 2.1-4.7 3-1.8.9-3.9 1.7-6.2 2.3-2.3.6-5 1-7.9 1-3.3 0-6.4-.5-9.3-1.6-2.9-1.1-5.5-2.6-7.7-4.7-2.2-2-4-4.5-5.3-7.3-1.3-2.8-1.9-5.9-1.9-9.4l-.1-42.8zM515.4 525.1c0 2.5-.9 4.7-2.7 6.6-1.8 1.9-4 2.8-6.6 2.8-2.6 0-4.8-.9-6.7-2.8-1.9-1.9-2.8-4-2.8-6.6v-36.6c0-1.9-.4-3.7-1.1-5.3-.7-1.6-1.7-3.1-2.9-4.3-1.2-1.2-2.6-2.2-4.3-2.9-1.6-.7-3.4-1.1-5.3-1.1-1.8 0-3.6.4-5.3 1.1-1.7.7-3.1 1.7-4.3 2.9-1.2 1.2-2.2 2.6-2.9 4.3-.7 1.6-1.1 3.4-1.1 5.3v36.6c0 2.5-.9 4.7-2.7 6.6-1.8 1.9-4 2.8-6.6 2.8s-4.8-.9-6.7-2.8c-1.9-1.9-2.8-4-2.8-6.6v-56.5c0-2.5.9-4.7 2.8-6.6 1.9-1.9 4.1-2.8 6.7-2.8 2.6 0 4.8.9 6.6 2.8 1.8 1.9 2.7 4 2.7 6.6.8-.9 1.8-1.9 3.1-3s2.9-2.1 4.7-3c1.8-.9 3.9-1.7 6.2-2.3 2.3-.6 5-1 7.9-1 3.3 0 6.4.6 9.3 1.7 2.9 1.1 5.5 2.7 7.7 4.7s3.9 4.4 5.2 7.2c1.3 2.8 1.9 5.9 1.9 9.4v42.8zM570.6 528c-1 1.1-2.2 2.1-3.8 3-1.6 1-3.6 1.8-6.1 2.4-2.5.6-5.6 1-9.3 1-4.3 0-8.2-.9-11.7-2.7-3.5-1.8-6.4-4.4-8.9-7.7s-4.4-7.3-5.7-11.9c-1.3-4.6-2-9.6-2-15.2 0-5.5.7-10.6 2-15.2s3.2-8.6 5.7-11.9c2.5-3.3 5.4-5.9 8.9-7.7 3.5-1.8 7.4-2.7 11.7-2.7 3.2 0 6 .5 8.4 1.4 2.4 1 4.5 2 6.2 3.2 1.7 1.2 3.1 2.2 4.2 3.2 1 1 1.8 1.4 2.3 1.4.4 0 .6-.6.6-1.7v-25.4c0-2.6.9-4.8 2.7-6.6 1.8-1.8 4-2.7 6.6-2.7 2.6 0 4.8.9 6.7 2.7 1.9 1.8 2.8 4 2.8 6.6v83.7c0 2.5-.9 4.7-2.8 6.6-1.9 1.9-4.1 2.8-6.7 2.8-2.6 0-4.8-.9-6.6-2.8-1.8-1.9-2.7-4-2.7-6.6-.7.8-1.6 1.8-2.5 2.8zm-25.9-47.4c-3.1 4-4.6 9.4-4.6 16.4 0 6.8 1.5 12.2 4.6 16.2 3.1 4 7.3 6 12.8 6s9.7-2 12.8-6c3.1-4 4.6-9.4 4.6-16.2 0-6.9-1.5-12.4-4.6-16.4-3.1-4-7.3-6-12.8-6s-9.7 2-12.8 6z"/></svg>
