<svg xmlns="http://www.w3.org/2000/svg" viewBox="310 -1953 136 40"><defs><style>.cls-3{fill:#28b655}.cls-5{fill:#121212}</style><clipPath id="clip-path"><path id="_version_:_1.5.0_viewSource_:_x_:_0_y_:_0_width_:_1029.83_height_:_304.7_resources_:_clipPaths_:_filters_:_" data-name="{	&quot;version&quot;: &quot;1.5.0&quot;,	&quot;viewSource&quot;: { &quot;x&quot;: 0, &quot;y&quot;: 0, &quot;width&quot;: 1029.83, &quot;height&quot;: 304.7	},	&quot;resources&quot;: { &quot;clipPaths&quot;: {}, &quot;filters&quot;:" transform="translate(376 24)" fill="#95989a" stroke="#95989a" d="M0 0h136v40H0z"/></clipPath></defs><g id="Mask_Group_1" data-name="Mask Group 1" transform="translate(-66 -1977)" clip-path="url(#clip-path)"><g id="logo-mitoc" transform="translate(376.405 24)"><path id="Path_6158" data-name="Path 6158" class="cls-3" d="M0 0h15.7v39.974H0z"/><path id="Path_6136" data-name="Path 6136" class="cls-3" d="M0 0h15.7v39.974H0z" transform="translate(33.594)"/><path id="Path_1" data-name="Path 1" d="M0 0h15.688l8.953 15.162L33.594 0h15.687l-24.64 40z" fill="#7ed257"/><path id="Path_2" data-name="Path 2" class="cls-5" d="M80.672 15.483a.764.764 0 0 1 .977-.407.713.713 0 0 1 .448.773v12.077a.773.773 0 0 1-1.545 0v-9.555l-4.272 6.712a.822.822 0 0 1-1.058.407.788.788 0 0 1-.407-.407l-4.231-6.671v9.518a.773.773 0 0 1-1.545 0V15.853a.734.734 0 0 1 .656-.814.765.765 0 0 1 .773.448l5.12 7.972z" transform="translate(-11.093 -11.148)"/><path id="Path_3" data-name="Path 3" class="cls-5" d="M86.977 15.442a.773.773 0 0 1 1.545 0v12.61a.773.773 0 0 1-1.545 0z" transform="translate(-11.093 -11.148)"/><path id="Path_4" data-name="Path 4" class="cls-5" d="M102.8 15.117a.733.733 0 1 1 0 1.464h-4.677V27.97a.772.772 0 0 1-.773.773h-.041a.788.788 0 0 1-.773-.733V16.58h-4.678a.733.733 0 1 1 0-1.464z" transform="translate(-11.093 -11.148)"/><path id="Path_5" data-name="Path 5" class="cls-5" d="M105.2 21.583a6.553 6.553 0 0 1 5.573-6.631 10.284 10.284 0 0 1 2.232 0 6.7 6.7 0 0 1 5.735 6.631 6.746 6.746 0 0 1-6.387 7.119h-.366c-3.777.048-6.787-2.644-6.787-7.119zm1.545.081c0 3.458 2.278 5.613 5.251 5.613s5.166-2.115 5.166-5.613a5.251 5.251 0 0 0-4.353-5.251 6.9 6.9 0 0 0-1.83 0 4.956 4.956 0 0 0-4.231 5.251z" transform="translate(-11.093 -11.148)"/><path id="Path_6" data-name="Path 6" class="cls-5" d="M132.129 27.97a8.449 8.449 0 0 1-3.132.78 6.945 6.945 0 0 1-6.834-7.038v-.082a6.67 6.67 0 0 1 5.7-6.677 6.887 6.887 0 0 1 6.3 2.033.707.707 0 0 1-1.058.936 5.4 5.4 0 0 0-4.922-1.545 4.945 4.945 0 0 0-4.394 5.251 5.487 5.487 0 0 0 5.329 5.613h.041a5.168 5.168 0 0 0 2.44-.61 4.789 4.789 0 0 0 1.707-1.424c.488-.733 1.749.081 1.221.855a6.048 6.048 0 0 1-2.4 1.907z" transform="translate(-11.093 -11.148)"/><path id="Path_7" data-name="Path 7" class="cls-5" d="M81.04 45.852a6.754 6.754 0 0 1-12-4.474 6.958 6.958 0 0 1 5.613-6.712 9.254 9.254 0 0 1 1.058-.081 6.476 6.476 0 0 1 4.922 1.993c.61.733-.448 1.749-1.058.977a4.857 4.857 0 0 0-4.718-1.465 5.484 5.484 0 0 0 .813 10.821 5.17 5.17 0 0 0 4.109-1.871v-2.808h-3.784a.692.692 0 1 1 0-1.384h4.433c.61 0 .814.326.814.773v3.5a.919.919 0 0 1-.2.733z" transform="translate(-11.093 -11.148)"/><path id="Path_8" data-name="Path 8" class="cls-5" d="M87.506 43.493v4.07a.773.773 0 0 1-1.545 0V35.521a.7.7 0 0 1 .692-.733H91.7c3.621 0 5.491 2.115 5.491 4.515 0 2.115-1.139 3.661-3.743 4.109l3.413 3.661a.748.748 0 1 1-1.061 1.058l-4.19-4.595zm0-1.343H91.7c2.766 0 3.946-1.262 3.905-2.847s-1.465-3.132-3.905-3.132h-4.19z" transform="translate(-11.093 -11.148)"/><path id="Path_9" data-name="Path 9" class="cls-5" d="M100.689 41.256a6.553 6.553 0 0 1 5.573-6.631 10.285 10.285 0 0 1 2.232 0 6.938 6.938 0 0 1-.656 13.749h-.366c-3.772.041-6.783-2.644-6.783-7.118zm1.545.081c0 3.458 2.278 5.613 5.251 5.613s5.166-2.115 5.166-5.613a5.251 5.251 0 0 0-4.353-5.251 6.9 6.9 0 0 0-1.83 0 4.956 4.956 0 0 0-4.231 5.251z" transform="translate(-11.093 -11.148)"/><path id="Path_10" data-name="Path 10" class="cls-5" d="M129.2 35.358a.772.772 0 0 1 .773-.773.8.8 0 0 1 .773.773v6.913a6.183 6.183 0 1 1-12.366 0v-6.913c0-.936 1.586-.936 1.586 0v6.874c0 6.061 9.234 6.061 9.234 0z" transform="translate(-11.093 -11.148)"/><path id="Path_11" data-name="Path 11" class="cls-5" d="M137.133 44.226V47.6a.772.772 0 0 1-.773.773.748.748 0 0 1-.773-.773V35.523a.739.739 0 0 1 .773-.733h4.595c3.621 0 5.329 2.4 5.329 4.84s-1.707 4.595-5.41 4.595zm0-1.384h3.743c2.807 0 3.946-1.627 3.905-3.214a3.56 3.56 0 0 0-3.7-3.458h-3.946z" transform="translate(-11.093 -11.148)"/></g></g></svg>
