<?xml version="1.0" encoding="utf-8"?>
<!-- Generator: Adobe Illustrator 21.1.0, SVG Export Plug-In . SVG Version: 6.00 Build 0)  -->
<svg version="1.1" id="Слой_1" xmlns="http://www.w3.org/2000/svg" xmlns:xlink="http://www.w3.org/1999/xlink" x="0px" y="0px"
	 viewBox="0 0 128 128" style="enable-background:new 0 0 128 128;" xml:space="preserve">
<style type="text/css">
	.st0{fill:none;}
	.st1{fill:none;stroke:#000000;stroke-width:3;stroke-linecap:round;stroke-miterlimit:10;}
	.st2{fill:none;stroke:#FC592A;stroke-width:3;stroke-linecap:round;stroke-miterlimit:10;}
	.st3{fill:none;stroke:#FC592A;stroke-width:3;stroke-linecap:round;stroke-linejoin:round;}
	.st4{fill:none;stroke:#000000;stroke-width:3;stroke-linecap:round;stroke-linejoin:round;}
	.st5{fill:none;stroke:#FC592A;stroke-width:2;stroke-linecap:round;stroke-miterlimit:10;}
	.st6{fill:none;stroke:#000000;stroke-width:2;stroke-linecap:round;stroke-miterlimit:10;}
</style>
<title>icon-3</title>
<rect class="st0" width="128" height="128"/>
<line class="st1" x1="94.1" y1="118.4" x2="94.1" y2="18.6"/>
<line class="st2" x1="82.8" y1="118.4" x2="82.8" y2="76.2"/>
<line class="st1" x1="77.1" y1="72.9" x2="77.1" y2="19.2"/>
<line class="st1" x1="51.2" y1="118.4" x2="51.2" y2="50.6"/>
<line class="st3" x1="51.2" y1="41.3" x2="51.2" y2="10.2"/>
<path class="st1" d="M77.1,18.8c0-4.7,3.7-8.5,8.4-8.5l0,0c0,0,0.1,0,0.1,0"/>
<path class="st1" d="M94.1,18.8c0-4.7-3.7-8.5-8.4-8.5c0,0,0,0,0,0c0,0,0,0-0.1,0"/>
<path class="st1" d="M60.8,41.6c0,4.9-4,9-9,9"/>
<line class="st1" x1="42.2" y1="118.4" x2="42.2" y2="50.6"/>
<path class="st1" d="M32.6,41.6c0,4.9,4,9,9,9"/>
<line class="st4" x1="60.8" y1="41.2" x2="60.8" y2="10"/>
<line class="st3" x1="42.2" y1="41.3" x2="42.2" y2="10.2"/>
<line class="st4" x1="32.6" y1="41.4" x2="32.6" y2="10.3"/>
<line class="st5" x1="17.1" y1="28.7" x2="17.1" y2="26.9"/>
<line class="st5" x1="17.1" y1="34.3" x2="17.1" y2="32.4"/>
<line class="st5" x1="21" y1="30.6" x2="19" y2="30.6"/>
<line class="st5" x1="15.2" y1="30.6" x2="13.3" y2="30.6"/>
<line class="st5" x1="113.1" y1="59.4" x2="113.1" y2="57.6"/>
<line class="st5" x1="113.1" y1="65" x2="113.1" y2="63.2"/>
<line class="st5" x1="117" y1="61.3" x2="115" y2="61.3"/>
<line class="st5" x1="111.2" y1="61.3" x2="109.3" y2="61.3"/>
<line class="st5" x1="67" y1="110.6" x2="67" y2="108.8"/>
<line class="st5" x1="67" y1="116.2" x2="67" y2="114.4"/>
<line class="st5" x1="70.9" y1="112.5" x2="69" y2="112.5"/>
<line class="st5" x1="65.1" y1="112.5" x2="63.2" y2="112.5"/>
<line class="st6" x1="27.4" y1="83" x2="28.8" y2="81.7"/>
<line class="st6" x1="23.3" y1="87" x2="24.7" y2="85.7"/>
<line class="st6" x1="28.8" y1="87" x2="27.4" y2="85.7"/>
<line class="st6" x1="24.7" y1="83" x2="23.3" y2="81.7"/>
<line class="st6" x1="62" y1="58.7" x2="63.3" y2="57.4"/>
<line class="st6" x1="57.9" y1="62.7" x2="59.3" y2="61.4"/>
<line class="st6" x1="63.3" y1="62.7" x2="62" y2="61.4"/>
<line class="st6" x1="59.3" y1="58.7" x2="57.9" y2="57.4"/>
<path class="st6" d="M81.4,19.6c0-2.8,2.3-5.1,5.1-5.1l0,0"/>
<line class="st6" x1="81.4" y1="23.1" x2="81.4" y2="25.1"/>
<line class="st6" x1="81.4" y1="29.1" x2="81.4" y2="30.1"/>
</svg>
