<svg id="Слой_1" data-name="Слой 1" xmlns="http://www.w3.org/2000/svg" viewBox="0 0 128 128"><defs><style>.cls-1,.cls-4,.cls-6,.cls-7,.cls-8{fill:none;}.cls-2,.cls-3{fill:#fff;}.cls-2,.cls-4,.cls-7,.cls-8{stroke:#000;}.cls-2,.cls-3,.cls-4,.cls-6,.cls-7,.cls-8{stroke-linecap:round;}.cls-2,.cls-3,.cls-4,.cls-8{stroke-linejoin:round;}.cls-2,.cls-3,.cls-4{stroke-width:3px;}.cls-3,.cls-6{stroke:#fc592a;}.cls-5{fill:#fc592a;}.cls-6,.cls-7{stroke-miterlimit:10;}.cls-6,.cls-7,.cls-8{stroke-width:2px;}</style></defs><title>icon-7</title><rect class="cls-1" width="128" height="128"/><path class="cls-2" d="M109.44,26.6112v77.7216a5.952,5.952,0,0,1-5.952,5.952H24.512a5.952,5.952,0,0,1-5.952-5.952h0V26.6112H35.2l1-.184h8.6528l-1,.184H84.1984v-.184h8.6528v.184Z"/><rect class="cls-3" x="35.1488" y="15.7952" width="8.6528" height="21.632"/><rect class="cls-3" x="84.1984" y="15.7952" width="8.6528" height="21.632"/><rect class="cls-4" x="32.9856" y="58.0736" width="62.02879" height="39.5136"/><line class="cls-4" x1="19.9168" y1="47.0928" x2="109.3632" y2="47.0928"/><line class="cls-4" x1="58.2272" y1="37.44" x2="55.3472" y2="37.44"/><line class="cls-4" x1="65.4464" y1="37.44" x2="62.5536" y2="37.44"/><line class="cls-4" x1="72.6528" y1="37.44" x2="69.7728" y2="37.44"/><path class="cls-5" d="M57.0597,68.9375a7.03324,7.03324,0,0,1,2.34375.37A5.364,5.364,0,0,1,61.189,70.335a4.51192,4.51192,0,0,1,1.13625,1.5375,4.62052,4.62052,0,0,1,.39562,1.91,5.58,5.58,0,0,1-.20125,1.5775,3.66105,3.66105,0,0,1-.58437,1.1875,3.55792,3.55792,0,0,1-.935.8575,5.79672,5.79672,0,0,1-1.25312.585,4.90047,4.90047,0,0,1,2.51938,1.6225,4.39221,4.39221,0,0,1,.83125,2.74,5.64293,5.64293,0,0,1-.51937,2.48,5.35054,5.35054,0,0,1-1.4025,1.81248,6.16957,6.16957,0,0,1-2.045,1.11,7.96916,7.96916,0,0,1-2.46125.375,8.44567,8.44567,0,0,1-2.46688-.32256,5.36487,5.36487,0,0,1-1.83125-.96256,5.77163,5.77163,0,0,1-1.32438-1.5575,10.50332,10.50332,0,0,1-.935-2.13l1.41568-.585a1.8825,1.8825,0,0,1,.74-.155,1.25923,1.25923,0,0,1,.60375.1425.98219.98219,0,0,1,.40937.415c.15562.3025.32625.6025.5125.8975a3.703,3.703,0,0,0,.66875.785,3.16451,3.16451,0,0,0,.91562.5575,3.3197,3.3197,0,0,0,1.25312.215,3.54579,3.54579,0,0,0,1.42812-.26752,3.069,3.069,0,0,0,1.01938-.69248,2.87222,2.87222,0,0,0,.61062-.955,2.933,2.933,0,0,0,.20125-1.06,4.86019,4.86019,0,0,0-.14313-1.225,1.81536,1.81536,0,0,0-.59687-.9425,3.247,3.247,0,0,0-1.305-.61,9.40643,9.40643,0,0,0-2.27938-.22v-2.3a7.70457,7.70457,0,0,0,1.96125-.2075,3.312,3.312,0,0,0,1.24-.5775,1.95989,1.95989,0,0,0,.64256-.89,3.43321,3.43321,0,0,0,.18187-1.1425,2.63971,2.63971,0,0,0-.727-2.02,2.79827,2.79827,0,0,0-1.98688-.68,2.93482,2.93482,0,0,0-1.89625.6025,3.15335,3.15335,0,0,0-1.05188,1.55,1.417,1.417,0,0,1-.42812.7075,1.12472,1.12472,0,0,1-.71438.21248,2.78527,2.78527,0,0,1-.44125-.0375l-1.68813-.295a6.954,6.954,0,0,1,.75312-2.37,5.68668,5.68668,0,0,1,1.39562-1.7025,5.82862,5.82862,0,0,1,1.92187-1.025A7.649,7.649,0,0,1,57.0597,68.9375Z"/><path class="cls-5" d="M67.49907,85.52h3.805V74.575c0-.425.0125-.87.03875-1.3375L68.64157,75.495a.92457.92457,0,0,1-.34375.195,1.19019,1.19019,0,0,1-.34375.05248,1.029,1.029,0,0,1-.47375-.11.87534.87534,0,0,1-.31872-.2525l-1.01248-1.39,5.7262-4.87h2.63625v16.4h3.37625v2.40256H67.49907Z"/><line class="cls-6" x1="14.5664" y1="10.7904" x2="14.5664" y2="8.9344"/><line class="cls-6" x1="14.5664" y1="16.3968" x2="14.5664" y2="14.528"/><line class="cls-6" x1="18.4064" y1="12.6592" x2="16.4864" y2="12.6592"/><line class="cls-6" x1="12.6336" y1="12.6592" x2="10.7136" y2="12.6592"/><line class="cls-6" x1="119.5264" y1="91.4304" x2="119.5264" y2="89.5744"/><line class="cls-6" x1="119.5264" y1="97.0368" x2="119.5264" y2="95.168"/><line class="cls-6" x1="123.3664" y1="93.2992" x2="121.4464" y2="93.2992"/><line class="cls-6" x1="117.5936" y1="93.2992" x2="115.6736" y2="93.2992"/><line class="cls-6" x1="32.4864" y1="117.0304" x2="32.4864" y2="115.1744"/><line class="cls-6" x1="32.4864" y1="122.6368" x2="32.4864" y2="120.768"/><line class="cls-6" x1="36.3264" y1="118.8992" x2="34.4064" y2="118.8992"/><line class="cls-6" x1="30.5536" y1="118.8992" x2="28.6336" y2="118.8992"/><line class="cls-7" x1="8.9504" y1="71.5264" x2="10.3072" y2="70.208"/><line class="cls-7" x1="4.8672" y1="75.4816" x2="6.224" y2="74.1632"/><line class="cls-7" x1="10.3072" y1="75.4816" x2="8.9504" y2="74.1632"/><line class="cls-7" x1="6.224" y1="71.5264" x2="4.8672" y2="70.208"/><line class="cls-7" x1="81.1904" y1="4.9664" x2="82.5472" y2="3.648"/><line class="cls-7" x1="77.1072" y1="8.9216" x2="78.464" y2="7.6032"/><line class="cls-7" x1="82.5472" y1="8.9216" x2="81.1904" y2="7.6032"/><line class="cls-7" x1="78.464" y1="4.9664" x2="77.1072" y2="3.648"/><line class="cls-8" x1="23.56" y1="100.48" x2="23.56" y2="68.48"/><line class="cls-8" x1="28.68" y1="105.6" x2="40.2" y2="105.6"/><path class="cls-8" d="M23.56,100.48c0,5.12,0,5.12,5.12,5.12"/><line class="cls-8" x1="43.4" y1="105.6" x2="45.96" y2="105.6"/><line class="cls-8" x1="49.16" y1="105.6" x2="50.44" y2="105.6"/><line class="cls-8" x1="104.16" y1="42.24" x2="79.84" y2="42.24"/></svg>