<?xml version="1.0" encoding="utf-8"?>
<!-- Generator: Adobe Illustrator 21.1.0, SVG Export Plug-In . SVG Version: 6.00 Build 0)  -->
<svg version="1.1" id="Слой_1" xmlns="http://www.w3.org/2000/svg" xmlns:xlink="http://www.w3.org/1999/xlink" x="0px" y="0px"
	 viewBox="0 0 128 128" style="enable-background:new 0 0 128 128;" xml:space="preserve">
<style type="text/css">
	.st0{fill:none;}
	.st1{fill:none;stroke:#000000;stroke-width:2;stroke-linecap:round;stroke-miterlimit:10;}
	.st2{fill:none;stroke:#FC592A;stroke-width:2;stroke-linecap:round;stroke-miterlimit:10;}
	.st3{fill:none;stroke:#000000;stroke-width:3;stroke-linecap:round;stroke-linejoin:round;}
	.st4{fill:#FFFFFF;stroke:#FC592A;stroke-width:3;stroke-linecap:round;stroke-linejoin:round;stroke-miterlimit:10;}
	.st5{fill:none;stroke:#FC592A;stroke-width:2;stroke-linecap:round;stroke-linejoin:round;}
	.st6{fill:none;stroke:#000000;stroke-width:2;stroke-linecap:round;stroke-linejoin:round;}
</style>
<title>icon-5</title>
<rect class="st0" width="128" height="128"/>
<g>
	<line class="st1" x1="26.7" y1="14.1" x2="28" y2="12.8"/>
	<line class="st1" x1="22.6" y1="18.1" x2="24" y2="16.7"/>
	<line class="st1" x1="28" y1="18.1" x2="26.7" y2="16.7"/>
	<line class="st1" x1="24" y1="14.1" x2="22.6" y2="12.8"/>
</g>
<g>
	<line class="st2" x1="113.7" y1="23.7" x2="113.7" y2="21.8"/>
	<line class="st2" x1="113.7" y1="29.3" x2="113.7" y2="27.4"/>
	<line class="st2" x1="117.6" y1="25.6" x2="115.6" y2="25.6"/>
	<line class="st2" x1="111.8" y1="25.6" x2="109.9" y2="25.6"/>
</g>
<g>
	<line class="st1" x1="102.8" y1="76.3" x2="104.2" y2="75"/>
	<line class="st1" x1="98.8" y1="80.3" x2="100.1" y2="79"/>
	<line class="st1" x1="104.2" y1="80.3" x2="102.8" y2="79"/>
	<line class="st1" x1="100.1" y1="76.3" x2="98.8" y2="75"/>
</g>
<g>
	<line class="st2" x1="14.7" y1="64.1" x2="14.7" y2="62.1"/>
	<line class="st2" x1="14.7" y1="69.6" x2="14.7" y2="67.8"/>
	<line class="st2" x1="18.6" y1="65.8" x2="16.6" y2="65.8"/>
	<line class="st2" x1="12.8" y1="65.8" x2="10.9" y2="65.8"/>
</g>
<g>
	<line class="st2" x1="31.2" y1="107.1" x2="31.2" y2="105.2"/>
	<line class="st2" x1="31.2" y1="112.7" x2="31.2" y2="110.8"/>
	<line class="st2" x1="35" y1="108.9" x2="33.1" y2="108.9"/>
	<line class="st2" x1="29.3" y1="108.9" x2="27.4" y2="108.9"/>
</g>
<g>
	<g>
		<polygon class="st3" points="82.2,105.6 45.8,105.6 38.6,38.3 89.4,38.3 		"/>
		<polygon class="st4" points="94,31.7 93.1,39.2 34.9,39.2 34,31.7 42.2,31.7 44,22.4 84,22.4 85.8,31.7 		"/>
	</g>
	<g>
		<path class="st3" d="M59.8,80.3c0,1.2,0.2,2.5,0.5,3.7C56,82.1,53,76.1,53,69c0-8.5,4.4-15.4,10-15.6c0.2,1.2,0.4,2.3,0.4,3.5
			C63.4,64.7,59.8,72.5,59.8,80.3z"/>
		<path class="st3" d="M75,69c0,8.1-4.1,14.8-9.2,15.5c-0.4-1.5-0.6-3.1-0.6-4.6c0-7.7,3.6-15.3,3.6-23c0-0.8-0.1-1.7-0.2-2.5
			C72.3,56.8,75,62.4,75,69z"/>
	</g>
	<g>
		<line class="st5" x1="56.9" y1="31.7" x2="64" y2="31.7"/>
		<line class="st5" x1="67.5" y1="31.7" x2="71.1" y2="31.7"/>
	</g>
</g>
<line class="st6" x1="48.2" y1="82.4" x2="50.2" y2="100.8"/>
<line class="st6" x1="50.2" y1="100.8" x2="59.9" y2="100.8"/>
<line class="st6" x1="63.2" y1="100.8" x2="65.4" y2="100.8"/>
<line class="st6" x1="68.6" y1="100.8" x2="68.9" y2="100.8"/>
</svg>
