<svg id="Слой_1" data-name="Слой 1" xmlns="http://www.w3.org/2000/svg" viewBox="0 0 128 128"><defs><style>.cls-2,.cls-3,.cls-4,.cls-6,.cls-7{fill:none}.cls-2,.cls-4,.cls-6{stroke:#000}.cls-2,.cls-3,.cls-4,.cls-6,.cls-7{stroke-linecap:round}.cls-2,.cls-3,.cls-4{stroke-linejoin:bevel}.cls-2,.cls-3{stroke-width:3px}.cls-3,.cls-7{stroke:#fc592a}.cls-4,.cls-6,.cls-7{stroke-width:2px}.cls-6,.cls-7{stroke-miterlimit:10}.cls-8{fill:#fff}</style></defs><path fill="none" d="M0 0h128v128H0z"/><path class="cls-2" d="M47.027 49.984c0-5.722 7.949-10.368 17.767-10.368M82.547 49.984c0-5.722-7.949-10.368-17.766-10.368"/><path class="cls-3" d="M9.28 50v28.122M20.378 91.446h14.809M24.819 104.029v-11.84M47.021 66.266h19.245"/><path class="cls-2" d="M49.242 106.24l-8.871-20.723M24.077 85.517h16.294M15.206 51.469v26.649"/><path class="cls-3" d="M23.347 70.723H10.022"/><path class="cls-2" d="M32.96 73.677h11.853M58.125 103.283l-8.883-26.649M32.96 66.266v7.411M27.802 59.085l10.342 7.181M52.211 57.395h-11.84M31.488 48.512l8.883 8.883"/><path class="cls-3" d="M24.819 104.029l3.328 2.957M35.93 106.986h-7.412M24.819 104.029l-3.328 2.957M13.722 106.986h7.398M9.28 78.122c0 7.36 5.3 13.324 11.84 13.324"/><path class="cls-2" d="M15.206 78.08c0 4.096 3.968 7.398 8.884 7.398M49.242 76.634c-.602-2.394-1.984-2.957-4.442-2.957"/><path class="cls-3" d="M26.304 75.165c0-2.458-1.28-4.442-2.957-4.442"/><path class="cls-2" d="M15.206 51.469c0-7.399 10.368-10.368 16.282-2.957M52.211 57.395c0 7.399-2.65 8.883-5.926 8.883M58.125 103.283c.742 2.957-5.12 4.442-8.883 2.957"/><path class="cls-3" d="M118.08 50v28.122M106.982 91.446H92.173M102.541 104.029v-11.84M80.301 66.266H61.094"/><path class="cls-2" d="M78.118 106.24l8.871-20.723M103.283 85.517H86.989M112.154 51.469v26.649"/><path class="cls-3" d="M104.013 70.723h13.325"/><path class="cls-2" d="M94.4 73.677H82.547M69.235 103.283l8.883-26.649M94.4 66.266v7.411M99.558 59.085l-10.342 7.181M75.149 57.395h11.84M95.872 48.512l-8.883 8.883"/><path class="cls-3" d="M102.541 104.029l-3.328 2.957M91.43 106.986h7.412M102.541 104.029l3.328 2.957M113.638 106.986h-7.398M118.08 78.122c0 7.36-5.3 13.324-11.84 13.324"/><path class="cls-2" d="M112.154 78.08c0 4.096-3.968 7.398-8.884 7.398M78.08 76.634c1.28-2.394 1.984-2.957 4.442-2.957"/><path class="cls-3" d="M101.12 75.165c0-2.458 1.28-4.442 2.957-4.442"/><path class="cls-2" d="M112.154 51.469c0-7.399-10.368-10.368-16.282-2.957M75.149 57.395c0 7.399 2.65 8.883 5.926 8.883M69.235 103.283c-.742 2.957 5.171 4.429 8.845 2.957M47.027 49.984v2.97M82.547 49.984v2.97M32.96 66.266h12.8M81.6 66.266h12.8"/><path class="cls-6" d="M47.91 10.086l1.357-1.318M43.827 14.042l1.357-1.319M49.267 14.042l-1.357-1.319M45.184 10.086l-1.357-1.318"/><path class="cls-7" d="M87.526 15.91v-1.856M87.526 21.517v-1.869M91.366 17.779h-1.92M85.594 17.779h-1.92"/><path class="cls-6" d="M91.43 118.886l1.357-1.318M87.347 122.842l1.357-1.319M92.787 122.842l-1.357-1.319M88.704 118.886l-1.357-1.318"/><path class="cls-7" d="M44.006 35.11v-1.856M44.006 40.717v-1.869M47.846 36.979h-1.92M42.074 36.979h-1.92M44.006 111.91v-1.856M44.006 117.517v-1.869M47.846 113.779h-1.92M42.074 113.779h-1.92"/><circle class="cls-8" cx="64.819" cy="27.046" r="6.641"/><path d="M64.82 21.906a5.14 5.14 0 1 1-5.142 5.14 5.147 5.147 0 0 1 5.141-5.14m0-3a8.14 8.14 0 1 0 8.141 8.14 8.14 8.14 0 0 0-8.14-8.14z"/><circle class="cls-8" cx="101.734" cy="32.96" r="8.125"/><path d="M101.734 26.334a6.625 6.625 0 1 1-6.625 6.626 6.633 6.633 0 0 1 6.625-6.626m0-3a9.625 9.625 0 1 0 9.626 9.626 9.625 9.625 0 0 0-9.626-9.626z"/><circle class="cls-8" cx="25.6" cy="32.973" r="8.125"/><path d="M25.6 26.347a6.625 6.625 0 1 1-6.625 6.626 6.633 6.633 0 0 1 6.625-6.626m0-3a9.625 9.625 0 1 0 9.625 9.626 9.625 9.625 0 0 0-9.625-9.626z"/></svg>
