<?xml version="1.0" encoding="utf-8"?>
<!-- Generator: Adobe Illustrator 21.1.0, SVG Export Plug-In . SVG Version: 6.00 Build 0)  -->
<svg version="1.1" id="Layer_1" xmlns="http://www.w3.org/2000/svg" xmlns:xlink="http://www.w3.org/1999/xlink" x="0px" y="0px"
	 viewBox="0 0 128 128" style="enable-background:new 0 0 128 128;" xml:space="preserve">
<style type="text/css">
	.st0{fill:#FFFFFF;}
	.st1{fill:#FFFFFF;stroke:#FF5533;stroke-width:3;stroke-linecap:round;stroke-linejoin:round;}
	.st2{fill:none;stroke:#000000;stroke-width:3;stroke-linecap:round;stroke-linejoin:round;}
	.st3{fill:none;stroke:#FF5533;stroke-width:3;stroke-linecap:round;stroke-linejoin:round;}
	.st4{fill:none;stroke:#FC592A;stroke-width:2;stroke-linecap:round;stroke-miterlimit:10;}
	.st5{fill:none;stroke:#000000;stroke-width:2;stroke-linecap:round;stroke-miterlimit:10;}
	.st6{fill:none;stroke:#000000;stroke-width:2;stroke-linecap:round;stroke-linejoin:round;}
</style>
<title>icon-10</title>
<path class="st0" d="M0,0v128h128V0H0z"/>
<path class="st1" d="M25.7,45.1c15.3-13.3,23-3.3,14.2,13.3c-5.5,10.5-16.4,15.5-14.2,15.5h23"/>
<path class="st1" d="M60.7,38.5c-7.7,6.6-15.3,17.7-11,17.7h12.9"/>
<path class="st1" d="M76,39.6c-5.9,11.1-10,23-12,35.4"/>
<line class="st2" x1="90.2" y1="36.2" x2="57.4" y2="103.7"/>
<path class="st3" d="M86.9,58.4c4.4,0,10.4-0.8,15.3,0c4.3,0.7-3.3,15.5-12,31"/>
<line class="st3" x1="92.2" y1="75" x2="85.6" y2="75"/>
<line class="st3" x1="103.5" y1="75" x2="109" y2="75"/>
<path class="st2" d="M16.9,41.8C31.1,14.1,65,5.1,88,17.4c18.6,10,29.5,34.1,26.2,54"/>
<path class="st2" d="M14.7,48.8c-8.2,27.1,6.2,53.4,31.7,62.7c26.7,9.7,57.3-5.1,66.7-33.2"/>
<line class="st4" x1="114.8" y1="10.2" x2="114.8" y2="8.3"/>
<line class="st4" x1="114.8" y1="15.8" x2="114.8" y2="13.9"/>
<line class="st4" x1="118.7" y1="12" x2="116.8" y2="12"/>
<line class="st4" x1="112.9" y1="12" x2="111" y2="12"/>
<line class="st4" x1="39.9" y1="94.8" x2="39.9" y2="92.9"/>
<line class="st4" x1="39.9" y1="100.4" x2="39.9" y2="98.5"/>
<line class="st4" x1="43.8" y1="96.6" x2="41.9" y2="96.6"/>
<line class="st4" x1="38" y1="96.6" x2="36.1" y2="96.6"/>
<line class="st4" x1="106.2" y1="112.6" x2="106.2" y2="110.7"/>
<line class="st4" x1="106.2" y1="118.2" x2="106.2" y2="116.3"/>
<line class="st4" x1="110.1" y1="114.4" x2="108.2" y2="114.4"/>
<line class="st4" x1="104.3" y1="114.4" x2="102.4" y2="114.4"/>
<line class="st5" x1="22" y1="18.1" x2="23.3" y2="16.8"/>
<line class="st5" x1="17.9" y1="22.1" x2="19.2" y2="20.8"/>
<line class="st5" x1="23.3" y1="22.1" x2="22" y2="20.8"/>
<line class="st5" x1="19.2" y1="18.1" x2="17.9" y2="16.8"/>
<line class="st5" x1="31" y1="115" x2="32.4" y2="113.7"/>
<line class="st5" x1="26.9" y1="118.9" x2="28.3" y2="117.6"/>
<line class="st5" x1="32.4" y1="118.9" x2="31" y2="117.6"/>
<line class="st5" x1="28.3" y1="115" x2="26.9" y2="113.7"/>
<path class="st6" d="M68.7,16.2c-0.7-0.1-1.2-0.1-1.9-0.1"/>
<path class="st6" d="M72.8,16.7c-0.5-0.1-0.7-0.1-1-0.2"/>
<path class="st6" d="M63.8,16.1c-13.4,0.5-23.9,6.5-31.3,12.2"/>
<path class="st6" d="M63.7,110.8c13.4-0.5,23.9-6.5,31.3-12.2"/>
</svg>
