<svg id="Слой_1" xmlns="http://www.w3.org/2000/svg" viewBox="0 0 128 128"><style>.st1,.st2,.st3{fill:none;stroke-linecap:round}.st1{stroke-width:2;stroke-miterlimit:10;stroke:#f53}.st2,.st3{stroke:#000}.st2{stroke-miterlimit:10;stroke-width:2}.st3{stroke-width:3;stroke-linejoin:round}.st5{fill:#fc592a;stroke:#f53;stroke-width:2;stroke-miterlimit:10}.st7,.st9{fill:none;stroke:#fc592a;stroke-width:2;stroke-linecap:round;stroke-linejoin:round}.st9{stroke:#000}</style><path fill="none" d="M0 0h128v128H0z"/><path class="st1" d="M13.3 9.5V7.7M13.3 15.1v-1.9M17.1 11.4h-1.9M11.4 11.4h-2M117 40.2v-1.8M117 45.8V44M120.8 42.1h-1.9M115 42.1h-1.9M27.4 115.8v-1.9M27.4 121.4v-1.9M31.2 117.6h-1.9M25.4 117.6h-1.9"/><path class="st2" d="M23.6 34.4l1.3-1.3M19.5 38.4l1.4-1.4M24.9 38.4L23.6 37M20.9 34.4l-1.4-1.3M100.4 13.9l1.3-1.3M96.3 17.9l1.4-1.3M101.7 17.9l-1.3-1.3M97.7 13.9l-1.4-1.3"/><path class="st3" d="M33.3 34.6h61.4V50H33.3zM111.4 53.8v46c-.1 2.1-1.9 3.8-4 3.7H89.7v-.9H38.3v.9H20.7c-2.1.1-3.9-1.5-4-3.6V53.8c.1-2.1 1.9-3.8 4-3.7h86.8c1.9-.1 3.8 1.5 3.9 3.7z"/><path d="M89.7 25.7v24.2H38.3V14.2c0-.9.8-1.7 1.7-1.7h36.4c.8 0 1.5.3 2 .8L89 23.9c.4.5.7 1.1.7 1.8z" fill="#fff" stroke="#000" stroke-width="3" stroke-miterlimit="10"/><circle class="st5" cx="101.9" cy="58.6" r="1.3"/><circle class="st5" cx="95.1" cy="58.6" r="1.3"/><circle class="st5" cx="88.4" cy="58.6" r="1.3"/><path d="M89.7 91.2V113c0 1.4-1.1 2.6-2.6 2.6H41c-1.4 0-2.6-1.1-2.6-2.6V91.2h51.3z" fill="#fff" stroke="#000" stroke-width="3" stroke-linecap="round" stroke-linejoin="round"/><path class="st7" d="M44.4 109.4h39.2M65.5 98h18.1"/><path d="M46 97.6h14c1.1 0 1 .6 1 1.4v3.9c0 .8.1 1.4-1 1.4H46c-1.1 0-1-.6-1-1.4V99c0-.7-.1-1.4 1-1.4z" fill="none" stroke="#f53" stroke-width="2" stroke-linecap="round" stroke-linejoin="round"/><path class="st3" d="M87.7 24.7h-8.3c-1 0-1.9-.8-1.9-1.9v-8.7c0-.4.3-.7.7-.7.2 0 .3.1.5.2l9.7 9.6c.3.3.3.9 0 1.2-.2.2-.5.3-.7.3z"/><path class="st9" d="M21.8 65.9v-9.6c0-.7.6-1.3 1.3-1.3h12.2M106.8 81.3v16c0 .7-.6 1.3-1.3 1.3h-8.3"/><path class="st7" d="M65.5 104h18.1"/><path class="st9" d="M21.8 69.1v2.1M21.8 74.8v1"/></svg>
