<svg id="Слой_1" xmlns="http://www.w3.org/2000/svg" viewBox="0 0 128 128"><style>.st1{stroke:#fc592a;stroke-width:2;stroke-linecap:round}.st1,.st2,.st3{fill:none;stroke-miterlimit:10}.st2{stroke-width:2;stroke-linecap:round;stroke:#000}.st3{stroke:#fc592a}.st4{fill:#fff}.st8{fill:none;stroke:#fc592a;stroke-width:2;stroke-linecap:round;stroke-linejoin:round}</style><path fill="none" d="M0 0h128v128H0z"/><path class="st1" d="M52.5 34.3v-1.9M52.5 39.9V38M56.3 36.2h-1.9M50.5 36.2h-1.9"/><path class="st2" d="M117.7 39.3L119 38M113.6 43.3l1.4-1.4M119 43.3l-1.3-1.4M115 39.3l-1.4-1.3"/><g><path class="st1" d="M35 105.5v-1.7M35 111.1v-1.8M38.8 107.4h-1.9M33.1 107.4h-2"/></g><g><path class="st1" d="M114.4 99.1v-1.8M114.4 104.7v-1.9M118.2 101h-1.9M112.5 101h-1.9"/></g><g><path class="st2" d="M18.5 20.4l1.3-1.3M14.4 24.3l1.3-1.3M19.8 24.3L18.5 23M15.7 20.4l-1.3-1.3"/></g><g><path class="st4" d="M86.9 76.2h10.6c.8 0 1.5.7 1.5 1.5v3.5c0 .8-.7 1.5-1.5 1.5H86.9c-.8 0-1.5-.7-1.5-1.5v-3.5c0-.8.7-1.5 1.5-1.5z"/><path d="M97.5 77.7v3.5H86.9v-3.5h10.6m0-3H86.9c-1.7 0-3 1.3-3 3v3.5c0 1.7 1.3 3 3 3h10.6c1.7 0 3-1.3 3-3v-3.5c0-1.7-1.4-3-3-3z"/><path class="st4" d="M30.6 76.2h10.6c.8 0 1.5.7 1.5 1.5v3.5c0 .8-.7 1.5-1.5 1.5H30.6c-.8 0-1.5-.7-1.5-1.5v-3.5c0-.8.6-1.5 1.5-1.5z"/><path d="M41.1 77.7v3.5H30.6v-3.5h10.5m0-3H30.6c-1.7 0-3 1.3-3 3v3.5c0 1.7 1.3 3 3 3h10.6c1.7 0 3-1.3 3-3v-3.5c-.1-1.7-1.4-3-3.1-3z"/><path class="st4" d="M24.1 54.1h79.8c.8 0 1.5.7 1.5 1.5v20.9c0 .8-.7 1.5-1.5 1.5H24.1c-.8 0-1.5-.7-1.5-1.5V55.6c0-.9.7-1.5 1.5-1.5z"/><path d="M103.9 55.4v20.9H24.1V55.4h79.8m0-3H24.1c-1.7 0-3 1.3-3 3v20.9c0 1.7 1.3 3 3 3h79.8c1.7 0 3-1.3 3-3V55.4c0-1.7-1.3-3-3-3z"/><circle cx="77.3" cy="66" r="14" fill="#fff" stroke="#000" stroke-width="3" stroke-linecap="round" stroke-linejoin="round"/><circle cx="77.3" cy="66" r="8" fill="none" stroke="#000" stroke-width="3" stroke-linecap="round" stroke-linejoin="round"/><path d="M74.8 68.5c-1.4-1.1-1.7-3.2-.5-4.7l.3-.3" fill="none" stroke="#000" stroke-width="2" stroke-linecap="round" stroke-linejoin="round"/><path class="st8" d="M33 62.4h3.9M40.5 62.4h7.8M33 66h10.7M47.7 65.9h4.7M52.1 62.4h.3M48.5 69.3h3.9M37.1 69.3h7.8M33 69.3h.3"/></g></svg>
