<?xml version="1.0" encoding="utf-8"?>
<!-- Generator: Adobe Illustrator 21.1.0, SVG Export Plug-In . SVG Version: 6.00 Build 0)  -->
<svg version="1.1" id="Слой_1" xmlns="http://www.w3.org/2000/svg" xmlns:xlink="http://www.w3.org/1999/xlink" x="0px" y="0px"
	 viewBox="0 0 128 128" style="enable-background:new 0 0 128 128;" xml:space="preserve">
<style type="text/css">
	.st0{fill:none;}
	.st1{fill:none;stroke:#FF5533;stroke-width:2;stroke-linecap:round;stroke-miterlimit:10;}
	.st2{fill:none;stroke:#000000;stroke-width:2;stroke-linecap:round;stroke-miterlimit:10;}
	.st3{fill:none;stroke:#000000;stroke-width:3;stroke-linecap:round;stroke-linejoin:round;}
	.st4{fill:#FFFFFF;stroke:#000000;stroke-width:3;stroke-miterlimit:10;}
	.st5{fill:#FC592A;stroke:#FF5533;stroke-width:2;stroke-miterlimit:10;}
	.st6{fill:#FFFFFF;stroke:#000000;stroke-width:3;stroke-linecap:round;stroke-linejoin:round;}
	.st7{fill:none;stroke:#FC592A;stroke-width:2;stroke-linecap:round;stroke-linejoin:round;}
	.st8{fill:none;stroke:#FF5533;stroke-width:2;stroke-linecap:round;stroke-linejoin:round;}
	.st9{fill:none;stroke:#000000;stroke-width:2;stroke-linecap:round;stroke-linejoin:round;}
</style>
<title>icon-6</title>
<rect class="st0" width="128" height="128"/>
<line class="st1" x1="13.3" y1="9.5" x2="13.3" y2="7.7"/>
<line class="st1" x1="13.3" y1="15.1" x2="13.3" y2="13.2"/>
<line class="st1" x1="17.1" y1="11.4" x2="15.2" y2="11.4"/>
<line class="st1" x1="11.4" y1="11.4" x2="9.4" y2="11.4"/>
<line class="st1" x1="117" y1="40.2" x2="117" y2="38.4"/>
<line class="st1" x1="117" y1="45.8" x2="117" y2="44"/>
<line class="st1" x1="120.8" y1="42.1" x2="118.9" y2="42.1"/>
<line class="st1" x1="115" y1="42.1" x2="113.1" y2="42.1"/>
<line class="st1" x1="27.4" y1="115.8" x2="27.4" y2="113.9"/>
<line class="st1" x1="27.4" y1="121.4" x2="27.4" y2="119.5"/>
<line class="st1" x1="31.2" y1="117.6" x2="29.3" y2="117.6"/>
<line class="st1" x1="25.4" y1="117.6" x2="23.5" y2="117.6"/>
<line class="st2" x1="23.6" y1="34.4" x2="24.9" y2="33.1"/>
<line class="st2" x1="19.5" y1="38.4" x2="20.9" y2="37"/>
<line class="st2" x1="24.9" y1="38.4" x2="23.6" y2="37"/>
<line class="st2" x1="20.9" y1="34.4" x2="19.5" y2="33.1"/>
<line class="st2" x1="100.4" y1="13.9" x2="101.7" y2="12.6"/>
<line class="st2" x1="96.3" y1="17.9" x2="97.7" y2="16.6"/>
<line class="st2" x1="101.7" y1="17.9" x2="100.4" y2="16.6"/>
<line class="st2" x1="97.7" y1="13.9" x2="96.3" y2="12.6"/>
<rect x="33.3" y="34.6" class="st3" width="61.4" height="15.4"/>
<path class="st3" d="M111.4,53.8v46c-0.1,2.1-1.9,3.8-4,3.7h0l-0.1,0H89.7v-0.9H38.3v0.9H20.7c-2.1,0.1-3.9-1.5-4-3.6l0-0.1v-46
	c0.1-2.1,1.9-3.8,4-3.7c0,0,0,0,0,0l0.1,0h86.7C109.4,50,111.3,51.6,111.4,53.8L111.4,53.8z"/>
<path class="st4" d="M89.7,25.7v24.2H38.3V14.2c0-0.9,0.8-1.7,1.7-1.7h36.4c0.8,0,1.5,0.3,2,0.8L89,23.9
	C89.4,24.4,89.7,25,89.7,25.7z"/>
<circle class="st5" cx="101.9" cy="58.6" r="1.3"/>
<circle class="st5" cx="95.1" cy="58.6" r="1.3"/>
<circle class="st5" cx="88.4" cy="58.6" r="1.3"/>
<path class="st6" d="M89.7,91.2v21.8c0,1.4-1.1,2.6-2.6,2.6H41c-1.4,0-2.6-1.1-2.6-2.6V91.2H89.7z"/>
<line class="st7" x1="44.4" y1="109.4" x2="83.6" y2="109.4"/>
<line class="st7" x1="65.5" y1="98" x2="83.6" y2="98"/>
<path class="st8" d="M46,97.6H60c1.1,0,1,0.6,1,1.4v3.9c0,0.8,0.1,1.4-1,1.4H46c-1.1,0-1-0.6-1-1.4V99C45,98.3,44.9,97.6,46,97.6z"
	/>
<path class="st3" d="M87.7,24.7h-8.3c-1,0-1.9-0.8-1.9-1.9c0,0,0,0,0,0l0,0v-8.7c0-0.4,0.3-0.7,0.7-0.7c0.2,0,0.3,0.1,0.5,0.2
	l9.7,9.6c0.3,0.3,0.3,0.9,0,1.2C88.2,24.6,87.9,24.7,87.7,24.7z"/>
<path class="st9" d="M21.8,65.9v-9.6c0-0.7,0.6-1.3,1.3-1.3h12.2"/>
<path class="st9" d="M106.8,81.3v16c0,0.7-0.6,1.3-1.3,1.3h-8.3"/>
<line class="st7" x1="65.5" y1="104" x2="83.6" y2="104"/>
<line class="st9" x1="21.8" y1="69.1" x2="21.8" y2="71.2"/>
<line class="st9" x1="21.8" y1="74.8" x2="21.8" y2="75.8"/>
</svg>
