<svg id="Слой_1" xmlns="http://www.w3.org/2000/svg" viewBox="0 0 128 128"><style>.st1{fill:none;stroke:#000;stroke-miterlimit:10}.st2,.st4,.st5,.st6,.st7{fill:none;stroke-linecap:round}.st2{stroke:#fc592a;stroke-linejoin:round;stroke-width:3}.st4,.st5,.st6,.st7{stroke-width:2}.st4{stroke-linejoin:round;stroke:#000}.st5,.st6,.st7{stroke:#fc592a}.st5{stroke-linejoin:round}.st6,.st7{stroke-miterlimit:10}.st7{stroke:#000}</style><path fill="none" d="M0 0h128v128H0z"/><path class="st2" d="M51.8 22h-3.4c-2.6 0-4.8-2.1-4.8-4.8 0-2.6 2.1-4.8 4.8-4.8h30.3c2.6 0 4.8 2.1 4.8 4.8 0 2.6-2.1 4.8-4.8 4.8h-3.4M48.4 31.6c-2.6 0-4.7-2.1-4.8-4.7 0-2.6 2.1-4.8 4.8-4.8M76.2 22h3.4c2.6 0 4.8 2.1 4.8 4.8 0 2.6-2.1 4.8-4.8 4.8"/><path class="st2" d="M48.4 41.1c-2.6 0-4.8-2.1-4.8-4.8 0-2.6 2.1-4.8 4.8-4.8M78.7 31.6c2.6 0 4.8 2.1 4.8 4.8 0 2.6-2.1 4.8-4.8 4.8M51.8 50.7h-3.4c-2.6 0-4.8-2.1-4.8-4.8 0-2.6 2.1-4.8 4.8-4.8"/><path class="st2" d="M78.7 41.1c2.6 0 4.8 2.1 4.8 4.8 0 2.6-2.1 4.8-4.8 4.8h-3.4M51.8 50.7h23.6V54H51.8z"/><path fill="none" stroke="#000" stroke-width="3" stroke-linecap="round" stroke-linejoin="round" d="M38.8 55.9h50.4v61.8H38.8z"/><path class="st4" d="M46.1 63.8h35.8v33.3H46.1z"/><path class="st4" d="M49.8 89.3h28.5v4.1H49.8zM53.4 67.9h4.9v4.9h-4.9z"/><path class="st5" d="M59.1 87.3h-6.5L51 77.1h9.8z"/><path class="st4" d="M69.7 67.9h4.9v4.9h-4.9zM48.6 108.5h30.9v4.1H48.6z"/><path class="st6" d="M21 27.4v-1.8M21 33v-1.8M24.8 29.3h-1.9M19 29.3h-1.9"/><path class="st7" d="M28.7 56.2l1.4-1.4M24.6 60.1l1.4-1.3M30.1 60.1l-1.4-1.3M26 56.2l-1.4-1.4M114.5 106.1l1.3-1.3M110.4 110l1.3-1.3M115.8 110l-1.3-1.3M111.7 106.1l-1.3-1.3"/><path class="st6" d="M110.6 45.4v-1.9M110.6 51v-1.9M114.4 47.2h-1.9M108.6 47.2h-1.9M15.8 104.2v-1.8M15.8 109.8V108M19.7 106.1h-1.9M13.9 106.1H12"/><path class="st5" d="M47 17.9c0-1.4 1.1-2.3 2.5-2.3M49.9 38.1c1.4.4 2.2 1.8 1.8 3.1M62 47.4h-1.8M78.9 47.4H65.4M57.2 47.4h-.4"/></svg>
