<?xml version="1.0" encoding="utf-8"?>
<!-- Generator: Adobe Illustrator 21.1.0, SVG Export Plug-In . SVG Version: 6.00 Build 0)  -->
<svg version="1.1" id="Слой_1" xmlns="http://www.w3.org/2000/svg" xmlns:xlink="http://www.w3.org/1999/xlink" x="0px" y="0px"
	 viewBox="0 0 128 128" style="enable-background:new 0 0 128 128;" xml:space="preserve">
<style type="text/css">
	.st0{fill:none;}
	.st1{fill:none;stroke:#000000;stroke-width:2;stroke-linecap:round;stroke-miterlimit:10;}
	.st2{fill:none;stroke:#FC592A;stroke-width:2;stroke-linecap:round;stroke-miterlimit:10;}
	.st3{fill:none;stroke:#000000;stroke-width:3;stroke-linecap:round;stroke-linejoin:bevel;}
	.st4{fill:#FFFFFF;}
	.st5{fill:none;stroke:#FC592A;stroke-width:3;stroke-linecap:round;stroke-linejoin:round;stroke-miterlimit:10;}
	.st6{fill:none;stroke:#FC592A;stroke-width:2;stroke-linecap:round;stroke-linejoin:round;}
	.st7{fill:#FFFFFF;stroke:#FC592A;stroke-width:3;stroke-linecap:round;stroke-linejoin:round;}
	.st8{fill:#FFFFFF;stroke:#FC592A;stroke-width:2;stroke-linecap:round;stroke-linejoin:round;}
</style>
<title>icon-5</title>
<rect class="st0" width="128" height="128"/>
<g>
	<line class="st1" x1="13" y1="16.5" x2="14.3" y2="15.2"/>
	<line class="st1" x1="8.9" y1="20.5" x2="10.3" y2="19.1"/>
	<line class="st1" x1="14.3" y1="20.5" x2="13" y2="19.1"/>
	<line class="st1" x1="10.3" y1="16.5" x2="8.9" y2="15.2"/>
</g>
<g>
	<line class="st2" x1="116.4" y1="35.5" x2="116.4" y2="33.6"/>
	<line class="st2" x1="116.4" y1="41.1" x2="116.4" y2="39.2"/>
	<line class="st2" x1="120.3" y1="37.4" x2="118.3" y2="37.4"/>
	<line class="st2" x1="114.5" y1="37.4" x2="112.6" y2="37.4"/>
</g>
<g>
	<line class="st1" x1="113.9" y1="70.7" x2="115.3" y2="69.4"/>
	<line class="st1" x1="109.9" y1="74.7" x2="111.2" y2="73.4"/>
	<line class="st1" x1="115.3" y1="74.7" x2="113.9" y2="73.4"/>
	<line class="st1" x1="111.2" y1="70.7" x2="109.9" y2="69.4"/>
</g>
<g>
	<line class="st2" x1="21.2" y1="60.7" x2="21.2" y2="58.8"/>
	<line class="st2" x1="21.2" y1="66.3" x2="21.2" y2="64.4"/>
	<line class="st2" x1="25.1" y1="62.5" x2="23.1" y2="62.5"/>
	<line class="st2" x1="19.3" y1="62.5" x2="17.4" y2="62.5"/>
</g>
<g>
	<line class="st2" x1="25.6" y1="116.6" x2="25.6" y2="114.7"/>
	<line class="st2" x1="25.6" y1="122.2" x2="25.6" y2="120.3"/>
	<line class="st2" x1="29.4" y1="118.4" x2="27.5" y2="118.4"/>
	<line class="st2" x1="23.7" y1="118.4" x2="21.8" y2="118.4"/>
</g>
<g>
	<path class="st3" d="M10.8,112.7c0-5.7,7.9-10.4,17.8-10.4"/>
	<path class="st3" d="M46.3,112.7c0-5.7-7.9-10.4-17.8-10.4"/>
	<line class="st3" x1="10.8" y1="112.7" x2="10.8" y2="115.6"/>
	<line class="st3" x1="46.3" y1="112.7" x2="46.3" y2="115.6"/>
	<circle class="st4" cx="28.6" cy="89.7" r="6.6"/>
	<path d="M28.6,84.6c2.8,0,5.1,2.3,5.1,5.1c0,2.8-2.3,5.1-5.1,5.1s-5.1-2.3-5.1-5.1l0,0C23.5,86.9,25.8,84.6,28.6,84.6 M28.6,81.6
		c-4.5,0-8.1,3.6-8.1,8.1s3.6,8.1,8.1,8.1s8.1-3.6,8.1-8.1l0,0C36.8,85.2,33.1,81.6,28.6,81.6z"/>
</g>
<g>
	<path class="st3" d="M46.3,112.6c0-5.7,7.9-10.4,17.8-10.4"/>
	<path class="st3" d="M81.8,112.6c0-5.7-7.9-10.4-17.8-10.4"/>
	<line class="st3" x1="46.3" y1="112.6" x2="46.3" y2="115.6"/>
	<line class="st3" x1="81.8" y1="112.6" x2="81.8" y2="115.6"/>
	<circle class="st4" cx="64.1" cy="89.7" r="6.6"/>
	<path d="M64.1,84.5c2.8,0,5.1,2.3,5.1,5.1c0,2.8-2.3,5.1-5.1,5.1c-2.8,0-5.1-2.3-5.1-5.1l0,0C58.9,86.8,61.2,84.5,64.1,84.5
		 M64.1,81.5c-4.5,0-8.1,3.6-8.1,8.1s3.6,8.1,8.1,8.1s8.1-3.6,8.1-8.1l0,0C72.2,85.2,68.6,81.5,64.1,81.5z"/>
</g>
<g>
	<path class="st3" d="M81.8,112.6c0-5.7,7.9-10.4,17.8-10.4"/>
	<path class="st3" d="M117.3,112.6c0-5.7-7.9-10.4-17.8-10.4"/>
	<line class="st3" x1="81.8" y1="112.6" x2="81.8" y2="115.6"/>
	<line class="st3" x1="117.3" y1="112.6" x2="117.3" y2="115.6"/>
	<circle class="st4" cx="99.6" cy="89.7" r="6.6"/>
	<path d="M99.6,84.5c2.8,0,5.1,2.3,5.1,5.1s-2.3,5.1-5.1,5.1s-5.1-2.3-5.1-5.1l0,0C94.4,86.8,96.7,84.5,99.6,84.5 M99.6,81.5
		c-4.5,0-8.1,3.6-8.1,8.1s3.6,8.1,8.1,8.1s8.1-3.6,8.1-8.1l0,0C107.7,85.2,104.1,81.5,99.6,81.5z"/>
</g>
<g>
	<path class="st3" d="M34,76.1c0-4.8,6.7-8.8,15-8.8"/>
	<path class="st3" d="M64,76.1c0-4.8-6.7-8.8-15-8.8"/>
	<line class="st3" x1="34" y1="76.1" x2="34" y2="78.6"/>
	<line class="st3" x1="64" y1="76.1" x2="64" y2="78.6"/>
	<circle class="st4" cx="49" cy="56.7" r="5.6"/>
	<path d="M49,52.7c2.2,0,4,1.8,4,4s-1.8,4-4,4s-4-1.8-4-4l0,0C45,54.5,46.8,52.7,49,52.7 M49,49.8c-3.8,0-6.9,3.1-6.9,6.9
		s3.1,6.9,6.9,6.9c3.8,0,6.9-3.1,6.9-6.9l0,0C55.9,52.9,52.8,49.8,49,49.8z"/>
</g>
<g>
	<path class="st3" d="M64,76.1c0-4.8,6.7-8.8,15-8.8"/>
	<path class="st3" d="M94,76.1c0-4.8-6.7-8.8-15-8.8"/>
	<line class="st3" x1="64" y1="76.1" x2="64" y2="78.6"/>
	<line class="st3" x1="94" y1="76.1" x2="94" y2="78.6"/>
	<circle class="st4" cx="79" cy="56.7" r="5.6"/>
	<path d="M79,52.7c2.2,0,4,1.8,4,4s-1.8,4-4,4s-4-1.8-4-4l0,0C75,54.5,76.8,52.7,79,52.7 M79,49.8c-3.8,0-6.9,3.1-6.9,6.9
		s3.1,6.9,6.9,6.9s6.9-3.1,6.9-6.9l0,0C85.9,52.9,82.8,49.8,79,49.8z"/>
</g>
<path class="st5" d="M101.2,43.5H27c-1.2,0-2.2-1.1-2.2-2.4V11c0-1.3,1-2.4,2.2-2.4h74.2c1.2,0,2.2,1.1,2.2,2.4v30.1
	C103.4,42.4,102.4,43.5,101.2,43.5z"/>
<line class="st6" x1="99" y1="39.4" x2="99" y2="31.6"/>
<line class="st6" x1="87" y1="39.4" x2="98.8" y2="39.4"/>
<line class="st6" x1="94.9" y1="35.5" x2="90.9" y2="35.5"/>
<line class="st6" x1="29.1" y1="18.2" x2="29.1" y2="23.5"/>
<line class="st6" x1="47" y1="18.2" x2="29.3" y2="18.2"/>
<line class="st6" x1="29.1" y1="26.7" x2="29.1" y2="29.6"/>
<line class="st6" x1="29.1" y1="32.7" x2="29.1" y2="34.2"/>
<path class="st7" d="M105,13.9H23.1c-1.1,0-1.9-0.9-1.9-1.9v-1.9c0-1.1,0.9-1.9,1.9-1.9H105c1.1,0,1.9,0.9,1.9,1.9V12
	C106.9,13,106.1,13.9,105,13.9z"/>
<line class="st6" x1="64.1" y1="43.5" x2="64.1" y2="48.8"/>
<circle class="st8" cx="64.1" cy="50.7" r="2"/>
</svg>
