<svg id="Слой_1" xmlns="http://www.w3.org/2000/svg" viewBox="0 0 128 128"><style>.st1{stroke:#000;stroke-width:2;stroke-miterlimit:10}.st1,.st2,.st3{fill:none;stroke-linecap:round}.st2{stroke-miterlimit:10;stroke:#fc592a;stroke-width:2}.st3{stroke:#000;stroke-width:3;stroke-linejoin:bevel}.st4{fill:#fff}.st6{fill:none;stroke:#fc592a;stroke-width:2;stroke-linecap:round;stroke-linejoin:round}</style><path fill="none" d="M0 0h128v128H0z"/><path class="st1" d="M13 16.5l1.3-1.3M8.9 20.5l1.4-1.4M14.3 20.5L13 19.1M10.3 16.5l-1.4-1.3"/><path class="st2" d="M116.4 35.5v-1.9M116.4 41.1v-1.9M120.3 37.4h-2M114.5 37.4h-1.9"/><path class="st1" d="M113.9 70.7l1.4-1.3M109.9 74.7l1.3-1.3M115.3 74.7l-1.4-1.3M111.2 70.7l-1.3-1.3"/><path class="st2" d="M21.2 60.7v-1.9M21.2 66.3v-1.9M25.1 62.5h-2M19.3 62.5h-1.9M25.6 116.6v-1.9M25.6 122.2v-1.9M29.4 118.4h-1.9M23.7 118.4h-1.9"/><path class="st3" d="M10.8 112.7c0-5.7 7.9-10.4 17.8-10.4M46.3 112.7c0-5.7-7.9-10.4-17.8-10.4M10.8 112.7v2.9M46.3 112.7v2.9"/><circle class="st4" cx="28.6" cy="89.7" r="6.6"/><path d="M28.6 84.6c2.8 0 5.1 2.3 5.1 5.1s-2.3 5.1-5.1 5.1-5.1-2.3-5.1-5.1 2.3-5.1 5.1-5.1m0-3c-4.5 0-8.1 3.6-8.1 8.1s3.6 8.1 8.1 8.1 8.1-3.6 8.1-8.1c.1-4.5-3.6-8.1-8.1-8.1z"/><g><path class="st3" d="M46.3 112.6c0-5.7 7.9-10.4 17.8-10.4M81.8 112.6c0-5.7-7.9-10.4-17.8-10.4M46.3 112.6v3M81.8 112.6v3"/><circle class="st4" cx="64.1" cy="89.7" r="6.6"/><path d="M64.1 84.5c2.8 0 5.1 2.3 5.1 5.1s-2.3 5.1-5.1 5.1-5.1-2.3-5.1-5.1c-.1-2.8 2.2-5.1 5.1-5.1m0-3c-4.5 0-8.1 3.6-8.1 8.1s3.6 8.1 8.1 8.1 8.1-3.6 8.1-8.1c0-4.4-3.6-8.1-8.1-8.1z"/></g><g><path class="st3" d="M81.8 112.6c0-5.7 7.9-10.4 17.8-10.4M117.3 112.6c0-5.7-7.9-10.4-17.8-10.4M81.8 112.6v3M117.3 112.6v3"/><circle class="st4" cx="99.6" cy="89.7" r="6.6"/><path d="M99.6 84.5c2.8 0 5.1 2.3 5.1 5.1s-2.3 5.1-5.1 5.1-5.1-2.3-5.1-5.1c-.1-2.8 2.2-5.1 5.1-5.1m0-3c-4.5 0-8.1 3.6-8.1 8.1s3.6 8.1 8.1 8.1 8.1-3.6 8.1-8.1c0-4.4-3.6-8.1-8.1-8.1z"/></g><g><path class="st3" d="M34 76.1c0-4.8 6.7-8.8 15-8.8M64 76.1c0-4.8-6.7-8.8-15-8.8M34 76.1v2.5M64 76.1v2.5"/><circle class="st4" cx="49" cy="56.7" r="5.6"/><path d="M49 52.7c2.2 0 4 1.8 4 4s-1.8 4-4 4-4-1.8-4-4 1.8-4 4-4m0-2.9c-3.8 0-6.9 3.1-6.9 6.9s3.1 6.9 6.9 6.9c3.8 0 6.9-3.1 6.9-6.9 0-3.8-3.1-6.9-6.9-6.9z"/></g><g><path class="st3" d="M64 76.1c0-4.8 6.7-8.8 15-8.8M94 76.1c0-4.8-6.7-8.8-15-8.8M64 76.1v2.5M94 76.1v2.5"/><circle class="st4" cx="79" cy="56.7" r="5.6"/><path d="M79 52.7c2.2 0 4 1.8 4 4s-1.8 4-4 4-4-1.8-4-4 1.8-4 4-4m0-2.9c-3.8 0-6.9 3.1-6.9 6.9s3.1 6.9 6.9 6.9 6.9-3.1 6.9-6.9c0-3.8-3.1-6.9-6.9-6.9z"/></g><path d="M101.2 43.5H27c-1.2 0-2.2-1.1-2.2-2.4V11c0-1.3 1-2.4 2.2-2.4h74.2c1.2 0 2.2 1.1 2.2 2.4v30.1c0 1.3-1 2.4-2.2 2.4z" fill="none" stroke="#fc592a" stroke-width="3" stroke-linecap="round" stroke-linejoin="round" stroke-miterlimit="10"/><path class="st6" d="M99 39.4v-7.8M87 39.4h11.8M94.9 35.5h-4M29.1 18.2v5.3M47 18.2H29.3M29.1 26.7v2.9M29.1 32.7v1.5"/><path d="M105 13.9H23.1c-1.1 0-1.9-.9-1.9-1.9v-1.9c0-1.1.9-1.9 1.9-1.9H105c1.1 0 1.9.9 1.9 1.9V12c0 1-.8 1.9-1.9 1.9z" fill="#fff" stroke="#fc592a" stroke-width="3" stroke-linecap="round" stroke-linejoin="round"/><path class="st6" d="M64.1 43.5v5.3"/><circle cx="64.1" cy="50.7" r="2" fill="#fff" stroke="#fc592a" stroke-width="2" stroke-linecap="round" stroke-linejoin="round"/></svg>
