<svg id="Слой_1" xmlns="http://www.w3.org/2000/svg" viewBox="0 0 128 128"><style>.st1{stroke:#000;stroke-width:2;stroke-miterlimit:10}.st1,.st2,.st3,.st5,.st6{fill:none;stroke-linecap:round}.st2{stroke-miterlimit:10;stroke:#fc592a;stroke-width:2}.st3,.st5,.st6{stroke:#000;stroke-width:3;stroke-linejoin:round}.st5,.st6{stroke:#fc592a;stroke-width:2}.st6{stroke:#000}</style><path fill="none" d="M0 0h128v128H0z"/><path class="st1" d="M26.7 14.1l1.3-1.3M22.6 18.1l1.4-1.4M28 18.1l-1.3-1.4M24 14.1l-1.4-1.3"/><path class="st2" d="M113.7 23.7v-1.9M113.7 29.3v-1.9M117.6 25.6h-2M111.8 25.6h-1.9"/><path class="st1" d="M102.8 76.3l1.4-1.3M98.8 80.3l1.3-1.3M104.2 80.3l-1.4-1.3M100.1 76.3L98.8 75"/><g><path class="st2" d="M14.7 64.1v-2M14.7 69.6v-1.8M18.6 65.8h-2M12.8 65.8h-1.9"/></g><g><path class="st2" d="M31.2 107.1v-1.9M31.2 112.7v-1.9M35 108.9h-1.9M29.3 108.9h-1.9"/></g><g><path class="st3" d="M82.2 105.6H45.8l-7.2-67.3h50.8z"/><path fill="#fff" stroke="#fc592a" stroke-width="3" stroke-linecap="round" stroke-linejoin="round" stroke-miterlimit="10" d="M94 31.7l-.9 7.5H34.9l-.9-7.5h8.2l1.8-9.3h40l1.8 9.3z"/><path class="st3" d="M59.8 80.3c0 1.2.2 2.5.5 3.7C56 82.1 53 76.1 53 69c0-8.5 4.4-15.4 10-15.6.2 1.2.4 2.3.4 3.5 0 7.8-3.6 15.6-3.6 23.4zM75 69c0 8.1-4.1 14.8-9.2 15.5-.4-1.5-.6-3.1-.6-4.6 0-7.7 3.6-15.3 3.6-23 0-.8-.1-1.7-.2-2.5 3.7 2.4 6.4 8 6.4 14.6z"/><g><path class="st5" d="M56.9 31.7H64M67.5 31.7h3.6"/></g></g><path class="st6" d="M48.2 82.4l2 18.4M50.2 100.8h9.7M63.2 100.8h2.2M68.6 100.8h.3"/></svg>
