<svg id="Слой_1" xmlns="http://www.w3.org/2000/svg" viewBox="0 0 128 128"><style>.st1,.st2,.st3,.st4{fill:none;stroke-linecap:round}.st1{stroke-width:3;stroke-linejoin:round;stroke:#000}.st2,.st3,.st4{stroke:#fc592a}.st2{stroke-linejoin:round;stroke-width:3}.st3,.st4{stroke-width:2;stroke-miterlimit:10}.st4{stroke:#000}.st6{fill:#fff}.st7,.st8{fill:none;stroke:#fc592a}.st7{stroke-width:2;stroke-linecap:round;stroke-linejoin:round}.st8{stroke-miterlimit:10}</style><path fill="none" d="M0 0h128v128H0z"/><path class="st1" d="M41 66.6V35.8"/><circle class="st1" cx="41" cy="28.8" r="6.4"/><path class="st2" d="M32.9 36.9c-4.4-4.3-4.6-11.2-.6-15.8M49.6 21.1c4 4.6 3.7 11.5-.6 15.8M28.7 40.1c-6.1-6-6.4-15.8-.6-22.2M53.8 17.9c5.8 6.4 5.5 16.1-.6 22.2"/><path class="st3" d="M85 23.6v-1.9M85 29.2v-1.9M88.8 25.5h-1.9M83 25.5h-1.9"/><path class="st4" d="M113.2 47.2l1.3-1.3M109.1 51.2l1.4-1.4M114.5 51.2l-1.3-1.4M110.5 47.2l-1.4-1.3"/><path class="st3" d="M45.3 110.6v-1.8M45.3 116.2v-1.8M49.1 112.5h-1.9M43.4 112.5h-2M114.4 99.1v-1.8M114.4 104.7v-1.9M118.2 101h-1.9M112.5 101h-1.9"/><path class="st4" d="M18.5 54.9l1.3-1.3M14.4 58.8l1.3-1.3M19.8 58.8l-1.3-1.3M15.7 54.9l-1.3-1.3"/><path d="M39.5 31.3c-1.4-1.1-1.7-3.2-.5-4.7l.3-.3" fill="none" stroke="#000" stroke-width="2" stroke-linecap="round" stroke-linejoin="round"/><path class="st6" d="M85.6 90.2h10.6c.8 0 1.5.7 1.5 1.5v3.5c0 .8-.7 1.5-1.5 1.5H85.6c-.8 0-1.5-.7-1.5-1.5v-3.5c0-.8.7-1.5 1.5-1.5z"/><path d="M96.2 91.7v3.5H85.6v-3.5h10.6m0-3H85.6c-1.7 0-3 1.3-3 3v3.5c0 1.7 1.3 3 3 3h10.6c1.7 0 3-1.3 3-3v-3.5c0-1.7-1.4-3-3-3z"/><path class="st6" d="M29.3 90.2h10.6c.8 0 1.5.7 1.5 1.5v3.5c0 .8-.7 1.5-1.5 1.5H29.3c-.8 0-1.5-.7-1.5-1.5v-3.5c0-.8.6-1.5 1.5-1.5z"/><path d="M39.8 91.7v3.5H29.3v-3.5h10.5m0-3H29.3c-1.7 0-3 1.3-3 3v3.5c0 1.7 1.3 3 3 3h10.6c1.7 0 3-1.3 3-3v-3.5c-.1-1.7-1.4-3-3.1-3z"/><path class="st6" d="M22.8 68.1h79.8c.8 0 1.5.7 1.5 1.5v20.9c0 .8-.7 1.5-1.5 1.5H22.8c-.8 0-1.5-.7-1.5-1.5V69.6c0-.9.7-1.5 1.5-1.5z"/><path d="M102.6 69.6v20.9H22.8V69.6h79.8m0-3H22.8c-1.7 0-3 1.3-3 3v20.9c0 1.7 1.3 3 3 3h79.8c1.7 0 3-1.3 3-3V69.6c0-1.7-1.3-3-3-3z"/><path class="st6" d="M33.1 68.1h59.2c.8 0 1.5.7 1.5 1.5v11.9c0 .8-.7 1.5-1.5 1.5H33.1c-.8 0-1.5-.7-1.5-1.5V69.6c0-.9.7-1.5 1.5-1.5z"/><path d="M92.3 69.6v11.9H33.1V69.6h59.2m0-3H33.1c-1.7 0-3 1.3-3 3v11.9c0 1.7 1.3 3 3 3h59.2c1.7 0 3-1.3 3-3V69.6c0-1.7-1.3-3-3-3z"/><path class="st7" d="M58.5 75.5h28.4M38.5 75.5h1.3M45.2 75.5h1.2M51.8 75.5h1.3"/></svg>
