<svg id="Layer_1" xmlns="http://www.w3.org/2000/svg" viewBox="0 0 128 128"><style>.st1,.st2{stroke-width:3;stroke-linejoin:round}.st1{fill:#fff;stroke-linecap:round;stroke:#f53}.st2{stroke:#000}.st2,.st3,.st4,.st5,.st6{fill:none;stroke-linecap:round}.st3{stroke:#f53;stroke-linejoin:round;stroke-width:3}.st4,.st5,.st6{stroke-width:2}.st4{stroke-miterlimit:10;stroke:#fc592a}.st5,.st6{stroke:#000}.st5{stroke-miterlimit:10}.st6{stroke-linejoin:round}</style><path d="M0 0v128h128V0H0z" fill="#fff"/><path class="st1" d="M25.7 45.1c15.3-13.3 23-3.3 14.2 13.3-5.5 10.5-16.4 15.5-14.2 15.5h23M60.7 38.5c-7.7 6.6-15.3 17.7-11 17.7h12.9M76 39.6c-5.9 11.1-10 23-12 35.4"/><path class="st2" d="M90.2 36.2l-32.8 67.5"/><path class="st3" d="M86.9 58.4c4.4 0 10.4-.8 15.3 0 4.3.7-3.3 15.5-12 31M92.2 75h-6.6M103.5 75h5.5"/><path class="st2" d="M16.9 41.8C31.1 14.1 65 5.1 88 17.4c18.6 10 29.5 34.1 26.2 54M14.7 48.8c-8.2 27.1 6.2 53.4 31.7 62.7 26.7 9.7 57.3-5.1 66.7-33.2"/><path class="st4" d="M114.8 10.2V8.3M114.8 15.8v-1.9M118.7 12h-1.9M112.9 12H111M39.9 94.8v-1.9M39.9 100.4v-1.9M43.8 96.6h-1.9M38 96.6h-1.9M106.2 112.6v-1.9M106.2 118.2v-1.9M110.1 114.4h-1.9M104.3 114.4h-1.9"/><path class="st5" d="M22 18.1l1.3-1.3M17.9 22.1l1.3-1.3M23.3 22.1L22 20.8M19.2 18.1l-1.3-1.3M31 115l1.4-1.3M26.9 118.9l1.4-1.3M32.4 118.9l-1.4-1.3M28.3 115l-1.4-1.3"/><path class="st6" d="M68.7 16.2c-.7-.1-1.2-.1-1.9-.1M72.8 16.7c-.5-.1-.7-.1-1-.2M63.8 16.1c-13.4.5-23.9 6.5-31.3 12.2M63.7 110.8c13.4-.5 23.9-6.5 31.3-12.2"/></svg>
