<svg id="Слой_1" data-name="Слой 1" xmlns="http://www.w3.org/2000/svg" viewBox="0 0 128 128"><defs><style>.cls-1{fill:#fff;}.cls-2{fill:#f53;}.cls-3,.cls-4,.cls-5,.cls-6,.cls-7{fill:none;}.cls-3,.cls-4{stroke:#fc592a;stroke-linejoin:round;}.cls-3,.cls-4,.cls-5,.cls-6{stroke-linecap:round;}.cls-3,.cls-5,.cls-6{stroke-width:2px;}.cls-4{stroke-width:3px;}.cls-5{stroke:#f53;}.cls-5,.cls-6{stroke-miterlimit:10;}.cls-6{stroke:#000;}</style></defs><title>icon-1</title><path class="cls-1" d="M64,89.48047c-13.50391,0-24.49023-12.61914-24.49023-28.13037,0-.53271.00977-1.05566.03809-1.5791C40.123,48.14355,47.165,39.38281,57.92676,36.90137h.00391a.14733.14733,0,0,1,.12207.08154l4.78955,8.269A1.49957,1.49957,0,0,0,64.14014,46l.04443-.00049a1.50008,1.50008,0,0,0,1.2959-.82617l4.15039-8.25977a.14531.14531,0,0,1,.11816-.08691c10.95215,2.375,18.11719,11.16455,18.70313,22.938.0293.53076.03809,1.05322.03809,1.58545C88.49023,76.86133,77.50391,89.48047,64,89.48047Z"/><path d="M70.48914,38.54519c9.65945,2.54851,15.93336,10.613,16.46532,21.30806.02424.44477.03552.92037.03552,1.49673,0,14.68385-10.31327,26.63-22.99,26.63S41.01,76.03382,41.01,61.35c0-.57635.01129-1.052.03632-1.51177.52211-10.55622,6.70175-18.59626,16.21882-21.22208l4.27888,7.3875A2.99993,2.99993,0,0,0,64.13965,47.5q.04461,0,.08947-.00133a3,3,0,0,0,2.59159-1.65186l3.66844-7.30163m-.74057-3.21837A1.6421,1.6421,0,0,0,68.29,36.24L64.14,44.5l-4.79-8.27a1.64351,1.64351,0,0,0-1.41-.83008A1.54827,1.54827,0,0,0,57.59,35.44C46.79,37.93,38.69,46.75,38.05,59.69c-.03.55-.04,1.1-.04,1.66,0,16.37,11.64,29.63,25.99,29.63S89.99,77.72,89.99,61.35c0-.56-.01-1.11-.04-1.66-.65-13.07-8.91-21.95-19.88-24.33a1.57455,1.57455,0,0,0-.32144-.03316Z"/><path class="cls-1" d="M29.7749,75.3125H98.50684a1.49707,1.49707,0,0,1,1.49707,1.49707v39.9502a1.49707,1.49707,0,0,1-1.49707,1.49707h-68.731a1.498,1.498,0,0,1-1.498-1.498V76.80957A1.49707,1.49707,0,0,1,29.7749,75.3125Z"/><path class="cls-2" d="M98.504,76.8125l.00246,39.9443-68.72887.00247L29.77514,76.8125H98.504m.00246-3H29.77514A2.99753,2.99753,0,0,0,26.7776,76.81v39.94923a2.99753,2.99753,0,0,0,2.99753,2.99753H98.50647a2.99753,2.99753,0,0,0,2.99754-2.99753V76.81a2.99753,2.99753,0,0,0-2.99754-2.99753Z"/><line class="cls-3" x1="32.8976" y1="79.6416" x2="36.84" y2="79.6416"/><line class="cls-3" x1="40.3856" y1="79.6416" x2="48.2576" y2="79.6416"/><line class="cls-3" x1="35.8032" y1="83.2" x2="43.6624" y2="83.2"/><line class="cls-3" x1="47.6048" y1="83.2" x2="51.5344" y2="83.2"/><line class="cls-3" x1="52.0592" y1="79.6416" x2="52.3408" y2="79.6416"/><line class="cls-3" x1="95" y1="103.296" x2="95" y2="95.4368"/><line class="cls-3" x1="83" y1="103.296" x2="94.8016" y2="103.296"/><line class="cls-3" x1="90.8528" y1="99.3664" x2="86.9232" y2="99.3664"/><line class="cls-4" x1="28.3008" y1="108.0832" x2="99.9808" y2="108.0832"/><line class="cls-5" x1="116.0064" y1="98.7136" x2="116.0064" y2="96.7424"/><line class="cls-5" x1="116.0064" y1="104.6144" x2="116.0064" y2="102.6432"/><line class="cls-5" x1="119.936" y1="100.6848" x2="117.9776" y2="100.6848"/><line class="cls-5" x1="114.0352" y1="100.6848" x2="112.0768" y2="100.6848"/><line class="cls-5" x1="11.776" y1="49.5488" x2="11.776" y2="47.5776"/><line class="cls-5" x1="11.776" y1="55.4496" x2="11.776" y2="53.4784"/><line class="cls-5" x1="15.7056" y1="51.5072" x2="13.7344" y2="51.5072"/><line class="cls-5" x1="9.8048" y1="51.5072" x2="7.8336" y2="51.5072"/><line class="cls-5" x1="37.3376" y1="5.7344" x2="37.3376" y2="3.7632"/><line class="cls-5" x1="37.3376" y1="11.6352" x2="37.3376" y2="9.664"/><line class="cls-5" x1="41.2672" y1="7.7056" x2="39.3088" y2="7.7056"/><line class="cls-5" x1="35.3664" y1="7.7056" x2="33.408" y2="7.7056"/><line class="cls-6" x1="19.6096" y1="119.5008" x2="20.992" y2="118.1056"/><line class="cls-6" x1="15.4368" y1="123.6736" x2="16.8192" y2="122.2784"/><line class="cls-6" x1="20.992" y1="123.6736" x2="19.6096" y2="122.2784"/><line class="cls-6" x1="16.8192" y1="119.5008" x2="15.4368" y2="118.1056"/><line class="cls-6" x1="115.0976" y1="32.4224" x2="116.48" y2="31.0272"/><line class="cls-6" x1="110.9248" y1="36.5952" x2="112.32" y2="35.2"/><line class="cls-6" x1="116.48" y1="36.5952" x2="115.0976" y2="35.2"/><line class="cls-6" x1="112.32" y1="32.4224" x2="110.9248" y2="31.0272"/><rect class="cls-7" width="128" height="128"/><path d="M64.168,44.0448"/><path d="M64,8.632A10.5168,10.5168,0,1,1,53.4832,19.1488,10.52872,10.52872,0,0,1,64,8.632m0-3A13.5168,13.5168,0,1,0,77.5168,19.1488,13.5168,13.5168,0,0,0,64,5.632Z"/><path class="cls-1" d="M24.49365,61.23779H103.7876A1.50244,1.50244,0,0,1,105.29,62.74023V73.79785a1.502,1.502,0,0,1-1.502,1.502H24.49414a1.50293,1.50293,0,0,1-1.50293-1.50293V62.74023A1.50244,1.50244,0,0,1,24.49365,61.23779Z"/><path class="cls-2" d="M103.78773,62.7376l.00267.00267L103.78773,73.8,24.4912,73.79733l.00267-11.05973h79.29385m0-3H24.49387a3.00268,3.00268,0,0,0-3.00267,3.00267V73.79733A3.00268,3.00268,0,0,0,24.49387,76.8h79.29385a3.00268,3.00268,0,0,0,3.00267-3.00267V62.74027a3.00268,3.00268,0,0,0-3.00267-3.00267Z"/><path class="cls-1" d="M71.73535,45.04492h4.74023a.89844.89844,0,0,1,.89844.89844v1.9248a.89844.89844,0,0,1-.89844.89844H71.73584a.89893.89893,0,0,1-.89893-.89893V45.94336A.89844.89844,0,0,1,71.73535,45.04492Z"/><path class="cls-2" d="M76.3744,46.04481V47.7664h-4.5376V46.04481h4.5376m.10132-2H71.73548a1.89866,1.89866,0,0,0-1.89867,1.89867v1.92425a1.89868,1.89868,0,0,0,1.89867,1.89867h4.74025a1.89868,1.89868,0,0,0,1.89868-1.89867V45.94347a1.89867,1.89867,0,0,0-1.89868-1.89867Z"/></svg>