<svg xmlns="http://www.w3.org/2000/svg" viewBox="0 0 400 400"><defs><style>.cls-2{fill:#2b3e52}.cls-4{fill:#465f70}.cls-5{fill:#253749}.cls-6{fill:#bc153f}.cls-7{fill:#e62852}</style></defs><g id="Layer_2" data-name="Layer 2"><g id="Layer_1-2" data-name="Layer 1"><path fill="none" d="M0 0h400v400H0z"/><path class="cls-2" d="M279.316 137.18a13.74 13.74 0 0 0-.394-4.515l-.086-.295c6.362-6.4 9.263-11.575 7.663-14.71-1.374-2.69-5.914-3.574-12.809-2.886l-.002.005a120.416 120.416 0 0 0-22.716 5.189l3.947 3.31c.513.43.397.9-.255 1.046l-6.65 1.481a2.597 2.597 0 0 0-1.643 1.394l-2.55 6.316c-.252.621-.735.658-1.075.081l-3.463-5.867a2.6 2.6 0 0 0-1.834-1.133l-6.796-.472c-.667-.047-.85-.495-.407-.998l4.508-5.105a2.598 2.598 0 0 0 .511-2.094l-1.65-6.61c-.161-.65.208-.963.822-.696l6.25 2.71a2.599 2.599 0 0 0 2.149-.16l5.776-3.613c.568-.355.98-.1.917.567l-.526 5.505c2.72-1.258 7.134-3.208 13.539-5.775l1.229-.491c7.516-2.822 11.973-9.979 6.86-15.58l-19.973-19.715a9.047 9.047 0 0 0-3.647-2.512l-22.162-7.12a56.893 56.893 0 0 0-4.46-1.193l-22.044-4.737a14.724 14.724 0 0 0-4.543-.115l-30.542 4.967a10.162 10.162 0 0 0-4.067 1.839l-25.84 21.243a9.716 9.716 0 0 0-2.545 3.652l-2.275 6.55a26.965 26.965 0 0 1-1.948 4.166l-9.005 15.015a19.736 19.736 0 0 0-1.785 4.215l-2.605 9.764a13.352 13.352 0 0 0-.256 4.52l1.359 9.116a15.77 15.77 0 0 1-.12 4.552l-1.119 5.504c-.253 1.246-3.295 15.11 11.029 9.401l.909-.396c15.235-6.622 33.106-13.667 47.72-19.257l-.489-1.067a.668.668 0 0 1 .33-.886l2.83-1.297-2-6.53a.67.67 0 0 1 .36-.805l2.43-1.114c2.578-1.181 6.192-.802 10.374-.362l.035.003c5.288.556 11.276 1.179 16.876-1.119a.68.68 0 0 1 .1-.03c4.904-2.052 9.272-1.913 10.33.395 1.058 2.311-1.687 5.71-6.444 8.084a.635.635 0 0 1-.088.056c-5.396 2.742-8.835 7.686-11.865 12.055l-.02.027c-2.398 3.456-4.47 6.44-7.048 7.622l-2.43 1.114a.669.669 0 0 1-.844-.252l-3.64-5.778-2.83 1.297a.67.67 0 0 1-.887-.33l-.6-1.305c-20.545 11.587-37.414 23.254-47.715 32.725h-.003c-8.356 7.68-12.391 13.918-10.564 17.495 2.03 3.978 10.986 4.007 24.252.835l3.24 4.791a7.985 7.985 0 0 0 3.49 2.647l35.46 11.818a11.746 11.746 0 0 0 4.482.412l32.421-4.539a14.15 14.15 0 0 0 4.288-1.484l11.524-6.707a15.875 15.875 0 0 1 4.273-1.576l11.136-2.028a5.296 5.296 0 0 0 3.33-2.468l8.508-16.583a20.745 20.745 0 0 1 2.616-3.761l10.081-11.008a5.838 5.838 0 0 0 1.31-4.003l-1.537-14.116a25.259 25.259 0 0 1 .006-4.596zm-40.02-29.358l1.057-1.196a.61.61 0 0 0 .12-.49l-.386-1.55c-.04-.151.048-.225.192-.162l1.464.634a.607.607 0 0 0 .503-.037l1.353-.846c.133-.083.229-.024.214.132l-.151 1.59a.613.613 0 0 0 .191.466l1.224 1.026c.12.1.093.21-.062.245l-1.556.346a.613.613 0 0 0-.385.327l-.597 1.48c-.06.145-.173.153-.253.019l-.811-1.375a.608.608 0 0 0-.43-.265l-1.59-.11c-.158-.012-.201-.117-.098-.234zm-113.988 93.895c-1.123-2.199 1.794-6.283 7.783-11.565l2.23 2.717c.806.983 2.05 2.649 2.762 3.702l3.438 5.082c-9.094 2.287-14.983 2.472-16.213.064zm103.984-83.687l-1.025-.072c-.101-.007-.129-.075-.061-.15l.681-.772a.394.394 0 0 0 .075-.316l-.248-.999c-.025-.098.032-.145.124-.105l.944.41a.395.395 0 0 0 .325-.025l.872-.545c.086-.054.147-.016.139.085l-.098 1.024a.392.392 0 0 0 .124.302l.788.66c.077.066.06.137-.039.16l-1.005.222a.393.393 0 0 0-.247.211l-.386.954c-.038.094-.11.1-.162.013l-.523-.887a.388.388 0 0 0-.278-.17zm8.955 16.286l-1.557.347a.615.615 0 0 0-.386.327l-.595 1.48c-.06.145-.174.154-.253.018l-.812-1.374a.609.609 0 0 0-.43-.265l-1.59-.111c-.158-.01-.2-.116-.097-.234l1.057-1.196a.61.61 0 0 0 .12-.49l-.387-1.548c-.038-.153.049-.226.193-.163l1.464.634a.609.609 0 0 0 .503-.037l1.354-.846c.131-.083.228-.024.214.133l-.152 1.587a.611.611 0 0 0 .192.468l1.222 1.025c.12.102.094.211-.06.245zm14.382-2.978l-1.003.224a.392.392 0 0 0-.248.21l-.387.954c-.037.094-.11.1-.161.013l-.525-.887a.385.385 0 0 0-.275-.17l-1.027-.073c-.101-.006-.128-.075-.062-.15l.682-.772a.393.393 0 0 0 .077-.316l-.25-.998c-.024-.098.031-.146.123-.105l.945.41a.395.395 0 0 0 .325-.025l.872-.545c.086-.055.149-.016.139.085l-.099 1.024a.397.397 0 0 0 .124.301l.79.662c.077.064.06.136-.04.158zm22.665-11.076c3.367-.194 5.53.338 6.22 1.689.812 1.592-.487 4.17-3.539 7.477z"/><path d="M274.303 159.898l-.71-16.086a35.848 35.848 0 0 0-.56-4.575l-2.654-13.102a19.363 19.363 0 0 0-1.538-4.311l-3.048-5.792c-1.3.27-2.659.58-4.058.92a4.543 4.543 0 0 1-2.245-5.86c.964-.395 1.976-.807 3.051-1.238l-3.778-7.174a50.703 50.703 0 0 0-2.37-3.96l-9.544-14.112a11.153 11.153 0 0 0-3.33-3.01l-20.302-10.924a10.909 10.909 0 0 0-4.346-1.096h-33.086a15.562 15.562 0 0 0-4.48.8l-25.138 9.259a16.501 16.501 0 0 0-3.958 2.264l-17.266 14.141a9.034 9.034 0 0 0-2.47 3.674l-5.933 19.218a103.313 103.313 0 0 0-1.245 4.451l-3.24 12.93a15.516 15.516 0 0 0-.312 4.54l1.945 17.83a11.284 11.284 0 0 0 1.304 3.815c15.235-6.622 33.106-13.667 47.72-19.257l-.489-1.067a.669.669 0 0 1 .33-.886l2.83-1.297-2-6.531a.67.67 0 0 1 .36-.804l2.43-1.114c2.578-1.182 6.192-.802 10.374-.362l.035.003c5.288.556 11.276 1.179 16.876-1.119a.748.748 0 0 1 .1-.031c4.904-2.052 9.272-1.912 10.33.396 1.058 2.311-1.687 5.71-6.444 8.084a.635.635 0 0 1-.088.056c-5.396 2.741-8.835 7.686-11.865 12.055l-.02.026c-2.398 3.457-4.47 6.441-7.048 7.623l-2.43 1.114a.669.669 0 0 1-.844-.252l-3.64-5.778-2.83 1.296a.67.67 0 0 1-.887-.329l-.6-1.307c-16.339 9.214-30.35 18.48-40.584 26.65l2.345 3.46a37.71 37.71 0 0 1 2.297 3.998l5.963 12.444a5.977 5.977 0 0 0 3.215 2.746l12.333 3.675a13.626 13.626 0 0 1 4 2.133l6.334 5.221a7.876 7.876 0 0 0 4.095 1.535l10.093.274c1.27.033 3.35.115 4.62.177l11.688.584a15.985 15.985 0 0 0 4.522-.552l13.108-3.963a12.143 12.143 0 0 0 3.922-2.227l7.418-6.754a6.872 6.872 0 0 1 4.022-1.544l10.857.057a3.804 3.804 0 0 0 3.23-2.109l4.41-10.189a11.478 11.478 0 0 1 2.699-3.597l9.753-8.085a10.493 10.493 0 0 0 2.61-3.633l3.436-8.954a13.272 13.272 0 0 0 .725-4.468zm-35.008-52.076l1.058-1.196a.61.61 0 0 0 .12-.49l-.387-1.55c-.039-.151.05-.225.193-.162l1.464.634a.607.607 0 0 0 .503-.037l1.353-.846c.133-.083.229-.024.214.132l-.151 1.59a.613.613 0 0 0 .191.466l1.224 1.026c.12.1.092.21-.062.245l-1.556.346a.613.613 0 0 0-.385.327l-.597 1.48c-.06.145-.173.153-.253.019l-.811-1.375a.608.608 0 0 0-.43-.265l-1.59-.11c-.158-.012-.201-.117-.098-.234zm-10.003 10.208l-1.025-.072c-.101-.007-.129-.075-.061-.15l.681-.772a.394.394 0 0 0 .075-.316l-.248-.999c-.025-.098.032-.145.124-.105l.944.41a.395.395 0 0 0 .325-.025l.872-.545c.086-.054.147-.016.139.085l-.098 1.024a.392.392 0 0 0 .124.302l.788.66c.077.066.06.137-.039.16l-1.005.222a.393.393 0 0 0-.247.211l-.386.954c-.038.094-.11.1-.162.013l-.523-.887a.388.388 0 0 0-.278-.17zm8.955 16.286l-1.557.347a.615.615 0 0 0-.386.327l-.596 1.48c-.059.145-.173.154-.252.018l-.812-1.374a.609.609 0 0 0-.43-.265l-1.59-.111c-.158-.01-.2-.116-.097-.234l1.056-1.196a.61.61 0 0 0 .12-.49l-.386-1.548c-.038-.153.049-.226.193-.163l1.464.634a.609.609 0 0 0 .503-.037l1.354-.846c.131-.083.228-.024.213.133l-.15 1.587a.611.611 0 0 0 .19.468l1.223 1.025c.12.102.094.211-.06.245zm14.382-2.978l-1.004.224a.392.392 0 0 0-.248.21l-.386.954c-.037.094-.11.1-.161.013l-.525-.887a.385.385 0 0 0-.275-.17l-1.028-.073c-.1-.006-.128-.075-.061-.15l.682-.772a.393.393 0 0 0 .077-.316l-.25-.998c-.024-.098.031-.146.123-.105l.945.41a.395.395 0 0 0 .325-.025l.872-.545c.086-.055.149-.016.139.085l-.099 1.024a.397.397 0 0 0 .124.301l.79.662c.077.064.06.136-.04.158zm-1.656-11.37l3.946 3.31c.513.43.397.9-.255 1.046l-6.65 1.48a2.597 2.597 0 0 0-1.643 1.395l-2.55 6.316c-.252.621-.735.658-1.075.081l-3.463-5.867a2.6 2.6 0 0 0-1.834-1.133l-6.796-.472c-.667-.047-.85-.495-.407-.998l4.508-5.105a2.598 2.598 0 0 0 .511-2.094l-1.65-6.61c-.161-.65.208-.963.822-.696l6.25 2.71a2.599 2.599 0 0 0 2.148-.16l5.777-3.613c.568-.355.98-.1.917.567l-.526 5.505c1.965-.909 4.819-2.18 8.664-3.784a4.582 4.582 0 0 0 2.169 5.583q-4.189 1.081-8.863 2.54z" fill="#355468"/><path class="cls-4" d="M270.625 164.74l-.584-12.978a28.272 28.272 0 0 0-.462-3.69l-2.186-10.57a15.437 15.437 0 0 0-1.265-3.478l-8.3-15.445a24.699 24.699 0 0 0-.301-.54q-3.15.864-6.554 1.93l3.947 3.309c.512.43.396.901-.256 1.046l-6.65 1.481a2.597 2.597 0 0 0-1.643 1.394l-2.55 6.316c-.252.621-.734.658-1.075.081l-3.463-5.867a2.6 2.6 0 0 0-1.834-1.133l-6.796-.472c-.667-.047-.85-.495-.407-.998l4.508-5.105a2.598 2.598 0 0 0 .511-2.094l-1.65-6.61c-.161-.65.208-.963.822-.696l6.25 2.71a2.599 2.599 0 0 0 2.149-.16l5.776-3.613c.568-.355.98-.1.917.567l-.526 5.505a224.52 224.52 0 0 1 5.386-2.396L248.016 104a9.135 9.135 0 0 0-2.742-2.43l-16.72-8.811a9.126 9.126 0 0 0-3.58-.884h-27.248a13.058 13.058 0 0 0-3.69.644l-20.701 7.47a13.674 13.674 0 0 0-3.26 1.827l-14.219 11.408a7.294 7.294 0 0 0-2.035 2.964l-4.886 15.504c-.309.98-.77 2.596-1.024 3.591l-2.67 10.431a12.247 12.247 0 0 0-.256 3.663l.508 4.553a1542.028 1542.028 0 0 1 27.22-10.688l-.49-1.066a.669.669 0 0 1 .33-.886l2.83-1.297-2-6.531a.67.67 0 0 1 .36-.804l2.43-1.114c2.577-1.182 6.192-.802 10.374-.362l.035.003c5.288.556 11.276 1.179 16.875-1.119a.748.748 0 0 1 .101-.031c4.903-2.052 9.272-1.912 10.33.396 1.058 2.311-1.687 5.71-6.444 8.084a.635.635 0 0 1-.088.056c-5.397 2.741-8.835 7.686-11.865 12.055l-.02.026c-2.398 3.457-4.47 6.441-7.048 7.623l-2.43 1.114a.669.669 0 0 1-.844-.252l-3.64-5.778-2.83 1.296a.67.67 0 0 1-.888-.329l-.597-1.304c-10.14 5.719-19.39 11.457-27.392 16.941l9.356 13.518a30.013 30.013 0 0 1 1.891 3.226l4.912 10.039a4.91 4.91 0 0 0 2.648 2.216l10.157 2.966a11.328 11.328 0 0 1 3.294 1.719l5.216 4.213a6.578 6.578 0 0 0 3.372 1.238l8.312.22a206.1 206.1 0 0 1 3.805.143l9.626.473a13.459 13.459 0 0 0 3.725-.447l10.795-3.198a10.07 10.07 0 0 0 3.23-1.795l6.108-5.45a5.72 5.72 0 0 1 3.311-1.245l8.941.046a3.132 3.132 0 0 0 2.66-1.702l3.633-8.219a9.269 9.269 0 0 1 2.223-2.902l8.031-6.523a8.443 8.443 0 0 0 2.149-2.93l2.83-7.225a10.49 10.49 0 0 0 .599-3.603zm-31.33-56.918l1.058-1.196a.61.61 0 0 0 .12-.49l-.387-1.55c-.039-.151.05-.225.193-.162l1.464.634a.607.607 0 0 0 .503-.037l1.353-.846c.133-.083.229-.024.214.132l-.151 1.59a.613.613 0 0 0 .191.466l1.224 1.026c.12.1.092.21-.062.245l-1.556.346a.613.613 0 0 0-.385.327l-.597 1.48c-.06.145-.173.153-.253.019l-.811-1.375a.608.608 0 0 0-.43-.265l-1.59-.11c-.158-.012-.201-.117-.098-.234zm-10.003 10.208l-1.025-.072c-.101-.007-.129-.075-.061-.15l.681-.772a.394.394 0 0 0 .075-.316l-.248-.999c-.025-.098.032-.145.124-.105l.944.41a.395.395 0 0 0 .325-.025l.872-.545c.086-.054.147-.016.139.085l-.098 1.024a.392.392 0 0 0 .124.302l.788.66c.077.066.06.137-.039.16l-1.005.222a.393.393 0 0 0-.247.211l-.386.954c-.038.094-.11.1-.162.013l-.523-.887a.388.388 0 0 0-.278-.17zm8.955 16.286l-1.557.347a.615.615 0 0 0-.386.327l-.596 1.48c-.059.145-.173.154-.252.018l-.812-1.374a.609.609 0 0 0-.43-.265l-1.59-.11c-.158-.012-.2-.117-.097-.235l1.056-1.196a.61.61 0 0 0 .12-.49l-.386-1.548c-.038-.153.049-.226.193-.163l1.464.634a.609.609 0 0 0 .503-.037l1.354-.846c.131-.083.228-.024.213.133l-.15 1.587a.611.611 0 0 0 .19.468l1.223 1.025c.12.102.094.211-.06.245zm14.382-2.978l-1.004.224a.392.392 0 0 0-.248.21l-.386.954c-.037.094-.11.1-.161.013l-.525-.887a.385.385 0 0 0-.275-.17l-1.028-.073c-.1-.006-.128-.075-.061-.15l.682-.772a.393.393 0 0 0 .077-.316l-.25-.998c-.024-.098.031-.146.123-.105l.945.41a.395.395 0 0 0 .325-.025l.872-.545c.086-.055.149-.016.139.085l-.099 1.024a.397.397 0 0 0 .124.301l.79.662c.077.064.06.136-.04.158z"/><path class="cls-4" d="M205.902 136.545l.658-.301a.4.4 0 0 0 .21-.249 3.234 3.234 0 0 0-1.744-3.803.401.401 0 0 0-.325-.003l-.656.3a.412.412 0 0 0-.22.592l1.486 3.243a.411.411 0 0 0 .59.22z"/><path class="cls-2" d="M184.526 194.827l3.838 4.55 1.709.571 2.988 1.75 2.229.56 2.519-.031 1.186-.01.706-3.117 3.449.848 1.88-1.579 2.505-1.732 2.001-6.25-.875-5.773-3.357-1.593-.034-2.817-4.051-4.102-5.782.068-6.054 1.844-3.678 3.001-1.285 4.168.052 4.155.054 5.489z"/><path class="cls-5" d="M186.698 195.66l3.081 3.176 1.297.334 2.306 1.145 1.681.301 1.868-.155.878-.068.362-2.348 2.603.449 1.312-1.267 1.769-1.414 1.16-4.739-.948-4.236-2.57-1.008-.171-2.087-3.217-2.832-4.285.349-4.394 1.681-2.572 2.415-.737 3.158.253 3.079.324 4.067z"/><path class="cls-2" d="M149.764 98.016l-3.099.407-.743.597-1.617.824-.884.826-.704 1.125-.325.531 1.183 1.194-1.357 1.284.166 1.283.056 1.599 2.201 2.655 2.799 1.25 1.659-1.037 1.254.784 2.967-.629 1.612-2.579.899-3.199-.295-2.482-1.48-1.749-1.844-1.153-2.448-1.531zM200.351 104.803l-3.099.408-.742.597-1.618.823-.884.827-.704 1.124-.325.532 1.182 1.194-1.356 1.284.167 1.283.055 1.599 2.201 2.655 2.799 1.25 1.66-1.037 1.253.784 2.967-.629 1.612-2.58.898-3.198-.294-2.482-1.48-1.749-1.845-1.153-2.447-1.532z"/><path class="cls-5" d="M148.722 99.978l-2.315.305-.554.445-1.208.616-.66.617-.526.84-.243.397.883.892-1.012.959.124.959.041 1.194 1.644 1.983 2.091.933 1.239-.774.937.585 2.216-.469 1.204-1.927.67-2.39-.219-1.853-1.106-1.306-1.377-.862-1.829-1.144z"/><path class="cls-2" d="M157.144 134.632l1.007-2.958-.208-.929-.021-1.817-.352-1.156-.697-1.127-.332-.532-1.595.532-.553-1.778-1.223-.424-1.459-.656-3.353.804-2.362 1.959.199 1.944-1.265.78-.743 2.94 1.603 2.581 2.477 2.223 2.35.835 2.222-.556 1.855-1.146 2.45-1.519z"/><path class="cls-5" d="M154.855 134.796l.682-2.004-.141-.628-.014-1.231-.239-.783-.472-.763-.225-.36-1.08.36-.374-1.205-.829-.287-.988-.444-2.27.544-1.601 1.327.135 1.317-.855.528-.504 1.991 1.085 1.749 1.678 1.505 1.591.566 1.505-.377 1.256-.776 1.66-1.029z"/><path class="cls-2" d="M245.035 187.088l2.258-1.746.313-.809.899-1.397.311-1.055.037-1.207.021-.567-1.479-.406.479-1.632-.723-.935-.777-1.232-2.953-1.089-2.788.301-.83 1.577-1.346-.042-2.05 1.859-.084 2.77.758 2.938 1.364 1.824 1.969.698 1.993.06 2.628.09zM184.94 91.875l2.26-1.746.312-.81.9-1.396.309-1.054.037-1.208.021-.566-1.479-.407.479-1.632-.723-.935-.775-1.232-2.954-1.088-2.788.301-.83 1.577-1.347-.042-2.05 1.859-.084 2.769.758 2.938 1.365 1.824 1.968.698 1.994.061 2.627.089z"/><path class="cls-5" d="M244.561 187.036l1.82-1.407.252-.652.725-1.126.25-.849.03-.974.017-.456-1.193-.328.386-1.315-.581-.754-.626-.992-2.38-.877-2.248.242-.669 1.271-1.084-.034-1.653 1.498-.066 2.232.61 2.369 1.098 1.469 1.587.562 1.608.05 2.117.071z"/><path class="cls-2" d="M227.039 84.628l-.546-1.395-.36-.279-.569-.662-.485-.311-.603-.199-.285-.094-.422.685-.75-.484-.577.225-.736.208-.986 1.327-.263 1.449.67.652-.22.671.631 1.309 1.381.454 1.592.054 1.123-.418.644-.888.326-.993.435-1.311zM261.601 147.689l-.546-1.395-.359-.279-.57-.661-.485-.311-.602-.199-.286-.094-.421.685-.75-.484-.578.225-.736.208-.985 1.327-.264 1.448.671.653-.221.671.631 1.308 1.382.455 1.592.053 1.123-.418.643-.887.326-.994.435-1.311zM219.707 160.244l-.544-1.395-.361-.278-.569-.662-.484-.311-.603-.2-.285-.093-.422.685-.751-.484-.578.225-.736.208-.985 1.327-.264 1.449.671.652-.22.671.63 1.309 1.383.454 1.591.053 1.123-.418.643-.887.327-.994.434-1.311z"/><path class="cls-5" d="M226.112 85.053l-.373-.955-.247-.19-.39-.453-.332-.213-.412-.136-.194-.065-.29.469-.514-.331-.395.154-.503.142-.674.908-.181.992.46.447-.152.458.431.896.946.311 1.09.036.768-.286.441-.607.223-.68.298-.897z"/><path class="cls-2" d="M133.941 120.938l1.292.987.492.048.902.29.626.018.67-.16.314-.07.005-.874.969.018.406-.534.564-.61.161-1.782-.574-1.486-.992-.229-.174-.748-1.327-.851-1.536.36-1.501.858-.807 1.017-.093 1.185.263 1.103.34 1.46zM149.628 183.423l1.292.987.491.047.902.291.627.017.669-.159.314-.07.004-.874.97.017.405-.533.566-.611.16-1.781-.574-1.487-.992-.228-.174-.748-1.326-.851-1.537.359-1.501.858-.806 1.018-.093 1.185.263 1.103.34 1.46zM220.741 145.878l1.143.116.315-.153.65-.16.385-.221.344-.344.163-.159-.322-.528.59-.348.047-.473.114-.577-.563-1.132-.897-.683-.681.23-.383-.386-1.114-.021-.793.786-.586 1.073-.109.912.384.748.568.567.745.753z"/><path class="cls-5" d="M135.296 120.48l.879.671.335.032.613.198.426.012.455-.109.214-.047.003-.594.658.011.277-.363.384-.415.109-1.211-.39-1.011-.674-.156-.119-.508-.902-.579-1.045.245-1.02.583-.549.692-.064.806.18.75.23.993z"/><path class="cls-6" d="M115.21 122.232l.585-2.193a14.376 14.376 0 0 1 1.45-3.612c-2.504-2.979-2.954-5.976-2.535-7.655.555-2.22 3.404-4.227 8.022-5.653.91-.28 1.89-.537 2.93-.772l.922-1.538a26.965 26.965 0 0 0 1.949-4.166l.387-1.117c-9.87 1.464-18.405 4.798-20.143 11.764-1.151 4.612 1.053 9.658 6.433 14.942zM279.082 133.33a14.047 14.047 0 0 1 .234 3.85l-.434 3.885c4.903 4.43 6.449 7.936 5.893 10.164-.507 2.029-2.877 4.427-6.82 5.82l.619 5.67c6.185-1.912 10.893-5.034 12.134-10.008 1.471-5.889-2.525-12.485-11.626-19.381z"/><path class="cls-6" d="M181.508 153.359l-2.83 1.296a.67.67 0 0 1-.887-.329l-1.67-3.645a.667.667 0 0 1-.05-.21c-52.352-15.038-90.739-35.37-90.625-48.548-.429 4.402 1.98 9.176 7.197 14.217 5.008 4.84 12.546 9.921 22.404 15.106 17.994 9.463 42.12 18.443 68.66 25.602zM193.466 155.138l-1.075-.272a12.244 12.244 0 0 1-3.731 3.289q1.9.49 3.811.97c30.443 7.6 59.7 11.785 82.384 11.785 10.878 0 19.704-.973 26.233-2.892 6.801-2 11.072-5.052 12.738-9.08-6.747 12.946-59.334 11.435-120.36-3.8z"/><path class="cls-7" d="M176.45 149.794l1.823-.834-1.67-3.645-1.822.834a.668.668 0 0 1-.887-.327l-1.4-3.054c-36.689-11.603-62.175-26.291-59.85-35.606.924-3.697 6.113-6.08 14.399-7.175a27.505 27.505 0 0 0 1.49-3.344l2.124-6.114c-25.716-1.322-43.04 1.927-45.028 9.888-3.268 13.093 36.051 34.432 90.444 50.055a.663.663 0 0 1 .378-.678zM277.164 126.656l1.758 6.009a13.74 13.74 0 0 1 .394 4.515l-.148 1.338c6.037 4.544 9.056 8.778 8.186 12.261-2.75 11.018-43.37 10.383-91.036-1.34-.28.398-.556.796-.827 1.187l-.02.026c-1.067 1.538-2.07 2.98-3.08 4.214.36.09.716.182 1.075.272 63.165 15.769 117.295 16.836 120.904 2.385 2.046-8.198-12.61-19.63-37.206-30.867zM36.922 303.946a5.169 5.169 0 0 1-1.497-3.717v-71.326a4.98 4.98 0 0 1 1.497-3.662 5.165 5.165 0 0 1 3.716-1.497 5.101 5.101 0 0 1 3.661 1.497 4.98 4.98 0 0 1 1.497 3.662v71.326a5.169 5.169 0 0 1-1.497 3.717 5.101 5.101 0 0 1-3.66 1.496 5.165 5.165 0 0 1-3.717-1.496zM118.463 248.703a23.101 23.101 0 0 1 23.073 23.073v28.453a5.177 5.177 0 0 1-8.874 3.66 4.98 4.98 0 0 1-1.497-3.66v-28.453a12.687 12.687 0 0 0-12.702-12.702h-.388a12.685 12.685 0 0 0-12.701 12.702v28.453a5.077 5.077 0 0 1-1.553 3.717 5.226 5.226 0 0 1-7.322 0 5.166 5.166 0 0 1-1.498-3.717v-28.453a12.685 12.685 0 0 0-12.7-12.702h-.388a12.687 12.687 0 0 0-12.703 12.702v28.453a5.141 5.141 0 0 1-8.984 3.494 5.594 5.594 0 0 1-1.387-3.772v-45.425a4.935 4.935 0 0 1 1.886-3.993 5.069 5.069 0 0 1 4.326-1.109 4.937 4.937 0 0 1 3.827 3.328l.332-.222a22.498 22.498 0 0 1 12.703-3.827h.387a22.018 22.018 0 0 1 17.86 8.485h.055l.056-.055c0-.037.036-.074.11-.111a.157.157 0 0 0 .056-.112.049.049 0 0 0 .056-.054l.11-.112a22.089 22.089 0 0 1 17.472-8.04zM160.133 319.082a5.113 5.113 0 0 1-5.214-5.213v-59.898a5.1 5.1 0 0 1 1.497-3.66 5.168 5.168 0 0 1 3.717-1.498 4.705 4.705 0 0 1 4.992 3.94 22.483 22.483 0 0 1 12.868-3.94h.388a23.104 23.104 0 0 1 23.073 23.074v10.592a23.101 23.101 0 0 1-23.073 23.074h-.388a22.494 22.494 0 0 1-12.701-3.826v12.143a5.166 5.166 0 0 1-1.498 3.716 5.1 5.1 0 0 1-3.66 1.496zm5.158-36.603a12.688 12.688 0 0 0 12.702 12.703h.388a12.786 12.786 0 0 0 12.701-12.703v-10.592a12.782 12.782 0 0 0-12.7-12.701h-.39a12.685 12.685 0 0 0-12.7 12.701zM256.092 248.703a5.208 5.208 0 0 1 5.214 5.159v46.367a5.071 5.071 0 0 1-1.554 3.717 4.977 4.977 0 0 1-3.66 1.496 4.656 4.656 0 0 1-4.99-3.938 22.48 22.48 0 0 1-12.87 3.938h-.388a23.104 23.104 0 0 1-23.073-23.073v-10.593a23.101 23.101 0 0 1 23.073-23.073h.389a22.639 22.639 0 0 1 12.868 3.938 4.654 4.654 0 0 1 4.991-3.938zm-5.158 23.073a12.78 12.78 0 0 0-12.701-12.702h-.389a12.685 12.685 0 0 0-12.7 12.702v10.593a12.688 12.688 0 0 0 12.7 12.702h.389a12.784 12.784 0 0 0 12.701-12.702zM310.962 284.42a5.021 5.021 0 0 1 4.217 2.164 4.8 4.8 0 0 1 .72 4.604 21.134 21.134 0 0 1-19.857 14.254h-.331a21.02 21.02 0 0 1-21.022-21.022v-14.586a21.02 21.02 0 0 1 21.021-20.965h.333a20.934 20.934 0 0 1 19.856 14.254 4.83 4.83 0 0 1-.72 4.604 5.058 5.058 0 0 1-4.217 2.107 4.69 4.69 0 0 1-4.88-3.383 10.197 10.197 0 0 0-3.828-5.214 10.383 10.383 0 0 0-6.212-1.996h-.332a10.603 10.603 0 0 0-10.649 10.593v14.586a10.606 10.606 0 0 0 10.65 10.65h.331a10.74 10.74 0 0 0 10.04-7.21 4.699 4.699 0 0 1 4.88-3.44zM359.416 223.744a4.981 4.981 0 0 1 3.662 1.497 5.102 5.102 0 0 1 1.497 3.662 4.98 4.98 0 0 1-1.497 3.66 4.893 4.893 0 0 1-3.661 1.553H345.55v66.113a5.169 5.169 0 0 1-1.497 3.717 5.1 5.1 0 0 1-3.66 1.496 4.98 4.98 0 0 1-3.661-1.496 5.07 5.07 0 0 1-1.553-3.717v-66.113h-13.811a5.072 5.072 0 0 1-3.716-1.553 4.98 4.98 0 0 1-1.497-3.66 5.101 5.101 0 0 1 1.497-3.662 5.167 5.167 0 0 1 3.716-1.497zm0 0a4.981 4.981 0 0 1 3.662 1.497 5.102 5.102 0 0 1 1.497 3.662 4.98 4.98 0 0 1-1.497 3.66 4.893 4.893 0 0 1-3.661 1.553H345.55v66.113a5.169 5.169 0 0 1-1.497 3.717 5.1 5.1 0 0 1-3.66 1.496 4.98 4.98 0 0 1-3.661-1.496 5.07 5.07 0 0 1-1.553-3.717v-66.113h-13.811a5.072 5.072 0 0 1-3.716-1.553 4.98 4.98 0 0 1-1.497-3.66 5.101 5.101 0 0 1 1.497-3.662 5.167 5.167 0 0 1 3.716-1.497zM283.897 58.32a.527.527 0 0 1 .387.159.536.536 0 0 1 .159.387.523.523 0 0 1-.16.387.516.516 0 0 1-.386.164h-1.468v6.916a.545.545 0 0 1-.157.393.538.538 0 0 1-.388.159.53.53 0 0 1-.387-.16.539.539 0 0 1-.164-.392v-6.916h-1.46a.534.534 0 0 1-.393-.164.526.526 0 0 1-.158-.387.54.54 0 0 1 .158-.387.546.546 0 0 1 .393-.159zm0 0a.527.527 0 0 1 .387.159.536.536 0 0 1 .159.387.523.523 0 0 1-.16.387.516.516 0 0 1-.386.164h-1.468v6.916a.545.545 0 0 1-.157.393.538.538 0 0 1-.388.159.53.53 0 0 1-.387-.16.539.539 0 0 1-.164-.392v-6.916h-1.46a.534.534 0 0 1-.393-.164.526.526 0 0 1-.158-.387.54.54 0 0 1 .158-.387.546.546 0 0 1 .393-.159zM291.983 58.267a.535.535 0 0 1 .391.164.524.524 0 0 1 .16.388v7.514a.548.548 0 1 1-1.097 0v-5.244l-1.607 3.138a.431.431 0 0 1-.065.088.486.486 0 0 1-.17.153.547.547 0 0 1-.423.029.513.513 0 0 1-.317-.27l-1.594-3.126v5.232a.55.55 0 0 1-.159.393.559.559 0 0 1-.78 0 .547.547 0 0 1-.16-.393v-7.514a.528.528 0 0 1 .16-.388.537.537 0 0 1 .392-.164.51.51 0 0 1 .475.282.016.016 0 0 0 .008.012l.004.006 2.14 4.2 2.155-4.2c0 .004.007-.01.022-.041.013-.016.017-.022.013-.018a.595.595 0 0 1 .04-.047l.165-.194z"/><path class="cls-2" d="M65.682 338.051h-4.617l-.854 3.41H58.84l3.827-14.558h1.415l3.827 14.558h-1.373zm-.292-1.164l-1.497-6.033a37.384 37.384 0 0 1-.499-2.287h-.04c-.063.353-.272 1.394-.5 2.287l-1.498 6.033zM75.293 337.344v-6.324c0-2.807 1.6-4.367 3.888-4.367 2.371 0 3.89 1.498 4.035 4.2h-1.248c-.145-2.058-1.144-3.034-2.787-3.034-1.56 0-2.64 1.039-2.64 3.2v6.325c0 2.162 1.123 3.201 2.723 3.201 1.664 0 2.62-1.017 2.828-3.035h1.248c-.207 2.662-1.683 4.201-4.076 4.201-2.329 0-3.971-1.56-3.971-4.367zM96.965 338.051h-4.617l-.852 3.41h-1.373l3.827-14.558h1.414l3.827 14.558h-1.373zm-.29-1.164l-1.499-6.033a37.384 37.384 0 0 1-.499-2.287h-.04a37.41 37.41 0 0 1-.5 2.287l-1.497 6.033zM107.262 326.903h3.265c2.746 0 4.326 1.56 4.326 4.263v6.053c0 2.682-1.622 4.242-4.326 4.242h-3.265zm3.265 13.332a2.745 2.745 0 0 0 3.036-3.078v-5.928c0-2.059-1.081-3.1-3.036-3.1h-1.976v12.106zM130.91 340.276v1.185h-7.008v-14.558h6.78v1.185h-5.49v5.387h5.137v1.185h-5.137v5.616zM149.942 326.903v14.558h-1.29v-7.693c0-1.541.043-2.83.126-4.12l-.083-.02c-.375 1.04-.957 2.433-1.498 3.825l-1.788 4.577h-1.29l-1.788-4.577c-.541-1.392-1.123-2.785-1.497-3.826l-.084.022c.084 1.289.125 2.578.125 4.119v7.693h-1.29v-14.558h1.373l2.6 6.28c.374.936.894 2.434 1.164 3.245h.083c.27-.81.79-2.309 1.165-3.244l2.6-6.281zM160.676 326.903v14.558h-1.289v-14.558zM177.128 340.276v1.185h-7.008v-14.558h6.779v1.185h-5.49v5.387h5.136v1.185h-5.136v5.616zM184.867 337.717h1.289a2.556 2.556 0 0 0 2.724 2.768 2.439 2.439 0 0 0 2.642-2.684c0-3.37-6.447-3.39-6.447-7.611a3.543 3.543 0 0 1 3.763-3.557c2.289 0 3.703 1.623 3.808 3.91h-1.29c-.084-1.83-1.082-2.662-2.476-2.662a2.228 2.228 0 0 0-2.496 2.309c0 3.367 6.448 3.244 6.448 7.611a3.789 3.789 0 0 1-3.91 3.932 3.854 3.854 0 0 1-4.055-4.016zM220.579 341.461c-.396-.582-.791-1.164-1.206-1.748a4.573 4.573 0 0 1-3.62 2.02 3.23 3.23 0 0 1-3.327-3.516c0-2.039 1.269-3.41 2.578-4.617a8.429 8.429 0 0 1-1.622-4.096 2.716 2.716 0 0 1 2.912-2.871 2.793 2.793 0 0 1 2.914 3.098c-.064 1.707-1.29 2.912-2.54 4.078a81.82 81.82 0 0 0 2.58 3.639 13.195 13.195 0 0 0 .728-1.83h1.436a16.974 16.974 0 0 1-1.312 3.015 55.75 55.75 0 0 1 1.996 2.828zm-2.018-2.85c-.997-1.37-1.996-2.683-2.849-3.929a4.87 4.87 0 0 0-1.914 3.389 2.194 2.194 0 0 0 2.08 2.414 3.56 3.56 0 0 0 2.683-1.873zm-2.6-5.884c1.062-.957 1.956-1.873 1.956-3.037a1.648 1.648 0 0 0-1.624-1.809 1.56 1.56 0 0 0-1.622 1.662 7.48 7.48 0 0 0 1.29 3.184zM241.17 337.344v-6.324c0-2.807 1.604-4.367 3.89-4.367 2.372 0 3.89 1.498 4.035 4.2h-1.247c-.146-2.058-1.144-3.034-2.788-3.034-1.56 0-2.64 1.039-2.64 3.2v6.325c0 2.162 1.123 3.201 2.724 3.201 1.664 0 2.62-1.017 2.83-3.035h1.246c-.208 2.662-1.684 4.201-4.076 4.201-2.329 0-3.974-1.56-3.974-4.367zM262.844 338.051h-4.617l-.852 3.41h-1.373l3.827-14.558h1.414l3.828 14.558h-1.374zm-.29-1.164l-1.498-6.033a36.612 36.612 0 0 1-.499-2.287h-.042a35.295 35.295 0 0 1-.499 2.287l-1.497 6.033zM283.499 326.903v14.558h-1.29v-7.693c0-1.541.043-2.83.126-4.12l-.083-.02c-.376 1.04-.958 2.433-1.499 3.825l-1.789 4.577h-1.289l-1.789-4.577c-.54-1.392-1.123-2.785-1.498-3.826l-.083.022c.083 1.289.126 2.578.126 4.119v7.693h-1.289v-14.558h1.371l2.6 6.28c.375.936.895 2.434 1.165 3.245h.084c.27-.81.79-2.309 1.165-3.244l2.599-6.281zM300.595 331.375c0 2.994-1.475 4.574-4.158 4.574h-2.204v5.512h-1.29v-14.558h3.494c2.683 0 4.158 1.623 4.158 4.472zm-1.289 0c0-2.164-.915-3.246-2.869-3.246h-2.204v6.594h2.204c1.954 0 2.87-1.04 2.87-3.348zM308.232 337.717h1.288a2.557 2.557 0 0 0 2.726 2.768 2.438 2.438 0 0 0 2.64-2.684c0-3.37-6.447-3.39-6.447-7.611a3.543 3.543 0 0 1 3.765-3.557c2.288 0 3.702 1.623 3.805 3.91h-1.289c-.084-1.83-1.082-2.662-2.474-2.662a2.228 2.228 0 0 0-2.497 2.309c0 3.367 6.448 3.244 6.448 7.611a3.79 3.79 0 0 1-3.91 3.932 3.853 3.853 0 0 1-4.055-4.016z"/></g></g></svg>
