<svg xmlns="http://www.w3.org/2000/svg" viewBox="0 0 1336 1230.38574"><defs><style>.cls-1,.cls-2,.cls-5{fill:none;stroke:#fdb91a;stroke-miterlimit:10;}.cls-1,.cls-5{stroke-linecap:round;}.cls-1,.cls-2{stroke-width:30px;}.cls-3{opacity:0;}.cls-4{fill:#fdb91a;}.cls-5{stroke-width:15px;}</style></defs><title>light-tube</title><g id="Layer_2" data-name="Layer 2"><g id="Layer_1-2" data-name="Layer 1"><path class="cls-1" d="M666,916.1855c-49.96211,0-91.22548,14.961-91.22548-34.68858,0-58.44575-166.49307-99.24746-241.43029-226.08762C294.75222,590.08775,271,513.6472,271,431,271,201.24954,447.84752,15,666,15s395,186.24954,395,416c0,81.77209-23.19891,157.50977-61.09635,222.34855C917.823,793.78038,763.45771,808.85928,763.45771,882.37611c0,16.09008-5.24156,26.40355-14.02737,33.00015"/><path class="cls-1" d="M570.2046,1111.06829H560.067a32.36622,32.36622,0,0,1-32.27967-32.27969h0a32.36622,32.36622,0,0,1,32.27967-32.27969H671.52657"/><path class="cls-1" d="M742.2352,1046.50893h22.76019a32.36623,32.36623,0,0,1,32.27967,32.27969h0a32.36623,32.36623,0,0,1-32.27967,32.27967H630.52015"/><path class="cls-1" d="M764.99539,981.863a32.36622,32.36622,0,0,1,32.19315,31.847h0a32.36622,32.36622,0,0,1-32.27967,32.27969"/><path class="cls-1" d="M554.26878,1046.50893a32.36622,32.36622,0,0,1-32.27967-32.27969h0a32.36623,32.36623,0,0,1,32.27967-32.27969h67.02334"/><path class="cls-1" d="M764.99539,917.30366a32.36624,32.36624,0,0,1,32.27967,32.27967h0A32.36622,32.36622,0,0,1,764.99539,981.863"/><path class="cls-1" d="M554.26878,981.75839a32.36623,32.36623,0,0,1-32.27967-32.27969h0A32.36623,32.36623,0,0,1,554.26878,917.199l133.01906-.12652"/><path class="cls-1" d="M694.73167,1160.34582V1183.106a32.36622,32.36622,0,0,1-32.27969,32.27967h0a32.36623,32.36623,0,0,1-32.27967-32.27967v-72.38569"/><path class="cls-2" d="M890.27043,417.3425a223.40513,223.40513,0,0,1-44.857,134.57092l-16.80914,21.10917-162.6188,203.1757L486.55763,551.42476c-74.32106-99.09559-54.23733-239.67758,44.85827-313.99863S771.0935,183.18879,845.41452,282.2844A224.28463,224.28463,0,0,1,890.27043,417.3425Z"/><g class="cls-3"><path class="cls-4" d="M665.98553,282.76762A134.57489,134.57489,0,1,1,531.41064,417.34251,134.57488,134.57488,0,0,1,665.98553,282.76762m0-30a164.15328,164.15328,0,1,0,64.06922,12.94545,163.57222,163.57222,0,0,0-64.06922-12.94545Z"/></g><circle class="cls-2" cx="665.98552" cy="417.3425" r="78.50201"/><path class="cls-2" d="M594.4713,574.50559c37.9117,37.9117,98.31823,38.86049,135.0574,2.12132"/><circle class="cls-4" cx="665.98552" cy="417.3425" r="35"/><line class="cls-1" x1="231" y1="130.06625" x2="107" y2="44.06625"/><line class="cls-1" x1="231" y1="692.06625" x2="107" y2="778.06625"/><line class="cls-1" x1="169" y1="400.06625" x2="15" y2="400.06625"/><line class="cls-1" x1="1105" y1="130.06625" x2="1229" y2="44.06625"/><line class="cls-1" x1="1105" y1="692.06625" x2="1229" y2="778.06625"/><line class="cls-1" x1="1167" y1="400.06625" x2="1321" y2="400.06625"/><path class="cls-5" d="M329.42039,338.83981c32.06586-111.792,111.89672-203.021,215.557-251.77589"/></g></g></svg>