<svg xmlns="http://www.w3.org/2000/svg" viewBox="0 0 1336 1230.386"><defs><style>.cls-1,.cls-2{fill:none;stroke:#fdb91a;stroke-miterlimit:10}.cls-1{stroke-linecap:round}.cls-1,.cls-2{stroke-width:30px}.cls-4{fill:#fdb91a}</style></defs><g id="Layer_2" data-name="Layer 2"><g id="Layer_1-2" data-name="Layer 1"><path class="cls-1" d="M666 916.186c-49.962 0-91.225 14.96-91.225-34.69 0-58.445-166.494-99.247-241.43-226.087C294.751 590.088 271 513.647 271 431c0-229.75 176.848-416 395-416s395 186.25 395 416c0 81.772-23.199 157.51-61.096 222.349-82.081 140.431-236.446 155.51-236.446 229.027 0 16.09-5.242 26.404-14.028 33M570.205 1111.068h-10.138a32.366 32.366 0 0 1-32.28-32.28 32.366 32.366 0 0 1 32.28-32.28h111.46M742.235 1046.509h22.76a32.366 32.366 0 0 1 32.28 32.28 32.366 32.366 0 0 1-32.28 32.28H630.52M764.995 981.863a32.366 32.366 0 0 1 32.194 31.847 32.366 32.366 0 0 1-32.28 32.28M554.269 1046.509a32.366 32.366 0 0 1-32.28-32.28 32.366 32.366 0 0 1 32.28-32.28h67.023M764.995 917.304a32.366 32.366 0 0 1 32.28 32.28 32.366 32.366 0 0 1-32.28 32.279"/><path class="cls-1" d="M554.269 981.758a32.366 32.366 0 0 1-32.28-32.28 32.366 32.366 0 0 1 32.28-32.279l133.019-.127M694.732 1160.346v22.76a32.366 32.366 0 0 1-32.28 32.28 32.366 32.366 0 0 1-32.28-32.28v-72.386"/><path class="cls-2" d="M890.27 417.342a223.405 223.405 0 0 1-44.857 134.571l-16.809 21.11-162.619 203.175-179.427-224.773c-74.321-99.096-54.238-239.678 44.858-313.999s239.677-54.237 313.999 44.858a224.285 224.285 0 0 1 44.855 135.058z"/><circle class="cls-2" cx="665.986" cy="417.342" r="78.502"/><path class="cls-2" d="M594.471 574.506c37.912 37.911 98.319 38.86 135.058 2.12"/><circle class="cls-4" cx="665.986" cy="417.342" r="35"/><path class="cls-1" d="M231 130.066l-124-86M231 692.066l-124 86M169 400.066H15M1105 130.066l124-86M1105 692.066l124 86M1167 400.066h154"/><path d="M329.42 338.84c32.066-111.792 111.897-203.021 215.557-251.776" stroke-width="15" stroke-linecap="round" fill="none" stroke="#fdb91a" stroke-miterlimit="10"/></g></g></svg>
