<svg id="Layer_1" xmlns="http://www.w3.org/2000/svg" xmlns:xlink="http://www.w3.org/1999/xlink" viewBox="0 0 292.1 37"><style>.st0{fill:#5590cc}</style><path class="st0" d="M36.7 1h5.1c1.4 0 2.6.7 3.4 1.8l10.2 15.4c.1.2.5.3.7.1.1 0 .1-.1.1-.1L66.5 2.8c.7-1.1 2-1.8 3.3-1.8h5c.3 0 .5.2.5.5 0 .1 0 .2-.1.3L59.5 25.7c-.1.1-.1.2-.1.3v6.3c0 2.2-1.8 4-4 4h-2.7c-.3 0-.5-.2-.5-.5V25.6c0-.1 0-.2-.1-.3L36.3 1.8c-.2-.2-.1-.5.1-.7.1-.1.2-.1.3-.1zM95.3 33.3c2.2 0 4.4-.4 6.5-1.2 1.4-.5 2.6-1.2 3.8-2.1 1.3-.9 3-.7 4 .5l.6.7c-2 1.8-4.3 3.3-6.9 4.2-2.7 1-5.7 1.6-8.6 1.5-2.9 0-5.7-.4-8.5-1.2-2.4-.7-4.6-1.9-6.4-3.5-1.8-1.6-3.2-3.6-4.1-5.8-1-2.5-1.5-5.3-1.4-8-.1-2.7.4-5.5 1.4-8 .9-2.2 2.2-4.2 4-5.8 1.8-1.6 4-2.8 6.3-3.5 2.7-.8 5.4-1.2 8.2-1.2 2.9 0 5.9.5 8.6 1.5 2.5.9 4.9 2.4 6.9 4.2l-.6.7c-1 1.2-2.8 1.4-4.1.5-1.2-.8-2.5-1.5-3.8-2.1-2.1-.8-4.3-1.2-6.5-1.2-1.7 0-3.4.3-5.1.9-1.5.6-2.9 1.5-4 2.7-1.2 1.4-2.1 3-2.6 4.7-1.3 4.3-1.3 8.9 0 13.2.6 1.7 1.5 3.3 2.8 4.6 1.2 1.2 2.6 2.1 4.2 2.7 1.7.7 3.5 1 5.3 1zM132.9.1c2.8 0 5.5.4 8.1 1.2 2.3.7 4.4 1.9 6.3 3.5 1.8 1.6 3.2 3.6 4.1 5.8 1.9 5.1 1.9 10.7 0 15.8-.9 2.2-2.3 4.2-4.1 5.8-1.8 1.6-4 2.8-6.3 3.5-5.3 1.6-11 1.6-16.3 0-2.3-.7-4.5-1.9-6.3-3.5-1.8-1.6-3.1-3.6-4-5.8-1.9-5.1-1.9-10.7 0-15.8.9-2.2 2.2-4.2 4-5.8 1.8-1.6 4-2.8 6.3-3.5 2.7-.8 5.4-1.2 8.2-1.2zm0 3.5c-1.6 0-3.2.3-4.8.9-1.5.6-2.8 1.5-3.8 2.7-1.2 1.4-2.1 2.9-2.6 4.6-1.3 4.3-1.3 8.9 0 13.3.6 1.7 1.4 3.3 2.6 4.7 1.1 1.2 2.4 2.1 3.8 2.7 3.1 1.2 6.4 1.2 9.5 0 1.5-.6 2.8-1.5 3.9-2.7 1.2-1.4 2.1-2.9 2.6-4.7 1.3-4.3 1.3-8.9 0-13.3-.6-1.7-1.4-3.3-2.6-4.6-1.1-1.2-2.4-2.1-3.9-2.7-1.5-.6-3.1-.9-4.7-.9zM204.5 36.3h-2.8c-.3 0-.5-.2-.5-.5V5c0-2.2 1.8-4 4-4h2.8c.3 0 .5.2.5.5v30.8c.1 2.2-1.7 4-4 4zM250.6 1.5v34.3c0 .3-.2.5-.5.5h-6.9c-1.3 0-2.6-.7-3.3-1.8L222.5 9c-.2-.2-.5-.3-.7-.1-.1.1-.2.2-.2.4v26.6c0 .3-.2.5-.5.5h-6.3c-.3 0-.5-.2-.5-.5V1.5c0-.3.2-.5.5-.5h6.9c1.4 0 2.6.7 3.4 1.9l17.3 25.6c.2.2.5.3.7.1.1-.1.2-.2.2-.4V1.6c0-.3.2-.5.5-.5h6.3c.2 0 .4.2.5.4zM275.1.2c2.9 0 5.8.5 8.6 1.5 2.5.9 4.9 2.4 6.9 4.2l-.7.9c-.9 1.1-2.5 1.3-3.7.5-1.2-.9-2.6-1.7-4-2.2-2.1-.8-4.3-1.2-6.5-1.2-1.6 0-3.2.3-4.7.9-1.4.6-2.7 1.5-3.7 2.7-1.1 1.3-2 2.9-2.4 4.5-.6 2.1-.9 4.4-.9 6.6 0 2.3.3 4.6.9 6.7.5 1.7 1.3 3.3 2.5 4.6 1 1.2 2.4 2.1 3.9 2.7 1.6.6 3.3.9 5 .9 1.3 0 2.6-.1 3.9-.4.9-.2 1.8-.5 2.7-.9.7-.3 1.4-.7 2-1.2.1-.1.2-.2.2-.4V22c0-.3-.2-.5-.5-.5h-2.7c-1.8 0-3.2-1.4-3.2-3.2h9.5c2.3 0 4.2 1.9 4.2 4.2v7c0 1.7-.9 3.2-2.3 4.1-.6.4-1.3.7-2 1.1-1.7.8-3.4 1.4-5.1 1.8-2.3.6-4.6.8-7 .8-2.7 0-5.5-.4-8.1-1.2-2.3-.7-4.4-1.9-6.1-3.5-1.7-1.6-3-3.6-3.9-5.8-1.8-5.1-1.8-10.7 0-15.8.8-2.2 2.1-4.2 3.8-5.8 1.7-1.6 3.8-2.8 6-3.5C270 .6 272.5.2 275.1.2zM175.2 1c2.8 0 5.6.3 8.2 1.1 2.3.7 4.5 1.8 6.3 3.4 1.8 1.5 3.2 3.4 4.1 5.5 1.9 4.9 1.9 10.4 0 15.3-.9 2.1-2.3 4-4.1 5.5-1.9 1.5-4 2.7-6.3 3.3-2.7.8-5.5 1.2-8.2 1.1h-16.1c-.3 0-.5-.2-.5-.5V5c0-2.2 1.8-4 4-4h12.6zm-9.3 4.3V32c0 .3.2.5.5.5h8.8c1.6 0 3.3-.3 4.8-.8s2.8-1.4 3.9-2.5c1.2-1.2 2.1-2.7 2.7-4.3 1.3-4.1 1.3-8.5 0-12.6-.6-1.6-1.5-3.1-2.7-4.3-1.1-1.1-2.4-2-3.9-2.5s-3.2-.8-4.8-.8h-8.8c-.3.1-.5.4-.5.6z"/><defs><path id="SVGID_1_" d="M.1 35.8V24.1c0-2.6 2.1-4.7 4.7-4.7h17.3c1.9 0 3.8-.8 5.1-2.2.9-1.1 1.4-2.4 1.3-3.8 0-4.6-3-6.5-6.5-6.5H.4c-.2-.1-.4-.2-.4-.5V5.2C0 2.9 1.9 1 4.2 1H25c.4 0 .9 0 1.3.1 2.2.5 8.3 2.8 8.3 12.7 0 11.8-13.1 11.7-13.1 11.7H6.7c-.2 0-.4.2-.4.4v6.3c0 2.2-1.8 4-4 4H.4c-.2 0-.3-.2-.3-.4z"/></defs><clipPath id="SVGID_2_"><use xlink:href="#SVGID_1_" overflow="visible"/></clipPath><g clip-path="url(#SVGID_2_)"><path class="st0" d="M.1 35.8V24.1c0-2.6 2.1-4.7 4.7-4.7h17.3c1.9 0 3.8-.8 5.1-2.2.9-1.1 1.4-2.4 1.3-3.8 0-4.6-3-6.5-6.5-6.5H.4c-.2-.1-.4-.2-.4-.5V5.2C0 2.9 1.9 1 4.2 1H25c.4 0 .9 0 1.3.1 2.2.5 8.3 2.8 8.3 12.7 0 11.8-13.1 11.7-13.1 11.7H6.7c-.2 0-.4.2-.4.4v6.3c0 2.2-1.8 4-4 4H.4c-.2 0-.3-.2-.3-.4z"/><path d="M31.3 1c.4 0 .9 0 1.3.1 2.2.5 8.1 2.8 8.1 12.7 0 11.6-12.3 11.7-12.7 11.7H13.7c-.2 0-.4.2-.4.4v6.3c0 2.2-1.7 3.9-3.9 4H7.5c-.2 0-.4-.2-.4-.4V24.1c0-2.6 2-4.7 4.5-4.7h16.8c1.9 0 3.7-.8 4.9-2.2.9-1.1 1.3-2.4 1.3-3.8 0-4.6-2.9-6.5-6.3-6.5H7.5c-.2 0-.4-.2-.4-.4V5.2C7.1 3 8.9 1.1 11.2 1h20.1m0-.7H11.2c-2.7 0-4.9 2.3-4.8 5v1.2c0 .6.5 1.2 1.2 1.2h20.9c1.7 0 5.5.6 5.5 5.7 0 1.2-.4 2.4-1.1 3.3-1.1 1.3-2.7 2-4.3 2H11.7c-3 0-5.3 2.5-5.3 5.4v11.8c0 .6.5 1.2 1.2 1.2h1.8c2.6 0 4.7-2.2 4.6-4.8v-6h13.9c2.3-.1 4.7-.6 6.8-1.6 3-1.4 6.6-4.5 6.6-10.9 0-4.4-1.2-7.9-3.4-10.4-1.4-1.5-3.2-2.6-5.2-3-.5-.1-.9-.1-1.4-.1z" fill="#fff"/></g></svg>
