<svg width="3504" height="640" xmlns="http://www.w3.org/2000/svg"><g fill="none" fill-rule="evenodd"><path d="M1113.889 35.132L1197.879 333h-36.28l-12.699-48.073h-70.204L1066.18 333h-36.281l83.99-297.868zM1140.556 253l-19.41-74.558-7.439-34.467-7.074 34.467L1087.04 253h53.515zm158.258-212.245c19.955 1.089 38.035 5.2 54.24 12.336 16.206 7.135 30.084 16.991 41.633 29.569 11.55 12.577 20.469 27.755 26.757 45.533 6.29 17.778 9.434 37.913 9.434 60.408 0 22.494-3.145 42.63-9.434 60.408-6.288 17.778-15.207 32.955-26.757 45.533-11.55 12.577-25.427 22.434-41.633 29.57-16.205 7.134-34.285 11.246-54.24 12.335V40.755zm33.742 256.508c7.74-2.419 15.389-6.289 22.947-11.61 7.559-5.321 14.331-12.335 20.318-21.043 5.986-8.708 10.824-19.32 14.512-31.837 3.689-12.517 5.533-27.24 5.533-44.172 0-16.931-1.844-31.655-5.533-44.172-3.688-12.517-8.526-23.13-14.512-31.837-5.987-8.708-12.759-15.722-20.318-21.043-7.558-5.322-15.207-9.191-22.947-11.61v217.324zM2448.202 32.955l83.447 153.106 83.628-153.106V333h-33.742V197.308l.907-36.462-19.229 36.825-31.383 57.143v.363l-.181-.182v-.18l-31.565-57.325-19.23-36.644 1.09 36.1V333h-33.742V32.955zm293.95 11.065h97.233v31.928h-63.492v111.02h54.422v31.928h-54.422v82.177h63.492V333h-97.233V44.02zm214.676-3.265c19.954 1.089 38.034 5.2 54.24 12.336 16.206 7.135 30.083 16.991 41.633 29.569 11.55 12.577 20.468 27.755 26.757 45.533 6.289 17.778 9.433 37.913 9.433 60.408 0 22.494-3.144 42.63-9.433 60.408s-15.208 32.955-26.757 45.533c-11.55 12.577-25.427 22.434-41.633 29.57-16.206 7.134-34.286 11.246-54.24 12.335V40.755zm33.741 256.508c7.74-2.419 15.39-6.289 22.948-11.61 7.559-5.321 14.331-12.335 20.317-21.043 5.987-8.708 10.824-19.32 14.513-31.837s5.533-27.24 5.533-44.172c0-16.931-1.844-31.655-5.533-44.172-3.689-12.517-8.526-23.13-14.513-31.837-5.986-8.708-12.758-15.722-20.317-21.043-7.559-5.322-15.208-9.191-22.948-11.61v217.324zM3200.891 44.02h33.742V333h-33.742V44.02zm218.485-8.888L3503.367 333h-36.28l-12.7-48.073h-70.203L3371.667 333h-36.282l83.991-297.868zM3446.043 253l-19.41-74.558-7.438-34.467-7.075 34.467L3392.528 253h53.515z" fill="#1F1A1C"/><path d="M2190.351 44.02h33.742v160.363h63.673V44.02h33.742V333h-33.742v-96.69h-63.673V333h-33.742V44.02zm-146.104 292.427c-11.61 0-22.676-2.6-33.197-7.8-10.522-5.201-19.713-13.667-27.574-25.398-7.86-11.73-14.12-26.999-18.775-45.805-4.656-18.805-6.984-41.753-6.984-68.843 0-27.09 2.328-50.038 6.984-68.844 4.656-18.805 10.914-34.043 18.775-45.714 7.861-11.67 17.052-20.136 27.574-25.397 10.521-5.26 21.587-7.89 33.197-7.89 6.652 0 12.79.604 18.413 1.813 5.623 1.21 11.398 3.084 17.324 5.624l-15.057 29.206c-4.474-2.056-9.856-3.084-16.145-3.084-6.772 0-13.484 2.026-20.136 6.077-6.651 4.052-12.638 10.612-17.959 19.683-5.321 9.07-9.645 20.861-12.97 35.374-3.326 14.513-4.99 32.23-4.99 53.152 0 20.922 1.664 38.64 4.99 53.152 3.325 14.512 7.649 26.304 12.97 35.374 5.321 9.07 11.308 15.631 17.96 19.683 6.65 4.05 13.363 6.077 20.135 6.077 6.29 0 11.67-1.028 16.145-3.084l15.057 29.206c-5.926 2.54-11.7 4.414-17.324 5.624-5.624 1.209-11.761 1.814-18.413 1.814zM1757.553 44.02h97.234v31.928h-63.492v111.02h54.422v31.928h-54.422v82.177h63.492V333h-97.234V44.02zm-187.465 31.928h-45.351V44.02h124.444v31.928h-45.351V333h-33.742V75.948z" fill="#1F95F2"/><path d="M1026.943 567.43h12.366l17.135-40.277h51.937l17.135 40.277h12.366l-55.47-127.19-55.469 127.19zm33.741-50.17l21.728-50.699 21.729 50.7h-43.457zm165.348 50.17V437.59h-10.6v65.538c-5.829-10.422-14.838-15.545-27.204-15.545-11.836 0-21.375 3.886-28.971 11.836s-11.306 17.842-11.306 29.678c0 13.249 3.886 23.494 11.836 30.737 7.95 7.243 17.312 10.776 28.088 10.776 11.482 0 22.435-5.653 28.264-16.252v13.072h9.893zm-38.157-5.3c-8.656 0-15.546-3.179-20.845-9.539-5.123-6.359-7.773-14.132-7.773-23.494 0-8.48 2.473-16.076 7.42-22.789 5.122-6.89 12.188-10.246 21.551-10.246 8.303 0 15.016 3.18 20.139 9.716 5.123 6.36 7.772 14.133 7.772 23.319 0 19.961-11.482 33.034-28.264 33.034zm89.563 9.187l37.098-80.554h-11.483l-25.615 58.119-25.615-58.12h-11.482l37.097 80.555zm113.059-28.088c-6.007 12.542-15.016 18.902-27.205 18.902-8.656 0-15.546-3.18-20.669-9.54-4.946-6.359-7.419-13.602-7.419-21.728v-.883h63.419v-5.123c0-14.662-9.186-37.274-35.331-37.274-12.19 0-21.905 4.063-28.971 12.189-6.89 7.95-10.423 17.842-10.423 29.325 0 11.129 3.533 20.845 10.6 29.147 7.066 8.303 16.605 12.366 28.794 12.366 15.722 0 27.558-7.773 35.33-23.318l-8.125-4.063zm-54.41-21.729c2.12-15.015 13.073-25.438 27.382-25.438 7.242 0 13.072 2.65 17.488 7.773 4.417 5.123 6.89 10.953 7.067 17.665h-51.937zm83.734 45.93h10.6v-39.57c0-6.183 2.12-12.72 6.182-19.255 4.063-6.536 9.01-9.893 14.84-9.893 2.649 0 5.299.707 7.595 1.943l3.18-9.892c-3.003-1.237-6.183-1.767-9.363-1.767-8.302 0-15.192 3.887-22.435 17.842v-16.075h-10.599v76.667zm59.886 0h10.599v-68.188h14.839v-8.48h-14.839v-29.677h-10.6v29.678h-12.365v8.48h12.366v68.187zm41.69-76.667v76.667h10.6v-76.667h-10.6zm-.53-20.139c3.003 3.003 8.656 3.003 11.66 0 3.002-3.356 3.002-8.48 0-11.482-3.004-3.357-8.657-3.357-11.66 0-3.003 3.003-3.003 8.126 0 11.482zm29.855 81.084c5.123 12.543 13.955 18.902 26.851 18.902 9.893 0 16.959-2.473 21.375-7.42 4.416-5.122 6.713-10.599 6.713-16.605 0-12.895-7.95-19.432-24.732-24.555-3.886-1.236-6.712-2.12-8.479-2.826-3.533-1.59-7.596-5.3-7.596-10.953 0-7.066 5.123-12.189 13.072-12.189 7.243 0 13.78 4.417 16.782 11.483l7.95-4.24c-4.946-10.422-12.896-15.722-23.848-15.722-14.133 0-24.555 8.656-24.555 21.552 0 7.066 2.473 12.189 7.95 15.545 5.475 3.003 7.419 3.887 14.308 6.006 12.19 3.71 18.195 7.597 18.195 16.253 0 8.479-5.3 15.192-16.075 15.192-9.716 0-16.429-6.536-19.255-15.016l-8.656 4.593zm74.9-60.945v76.667h10.6v-76.667h-10.6zm-.53-20.139c3.004 3.003 8.657 3.003 11.66 0 3.003-3.356 3.003-8.48 0-11.482-3.003-3.357-8.656-3.357-11.66 0-3.002 3.003-3.002 8.126 0 11.482zm37.275 96.806h10.599v-39.923c0-9.01 2.297-16.43 6.89-22.435 4.77-6.007 10.599-9.01 17.665-9.01 7.596 0 12.719 3.003 14.839 8.48 2.12 5.476 2.473 9.362 2.473 15.192v47.696h10.6v-49.11c0-3.532.176-6.359-1.944-12.895-2.296-9.363-9.186-17.135-24.732-17.842-11.835 0-20.315 5.3-25.791 15.899v-12.72h-10.6v76.668zm87.62 14.31c4.063 16.781 16.429 25.26 36.744 25.26 24.202 0 37.98-16.428 37.98-42.043v-74.194h-9.892v13.602c-5.653-11.13-15.016-16.782-27.911-16.782-12.013 0-21.729 3.886-29.148 11.836-7.42 7.772-11.13 17.665-11.13 29.678 0 13.249 3.887 23.494 11.836 30.737 7.95 7.243 17.313 10.776 28.088 10.776 12.013 0 21.199-4.946 27.558-15.015v9.362c0 13.426-3.533 23.142-9.362 27.558-5.83 4.417-11.13 6.006-18.019 6.006-12.012 0-22.258-5.652-25.085-16.782h-11.659zm36.567-19.61c-8.656 0-15.545-3.179-20.845-9.539-5.123-6.536-7.772-14.308-7.772-23.494 0-8.48 2.473-16.076 7.419-22.789 5.123-6.89 12.19-10.246 21.552-10.246 8.302 0 15.015 3.18 20.138 9.54 5.123 6.36 7.773 14.132 7.773 23.495 0 9.892-2.65 17.842-7.95 24.024-5.299 6.007-12.012 9.01-20.315 9.01zm127.368 5.3h12.012V453.665h33.034v-9.892h-78.08v9.892h33.034V567.43zm121.714-24.201c-6.006 12.542-15.015 18.902-27.204 18.902-8.656 0-15.546-3.18-20.669-9.54-4.946-6.359-7.42-13.602-7.42-21.728v-.883h63.42v-5.123c0-14.662-9.187-37.274-35.331-37.274-12.19 0-21.906 4.063-28.972 12.189-6.89 7.95-10.422 17.842-10.422 29.325 0 11.129 3.533 20.845 10.599 29.147 7.066 8.303 16.605 12.366 28.795 12.366 15.722 0 27.558-7.773 35.33-23.318l-8.126-4.063zm-54.41-21.729c2.12-15.015 13.073-25.438 27.382-25.438 7.243 0 13.073 2.65 17.489 7.773 4.416 5.123 6.89 10.953 7.066 17.665h-51.936zm146.447 31.091c-7.243 6.36-15.192 9.54-24.202 9.54-9.186 0-16.782-3.003-22.965-9.01-6.183-6.182-9.186-14.132-9.186-24.024 0-9.363 3.003-17.136 9.01-23.495 6.006-6.36 14.132-9.54 24.201-9.54 7.42 0 15.192 2.827 23.142 8.48v-10.423c-6.183-4.416-14.132-6.536-23.848-6.536-12.72 0-23.142 3.886-31.445 11.66-8.303 7.595-12.366 17.664-12.366 29.854 0 12.189 4.063 22.081 12.366 29.854s18.902 11.66 31.621 11.66c8.303 0 16.076-2.297 23.672-6.89v-11.13zm18.019 14.84h10.599v-39.924c0-9.01 2.296-16.43 6.89-22.435 4.769-6.007 10.598-9.01 17.665-9.01 7.596 0 12.719 3.003 14.839 8.48 2.12 5.476 2.473 9.362 2.473 15.192v47.696h10.599v-49.11c0-3.532.177-6.359-1.943-12.895-2.297-9.363-9.186-17.135-24.732-17.842-11.836 0-20.315 5.3-25.791 15.899V437.59h-10.6v129.84zm89.21 0h10.599v-39.924c0-9.01 2.296-16.43 6.89-22.435 4.77-6.007 10.599-9.01 17.665-9.01 7.596 0 12.719 3.003 14.839 8.48 2.12 5.476 2.473 9.362 2.473 15.192v47.696h10.6v-49.11c0-3.532.176-6.359-1.944-12.895-2.297-9.363-9.186-17.135-24.732-17.842-11.835 0-20.315 5.3-25.791 15.899v-12.72h-10.6v76.668zm155.985-8.48c7.773-7.95 11.66-17.842 11.66-29.854 0-12.013-3.887-21.906-11.66-29.678-7.773-7.95-17.842-11.836-30.031-11.836-12.19 0-22.259 3.886-30.031 11.836-7.773 7.772-11.66 17.665-11.66 29.678 0 12.012 3.887 21.905 11.66 29.854 7.772 7.773 17.842 11.66 30.03 11.66 12.19 0 22.26-3.887 30.032-11.66zm-51.583-6.006c-5.83-6.183-8.833-14.133-8.833-23.848 0-9.716 3.003-17.666 8.833-23.849s13.072-9.186 21.552-9.186 15.722 3.003 21.552 9.186 8.832 14.133 8.832 23.849c0 9.715-3.003 17.665-8.832 23.848-5.83 6.183-13.073 9.186-21.552 9.186-8.48 0-15.722-3.003-21.552-9.186zm84.44 14.485h10.6V437.59h-10.6v129.84zm103.52-8.479c7.772-7.95 11.659-17.842 11.659-29.854 0-12.013-3.887-21.906-11.66-29.678-7.772-7.95-17.841-11.836-30.03-11.836-12.19 0-22.259 3.886-30.032 11.836-7.772 7.772-11.659 17.665-11.659 29.678 0 12.012 3.887 21.905 11.66 29.854 7.772 7.773 17.841 11.66 30.03 11.66 12.19 0 22.259-3.887 30.032-11.66zm-51.583-6.006c-5.83-6.183-8.833-14.133-8.833-23.848 0-9.716 3.003-17.666 8.833-23.849s13.072-9.186 21.552-9.186c8.479 0 15.722 3.003 21.551 9.186 5.83 6.183 8.833 14.133 8.833 23.849 0 9.715-3.003 17.665-8.833 23.848s-13.072 9.186-21.551 9.186c-8.48 0-15.723-3.003-21.552-9.186zm82.85 28.794c4.063 16.782 16.43 25.262 36.744 25.262 24.202 0 37.98-16.429 37.98-42.044v-74.194h-9.892v13.602c-5.653-11.13-15.015-16.782-27.911-16.782-12.012 0-21.728 3.886-29.148 11.836-7.42 7.772-11.129 17.665-11.129 29.678 0 13.249 3.886 23.494 11.836 30.737 7.95 7.243 17.312 10.776 28.088 10.776 12.012 0 21.198-4.946 27.558-15.015v9.362c0 13.426-3.533 23.142-9.363 27.558-5.83 4.417-11.13 6.006-18.019 6.006-12.012 0-22.258-5.652-25.084-16.782h-11.66zm36.568-19.608c-8.656 0-15.546-3.18-20.845-9.54-5.123-6.536-7.773-14.308-7.773-23.494 0-8.48 2.473-16.076 7.42-22.789 5.122-6.89 12.188-10.246 21.551-10.246 8.303 0 15.016 3.18 20.139 9.54 5.123 6.36 7.772 14.132 7.772 23.495 0 9.892-2.65 17.842-7.95 24.024-5.299 6.007-12.012 9.01-20.314 9.01zm53.173-71.368l35.33 75.96-15.899 37.805h11.483l45.223-113.765h-10.776l-24.554 64.832-28.795-64.832h-12.012zm134.786 76.667h10.6v-68.188h17.312v-8.48h-17.312v-33.917c0-8.303 3.003-12.366 9.186-12.366 2.65 0 5.476.707 8.126 2.12v-9.01c-2.65-1.059-6.183-1.589-10.246-1.589-11.836 0-17.666 6.89-17.666 20.492v34.27h-12.365v8.48h12.365v68.188zm110.232-8.479c7.773-7.95 11.66-17.842 11.66-29.854 0-12.013-3.887-21.906-11.66-29.678-7.772-7.95-17.842-11.836-30.03-11.836-12.19 0-22.26 3.886-30.032 11.836-7.773 7.772-11.66 17.665-11.66 29.678 0 12.012 3.887 21.905 11.66 29.854 7.773 7.773 17.842 11.66 30.031 11.66 12.19 0 22.259-3.887 30.031-11.66zm-51.583-6.006c-5.83-6.183-8.832-14.133-8.832-23.848 0-9.716 3.003-17.666 8.832-23.849 5.83-6.183 13.073-9.186 21.552-9.186 8.48 0 15.722 3.003 21.552 9.186s8.833 14.133 8.833 23.849c0 9.715-3.004 17.665-8.833 23.848-5.83 6.183-13.072 9.186-21.552 9.186s-15.722-3.003-21.552-9.186zm84.44 14.485h10.6v-39.57c0-6.183 2.12-12.72 6.183-19.255 4.063-6.536 9.01-9.893 14.839-9.893 2.65 0 5.3.707 7.596 1.943l3.18-9.892c-3.003-1.237-6.183-1.767-9.363-1.767-8.303 0-15.192 3.887-22.435 17.842v-16.075h-10.6v76.667zm92.92 0h11.13l11.836-91.506 45.4 96.453 45.4-96.453 11.836 91.506h11.129l-16.782-128.604-51.583 110.232-51.583-110.232-16.782 128.604zm218.875-24.201c-6.006 12.542-15.016 18.902-27.205 18.902-8.656 0-15.545-3.18-20.668-9.54-4.947-6.359-7.42-13.602-7.42-21.728v-.883h63.419v-5.123c0-14.662-9.186-37.274-35.33-37.274-12.19 0-21.906 4.063-28.972 12.189-6.89 7.95-10.423 17.842-10.423 29.325 0 11.129 3.533 20.845 10.6 29.147 7.066 8.303 16.605 12.366 28.794 12.366 15.722 0 27.558-7.773 35.33-23.318l-8.125-4.063zm-54.41-21.729c2.12-15.015 13.073-25.438 27.382-25.438 7.243 0 13.072 2.65 17.489 7.773 4.416 5.123 6.889 10.953 7.066 17.665h-51.937zm156.869 45.93V437.59h-10.6v65.538c-5.829-10.422-14.838-15.545-27.204-15.545-11.836 0-21.375 3.886-28.971 11.836s-11.306 17.842-11.306 29.678c0 13.249 3.886 23.494 11.836 30.737 7.95 7.243 17.312 10.776 28.088 10.776 11.482 0 22.435-5.653 28.264-16.252v13.072h9.893zm-38.157-5.3c-8.656 0-15.546-3.179-20.845-9.539-5.123-6.359-7.773-14.132-7.773-23.494 0-8.48 2.473-16.076 7.42-22.789 5.122-6.89 12.188-10.246 21.551-10.246 8.303 0 15.016 3.18 20.139 9.716 5.123 6.36 7.772 14.133 7.772 23.319 0 19.961-11.482 33.034-28.264 33.034zm64.302-71.367v76.667h10.599v-76.667h-10.6zm-.53-20.139c3.003 3.003 8.656 3.003 11.659 0 3.003-3.356 3.003-8.48 0-11.482-3.003-3.357-8.656-3.357-11.66 0-3.002 3.003-3.002 8.126 0 11.482zm100.516 33.741c-6.006-11.13-15.37-16.782-28.088-16.782-11.836 0-21.375 3.886-28.971 11.836-7.42 7.772-11.13 17.665-11.13 29.678 0 11.835 3.71 21.728 10.953 29.677 7.42 7.95 17.135 11.836 28.971 11.836 11.483 0 22.435-5.653 28.265-16.252v13.072h9.892v-76.667h-9.892v13.602zm-28.265 57.766c-8.656 0-15.545-3.18-20.845-9.54-5.123-6.536-7.773-14.308-7.773-23.494 0-9.54 2.65-17.49 8.126-23.672 5.477-6.183 12.543-9.363 20.845-9.363 8.303 0 15.016 3.18 20.139 9.54 5.123 6.36 7.773 14.132 7.773 23.495 0 9.892-2.65 17.842-7.95 24.024-5.3 6.007-12.012 9.01-20.315 9.01z" fill="#1F1A1C"/><path d="M577.108 454.228l37.752-83.513 93.161 206.202h167.69L674.471 131.843l-11.4 22.774 182.007 402.534-124.266.001-105.947-234.436-48.605 107.52 10.847 23.992zm-278.843-.744l-37.415-82.769-93.16 206.202H0l200.812-444.132 11.398 22.77L30.628 557.158l124.322-.054 105.895-234.388 48.297 106.713-10.877 24.055zm226.986-113.948l11.978-116.958h91.822l63.882-127.613H181.88l63.882 127.613h91.822l12.02 117.363 16.238-35.915-10.411-101.213h-97.468l-44.067-88.083h447.086l-44.12 88.04-97.48.043-10.332 100.891 16.201 35.832zm-37.918 233.978h-99.628l8.93-19.764 81.77.002 8.928 19.762zM217.912 94.965L260.85 0l42.93 94.965h-21.72l-21.227-46.948-21.227 46.948h-21.694zm354.02 0L614.86 0l42.938 94.965H636.1L614.86 47.99l-21.236 46.975h-21.693zM357.666 640H213.933L437.52 145.5 661.104 640H517.371l-79.852-176.744L357.667 640zm-12.758-19.772l92.61-204.983 92.634 204.99 100.312-.019-192.95-426.727-192.938 426.717 100.332.022z" fill="#1F95F2"/></g></svg>
