<?xml version="1.0" encoding="utf-8"?>
<!-- Generator: Adobe Illustrator 21.0.1, SVG Export Plug-In . SVG Version: 6.00 Build 0)  -->
<svg version="1.1" id="Layer_1" xmlns="http://www.w3.org/2000/svg" xmlns:xlink="http://www.w3.org/1999/xlink" x="0px" y="0px"
	 viewBox="0 0 597 545" style="enable-background:new 0 0 597 545;" xml:space="preserve">
<style type="text/css">
	.st0{display:none;}
	.st1{display:inline;}
</style>
<g id="Layer_1_1_">
	<path d="M409.3,196.5l64.1-137.6l-37.2-17.3L345,237.5h89.4v81.5h41V196.5H409.3z M467.5,311.1h-25.3v-81.5h-84.9L440.1,52
		L463,62.7l-66,141.6h70.5L467.5,311.1L467.5,311.1z"/>
	<path d="M344.7,318.9V67.7l-20.5-20.5h-93.3l-20.5,20.5v251.3h41V88.2h52.3v230.8H344.7z M243.6,80.3v230.8h-25.3V70.9L234.2,55
		H321l15.9,15.9v240.1h-25.3V80.3H243.6z"/>
	<path d="M144.2,359.2l331.2,0.3v-28.5H144.2L144.2,359.2z M467.5,338.9v12.7l-315.5-0.3l0-12.5L467.5,338.9L467.5,338.9z"/>
	<path d="M144.5,318.9h41V196.5h-66.1L195.7,32h279.7V4.8H163.8L55.1,237.5h89.4V318.9z M67.5,229.6L168.8,12.7h298.7v11.4H190.6
		l-83.5,180.2h70.5v106.7h-25.3v-81.5H67.5z"/>
	<polygon points="452.6,66.5 443.9,62.5 369.7,221.7 450.1,221.7 450.1,303.2 459.7,303.2 459.7,212.2 384.7,212.2 	"/>
	<polygon points="319.5,303.2 329,303.2 329,74.2 317.7,62.9 237.4,62.9 226.1,74.2 226.1,303.2 235.7,303.2 235.7,72.5 319.5,72.5 
			"/>
	<polygon points="160.2,303.2 169.8,303.2 169.8,212.2 94.9,212.2 182.3,24.1 172.5,24.1 79.8,221.7 160.2,221.7 	"/>
	<g>
		<path d="M69.5,525.1c0,2.5-0.9,4.7-2.7,6.6c-1.8,1.9-4,2.8-6.6,2.8s-4.8-0.9-6.7-2.8c-1.9-1.9-2.8-4-2.8-6.6v-36.6
			c0-1.9-0.4-3.7-1.1-5.3c-0.7-1.6-1.7-3.1-2.9-4.3c-1.2-1.2-2.6-2.2-4.3-2.9c-1.6-0.7-3.4-1.1-5.3-1.1c-1.8,0-3.6,0.4-5.3,1.1
			c-1.7,0.7-3.1,1.7-4.3,2.9c-1.2,1.2-2.2,2.6-2.9,4.3c-0.7,1.6-1.1,3.4-1.1,5.3v36.6c0,2.5-0.9,4.7-2.7,6.6c-1.8,1.9-4,2.8-6.6,2.8
			c-2.6,0-4.8-0.9-6.7-2.8c-1.9-1.9-2.8-4-2.8-6.6v-56.5c0-2.5,0.9-4.7,2.8-6.6c1.9-1.9,4.1-2.8,6.7-2.8c2.6,0,4.8,0.9,6.6,2.8
			c1.8,1.9,2.7,4,2.7,6.6c0.8-0.9,1.8-1.9,3.1-3c1.3-1.1,2.9-2.1,4.7-3c1.8-0.9,3.9-1.7,6.2-2.3s5-1,7.9-1c3.3,0,6.4,0.6,9.3,1.7
			c2.9,1.1,5.5,2.7,7.7,4.7c2.2,2,3.9,4.4,5.2,7.2c1.3,2.8,1.9,5.9,1.9,9.4L69.5,525.1L69.5,525.1z"/>
		<path d="M100,533.4c-4.6-1.9-8.6-4.5-11.9-7.9s-6-7.4-8-12.1c-1.9-4.7-2.9-9.9-2.9-15.6c0-5.7,1-10.9,2.9-15.6
			c1.9-4.7,4.6-8.8,8-12.1c3.4-3.4,7.4-6,11.9-7.9c4.6-1.9,9.5-2.8,14.7-2.8c5.3,0,10.2,0.9,14.8,2.8c4.6,1.9,8.6,4.5,11.9,7.9
			s6,7.4,8,12.1c1.9,4.7,2.9,9.9,2.9,15.6s-1,10.9-2.9,15.6c-1.9,4.7-4.6,8.8-8,12.1s-7.4,6-11.9,7.9c-4.6,1.9-9.5,2.8-14.8,2.8
			C109.5,536.2,104.6,535.2,100,533.4z M133.8,488.3c-1-3-2.3-5.6-4-7.9c-1.7-2.3-3.9-4.1-6.4-5.5c-2.6-1.3-5.4-2-8.6-2
			c-3.2,0-6.1,0.7-8.6,2c-2.5,1.3-4.7,3.2-6.4,5.5c-1.8,2.3-3.1,4.9-4.1,7.9c-1,3-1.4,6.1-1.4,9.4c0,3.3,0.5,6.4,1.4,9.5
			c1,3,2.3,5.7,4.1,7.9c1.8,2.2,3.9,4,6.4,5.4c2.5,1.3,5.4,2,8.6,2c3.2,0,6.1-0.7,8.6-2c2.6-1.3,4.7-3.1,6.4-5.4
			c1.7-2.2,3.1-4.9,4-7.9c1-3,1.4-6.2,1.4-9.5C135.2,494.5,134.7,491.3,133.8,488.3z"/>
		<path d="M186.2,459.3v1.7h9.2c1.6,0,3,0.6,4.2,1.8c1.2,1.2,1.8,2.6,1.8,4.2c0,1.7-0.6,3.2-1.8,4.3c-1.2,1.1-2.6,1.7-4.2,1.7h-9.2
			v52.2c0,2.5-0.9,4.7-2.8,6.6c-1.9,1.9-4,2.8-6.6,2.8c-2.6,0-4.8-0.9-6.7-2.8c-1.9-1.9-2.8-4-2.8-6.6V473h-5.5
			c-1.6,0-3-0.6-4.2-1.7c-1.2-1.1-1.8-2.6-1.8-4.3c0-1.6,0.6-3,1.8-4.2s2.6-1.8,4.2-1.8h5.5v-1.7v-14.5c0-2.6,0.9-4.8,2.8-6.6
			c1.9-1.8,4.1-2.7,6.7-2.7c2.5,0,4.7,0.9,6.6,2.7c1.9,1.8,2.8,4,2.8,6.6V459.3z"/>
		<path d="M270.9,525.1c0,2.5-0.9,4.7-2.8,6.6c-1.9,1.9-4,2.8-6.6,2.8c-2.6,0-4.8-0.9-6.7-2.8c-1.9-1.9-2.8-4-2.8-6.6V473h-5.5
			c-1.6,0-3-0.6-4.2-1.7c-1.2-1.1-1.8-2.6-1.8-4.3c0-1.6,0.6-3,1.8-4.2s2.6-1.8,4.2-1.8h5.5v-1.7c0-4.1,0.3-7.8,1-11.2
			c0.6-3.4,1.8-6.2,3.4-8.6c1.6-2.4,3.9-4.2,6.7-5.5c2.9-1.3,6.5-1.9,10.9-1.9c4.5,0,8.1,0.5,10.8,1.4c2.7,1,4.1,3,4.1,6.2
			c0,2.2-0.5,4.1-1.6,5.5c-1,1.4-3.1,2.1-6.1,2.1c-3.7,0-6.4,0.8-8,2.5c-1.6,1.7-2.5,4.8-2.5,9.4v1.7h9.2c1.6,0,3,0.6,4.2,1.8
			c1.2,1.2,1.8,2.6,1.8,4.2c0,1.7-0.6,3.2-1.8,4.3c-1.2,1.1-2.6,1.7-4.2,1.7h-9.2L270.9,525.1L270.9,525.1z"/>
		<path d="M315.6,533.4c-4.6-1.9-8.6-4.5-11.9-7.9c-3.4-3.4-6-7.4-8-12.1c-1.9-4.7-2.9-9.9-2.9-15.6c0-5.7,1-10.9,2.9-15.6
			c1.9-4.7,4.6-8.8,8-12.1c3.4-3.4,7.4-6,11.9-7.9c4.6-1.9,9.5-2.8,14.7-2.8c5.3,0,10.2,0.9,14.8,2.8c4.6,1.9,8.6,4.5,11.9,7.9
			s6,7.4,8,12.1c1.9,4.7,2.9,9.9,2.9,15.6s-1,10.9-2.9,15.6c-1.9,4.7-4.6,8.8-8,12.1c-3.4,3.4-7.4,6-11.9,7.9
			c-4.6,1.9-9.5,2.8-14.8,2.8C325,536.2,320.2,535.2,315.6,533.4z M349.3,488.3c-1-3-2.3-5.6-4-7.9c-1.7-2.3-3.9-4.1-6.4-5.5
			c-2.6-1.3-5.4-2-8.6-2c-3.2,0-6.1,0.7-8.6,2c-2.5,1.3-4.7,3.2-6.4,5.5c-1.8,2.3-3.1,4.9-4.1,7.9c-1,3-1.4,6.1-1.4,9.4
			c0,3.3,0.5,6.4,1.4,9.5c1,3,2.3,5.7,4.1,7.9c1.8,2.2,3.9,4,6.4,5.4c2.5,1.3,5.4,2,8.6,2c3.2,0,6.1-0.7,8.6-2
			c2.6-1.3,4.7-3.1,6.4-5.4c1.7-2.2,3.1-4.9,4-7.9c1-3,1.4-6.2,1.4-9.5C350.7,494.5,350.3,491.3,349.3,488.3z"/>
		<path d="M375.5,468.7c0-2.5,0.9-4.7,2.8-6.6c1.9-1.9,4.1-2.8,6.7-2.8c2.6,0,4.8,0.9,6.6,2.8c1.8,1.9,2.7,4,2.7,6.6v36.6
			c0,1.9,0.4,3.7,1.1,5.3c0.7,1.6,1.7,3.1,2.9,4.3c1.2,1.3,2.7,2.2,4.3,2.9c1.7,0.7,3.4,1,5.3,1c1.9,0,3.7-0.3,5.3-1
			c1.6-0.7,3.1-1.7,4.3-2.9c1.2-1.3,2.2-2.7,2.9-4.3c0.7-1.6,1.1-3.4,1.1-5.3v-36.6c0-2.5,0.9-4.7,2.8-6.6c1.9-1.9,4.1-2.8,6.7-2.8
			c2.6,0,4.8,0.9,6.6,2.8c1.8,1.9,2.7,4,2.7,6.6v56.5c0,2.5-0.9,4.7-2.7,6.6c-1.8,1.9-4,2.8-6.6,2.8c-2.6,0-4.8-0.9-6.6-2.8
			c-1.8-1.9-2.7-4-2.7-6.6c-0.8,1-1.8,2-3.1,3c-1.3,1.1-2.9,2.1-4.7,3c-1.8,0.9-3.9,1.7-6.2,2.3c-2.3,0.6-5,1-7.9,1
			c-3.3,0-6.4-0.5-9.3-1.6c-2.9-1.1-5.5-2.6-7.7-4.7c-2.2-2-4-4.5-5.3-7.3c-1.3-2.8-1.9-5.9-1.9-9.4L375.5,468.7L375.5,468.7z"/>
		<path d="M515.4,525.1c0,2.5-0.9,4.7-2.7,6.6c-1.8,1.9-4,2.8-6.6,2.8c-2.6,0-4.8-0.9-6.7-2.8c-1.9-1.9-2.8-4-2.8-6.6v-36.6
			c0-1.9-0.4-3.7-1.1-5.3c-0.7-1.6-1.7-3.1-2.9-4.3c-1.2-1.2-2.6-2.2-4.3-2.9c-1.6-0.7-3.4-1.1-5.3-1.1c-1.8,0-3.6,0.4-5.3,1.1
			c-1.7,0.7-3.1,1.7-4.3,2.9c-1.2,1.2-2.2,2.6-2.9,4.3c-0.7,1.6-1.1,3.4-1.1,5.3v36.6c0,2.5-0.9,4.7-2.7,6.6c-1.8,1.9-4,2.8-6.6,2.8
			s-4.8-0.9-6.7-2.8c-1.9-1.9-2.8-4-2.8-6.6v-56.5c0-2.5,0.9-4.7,2.8-6.6c1.9-1.9,4.1-2.8,6.7-2.8c2.6,0,4.8,0.9,6.6,2.8
			c1.8,1.9,2.7,4,2.7,6.6c0.8-0.9,1.8-1.9,3.1-3c1.3-1.1,2.9-2.1,4.7-3c1.8-0.9,3.9-1.7,6.2-2.3c2.3-0.6,5-1,7.9-1
			c3.3,0,6.4,0.6,9.3,1.7c2.9,1.1,5.5,2.7,7.7,4.7c2.2,2,3.9,4.4,5.2,7.2c1.3,2.8,1.9,5.9,1.9,9.4L515.4,525.1L515.4,525.1z"/>
		<path d="M570.6,528c-1,1.1-2.2,2.1-3.8,3c-1.6,1-3.6,1.8-6.1,2.4c-2.5,0.6-5.6,1-9.3,1c-4.3,0-8.2-0.9-11.7-2.7
			c-3.5-1.8-6.4-4.4-8.9-7.7c-2.5-3.3-4.4-7.3-5.7-11.9c-1.3-4.6-2-9.6-2-15.2c0-5.5,0.7-10.6,2-15.2c1.3-4.6,3.2-8.6,5.7-11.9
			c2.5-3.3,5.4-5.9,8.9-7.7c3.5-1.8,7.4-2.7,11.7-2.7c3.2,0,6,0.5,8.4,1.4c2.4,1,4.5,2,6.2,3.2c1.7,1.2,3.1,2.2,4.2,3.2
			c1,1,1.8,1.4,2.3,1.4c0.4,0,0.6-0.6,0.6-1.7v-25.4c0-2.6,0.9-4.8,2.7-6.6c1.8-1.8,4-2.7,6.6-2.7c2.6,0,4.8,0.9,6.7,2.7
			c1.9,1.8,2.8,4,2.8,6.6v83.7c0,2.5-0.9,4.7-2.8,6.6c-1.9,1.9-4.1,2.8-6.7,2.8c-2.6,0-4.8-0.9-6.6-2.8c-1.8-1.9-2.7-4-2.7-6.6
			C572.4,526,571.5,527,570.6,528z M544.7,480.6c-3.1,4-4.6,9.4-4.6,16.4c0,6.8,1.5,12.2,4.6,16.2c3.1,4,7.3,6,12.8,6s9.7-2,12.8-6
			c3.1-4,4.6-9.4,4.6-16.2c0-6.9-1.5-12.4-4.6-16.4c-3.1-4-7.3-6-12.8-6S547.8,476.6,544.7,480.6z"/>
	</g>
</g>
<g id="Layer_2" class="st0">
	<g class="st1">
		<polygon points="400.8,196.5 465,58.9 427.8,41.6 336.5,237.5 425.9,237.5 425.9,318.9 466.9,318.9 466.9,196.5 		"/>
		<polygon points="336.2,318.9 336.2,67.7 315.7,47.2 222.4,47.2 201.9,67.7 201.9,318.9 242.9,318.9 242.9,88.2 295.2,88.2 
			295.2,318.9 		"/>
		<polygon points="135.7,359.2 466.9,359.5 466.9,331.1 135.7,331.1 		"/>
		<polygon points="136,318.9 177,318.9 177,196.5 111,196.5 187.2,32 466.9,32 466.9,4.8 155.3,4.8 46.6,237.5 136,237.5 		"/>
	</g>
</g>
</svg>
