<?xml version="1.0" encoding="UTF-8" standalone="no"?>
<svg width="3504px" height="640px" viewBox="0 0 3504 640" version="1.1" xmlns="http://www.w3.org/2000/svg" xmlns:xlink="http://www.w3.org/1999/xlink">
    <!-- Generator: Sketch 39.1 (31720) - http://www.bohemiancoding.com/sketch -->
    <title>logo 640 stroke</title>
    <desc>Created with Sketch.</desc>
    <defs></defs>
    <g id="Page-1" stroke="none" stroke-width="1" fill="none" fill-rule="evenodd">
        <g id="ATM-Concept-4" transform="translate(-921.000000, -85.000000)">
            <g id="Light-BG">
                <g id="logo-640-stroke" transform="translate(921.000000, 85.000000)">
                    <g id="text" transform="translate(1026.000000, 32.000000)">
                        <path d="M87.8888889,3.13151927 L171.879819,301 L135.598639,301 L122.900227,252.927438 L52.6961451,252.927438 L40.1791383,301 L3.89795918,301 L87.8888889,3.13151927 Z M114.555556,221 L95.1451247,146.442177 L87.707483,111.975057 L80.6326531,146.442177 L61.0408163,221 L114.555556,221 Z M272.814059,8.75510204 C292.768807,9.84354286 310.848747,13.9553687 327.054422,21.0907029 C343.260096,28.2260372 357.137508,38.0823256 368.687075,50.6598639 C380.236641,63.2374023 389.155675,78.4148771 395.444444,96.1927438 C401.733214,113.97061 404.877551,134.106463 404.877551,156.600907 C404.877551,179.095351 401.733214,199.231204 395.444444,217.00907 C389.155675,234.786937 380.236641,249.964412 368.687075,262.54195 C357.137508,275.119488 343.260096,284.975777 327.054422,292.111111 C310.848747,299.246445 292.768807,303.358271 272.814059,304.446712 L272.814059,8.75510204 Z M306.555556,265.263039 C314.295579,262.844281 321.944785,258.974327 329.503401,253.653061 C337.062018,248.331795 343.834437,241.317504 349.820862,232.609977 C355.807286,223.902451 360.644728,213.290312 364.333333,200.773243 C368.021938,188.256173 369.866213,173.532209 369.866213,156.600907 C369.866213,139.669605 368.021938,124.945641 364.333333,112.428571 C360.644728,99.911502 355.807286,89.2993633 349.820862,80.5918367 C343.834437,71.8843102 337.062018,64.870019 329.503401,59.5487528 C321.944785,54.2274866 314.295579,50.3575329 306.555556,47.9387755 L306.555556,265.263039 Z M1422.20181,0.954648526 L1505.64853,154.061224 L1589.27664,0.954648526 L1589.27664,301 L1555.53515,301 L1555.53515,165.30839 L1556.44218,128.845805 L1537.21315,165.671202 L1505.82993,222.814059 L1505.82993,223.176871 L1505.64853,222.995465 L1505.64853,222.814059 L1474.0839,165.489796 L1454.85488,128.845805 L1455.94331,164.945578 L1455.94331,301 L1422.20181,301 L1422.20181,0.954648526 Z M1716.15193,12.0204082 L1813.38549,12.0204082 L1813.38549,43.9478458 L1749.89342,43.9478458 L1749.89342,154.968254 L1804.31519,154.968254 L1804.31519,186.895692 L1749.89342,186.895692 L1749.89342,269.072562 L1813.38549,269.072562 L1813.38549,301 L1716.15193,301 L1716.15193,12.0204082 Z M1930.82766,8.75510204 C1950.78241,9.84354286 1968.86235,13.9553687 1985.06803,21.0907029 C2001.2737,28.2260372 2015.15111,38.0823256 2026.70068,50.6598639 C2038.25025,63.2374023 2047.16928,78.4148771 2053.45805,96.1927438 C2059.74682,113.97061 2062.89116,134.106463 2062.89116,156.600907 C2062.89116,179.095351 2059.74682,199.231204 2053.45805,217.00907 C2047.16928,234.786937 2038.25025,249.964412 2026.70068,262.54195 C2015.15111,275.119488 2001.2737,284.975777 1985.06803,292.111111 C1968.86235,299.246445 1950.78241,303.358271 1930.82766,304.446712 L1930.82766,8.75510204 Z M1964.56916,265.263039 C1972.30918,262.844281 1979.95839,258.974327 1987.51701,253.653061 C1995.07562,248.331795 2001.84804,241.317504 2007.83447,232.609977 C2013.82089,223.902451 2018.65833,213.290312 2022.34694,200.773243 C2026.03554,188.256173 2027.87982,173.532209 2027.87982,156.600907 C2027.87982,139.669605 2026.03554,124.945641 2022.34694,112.428571 C2018.65833,99.911502 2013.82089,89.2993633 2007.83447,80.5918367 C2001.84804,71.8843102 1995.07562,64.870019 1987.51701,59.5487528 C1979.95839,54.2274866 1972.30918,50.3575329 1964.56916,47.9387755 L1964.56916,265.263039 Z M2174.89116,12.0204082 L2208.63265,12.0204082 L2208.63265,301 L2174.89116,301 L2174.89116,12.0204082 Z M2393.37642,3.13151927 L2477.36735,301 L2441.08617,301 L2428.38776,252.927438 L2358.18367,252.927438 L2345.66667,301 L2309.38549,301 L2393.37642,3.13151927 Z M2420.04308,221 L2400.63265,146.442177 L2393.19501,111.975057 L2386.12018,146.442177 L2366.52834,221 L2420.04308,221 Z" id="ADTECHMEDIA" fill="#1F1A1C"></path>
                        <path d="M1164.35147,12.0204082 L1198.09297,12.0204082 L1198.09297,172.38322 L1261.76644,172.38322 L1261.76644,12.0204082 L1295.50794,12.0204082 L1295.50794,301 L1261.76644,301 L1261.76644,204.310658 L1198.09297,204.310658 L1198.09297,301 L1164.35147,301 L1164.35147,12.0204082 Z M1018.24717,304.446712 C1006.63713,304.446712 995.571481,301.846587 985.049887,296.646259 C974.528292,291.44593 965.337152,282.980406 957.47619,271.249433 C949.615229,259.51846 943.356788,244.250283 938.70068,225.444444 C934.044572,206.638606 931.716553,183.69099 931.716553,156.600907 C931.716553,129.510824 934.044572,106.563208 938.70068,87.7573696 C943.356788,68.9515311 949.615229,53.7135882 957.47619,42.0430839 C965.337152,30.3725796 974.528292,21.9070558 985.049887,16.6462585 C995.571481,11.3854612 1006.63713,8.75510204 1018.24717,8.75510204 C1024.89875,8.75510204 1031.03625,9.35978231 1036.65986,10.569161 C1042.28347,11.7785397 1048.05817,13.6530485 1053.98413,16.1927438 L1038.92744,45.399093 C1034.45274,43.3431492 1029.07108,42.3151927 1022.78231,42.3151927 C1016.00979,42.3151927 1009.29784,44.3408717 1002.64626,48.3922902 C995.994676,52.4437088 990.008341,59.0044898 984.687075,68.0748299 C979.365809,77.1451701 975.042345,88.9364354 971.716553,103.44898 C968.390762,117.961524 966.727891,135.678656 966.727891,156.600907 C966.727891,177.523158 968.390762,195.24029 971.716553,209.752834 C975.042345,224.265379 979.365809,236.056644 984.687075,245.126984 C990.008341,254.197324 995.994676,260.758105 1002.64626,264.809524 C1009.29784,268.860942 1016.00979,270.886621 1022.78231,270.886621 C1029.07108,270.886621 1034.45274,269.858665 1038.92744,267.802721 L1053.98413,297.00907 C1048.05817,299.548766 1042.28347,301.423274 1036.65986,302.632653 C1031.03625,303.842032 1024.89875,304.446712 1018.24717,304.446712 Z M731.553288,12.0204082 L828.786848,12.0204082 L828.786848,43.9478458 L765.294785,43.9478458 L765.294785,154.968254 L819.716553,154.968254 L819.716553,186.895692 L765.294785,186.895692 L765.294785,269.072562 L828.786848,269.072562 L828.786848,301 L731.553288,301 L731.553288,12.0204082 Z M544.088435,43.9478458 L498.736961,43.9478458 L498.736961,12.0204082 L623.181406,12.0204082 L623.181406,43.9478458 L577.829932,43.9478458 L577.829932,301 L544.088435,301 L544.088435,43.9478458 Z" id="Combined-Shape" fill="#1F95F2"></path>
                        <path d="M0.943191499,535.430407 L13.3089556,535.430407 L30.4443715,495.153347 L82.3805807,495.153347 L99.5159966,535.430407 L111.881761,535.430407 L56.4124761,408.239691 L0.943191499,535.430407 Z M34.6840621,485.260735 L56.4124761,434.561103 L78.1408901,485.260735 L34.6840621,485.260735 Z M200.031993,535.430407 L200.031993,405.589884 L189.432767,405.589884 L189.432767,471.128434 C183.603192,460.705861 174.59385,455.582902 162.228086,455.582902 C150.392283,455.582902 140.852979,459.469285 133.256867,467.418704 C125.660755,475.368124 121.951026,485.260735 121.951026,497.096538 C121.951026,510.345571 125.837409,520.59149 133.786829,527.834295 C141.736248,535.077099 151.098898,538.610175 161.874778,538.610175 C173.357274,538.610175 184.309807,532.957254 190.139382,522.358028 L190.139382,535.430407 L200.031993,535.430407 Z M161.874778,530.130794 C153.218743,530.130794 146.329246,526.951026 141.029633,520.59149 C135.906674,514.231954 133.256867,506.459188 133.256867,497.096538 C133.256867,488.617157 135.73002,481.021045 140.676326,474.308202 C145.799285,467.418704 152.865436,464.062283 162.228086,464.062283 C170.530813,464.062283 177.243657,467.242051 182.366616,473.77824 C187.489575,480.137776 190.139382,487.910542 190.139382,497.096538 C190.139382,517.058414 178.656887,530.130794 161.874778,530.130794 L161.874778,530.130794 Z M251.438241,539.31679 L288.535533,458.76267 L277.053038,458.76267 L251.438241,516.881761 L225.823444,458.76267 L214.340949,458.76267 L251.438241,539.31679 Z M364.496656,511.22884 C358.490427,523.771258 349.481085,530.130794 337.291975,530.130794 C328.63594,530.130794 321.746443,526.951026 316.623483,520.59149 C311.677178,514.231954 309.204025,506.989149 309.204025,498.863076 L309.204025,497.979807 L372.622729,497.979807 L372.622729,492.856848 C372.622729,478.194585 363.436733,455.582902 337.291975,455.582902 C325.102864,455.582902 315.386907,459.645938 308.320756,467.772012 C301.431259,475.721432 297.898183,485.614043 297.898183,497.096538 C297.898183,508.225726 301.431259,517.941683 308.49741,526.244411 C315.563561,534.547138 325.102864,538.610175 337.291975,538.610175 C353.01416,538.610175 364.849963,530.837409 372.622729,515.291877 L364.496656,511.22884 Z M310.087294,489.500426 C312.207139,474.484855 323.159673,464.062283 337.468628,464.062283 C344.711433,464.062283 350.541008,466.712089 354.957352,471.835049 C359.373696,476.958008 361.846849,482.787583 362.023503,489.500426 L310.087294,489.500426 Z M393.821182,535.430407 L404.420408,535.430407 L404.420408,495.859962 C404.420408,489.67708 406.540253,483.14089 410.60329,476.604701 C414.666327,470.068511 419.612633,466.712089 425.442207,466.712089 C428.092014,466.712089 430.74182,467.418704 433.038319,468.655281 L436.218087,458.76267 C433.214973,457.526093 430.035205,456.996132 426.855437,456.996132 C418.55271,456.996132 411.663213,460.882515 404.420408,474.838163 L404.420408,458.76267 L393.821182,458.76267 L393.821182,535.430407 Z M453.706811,535.430407 L464.306037,535.430407 L464.306037,467.242051 L479.144954,467.242051 L479.144954,458.76267 L464.306037,458.76267 L464.306037,429.084836 L453.706811,429.084836 L453.706811,458.76267 L441.341047,458.76267 L441.341047,467.242051 L453.706811,467.242051 L453.706811,535.430407 Z M495.397101,458.76267 L495.397101,535.430407 L505.996327,535.430407 L505.996327,458.76267 L495.397101,458.76267 Z M494.86714,438.624139 C497.870254,441.627254 503.523175,441.627254 506.526289,438.624139 C509.529403,435.267718 509.529403,430.144758 506.526289,427.141644 C503.523175,423.785223 497.870254,423.785223 494.86714,427.141644 C491.864026,430.144758 491.864026,435.267718 494.86714,438.624139 L494.86714,438.624139 Z M524.721627,519.708221 C529.844587,532.250639 538.677275,538.610175 551.573001,538.610175 C561.465612,538.610175 568.531763,536.137022 572.948107,531.190716 C577.364452,526.067757 579.660951,520.59149 579.660951,514.585262 C579.660951,501.689536 571.711531,495.153347 554.929422,490.030387 C551.043039,488.793811 548.216579,487.910542 546.450041,487.203927 C542.916966,485.614043 538.853929,481.904314 538.853929,476.251393 C538.853929,469.185242 543.976889,464.062283 551.926308,464.062283 C559.169113,464.062283 565.705303,468.478627 568.708417,475.544778 L576.657836,471.305087 C571.711531,460.882515 563.762111,455.582902 552.809577,455.582902 C538.677275,455.582902 528.254703,464.238936 528.254703,477.134662 C528.254703,484.200813 530.727856,489.323772 536.204123,492.680194 C541.680389,495.683308 543.623581,496.566577 550.513078,498.686422 C562.702188,502.396151 568.708417,506.282534 568.708417,514.938569 C568.708417,523.41795 563.408804,530.130794 552.632923,530.130794 C542.916966,530.130794 536.204123,523.594604 533.377662,515.115223 L524.721627,519.708221 Z M599.622827,458.76267 L599.622827,535.430407 L610.222053,535.430407 L610.222053,458.76267 L599.622827,458.76267 Z M599.092866,438.624139 C602.09598,441.627254 607.7489,441.627254 610.752015,438.624139 C613.755129,435.267718 613.755129,430.144758 610.752015,427.141644 C607.7489,423.785223 602.09598,423.785223 599.092866,427.141644 C596.089751,430.144758 596.089751,435.267718 599.092866,438.624139 L599.092866,438.624139 Z M636.366812,535.430407 L646.966038,535.430407 L646.966038,495.506654 C646.966038,486.497312 649.262537,479.077853 653.855535,473.071625 C658.625187,467.065397 664.454761,464.062283 671.520912,464.062283 C679.117025,464.062283 684.239984,467.065397 686.359829,472.541664 C688.479675,478.017931 688.832982,481.904314 688.832982,487.733888 L688.832982,535.430407 L699.432208,535.430407 L699.432208,486.320658 C699.432208,482.787583 699.608862,479.961122 697.489017,473.424933 C695.192518,464.062283 688.303021,456.289517 672.757489,455.582902 C660.921686,455.582902 652.442305,460.882515 646.966038,471.481741 L646.966038,458.76267 L636.366812,458.76267 L636.366812,535.430407 Z M723.987083,549.739362 C728.05012,566.521471 740.415884,575.000852 760.731068,575.000852 C784.932634,575.000852 798.711629,558.572051 798.711629,532.957254 L798.711629,458.76267 L788.819017,458.76267 L788.819017,472.36501 C783.166097,461.235822 773.803447,455.582902 760.907721,455.582902 C748.895265,455.582902 739.179307,459.469285 731.759849,467.418704 C724.34039,475.19147 720.630661,485.084082 720.630661,497.096538 C720.630661,510.345571 724.517044,520.59149 732.466464,527.834295 C740.415884,535.077099 749.778534,538.610175 760.554414,538.610175 C772.56687,538.610175 781.752866,533.663869 788.112402,523.594604 L788.112402,532.957254 C788.112402,546.382941 784.579327,556.098898 778.749752,560.515243 C772.920178,564.931587 767.620565,566.521471 760.731068,566.521471 C748.718611,566.521471 738.472692,560.86855 735.646232,549.739362 L723.987083,549.739362 Z M760.554414,530.130794 C751.898379,530.130794 745.008882,526.951026 739.709269,520.59149 C734.586309,514.0553 731.936503,506.282534 731.936503,497.096538 C731.936503,488.617157 734.409655,481.021045 739.355961,474.308202 C744.47892,467.418704 751.545071,464.062283 760.907721,464.062283 C769.210449,464.062283 775.923292,467.242051 781.046251,473.601586 C786.169211,479.961122 788.819017,487.733888 788.819017,497.096538 C788.819017,506.989149 786.169211,514.938569 780.869598,521.121451 C775.569984,527.12768 768.857141,530.130794 760.554414,530.130794 L760.554414,530.130794 Z M887.921784,535.430407 L899.93424,535.430407 L899.93424,421.665377 L932.968496,421.665377 L932.968496,411.772766 L854.887528,411.772766 L854.887528,421.665377 L887.921784,421.665377 L887.921784,535.430407 Z M1009.63623,511.22884 C1003.63,523.771258 994.620662,530.130794 982.431552,530.130794 C973.775517,530.130794 966.88602,526.951026 961.763061,520.59149 C956.816755,514.231954 954.343602,506.989149 954.343602,498.863076 L954.343602,497.979807 L1017.76231,497.979807 L1017.76231,492.856848 C1017.76231,478.194585 1008.57631,455.582902 982.431552,455.582902 C970.242442,455.582902 960.526484,459.645938 953.460333,467.772012 C946.570836,475.721432 943.037761,485.614043 943.037761,497.096538 C943.037761,508.225726 946.570836,517.941683 953.636987,526.244411 C960.703138,534.547138 970.242442,538.610175 982.431552,538.610175 C998.153738,538.610175 1009.98954,530.837409 1017.76231,515.291877 L1009.63623,511.22884 Z M955.226871,489.500426 C957.346716,474.484855 968.29925,464.062283 982.608206,464.062283 C989.851011,464.062283 995.680585,466.712089 1000.09693,471.835049 C1004.51327,476.958008 1006.98643,482.787583 1007.16308,489.500426 L955.226871,489.500426 Z M1101.67285,520.59149 C1094.43004,526.951026 1086.48062,530.130794 1077.47128,530.130794 C1068.28529,530.130794 1060.68917,527.12768 1054.50629,521.121451 C1048.32341,514.938569 1045.3203,506.989149 1045.3203,497.096538 C1045.3203,487.733888 1048.32341,479.961122 1054.32964,473.601586 C1060.33587,467.242051 1068.46194,464.062283 1078.5312,464.062283 C1085.95066,464.062283 1093.72343,466.888743 1101.67285,472.541664 L1101.67285,462.119091 C1095.48997,457.702747 1087.54055,455.582902 1077.82459,455.582902 C1065.10552,455.582902 1054.68295,459.469285 1046.38022,467.242051 C1038.07749,474.838163 1034.01445,484.907428 1034.01445,497.096538 C1034.01445,509.285648 1038.07749,519.17826 1046.38022,526.951026 C1054.68295,534.723792 1065.28217,538.610175 1078.00124,538.610175 C1086.30397,538.610175 1094.07674,536.313676 1101.67285,531.720678 L1101.67285,520.59149 Z M1119.69153,535.430407 L1130.29076,535.430407 L1130.29076,495.506654 C1130.29076,486.497312 1132.58726,479.077853 1137.18026,473.071625 C1141.94991,467.065397 1147.77948,464.062283 1154.84563,464.062283 C1162.44175,464.062283 1167.56471,467.065397 1169.68455,472.541664 C1171.8044,478.017931 1172.1577,481.904314 1172.1577,487.733888 L1172.1577,535.430407 L1182.75693,535.430407 L1182.75693,486.320658 C1182.75693,482.787583 1182.93358,479.961122 1180.81374,473.424933 C1178.51724,464.062283 1171.62774,456.289517 1156.08221,455.582902 C1144.24641,455.582902 1135.76703,460.882515 1130.29076,471.481741 L1130.29076,405.589884 L1119.69153,405.589884 L1119.69153,535.430407 Z M1208.90169,535.430407 L1219.50092,535.430407 L1219.50092,495.506654 C1219.50092,486.497312 1221.79741,479.077853 1226.39041,473.071625 C1231.16006,467.065397 1236.98964,464.062283 1244.05579,464.062283 C1251.6519,464.062283 1256.77486,467.065397 1258.89471,472.541664 C1261.01455,478.017931 1261.36786,481.904314 1261.36786,487.733888 L1261.36786,535.430407 L1271.96709,535.430407 L1271.96709,486.320658 C1271.96709,482.787583 1272.14374,479.961122 1270.02389,473.424933 C1267.72739,464.062283 1260.8379,456.289517 1245.29237,455.582902 C1233.45656,455.582902 1224.97718,460.882515 1219.50092,471.481741 L1219.50092,458.76267 L1208.90169,458.76267 L1208.90169,535.430407 Z M1364.88697,526.951026 C1372.65974,519.001606 1376.54612,509.108995 1376.54612,497.096538 C1376.54612,485.084082 1372.65974,475.19147 1364.88697,467.418704 C1357.1142,459.469285 1347.04494,455.582902 1334.85583,455.582902 C1322.66672,455.582902 1312.59745,459.469285 1304.82469,467.418704 C1297.05192,475.19147 1293.16554,485.084082 1293.16554,497.096538 C1293.16554,509.108995 1297.05192,519.001606 1304.82469,526.951026 C1312.59745,534.723792 1322.66672,538.610175 1334.85583,538.610175 C1347.04494,538.610175 1357.1142,534.723792 1364.88697,526.951026 L1364.88697,526.951026 Z M1313.30407,520.944797 C1307.47449,514.761915 1304.47138,506.812496 1304.47138,497.096538 C1304.47138,487.380581 1307.47449,479.431161 1313.30407,473.248279 C1319.13364,467.065397 1326.37645,464.062283 1334.85583,464.062283 C1343.33521,464.062283 1350.57801,467.065397 1356.40759,473.248279 C1362.23716,479.431161 1365.24028,487.380581 1365.24028,497.096538 C1365.24028,506.812496 1362.23716,514.761915 1356.40759,520.944797 C1350.57801,527.12768 1343.33521,530.130794 1334.85583,530.130794 C1326.37645,530.130794 1319.13364,527.12768 1313.30407,520.944797 L1313.30407,520.944797 Z M1397.74457,535.430407 L1408.3438,535.430407 L1408.3438,405.589884 L1397.74457,405.589884 L1397.74457,535.430407 Z M1501.26368,526.951026 C1509.03645,519.001606 1512.92283,509.108995 1512.92283,497.096538 C1512.92283,485.084082 1509.03645,475.19147 1501.26368,467.418704 C1493.49092,459.469285 1483.42165,455.582902 1471.23254,455.582902 C1459.04343,455.582902 1448.97417,459.469285 1441.2014,467.418704 C1433.42863,475.19147 1429.54225,485.084082 1429.54225,497.096538 C1429.54225,509.108995 1433.42863,519.001606 1441.2014,526.951026 C1448.97417,534.723792 1459.04343,538.610175 1471.23254,538.610175 C1483.42165,538.610175 1493.49092,534.723792 1501.26368,526.951026 L1501.26368,526.951026 Z M1449.68078,520.944797 C1443.85121,514.761915 1440.84809,506.812496 1440.84809,497.096538 C1440.84809,487.380581 1443.85121,479.431161 1449.68078,473.248279 C1455.51036,467.065397 1462.75316,464.062283 1471.23254,464.062283 C1479.71192,464.062283 1486.95473,467.065397 1492.7843,473.248279 C1498.61388,479.431161 1501.61699,487.380581 1501.61699,497.096538 C1501.61699,506.812496 1498.61388,514.761915 1492.7843,520.944797 C1486.95473,527.12768 1479.71192,530.130794 1471.23254,530.130794 C1462.75316,530.130794 1455.51036,527.12768 1449.68078,520.944797 L1449.68078,520.944797 Z M1532.5314,549.739362 C1536.59444,566.521471 1548.9602,575.000852 1569.27538,575.000852 C1593.47695,575.000852 1607.25595,558.572051 1607.25595,532.957254 L1607.25595,458.76267 L1597.36333,458.76267 L1597.36333,472.36501 C1591.71041,461.235822 1582.34776,455.582902 1569.45204,455.582902 C1557.43958,455.582902 1547.72362,459.469285 1540.30417,467.418704 C1532.88471,475.19147 1529.17498,485.084082 1529.17498,497.096538 C1529.17498,510.345571 1533.06136,520.59149 1541.01078,527.834295 C1548.9602,535.077099 1558.32285,538.610175 1569.09873,538.610175 C1581.11119,538.610175 1590.29718,533.663869 1596.65672,523.594604 L1596.65672,532.957254 C1596.65672,546.382941 1593.12364,556.098898 1587.29407,560.515243 C1581.4645,564.931587 1576.16488,566.521471 1569.27538,566.521471 C1557.26293,566.521471 1547.01701,560.86855 1544.19055,549.739362 L1532.5314,549.739362 Z M1569.09873,530.130794 C1560.4427,530.130794 1553.5532,526.951026 1548.25359,520.59149 C1543.13063,514.0553 1540.48082,506.282534 1540.48082,497.096538 C1540.48082,488.617157 1542.95397,481.021045 1547.90028,474.308202 C1553.02324,467.418704 1560.08939,464.062283 1569.45204,464.062283 C1577.75477,464.062283 1584.46761,467.242051 1589.59057,473.601586 C1594.71353,479.961122 1597.36333,487.733888 1597.36333,497.096538 C1597.36333,506.989149 1594.71353,514.938569 1589.41391,521.121451 C1584.1143,527.12768 1577.40146,530.130794 1569.09873,530.130794 L1569.09873,530.130794 Z M1622.27152,458.76267 L1657.60227,534.723792 L1641.70343,572.527699 L1653.18593,572.527699 L1698.40929,458.76267 L1687.63341,458.76267 L1663.07854,523.594604 L1634.28397,458.76267 L1622.27152,458.76267 Z M1757.05835,535.430407 L1767.65757,535.430407 L1767.65757,467.242051 L1784.96964,467.242051 L1784.96964,458.76267 L1767.65757,458.76267 L1767.65757,424.845145 C1767.65757,416.542418 1770.66069,412.479381 1776.84357,412.479381 C1779.49337,412.479381 1782.31983,413.185996 1784.96964,414.599226 L1784.96964,405.589884 C1782.31983,404.529961 1778.78676,404 1774.72372,404 C1762.88792,404 1757.05835,410.889497 1757.05835,424.491838 L1757.05835,458.76267 L1744.69258,458.76267 L1744.69258,467.242051 L1757.05835,467.242051 L1757.05835,535.430407 Z M1867.2903,526.951026 C1875.06307,519.001606 1878.94945,509.108995 1878.94945,497.096538 C1878.94945,485.084082 1875.06307,475.19147 1867.2903,467.418704 C1859.51753,459.469285 1849.44827,455.582902 1837.25916,455.582902 C1825.07005,455.582902 1815.00078,459.469285 1807.22802,467.418704 C1799.45525,475.19147 1795.56887,485.084082 1795.56887,497.096538 C1795.56887,509.108995 1799.45525,519.001606 1807.22802,526.951026 C1815.00078,534.723792 1825.07005,538.610175 1837.25916,538.610175 C1849.44827,538.610175 1859.51753,534.723792 1867.2903,526.951026 L1867.2903,526.951026 Z M1815.7074,520.944797 C1809.87782,514.761915 1806.87471,506.812496 1806.87471,497.096538 C1806.87471,487.380581 1809.87782,479.431161 1815.7074,473.248279 C1821.53697,467.065397 1828.77978,464.062283 1837.25916,464.062283 C1845.73854,464.062283 1852.98134,467.065397 1858.81092,473.248279 C1864.64049,479.431161 1867.64361,487.380581 1867.64361,497.096538 C1867.64361,506.812496 1864.64049,514.761915 1858.81092,520.944797 C1852.98134,527.12768 1845.73854,530.130794 1837.25916,530.130794 C1828.77978,530.130794 1821.53697,527.12768 1815.7074,520.944797 L1815.7074,520.944797 Z M1900.1479,535.430407 L1910.74713,535.430407 L1910.74713,495.859962 C1910.74713,489.67708 1912.86697,483.14089 1916.93001,476.604701 C1920.99305,470.068511 1925.93935,466.712089 1931.76893,466.712089 C1934.41873,466.712089 1937.06854,467.418704 1939.36504,468.655281 L1942.54481,458.76267 C1939.54169,457.526093 1936.36192,456.996132 1933.18216,456.996132 C1924.87943,456.996132 1917.98993,460.882515 1910.74713,474.838163 L1910.74713,458.76267 L1900.1479,458.76267 L1900.1479,535.430407 Z M1993.06779,535.430407 L2004.19697,535.430407 L2016.03278,443.923753 L2061.4328,540.376712 L2106.83281,443.923753 L2118.66862,535.430407 L2129.79781,535.430407 L2113.0157,406.82646 L2061.4328,517.058414 L2009.84989,406.82646 L1993.06779,535.430407 Z M2211.94181,511.22884 C2205.93558,523.771258 2196.92624,530.130794 2184.73713,530.130794 C2176.08109,530.130794 2169.1916,526.951026 2164.06864,520.59149 C2159.12233,514.231954 2156.64918,506.989149 2156.64918,498.863076 L2156.64918,497.979807 L2220.06788,497.979807 L2220.06788,492.856848 C2220.06788,478.194585 2210.88189,455.582902 2184.73713,455.582902 C2172.54802,455.582902 2162.83206,459.645938 2155.76591,467.772012 C2148.87641,475.721432 2145.34334,485.614043 2145.34334,497.096538 C2145.34334,508.225726 2148.87641,517.941683 2155.94256,526.244411 C2163.00871,534.547138 2172.54802,538.610175 2184.73713,538.610175 C2200.45931,538.610175 2212.29512,530.837409 2220.06788,515.291877 L2211.94181,511.22884 Z M2157.53245,489.500426 C2159.65229,474.484855 2170.60483,464.062283 2184.91378,464.062283 C2192.15659,464.062283 2197.98616,466.712089 2202.40251,471.835049 C2206.81885,476.958008 2209.292,482.787583 2209.46866,489.500426 L2157.53245,489.500426 Z M2314.401,535.430407 L2314.401,405.589884 L2303.80177,405.589884 L2303.80177,471.128434 C2297.9722,460.705861 2288.96285,455.582902 2276.59709,455.582902 C2264.76129,455.582902 2255.22198,459.469285 2247.62587,467.418704 C2240.02976,475.368124 2236.32003,485.260735 2236.32003,497.096538 C2236.32003,510.345571 2240.20641,520.59149 2248.15583,527.834295 C2256.10525,535.077099 2265.4679,538.610175 2276.24378,538.610175 C2287.72628,538.610175 2298.67881,532.957254 2304.50839,522.358028 L2304.50839,535.430407 L2314.401,535.430407 Z M2276.24378,530.130794 C2267.58775,530.130794 2260.69825,526.951026 2255.39864,520.59149 C2250.27568,514.231954 2247.62587,506.459188 2247.62587,497.096538 C2247.62587,488.617157 2250.09902,481.021045 2255.04533,474.308202 C2260.16829,467.418704 2267.23444,464.062283 2276.59709,464.062283 C2284.89982,464.062283 2291.61266,467.242051 2296.73562,473.77824 C2301.85858,480.137776 2304.50839,487.910542 2304.50839,497.096538 C2304.50839,517.058414 2293.02589,530.130794 2276.24378,530.130794 L2276.24378,530.130794 Z M2340.54576,458.76267 L2340.54576,535.430407 L2351.14498,535.430407 L2351.14498,458.76267 L2340.54576,458.76267 Z M2340.01579,438.624139 C2343.01891,441.627254 2348.67183,441.627254 2351.67494,438.624139 C2354.67806,435.267718 2354.67806,430.144758 2351.67494,427.141644 C2348.67183,423.785223 2343.01891,423.785223 2340.01579,427.141644 C2337.01268,430.144758 2337.01268,435.267718 2340.01579,438.624139 L2340.01579,438.624139 Z M2440.53179,472.36501 C2434.52556,461.235822 2425.16291,455.582902 2412.44384,455.582902 C2400.60804,455.582902 2391.06874,459.469285 2383.47262,467.418704 C2376.05316,475.19147 2372.34344,485.084082 2372.34344,497.096538 C2372.34344,508.932341 2376.05316,518.824952 2383.29597,526.774372 C2390.71543,534.723792 2400.43138,538.610175 2412.26719,538.610175 C2423.74968,538.610175 2434.70222,532.957254 2440.53179,522.358028 L2440.53179,535.430407 L2450.4244,535.430407 L2450.4244,458.76267 L2440.53179,458.76267 L2440.53179,472.36501 Z M2412.26719,530.130794 C2403.61115,530.130794 2396.72166,526.951026 2391.42204,520.59149 C2386.29908,514.0553 2383.64928,506.282534 2383.64928,497.096538 C2383.64928,487.557234 2386.29908,479.607815 2391.77535,473.424933 C2397.25162,467.242051 2404.31777,464.062283 2412.6205,464.062283 C2420.92322,464.062283 2427.63607,467.242051 2432.75903,473.601586 C2437.88198,479.961122 2440.53179,487.733888 2440.53179,497.096538 C2440.53179,506.989149 2437.88198,514.938569 2432.58237,521.121451 C2427.28276,527.12768 2420.56992,530.130794 2412.26719,530.130794 L2412.26719,530.130794 Z" id="Advertising-Technolo" fill="#1F1A1C"></path>
                    </g>
                    <path d="M577.108393,454.227859 L614.860379,370.715496 L708.021043,576.916686 L875.710237,576.916686 L674.472434,131.842852 L663.071844,154.617212 L845.079411,557.150917 L720.812516,557.151999 L614.865515,322.716171 L566.260745,430.23632 L577.108393,454.227859 Z M298.265461,453.483736 L260.849858,370.715496 L167.689194,576.916686 L0,576.916686 L200.812041,132.784501 L212.210498,155.554599 L30.6276306,557.157984 L154.949613,557.103699 L260.844722,322.716171 L309.141772,429.428806 L298.265461,453.483736 Z M525.251094,339.536052 L537.229399,222.57818 L629.051342,222.57818 L692.932939,94.965272 L181.880157,94.965272 L245.761755,222.57818 L337.583697,222.57818 L349.603427,339.940529 L365.842137,304.025682 L355.430544,202.813492 L257.963194,202.813492 L213.89616,114.729959 L660.981683,114.729959 L616.861505,202.770213 L519.382552,202.813492 L509.049799,303.703956 L525.251094,339.536052 Z M487.332511,573.513675 L387.704892,573.513675 L396.634188,553.749633 L478.404246,553.751914 L487.332511,573.513675 Z M217.911808,94.965272 L260.849858,0 L303.779162,94.965272 L282.059513,94.965272 L260.832931,48.0172841 L239.605645,94.965272 L217.911808,94.965272 Z M571.931075,94.965272 L614.860379,0 L657.79843,94.965272 L636.099929,94.965272 L614.859646,47.9895875 L593.624162,94.965272 L571.931075,94.965272 Z M357.666704,640 L213.933109,640 L437.518702,145.499983 L661.104294,640 L517.370699,640 L437.518702,463.256123 L357.666704,640 Z M344.908786,620.227598 L437.518702,415.245431 L530.152957,620.235313 L630.465212,620.215972 L437.514757,193.488555 L244.576895,620.205568 L344.908786,620.227598 Z" id="logo" fill="#1F95F2"></path>
                </g>
            </g>
        </g>
    </g>
</svg>