<svg id="Layer_1" data-name="Layer 1" xmlns="http://www.w3.org/2000/svg" viewBox="0 0 927.7 354.5"><defs><style>.cls-1{fill:#fff}</style></defs><g id="Layer_1-2" data-name="Layer 1"><path class="cls-1" d="M360.5 198.4l64.1-137.5-37.1-17.3-91.3 195.8h89.4v81.4h41V198.4zM418.7 313h-25.3v-81.4h-84.9L391.3 54l22.9 10.7-66 141.5h70.5V313zM295.9 320.8V69.7l-20.5-20.5h-93.3l-20.5 20.5v251.1h41V90.2H255v230.6zM194.8 82.3V313h-25.3V73l15.9-16h86.8l15.9 15.9v240h-25.3V82.3zM95.6 361.1l331 .3V333h-331zm323.1-20.3v12.7l-315.3-.3v-12.5l315.3.1z" transform="translate(-6.5 -6.9)"/><path class="cls-1" d="M95.8 320.8h41V198.4h-66L146.9 34h279.6V6.9H115.1L6.5 239.4h89.4l-.1 81.4zm-77-89.3L120.1 14.7h298.6v11.4H141.9L58.5 206.3H129V313h-25.3v-81.4H18.8z" transform="translate(-6.5 -6.9)"/><path class="cls-1" d="M397.3 61.6l-8.7-4-74.3 159.2h80.5v81.4h9.5v-91h-74.9l67.9-145.6zM264.2 298.2h9.5V69.3L262.5 58h-80.3l-11.3 11.3v228.9h9.6V67.6h83.7v230.6zM105 298.2h9.6v-91H39.7l87.4-188h-9.8L24.6 216.8H105v81.4z"/><path class="cls-1" d="M565.4 149.1a11.869 11.869 0 0 1-3.5 8.5 11.631 11.631 0 0 1-8.6 3.6 11.853 11.853 0 0 1-8.7-3.6 11.732 11.732 0 0 1-3.6-8.5v-47.5a17.355 17.355 0 0 0-1.4-6.9 19.787 19.787 0 0 0-3.8-5.6 18.47 18.47 0 0 0-5.6-3.8 15.787 15.787 0 0 0-6.9-1.4 17.602 17.602 0 0 0-6.8 1.4 17.317 17.317 0 0 0-5.6 3.8 18.47 18.47 0 0 0-3.8 5.6 15.787 15.787 0 0 0-1.4 6.9v47.5a11.869 11.869 0 0 1-3.5 8.5 11.631 11.631 0 0 1-8.6 3.6 11.853 11.853 0 0 1-8.7-3.6 11.733 11.733 0 0 1-3.6-8.5V75.7a11.57 11.57 0 0 1 3.6-8.5 11.853 11.853 0 0 1 8.7-3.6 12.12 12.12 0 0 1 12.1 12.1c1-1.1 2.4-2.4 4-3.9a28.012 28.012 0 0 1 6.1-4 42.674 42.674 0 0 1 8.1-3 40.26 40.26 0 0 1 10.3-1.3 32.498 32.498 0 0 1 12.1 2.2 31.594 31.594 0 0 1 10 6.1 26.489 26.489 0 0 1 6.7 9.4 30.186 30.186 0 0 1 2.4 12.2v55.7zM605 159.8a45.475 45.475 0 0 1-15.5-10.2 48.285 48.285 0 0 1-10.4-15.8 56.123 56.123 0 0 1 0-40.6 47.758 47.758 0 0 1 10.4-15.8A46.458 46.458 0 0 1 605 67.2a52.733 52.733 0 0 1 38.3 0 45.475 45.475 0 0 1 15.5 10.2 48.285 48.285 0 0 1 10.4 15.8 56.123 56.123 0 0 1 0 40.6 47.758 47.758 0 0 1-10.4 15.8 46.458 46.458 0 0 1-15.5 10.2 51.213 51.213 0 0 1-19.2 3.6 50.697 50.697 0 0 1-19.1-3.6zm43.9-58.5a34.406 34.406 0 0 0-5.2-10.3 24.748 24.748 0 0 0-8.3-7.1 24.319 24.319 0 0 0-11.2-2.6 23.324 23.324 0 0 0-11.1 2.6 24.585 24.585 0 0 0-8.3 7.1 32.43 32.43 0 0 0-5.3 10.3 41.48 41.48 0 0 0-1.9 12.2 38.611 38.611 0 0 0 1.9 12.3 31.405 31.405 0 0 0 5.3 10.3 26.52 26.52 0 0 0 8.3 7 25.208 25.208 0 0 0 22.3 0 24.465 24.465 0 0 0 8.3-7 33.259 33.259 0 0 0 5.2-10.3 41.633 41.633 0 0 0 1.9-12.3 43.867 43.867 0 0 0-1.9-12.2zM717 63.6v2.2h12a7.637 7.637 0 0 1 5.5 2.3 7.472 7.472 0 0 1 2.3 5.5 7.698 7.698 0 0 1-2.3 5.6 7.386 7.386 0 0 1-5.5 2.2h-12v67.8a11.57 11.57 0 0 1-3.6 8.5 11.733 11.733 0 0 1-8.5 3.6 11.853 11.853 0 0 1-8.7-3.6 11.732 11.732 0 0 1-3.6-8.5V81.3h-7.1a7.684 7.684 0 0 1-7.8-7.8A7.637 7.637 0 0 1 680 68a7.472 7.472 0 0 1 5.5-2.3h7.1v-21a11.631 11.631 0 0 1 3.6-8.6 12.315 12.315 0 0 1 17.2 0 11.631 11.631 0 0 1 3.6 8.6zM517.2 307.9a11.57 11.57 0 0 1-3.6 8.5 11.733 11.733 0 0 1-8.5 3.6 11.853 11.853 0 0 1-8.7-3.6 11.733 11.733 0 0 1-3.6-8.5v-67.8h-7.1a7.684 7.684 0 0 1-7.8-7.8 7.637 7.637 0 0 1 2.3-5.5 7.472 7.472 0 0 1 5.5-2.3h7.1v-2.2a72.383 72.383 0 0 1 1.3-14.5 27.512 27.512 0 0 1 4.5-11.2 20.935 20.935 0 0 1 8.8-7.2c3.7-1.7 8.4-2.5 14.2-2.5s10.5.6 14.1 1.9c3.5 1.2 5.3 3.9 5.3 8.1a12.484 12.484 0 0 1-2 7.2c-1.3 1.9-4 2.8-7.9 2.8q-7.2 0-10.5 3.3c-2.1 2.2-3.2 6.3-3.2 12.2v2.2h12a7.637 7.637 0 0 1 5.5 2.3 7.472 7.472 0 0 1 2.3 5.5 7.698 7.698 0 0 1-2.3 5.6 7.386 7.386 0 0 1-5.5 2.2h-12l-.2 67.7zM575.2 318.6a45.475 45.475 0 0 1-15.5-10.2 48.286 48.286 0 0 1-10.4-15.8 56.123 56.123 0 0 1 0-40.6 47.758 47.758 0 0 1 10.4-15.8 46.458 46.458 0 0 1 15.5-10.2 52.733 52.733 0 0 1 38.3 0 45.475 45.475 0 0 1 15.5 10.2 48.285 48.285 0 0 1 10.4 15.8 56.123 56.123 0 0 1 0 40.6 47.758 47.758 0 0 1-10.4 15.8 46.459 46.459 0 0 1-15.5 10.2 51.213 51.213 0 0 1-19.2 3.6 50.327 50.327 0 0 1-19.1-3.6zm43.8-58.5a34.407 34.407 0 0 0-5.2-10.3 24.748 24.748 0 0 0-8.3-7.1 24.319 24.319 0 0 0-11.2-2.6 23.324 23.324 0 0 0-11.1 2.6 24.585 24.585 0 0 0-8.3 7.1 32.43 32.43 0 0 0-5.3 10.3 41.48 41.48 0 0 0-1.9 12.2 38.611 38.611 0 0 0 1.9 12.3 31.405 31.405 0 0 0 5.3 10.3 26.52 26.52 0 0 0 8.3 7 25.208 25.208 0 0 0 22.3 0 24.465 24.465 0 0 0 8.3-7 33.259 33.259 0 0 0 5.2-10.3 41.633 41.633 0 0 0 1.9-12.3 38.437 38.437 0 0 0-1.9-12.2zM653.1 234.6a11.57 11.57 0 0 1 3.6-8.5 11.853 11.853 0 0 1 8.7-3.6 12.12 12.12 0 0 1 12.1 12.1v47.5a17.355 17.355 0 0 0 1.4 6.9 19.787 19.787 0 0 0 3.8 5.6 16.923 16.923 0 0 0 12.4 5.1 17.315 17.315 0 0 0 6.9-1.3 17.914 17.914 0 0 0 5.6-3.8 19.787 19.787 0 0 0 3.8-5.6 15.787 15.787 0 0 0 1.4-6.9v-47.5a11.57 11.57 0 0 1 3.6-8.5 11.853 11.853 0 0 1 8.7-3.6 12.12 12.12 0 0 1 12.1 12.1v73.3a11.87 11.87 0 0 1-3.5 8.5 12.1 12.1 0 0 1-20.7-8.5 37.554 37.554 0 0 1-4 4 32.051 32.051 0 0 1-6.1 3.9 42.674 42.674 0 0 1-8.1 3 40.26 40.26 0 0 1-10.3 1.3 34.586 34.586 0 0 1-12.1-2.1 28.351 28.351 0 0 1-10-6.1 29.081 29.081 0 0 1-6.8-9.4 28.634 28.634 0 0 1-2.5-12.2v-55.7zM834.9 307.9a11.87 11.87 0 0 1-3.5 8.5 11.631 11.631 0 0 1-8.6 3.6 11.853 11.853 0 0 1-8.7-3.6 11.732 11.732 0 0 1-3.6-8.5v-47.5a17.355 17.355 0 0 0-1.4-6.9 19.787 19.787 0 0 0-3.8-5.6 18.47 18.47 0 0 0-5.6-3.8 15.787 15.787 0 0 0-6.9-1.4 17.602 17.602 0 0 0-6.8 1.4 17.317 17.317 0 0 0-5.6 3.8 18.47 18.47 0 0 0-3.8 5.6 15.787 15.787 0 0 0-1.4 6.9v47.5a11.87 11.87 0 0 1-3.5 8.5 11.631 11.631 0 0 1-8.6 3.6 11.853 11.853 0 0 1-8.7-3.6 11.732 11.732 0 0 1-3.6-8.5v-73.3a11.57 11.57 0 0 1 3.6-8.5 11.853 11.853 0 0 1 8.7-3.6 12.12 12.12 0 0 1 12.1 12.1c1-1.1 2.4-2.4 4-3.9a28.012 28.012 0 0 1 6.1-4 42.674 42.674 0 0 1 8.1-3 40.26 40.26 0 0 1 10.3-1.3 32.498 32.498 0 0 1 12.1 2.2 31.594 31.594 0 0 1 10 6.1 26.489 26.489 0 0 1 6.7 9.4 30.186 30.186 0 0 1 2.4 12.2v55.6zM906.5 311.7a21.346 21.346 0 0 1-5 4 30.97 30.97 0 0 1-7.9 3.1 50.221 50.221 0 0 1-12.1 1.3 33.037 33.037 0 0 1-15.2-3.5 34.277 34.277 0 0 1-11.5-10 47.91 47.91 0 0 1-7.4-15.4 71.688 71.688 0 0 1-2.6-19.7 72.43 72.43 0 0 1 2.6-19.8 47.461 47.461 0 0 1 7.4-15.5 34.126 34.126 0 0 1 11.5-10 31.83 31.83 0 0 1 15.2-3.5 28.82 28.82 0 0 1 11 1.9 43.7 43.7 0 0 1 8.1 4.1 62.12 62.12 0 0 1 5.4 4.1c1.3 1.2 2.4 1.9 3 1.9s.8-.7.8-2.2v-33a11.931 11.931 0 0 1 3.5-8.6 11.54 11.54 0 0 1 8.6-3.5 12.162 12.162 0 0 1 8.7 3.5 11.631 11.631 0 0 1 3.6 8.6v108.8a11.57 11.57 0 0 1-3.6 8.5 11.853 11.853 0 0 1-8.7 3.6 12.12 12.12 0 0 1-12.1-12.1 36.794 36.794 0 0 0-3.3 3.4zm-33.6-61.6c-4 5.2-6 12.3-6 21.2s2 15.9 6 21.1 9.5 7.8 16.6 7.8 12.6-2.6 16.6-7.8 6-12.2 6-21.1c0-9-2-16.1-6-21.2-4-5.2-9.5-7.8-16.6-7.8s-12.6 2.6-16.6 7.8z" transform="translate(-6.5 -6.9)"/></g></svg>
