<svg id="Layer_1" xmlns="http://www.w3.org/2000/svg" viewBox="0 0 940 364"><style>.st1{fill:#020000;stroke:#231f20;stroke-miterlimit:10}</style><g id="Layer_1_1_"><path class="st1" d="M360.5 198.4l64.1-137.5-37.1-17.3-91.3 195.8h89.4v81.4h41V198.4h-66.1zM418.7 313h-25.3v-81.4h-84.9L391.3 54l22.9 10.7-66 141.5h70.5V313zM295.9 320.8V69.7l-20.5-20.5h-93.3l-20.5 20.5v251.1h41V90.2H255v230.6h40.9zM194.8 82.3V313h-25.3V73l15.9-16h86.8l15.9 15.9v240h-25.3V82.3h-68z"/><path d="M95.6 361.1l331 .3V333h-331v28.1zm323.1-20.3v12.7l-315.3-.3v-12.5l315.3.1z" stroke="#231f20" stroke-miterlimit="10"/><path d="M95.8 320.8h41V198.4h-66L146.9 34h279.6V6.9H115.1L6.5 239.4h89.4l-.1 81.4zm-77-89.3L120.1 14.7h298.6v11.4H141.9L58.5 206.3H129V313h-25.3v-81.4H18.8v-.1z" fill="#070000" stroke="#231f20" stroke-miterlimit="10"/><path class="st1" d="M403.8 68.5l-8.7-4-74.3 159.2h80.5v81.4h9.5v-91h-74.9zM270.7 305.1h9.5V76.2L269 64.9h-80.3l-11.3 11.3v228.9h9.6V74.5h83.7zM111.5 305.1h9.6v-91H46.2l87.4-188h-9.8L31.1 223.7h80.4zM565.4 149.1c0 3.3-1.2 6.1-3.5 8.5-2.4 2.4-5.2 3.6-8.6 3.6-3.4 0-6.3-1.2-8.7-3.6-2.4-2.4-3.6-5.3-3.6-8.5v-47.5c0-2.5-.5-4.8-1.4-6.9-1-2.1-2.2-4-3.8-5.6s-3.4-2.8-5.6-3.8c-2.1-1-4.4-1.4-6.9-1.4-2.4 0-4.6.5-6.8 1.4-2.2 1-4.1 2.2-5.6 3.8-1.6 1.6-2.8 3.4-3.8 5.6-1 2.1-1.4 4.4-1.4 6.9v47.5c0 3.3-1.2 6.1-3.5 8.5-2.4 2.4-5.2 3.6-8.6 3.6s-6.3-1.2-8.7-3.6c-2.4-2.4-3.6-5.3-3.6-8.5V75.7c0-3.3 1.2-6.1 3.6-8.5s5.3-3.6 8.7-3.6c3.4 0 6.2 1.2 8.6 3.6s3.5 5.3 3.5 8.5c1-1.1 2.4-2.4 4-3.9 1.7-1.5 3.7-2.8 6.1-4s5.1-2.2 8.1-3 6.5-1.3 10.3-1.3c4.3 0 8.3.7 12.1 2.2s7.2 3.5 10 6.1c2.9 2.6 5.1 5.7 6.7 9.4 1.6 3.7 2.4 7.7 2.4 12.2v55.7zM605 159.8c-6-2.4-11.1-5.8-15.5-10.2s-7.8-9.6-10.4-15.8c-2.5-6.1-3.8-12.9-3.8-20.3s1.3-14.2 3.8-20.3c2.5-6.1 6-11.4 10.4-15.8s9.6-7.8 15.5-10.2c6-2.4 12.3-3.6 19.1-3.6 6.9 0 13.3 1.2 19.2 3.6 6 2.4 11.1 5.8 15.5 10.2 4.4 4.4 7.8 9.6 10.4 15.8 2.5 6.1 3.8 12.9 3.8 20.3s-1.3 14.2-3.8 20.3-6 11.4-10.4 15.8-9.6 7.8-15.5 10.2c-6 2.4-12.4 3.6-19.2 3.6-6.8 0-13.1-1.2-19.1-3.6zm43.9-58.5c-1.2-3.9-3-7.3-5.2-10.3s-5-5.3-8.3-7.1c-3.3-1.7-7.1-2.6-11.2-2.6-4.2 0-7.9.9-11.1 2.6-3.3 1.7-6 4.1-8.3 7.1s-4.1 6.4-5.3 10.3-1.9 8-1.9 12.2c0 4.3.6 8.4 1.9 12.3 1.2 3.9 3 7.4 5.3 10.3 2.3 2.9 5.1 5.3 8.3 7 3.3 1.7 7 2.6 11.1 2.6 4.2 0 7.9-.9 11.2-2.6 3.3-1.7 6.1-4.1 8.3-7s4-6.4 5.2-10.3c1.2-3.9 1.9-8 1.9-12.3-.1-4.3-.7-8.4-1.9-12.2zM717 63.6v2.2h12c2.1 0 4 .8 5.5 2.3s2.3 3.3 2.3 5.5-.8 4.1-2.3 5.6-3.3 2.2-5.5 2.2h-12v67.8c0 3.3-1.2 6.1-3.6 8.5-2.4 2.4-5.3 3.6-8.5 3.6-3.4 0-6.3-1.2-8.7-3.6-2.4-2.4-3.6-5.3-3.6-8.5V81.3h-7.1c-2.1 0-4-.7-5.5-2.2s-2.3-3.3-2.3-5.6c0-2.1.8-4 2.3-5.5s3.3-2.3 5.5-2.3h7.1v-21c0-3.4 1.2-6.2 3.6-8.6 2.4-2.4 5.3-3.5 8.7-3.5 3.3 0 6.1 1.2 8.5 3.5 2.4 2.4 3.6 5.2 3.6 8.6v18.9zM517.2 307.9c0 3.3-1.2 6.1-3.6 8.5-2.4 2.4-5.3 3.6-8.5 3.6-3.4 0-6.3-1.2-8.7-3.6-2.4-2.4-3.6-5.3-3.6-8.5v-67.8h-7.1c-2.1 0-4-.7-5.5-2.2s-2.3-3.3-2.3-5.6c0-2.1.8-4 2.3-5.5s3.3-2.3 5.5-2.3h7.1v-2.2c0-5.3.4-10.1 1.3-14.5.8-4.4 2.3-8.1 4.5-11.2 2.1-3.1 5.1-5.5 8.8-7.2 3.7-1.7 8.4-2.5 14.2-2.5s10.5.6 14.1 1.9c3.5 1.2 5.3 3.9 5.3 8.1 0 2.9-.7 5.3-2 7.2s-4 2.8-7.9 2.8c-4.8 0-8.3 1.1-10.5 3.3-2.1 2.2-3.2 6.3-3.2 12.2v2.2h12c2.1 0 4 .8 5.5 2.3s2.3 3.3 2.3 5.5-.8 4.1-2.3 5.6-3.3 2.2-5.5 2.2h-12l-.2 67.7zM575.2 318.6c-6-2.4-11.1-5.8-15.5-10.2s-7.8-9.6-10.4-15.8c-2.5-6.1-3.8-12.9-3.8-20.3s1.3-14.2 3.8-20.3c2.5-6.1 6-11.4 10.4-15.8s9.6-7.8 15.5-10.2c6-2.4 12.3-3.6 19.1-3.6 6.9 0 13.3 1.2 19.2 3.6 6 2.4 11.1 5.8 15.5 10.2s7.8 9.6 10.4 15.8c2.5 6.1 3.8 12.9 3.8 20.3s-1.3 14.2-3.8 20.3c-2.5 6.1-6 11.4-10.4 15.8s-9.6 7.8-15.5 10.2c-6 2.4-12.4 3.6-19.2 3.6s-13.2-1.2-19.1-3.6zm43.8-58.5c-1.2-3.9-3-7.3-5.2-10.3s-5-5.3-8.3-7.1c-3.3-1.7-7.1-2.6-11.2-2.6-4.2 0-7.9.9-11.1 2.6-3.3 1.7-6 4.1-8.3 7.1s-4.1 6.4-5.3 10.3-1.9 8-1.9 12.2c0 4.3.6 8.4 1.9 12.3 1.2 3.9 3 7.4 5.3 10.3s5.1 5.3 8.3 7c3.3 1.7 7 2.6 11.1 2.6 4.2 0 7.9-.9 11.2-2.6s6.1-4.1 8.3-7 4-6.4 5.2-10.3 1.9-8 1.9-12.3c0-4.2-.6-8.3-1.9-12.2zM653.1 234.6c0-3.3 1.2-6.1 3.6-8.5 2.4-2.4 5.3-3.6 8.7-3.6s6.2 1.2 8.6 3.6c2.4 2.4 3.5 5.3 3.5 8.5v47.5c0 2.5.5 4.8 1.4 6.9 1 2.1 2.2 4 3.8 5.6s3.5 2.9 5.6 3.8c2.2.9 4.5 1.3 6.8 1.3 2.5 0 4.8-.4 6.9-1.3 2.1-.9 4-2.2 5.6-3.8 1.6-1.6 2.8-3.5 3.8-5.6s1.4-4.4 1.4-6.9v-47.5c0-3.3 1.2-6.1 3.6-8.5 2.4-2.4 5.3-3.6 8.7-3.6s6.2 1.2 8.6 3.6c2.4 2.4 3.5 5.3 3.5 8.5v73.3c0 3.3-1.2 6.1-3.5 8.5-2.4 2.4-5.2 3.6-8.6 3.6-3.4 0-6.2-1.2-8.6-3.6-2.4-2.4-3.5-5.3-3.5-8.5-1 1.2-2.4 2.6-4 4-1.7 1.4-3.7 2.7-6.1 3.9-2.4 1.2-5.1 2.2-8.1 3s-6.5 1.3-10.3 1.3c-4.3 0-8.3-.7-12.1-2.1s-7.2-3.4-10-6.1c-2.9-2.6-5.1-5.8-6.8-9.4-1.7-3.7-2.5-7.7-2.5-12.2v-55.7zM834.9 307.9c0 3.3-1.2 6.1-3.5 8.5-2.4 2.4-5.2 3.6-8.6 3.6-3.4 0-6.3-1.2-8.7-3.6s-3.6-5.3-3.6-8.5v-47.5c0-2.5-.5-4.8-1.4-6.9-1-2.1-2.2-4-3.8-5.6s-3.4-2.8-5.6-3.8c-2.1-1-4.4-1.4-6.9-1.4-2.4 0-4.6.5-6.8 1.4-2.2 1-4.1 2.2-5.6 3.8-1.6 1.6-2.8 3.4-3.8 5.6-1 2.1-1.4 4.4-1.4 6.9v47.5c0 3.3-1.2 6.1-3.5 8.5-2.4 2.4-5.2 3.6-8.6 3.6-3.4 0-6.3-1.2-8.7-3.6s-3.6-5.3-3.6-8.5v-73.3c0-3.3 1.2-6.1 3.6-8.5 2.4-2.4 5.3-3.6 8.7-3.6s6.2 1.2 8.6 3.6c2.4 2.4 3.5 5.3 3.5 8.5 1-1.1 2.4-2.4 4-3.9 1.7-1.5 3.7-2.8 6.1-4s5.1-2.2 8.1-3 6.5-1.3 10.3-1.3c4.3 0 8.3.7 12.1 2.2s7.2 3.5 10 6.1c2.9 2.6 5.1 5.7 6.7 9.4 1.6 3.7 2.4 7.7 2.4 12.2v55.6zM906.5 311.7c-1.2 1.4-2.9 2.7-5 4-2.1 1.2-4.7 2.3-7.9 3.1-3.2.8-7.2 1.3-12.1 1.3-5.6 0-10.7-1.2-15.2-3.5-4.5-2.4-8.3-5.7-11.5-10s-5.7-9.5-7.4-15.4c-1.7-6-2.6-12.5-2.6-19.7s.9-13.8 2.6-19.8c1.7-6 4.2-11.2 7.4-15.5s7.1-7.7 11.5-10c4.5-2.4 9.6-3.5 15.2-3.5 4.2 0 7.8.6 11 1.9 3.1 1.2 5.8 2.6 8.1 4.1 2.2 1.5 4 2.9 5.4 4.1 1.3 1.2 2.4 1.9 3 1.9s.8-.7.8-2.2v-33c0-3.4 1.2-6.2 3.5-8.6 2.4-2.4 5.2-3.5 8.6-3.5 3.4 0 6.3 1.2 8.7 3.5 2.4 2.4 3.6 5.2 3.6 8.6v108.8c0 3.3-1.2 6.1-3.6 8.5-2.4 2.4-5.3 3.6-8.7 3.6s-6.2-1.2-8.6-3.6c-2.4-2.4-3.5-5.3-3.5-8.5-.9.7-2 2-3.3 3.4zm-33.6-61.6c-4 5.2-6 12.3-6 21.2 0 8.9 2 15.9 6 21.1s9.5 7.8 16.6 7.8 12.6-2.6 16.6-7.8c4-5.2 6-12.2 6-21.1 0-9-2-16.1-6-21.2-4-5.2-9.5-7.8-16.6-7.8s-12.6 2.6-16.6 7.8z"/></g><path fill="none" d="M0 0h940v364H0z"/></svg>
