<svg xmlns="http://www.w3.org/2000/svg" viewBox="0 0 822.83447 647.82422"><defs><style>.cls-1{fill:#f03957;}.cls-2{fill:none;stroke:#f03957;stroke-width:20px;}.cls-2,.cls-3{stroke-miterlimit:10;}.cls-3{fill:#ef3b58;stroke:#ef3b58;}</style></defs><title>logo_2</title><g id="Layer_2" data-name="Layer 2"><g id="Layer_1-2" data-name="Layer 1"><path class="cls-1" d="M112.01172,268.88623a9.79672,9.79672,0,0,0-.96777-4.35645,9.40136,9.40136,0,0,0-3.47656-3.6084,29.50361,29.50361,0,0,0-6.86523-3.03613,98.486,98.486,0,0,0-11.13281-2.72852,112.46083,112.46083,0,0,1-15.26953-4.22461,49.51775,49.51775,0,0,1-11.70508-5.89648,25.41362,25.41362,0,0,1-7.52539-7.96484,20.51246,20.51246,0,0,1-2.64062-10.51709,23.586,23.586,0,0,1,2.72852-11.04492,28.18827,28.18827,0,0,1,7.78906-9.19727A39.283,39.283,0,0,1,75.26758,200.019a52.9753,52.9753,0,0,1,16.2373-2.332,56.47808,56.47808,0,0,1,17.03027,2.376,39.6037,39.6037,0,0,1,12.71777,6.46875,28.35986,28.35986,0,0,1,7.96484,9.63721,26.20859,26.20859,0,0,1,2.77148,11.88086h-21.0332a12.4993,12.4993,0,0,0-1.23242-5.4126,13.451,13.451,0,0,0-3.69727-4.62012,18.58649,18.58649,0,0,0-6.11621-3.2124,27.16787,27.16787,0,0,0-8.40527-1.188,29.65962,29.65962,0,0,0-8.22852,1.01172A19.10612,19.10612,0,0,0,77.5127,217.269a10.43239,10.43239,0,0,0-3.38867,3.82813,10.09977,10.09977,0,0,0-1.10059,4.57666,10.76347,10.76347,0,0,0,.83594,4.3125,8.51316,8.51316,0,0,0,3.124,3.52,23.85782,23.85782,0,0,0,6.33789,2.86035,85.7139,85.7139,0,0,0,10.47266,2.42041,115.17983,115.17983,0,0,1,16.14941,3.96045,49.423,49.423,0,0,1,12.2334,5.80859,25.053,25.053,0,0,1,7.78906,8.14063,21.65832,21.65832,0,0,1,2.72852,11.04541,23.71427,23.71427,0,0,1-2.9043,11.61719,27.3969,27.3969,0,0,1-8.27344,9.10889,41.18809,41.18809,0,0,1-12.89355,5.94043,62.34317,62.34317,0,0,1-16.85352,2.11279,55.32114,55.32114,0,0,1-18.30566-2.77295,42.2275,42.2275,0,0,1-13.28906-7.26074,30.77928,30.77928,0,0,1-8.1416-10.209,26.37677,26.37677,0,0,1-2.77246-11.61719h20.418a14.99647,14.99647,0,0,0,2.28906,7.481,15.85666,15.85666,0,0,0,5.19238,4.97266,23.10676,23.10676,0,0,0,7.04,2.728,36.94276,36.94276,0,0,0,7.834.83594q9.76758,0,14.873-3.30029Q112.01074,274.07861,112.01172,268.88623Z"/><path class="cls-1" d="M200.28418,176.38867v23.05811h35.99609v15.666H200.28418v45.67676a26.396,26.396,0,0,0,1.27637,8.88867A13.97132,13.97132,0,0,0,205.125,275.311a12.68006,12.68006,0,0,0,5.36816,2.94824,25.80235,25.80235,0,0,0,6.77734.83594,54.33887,54.33887,0,0,0,5.67578-.30811q2.94873-.30688,5.7207-.7041,2.77295-.39551,5.10547-.87988,2.33057-.48267,3.916-.92432l2.377,14.52148a31.44844,31.44844,0,0,1-5.502,2.42041,49.43977,49.43977,0,0,1-6.99609,1.8042q-3.78516.70313-7.877,1.1001-4.09277.39551-8.05273.39648a41.12167,41.12167,0,0,1-13.06934-1.98047,26.208,26.208,0,0,1-10.209-6.16064,28.6023,28.6023,0,0,1-6.68848-10.7373,45.40812,45.40812,0,0,1-2.41992-15.70947v-46.8208H156.0166v-15.666H179.251V176.38867Z"/><path class="cls-1" d="M327.01758,294.67285a19.37973,19.37973,0,0,1-1.45215-4.13623q-.57422-2.37671-1.01172-5.10449a35.48408,35.48408,0,0,1-4.97266,4.26807,34.633,34.633,0,0,1-6.16016,3.47656,39.43354,39.43354,0,0,1-7.30566,2.376,38.33611,38.33611,0,0,1-8.40527.88086,40.96624,40.96624,0,0,1-13.68457-2.15674,31.5353,31.5353,0,0,1-10.47363-5.98486,26.48111,26.48111,0,0,1-9.1084-20.28613q0-15.31348,11.39746-23.41016,11.39648-8.09619,32.69531-8.09668H323.9375V230.25q0-7.56812-5.10449-12.01318-5.10645-4.44287-14.43359-4.44434a24.36848,24.36848,0,0,0-7.39258,1.01221,15.54291,15.54291,0,0,0-5.28125,2.772,11.34775,11.34775,0,0,0-3.168,4.13672,12.42769,12.42769,0,0,0-1.05664,5.10449h-21.0332a24.01029,24.01029,0,0,1,2.5957-10.78125,28.206,28.206,0,0,1,7.61328-9.3291,39.09589,39.09589,0,0,1,12.27734-6.55664,51.54588,51.54588,0,0,1,16.58984-2.46387,56.70828,56.70828,0,0,1,15.665,2.06787,36.65438,36.65438,0,0,1,12.49707,6.16064,28.68606,28.68606,0,0,1,8.27344,10.209,32.20245,32.20245,0,0,1,2.99219,14.30176v42.42041a64.70335,64.70335,0,0,0,.92383,11.397,36.46212,36.46212,0,0,0,2.68359,8.93311v1.49609ZM301.6709,279.44727a27.745,27.745,0,0,0,7.61328-1.01221,28.78179,28.78179,0,0,0,6.42383-2.64014,22.23475,22.23475,0,0,0,4.92871-3.74023,20.69308,20.69308,0,0,0,3.30078-4.3125V249.876H310.55957q-12.84961,0-18.96582,4.13672a13.39317,13.39317,0,0,0-6.11621,11.793,14.89835,14.89835,0,0,0,.96777,5.4126,11.211,11.211,0,0,0,2.94824,4.3125,14.32551,14.32551,0,0,0,5.0166,2.86035A22.17854,22.17854,0,0,0,301.6709,279.44727Z"/><path class="cls-1" d="M439.84473,197.687q2.55176,0,5.10547.17578,2.55176.17725,4.88379.52832,2.33057.35229,4.26855.748a19.26279,19.26279,0,0,1,3.25586.92383l-2.99219,20.68213a86.0479,86.0479,0,0,0-19.09766-2.2002q-10.56152,0-17.0293,4.40039a25.76731,25.76731,0,0,0-9.54883,12.2334v59.49414H387.65527V199.44678h19.71484l.96777,14.87354a43.838,43.838,0,0,1,13.77344-12.189A35.77889,35.77889,0,0,1,439.84473,197.687Z"/><path class="cls-1" d="M524.77441,176.38867v23.05811h35.99512v15.666H524.77441v45.67676a26.37354,26.37354,0,0,0,1.27539,8.88867,13.961,13.961,0,0,0,3.56445,5.63281,12.6894,12.6894,0,0,0,5.36914,2.94824,25.7948,25.7948,0,0,0,6.77637.83594,54.38552,54.38552,0,0,0,5.67676-.30811q2.94727-.30688,5.7207-.7041,2.77148-.39551,5.10352-.87988,2.332-.48267,3.917-.92432l2.376,14.52148a31.42434,31.42434,0,0,1-5.5,2.42041,49.45412,49.45412,0,0,1-6.99707,1.8042q-3.78516.70313-7.877,1.1001-4.09131.39551-8.05273.39648a41.12167,41.12167,0,0,1-13.06934-1.98047,26.208,26.208,0,0,1-10.209-6.16064,28.59011,28.59011,0,0,1-6.68848-10.7373,45.43,45.43,0,0,1-2.4209-15.70947v-46.8208H480.50488v-15.666h23.23438V176.38867Z"/><path class="cls-1" d="M651.8584,281.64746a35.354,35.354,0,0,1-11.748,10.957,30.78151,30.78151,0,0,1-15.44629,3.917,38.28925,38.28925,0,0,1-13.50879-2.28857,25.68964,25.68964,0,0,1-10.47363-7.26074,34.75635,34.75635,0,0,1-6.77637-12.67334,62.18166,62.18166,0,0,1-2.41992-18.52588V199.44678h21.0332v56.502a52.9745,52.9745,0,0,0,1.01172,11.35352,17.41065,17.41065,0,0,0,3.125,7.12842,11.44318,11.44318,0,0,0,5.28125,3.74072,23.12623,23.12623,0,0,0,7.56836,1.1001q8.44922,0,13.64063-3.30078a20.85116,20.85116,0,0,0,7.834-8.93262V199.44678h21.12109v95.22607H653.09082Z"/><path class="cls-1" d="M782.28809,248.02783a71.98221,71.98221,0,0,1-2.46387,19.27441,46.77922,46.77922,0,0,1-7.2168,15.35742,34.11271,34.11271,0,0,1-11.66113,10.12109,33.49767,33.49767,0,0,1-15.88574,3.65283,36.26341,36.26341,0,0,1-14.30176-2.64062,30.35679,30.35679,0,0,1-10.69336-7.56885v45.06006h-21.0332V199.44678h19.36133l.88086,9.59326a31.47243,31.47243,0,0,1,10.86914-8.40479A34.19444,34.19444,0,0,1,744.7959,197.687a35.28438,35.28438,0,0,1,16.0625,3.52,32.96051,32.96051,0,0,1,11.749,9.90137,45.73386,45.73386,0,0,1,7.2168,15.31348,74.25008,74.25008,0,0,1,2.46387,19.75781Zm-21.03418-1.84814a53.3829,53.3829,0,0,0-1.31934-12.10107,31.63364,31.63364,0,0,0-4.04883-9.94482,20.34278,20.34278,0,0,0-6.95312-6.73291,19.573,19.573,0,0,0-10.0332-2.46436q-7.0415,0-11.61719,2.99219a21.16269,21.16269,0,0,0-7.2168,8.00879v42.59668a22.18165,22.18165,0,0,0,7.17383,8.00879q4.53076,3.082,11.83594,3.08057a19.02318,19.02318,0,0,0,10.0332-2.55273,20.605,20.605,0,0,0,6.90918-6.86426,32.02611,32.02611,0,0,0,3.96-10.0332,55.74016,55.74016,0,0,0,1.27637-12.14551Z"/><path class="cls-1" d="M94.32129,451.6416a51.02337,51.02337,0,0,1-19.27344-3.51953,44.59718,44.59718,0,0,1-14.918-9.68164A43.37,43.37,0,0,1,50.49316,423.875a47.60671,47.60671,0,0,1-3.43164-18.17383v-3.6084a54.21483,54.21483,0,0,1,3.65234-20.418,48.38113,48.38113,0,0,1,9.76855-15.48926,42.03274,42.03274,0,0,1,14.25684-9.85742,43.62033,43.62033,0,0,1,17.11816-3.43262,45.18607,45.18607,0,0,1,18.30566,3.47656,36.065,36.065,0,0,1,13.24609,9.76953,42.80006,42.80006,0,0,1,8.05273,14.917,62.53074,62.53074,0,0,1,2.72852,18.92188v8.88867H68.18262A31.42217,31.42217,0,0,0,70.91113,419.167a27.5221,27.5221,0,0,0,5.76465,8.22852,26.10049,26.10049,0,0,0,8.36035,5.457A27.31093,27.31093,0,0,0,95.55371,434.832a34.18785,34.18785,0,0,0,14.74219-3.168,29.06551,29.06551,0,0,0,10.957-8.71289l11.44141,10.7373a34.98725,34.98725,0,0,1-5.89746,6.64453,41.02435,41.02435,0,0,1-8.44824,5.7207,50.99478,50.99478,0,0,1-10.86914,4.04785A53.105,53.105,0,0,1,94.32129,451.6416Zm-2.55176-81.75977a20.96207,20.96207,0,0,0-8.18457,1.584,20.61744,20.61744,0,0,0-6.77734,4.62012,26.76891,26.76891,0,0,0-5.06055,7.39258,36.17846,36.17846,0,0,0-2.94727,9.90137h44.62012v-1.584a30.47066,30.47066,0,0,0-1.62793-8.14062,21.55127,21.55127,0,0,0-4.00488-6.99707,19.22914,19.22914,0,0,0-6.64453-4.92871A22.19033,22.19033,0,0,0,91.76953,369.88184Z"/><path class="cls-1" d="M197.11621,423.30273l1.49609,7.041,1.584-6.95312,23.05859-68.73437h21.73828l-37.31641,95.22559H189.54785l-37.668-95.22559h21.73828Z"/><path class="cls-1" d="M310.64746,451.6416a51.02337,51.02337,0,0,1-19.27344-3.51953,44.59718,44.59718,0,0,1-14.918-9.68164,43.37005,43.37005,0,0,1-9.63672-14.56543,47.60671,47.60671,0,0,1-3.43164-18.17383v-3.6084a54.21483,54.21483,0,0,1,3.65234-20.418,48.38113,48.38113,0,0,1,9.76855-15.48926,42.03274,42.03274,0,0,1,14.25684-9.85742,43.62033,43.62033,0,0,1,17.11816-3.43262,45.18607,45.18607,0,0,1,18.30566,3.47656,36.065,36.065,0,0,1,13.24609,9.76953,42.80006,42.80006,0,0,1,8.05273,14.917,62.53073,62.53073,0,0,1,2.72852,18.92188v8.88867H284.50879A31.42217,31.42217,0,0,0,287.2373,419.167a27.5221,27.5221,0,0,0,5.76465,8.22852,26.10049,26.10049,0,0,0,8.36035,5.457,27.31093,27.31093,0,0,0,10.51758,1.97949,34.18785,34.18785,0,0,0,14.74219-3.168,29.06551,29.06551,0,0,0,10.957-8.71289l11.44141,10.7373A34.98725,34.98725,0,0,1,343.123,440.333a41.02435,41.02435,0,0,1-8.44824,5.7207,50.99478,50.99478,0,0,1-10.86914,4.04785A53.105,53.105,0,0,1,310.64746,451.6416Zm-2.55176-81.75977a20.96207,20.96207,0,0,0-8.18457,1.584,20.61744,20.61744,0,0,0-6.77734,4.62012,26.76891,26.76891,0,0,0-5.06055,7.39258,36.17846,36.17846,0,0,0-2.94727,9.90137h44.62012v-1.584a30.47066,30.47066,0,0,0-1.62793-8.14062,21.55127,21.55127,0,0,0-4.00488-6.99707,19.22914,19.22914,0,0,0-6.64453-4.92871A22.19033,22.19033,0,0,0,308.0957,369.88184Z"/><path class="cls-1" d="M393.46387,354.65625l1.32031,13.20117a36.87345,36.87345,0,0,1,12.541-11.04492,34.16853,34.16853,0,0,1,16.32617-3.917,40.10842,40.10842,0,0,1,13.334,2.1123,26.45834,26.45834,0,0,1,10.38477,6.60059,30.43752,30.43752,0,0,1,6.77637,11.61719,53.67637,53.67637,0,0,1,2.4209,17.16211v59.49414H435.53223V390.73926a30.63791,30.63791,0,0,0-1.36328-9.85645,15.49558,15.49558,0,0,0-3.873-6.33691,14.38237,14.38237,0,0,0-6.11621-3.38867,30.3889,30.3889,0,0,0-8.18457-1.01172,23.12633,23.12633,0,0,0-12.10156,3.08008,23.89447,23.89447,0,0,0-8.31641,8.36133v68.29492h-21.123V354.65625Z"/><path class="cls-1" d="M487.19434,354.65625h50.78125v77.7998h28.25v17.42578H487.19434V432.45605h29.57031V372.16992H487.19434Zm27.81055-24.64258a11.11687,11.11687,0,0,1,3.168-8.14062q3.16846-3.2124,8.88867-3.21289,5.80957,0,9.02148,3.21289a11.91955,11.91955,0,0,1,0,16.28125q-3.21387,3.21387-9.02148,3.21191-5.72168,0-8.88867-3.21191A11.11532,11.11532,0,0,1,515.00488,330.01367Z"/><path class="cls-1" d="M609.79,354.65625l1.32031,13.20117a36.87345,36.87345,0,0,1,12.541-11.04492,34.16853,34.16853,0,0,1,16.32617-3.917,40.10842,40.10842,0,0,1,13.334,2.1123,26.45834,26.45834,0,0,1,10.38477,6.60059,30.43752,30.43752,0,0,1,6.77637,11.61719,53.67637,53.67637,0,0,1,2.4209,17.16211v59.49414H651.8584V390.73926a30.63791,30.63791,0,0,0-1.36328-9.85645,15.49558,15.49558,0,0,0-3.873-6.33691,14.38237,14.38237,0,0,0-6.11621-3.38867,30.3889,30.3889,0,0,0-8.18457-1.01172,23.12633,23.12633,0,0,0-12.10156,3.08008,23.89446,23.89446,0,0,0-8.31641,8.36133v68.29492h-21.123V354.65625Z"/><path class="cls-1" d="M696.21582,401.56445a68.9054,68.9054,0,0,1,2.68359-19.80176,46.28636,46.28636,0,0,1,7.70117-15.40137A36.76772,36.76772,0,0,1,749.373,355.7998a30.31249,30.31249,0,0,1,10.7373,8.36133l.87988-9.50488h19.09766V447.3291a43.11489,43.11489,0,0,1-3.168,17.03027,35.1252,35.1252,0,0,1-8.84473,12.541,38.59175,38.59175,0,0,1-13.59766,7.78906,54.0284,54.0284,0,0,1-17.42578,2.68457,52.53223,52.53223,0,0,1-8.75684-.83594,51.81376,51.81376,0,0,1-9.81348-2.72852,46.56577,46.56577,0,0,1-9.416-4.92871,30.9514,30.9514,0,0,1-7.6582-7.34863l10.0332-12.58594a32.5236,32.5236,0,0,0,11.57422,9.06543,31.50256,31.50256,0,0,0,12.80469,2.72852,29.14174,29.14174,0,0,0,9.59375-1.49609,18.85327,18.85327,0,0,0,11.9248-11.57324,27.43453,27.43453,0,0,0,1.62793-9.81348v-6.4248a30.78972,30.78972,0,0,1-10.51758,7.56934,34.74734,34.74734,0,0,1-14.03711,2.63965,33.7,33.7,0,0,1-15.75391-3.65234,36.43791,36.43791,0,0,1-12.05664-10.07617,46.43693,46.43693,0,0,1-7.70117-15.27051,65.92453,65.92453,0,0,1-2.68359-19.22949Zm21.12109,1.84863a52.80476,52.80476,0,0,0,1.32031,12.05762,31.09408,31.09408,0,0,0,4.04883,9.85645,19.32206,19.32206,0,0,0,17.07422,9.06543q7.30371,0,11.88086-3.03711a22.04291,22.04291,0,0,0,7.30469-8.14062V381.14648a22.6354,22.6354,0,0,0-7.39258-8.00879q-4.57764-2.99121-11.61719-2.99219a19.81667,19.81667,0,0,0-10.07715,2.46387,20.46061,20.46061,0,0,0-7.041,6.77734,32.182,32.182,0,0,0-4.13574,10.0332,52.19063,52.19063,0,0,0-1.36523,12.14453Z"/><path class="cls-1" d="M240.50488,589.0752h7.43652v9.90137h-7.43652v13.90527h-12.2334V598.97656h-26.623l-.4834-7.65723,26.92969-42.50781h12.41016Zm-27.32715,0h15.09375V565.26855l-1.18848,2.1123Z"/><path class="cls-1" d="M305.07715,588.50293a37.8744,37.8744,0,0,1-1.43066,10.93555,22.05116,22.05116,0,0,1-4.11426,7.9209,17.11645,17.11645,0,0,1-6.55664,4.81836,24.01263,24.01263,0,0,1-17.38184,0,17.29591,17.29591,0,0,1-6.5791-4.81836,22.35725,22.35725,0,0,1-4.17969-7.9209,36.78537,36.78537,0,0,1-1.47461-10.93555V573.18945a37.3361,37.3361,0,0,1,1.45215-10.93457,22.09,22.09,0,0,1,4.15918-7.9209,17.31739,17.31739,0,0,1,6.55664-4.81836,22.00434,22.00434,0,0,1,8.64648-1.62891,22.29492,22.29492,0,0,1,8.71289,1.62891,17.29261,17.29261,0,0,1,6.57813,4.81836,22.08863,22.08863,0,0,1,4.1582,7.9209,37.30171,37.30171,0,0,1,1.45313,10.93457Zm-29.39551-5.28027,17.07324-12.7168q-.13184-6.46875-2.24414-9.59375a7.13943,7.13943,0,0,0-6.33594-3.124,7.06546,7.06546,0,0,0-6.38086,3.30078q-2.1123,3.30029-2.1123,10.165Zm17.07324-4.40039-17.07324,12.67383q.21973,6.33545,2.333,9.39453a7.09935,7.09935,0,0,0,6.248,3.05859,7.02783,7.02783,0,0,0,6.40234-3.34473q2.08887-3.34424,2.08984-10.25293Z"/><path class="cls-1" d="M357.68066,589.0752h7.43555v9.90137h-7.43555v13.90527H345.44629V598.97656h-26.623l-.4834-7.65723,26.93066-42.50781h12.41016Zm-27.32812,0h15.09375V565.26855l-1.1875,2.1123Z"/><path class="cls-1" d="M395.27734,548.81152l6.07227,24.07031,6.90918-24.07031h15.35742v64.07031H412.2627V593.916l.52832-29.9668-8.40527,27.81055h-6.11621l-7.52441-26.623.52734,28.7793v18.96582H379.91895V548.81152Z"/><path class="cls-1" d="M437.45117,588.63574a29.81082,29.81082,0,0,1,1.49707-9.61523,22.11412,22.11412,0,0,1,4.37793-7.67871,20.24042,20.24042,0,0,1,7.04-5.10449,25.53033,25.53033,0,0,1,19.07617,0,20.19262,20.19262,0,0,1,7.0625,5.10449,22.147,22.147,0,0,1,4.37891,7.67871,29.83751,29.83751,0,0,1,1.49609,9.61523v.92383a29.98118,29.98118,0,0,1-1.49609,9.65918,22.33507,22.33507,0,0,1-4.35645,7.67871,19.74839,19.74839,0,0,1-7.04,5.082,23.54845,23.54845,0,0,1-9.50586,1.82617,23.80581,23.80581,0,0,1-9.57031-1.82617,19.89368,19.89368,0,0,1-7.085-5.082,22.11412,22.11412,0,0,1-4.37793-7.67871,29.95438,29.95438,0,0,1-1.49707-9.65918Zm12.2334.92383a26.21635,26.21635,0,0,0,.57227,5.61035,14.175,14.175,0,0,0,1.80469,4.57617,8.82528,8.82528,0,0,0,7.91992,4.24707,8.91694,8.91694,0,0,0,4.62109-1.14453,9.10891,9.10891,0,0,0,3.14648-3.10254,14.51622,14.51622,0,0,0,1.78125-4.57617,26.279,26.279,0,0,0,.57227-5.61035v-.92383a25.55036,25.55036,0,0,0-.57227-5.501,14.81831,14.81831,0,0,0-1.78125-4.57617,9.58735,9.58735,0,0,0-12.51953-3.125,9.21667,9.21667,0,0,0-3.168,3.125,14.46476,14.46476,0,0,0-1.80469,4.57617,25.48886,25.48886,0,0,0-.57227,5.501Z"/><path class="cls-1" d="M500.2627,545.291h26.623v57.64551h13.6416v9.94531H500.2627v-9.94531h14.25781V555.28027H500.2627Z"/><path class="cls-1" d="M555.02246,588.72363a36.73593,36.73593,0,0,1,1.25391-9.90137,22.88645,22.88645,0,0,1,3.6748-7.70117,16.89163,16.89163,0,0,1,5.874-4.97168,17.15158,17.15158,0,0,1,7.89941-1.76074,15.23709,15.23709,0,0,1,6.5791,1.34277,15.73681,15.73681,0,0,1,5.03809,3.80566V545.291h12.27734v67.59082H586.57422l-.61621-4.97266a16.128,16.128,0,0,1-5.28125,4.3125,15.36415,15.36415,0,0,1-7.04,1.54,16.46392,16.46392,0,0,1-7.81152-1.82617,17.3371,17.3371,0,0,1-5.85156-5.03809,23.51626,23.51626,0,0,1-3.6748-7.63477,34.57117,34.57117,0,0,1-1.27637-9.61523Zm12.2334.92383a28.81793,28.81793,0,0,0,.50684,5.56641,13.86675,13.86675,0,0,0,1.64941,4.48828,8.66216,8.66216,0,0,0,2.94824,3.01465,8.30354,8.30354,0,0,0,4.40039,1.10059,9.439,9.439,0,0,0,5.25879-1.36426,9.6803,9.6803,0,0,0,3.32227-3.74121V579.43848a9.52333,9.52333,0,0,0-3.2998-3.7627,9.36344,9.36344,0,0,0-5.19336-1.3418,8.28684,8.28684,0,0,0-4.42187,1.12207,8.6813,8.6813,0,0,0-2.9707,3.08008,14.79452,14.79452,0,0,0-1.67187,4.57617,28.40769,28.40769,0,0,0-.52832,5.61133Z"/><path class="cls-1" d="M613.21387,588.63574a29.81087,29.81087,0,0,1,1.49609-9.61523,22.13158,22.13158,0,0,1,4.37891-7.67871,20.22616,20.22616,0,0,1,7.041-5.10449,25.53033,25.53033,0,0,1,19.07617,0,20.20155,20.20155,0,0,1,7.0625,5.10449,22.145,22.145,0,0,1,4.37793,7.67871,29.83751,29.83751,0,0,1,1.49609,9.61523v.92383a29.98118,29.98118,0,0,1-1.49609,9.65918,22.33507,22.33507,0,0,1-4.35645,7.67871,19.74351,19.74351,0,0,1-7.041,5.082,23.53556,23.53556,0,0,1-9.50391,1.82617,23.81544,23.81544,0,0,1-9.57227-1.82617,19.90717,19.90717,0,0,1-7.084-5.082,22.13158,22.13158,0,0,1-4.37891-7.67871,29.95451,29.95451,0,0,1-1.49609-9.65918Zm12.2334.92383a26.21635,26.21635,0,0,0,.57227,5.61035,14.19619,14.19619,0,0,0,1.80371,4.57617,8.83154,8.83154,0,0,0,7.92188,4.24707,8.90966,8.90966,0,0,0,4.61914-1.14453,9.09226,9.09226,0,0,0,3.14648-3.10254,14.56477,14.56477,0,0,0,1.7832-4.57617,26.279,26.279,0,0,0,.57227-5.61035v-.92383a25.55036,25.55036,0,0,0-.57227-5.501,14.86914,14.86914,0,0,0-1.7832-4.57617,9.5861,9.5861,0,0,0-12.51855-3.125,9.2194,9.2194,0,0,0-3.16895,3.125,14.48675,14.48675,0,0,0-1.80371,4.57617,25.48886,25.48886,0,0,0-.57227,5.501Z"/><path class="cls-1" d="M693.71582,598.75684l.61621,3.43164.61621-3.2998,10.47266-33.62012h12.76172l-18.08594,47.61328H688.61133L670.4375,565.26855h12.76074Z"/><path class="cls-1" d="M761.80859,612.88184a10.7391,10.7391,0,0,1-.748-2.02441q-.30908-1.144-.52832-2.41992a16.02521,16.02521,0,0,1-2.332,2.06836,16.2615,16.2615,0,0,1-2.92578,1.69434,17.70662,17.70662,0,0,1-3.543,1.14355,19.81628,19.81628,0,0,1-4.17969.418,20.436,20.436,0,0,1-6.71094-1.05566,15.93326,15.93326,0,0,1-5.25879-2.94824,13.40971,13.40971,0,0,1-3.43262-4.51074,13.21238,13.21238,0,0,1-1.23242-5.69824q0-7.5249,5.61133-11.63965,5.61035-4.11328,16.74414-4.11426h6.82031v-2.81641a6.9158,6.9158,0,0,0-2.24414-5.43457q-2.24414-2.00244-6.46875-2.002-3.74121,0-5.457,1.60547a5.59748,5.59748,0,0,0-1.71582,4.291h-12.2334a12.896,12.896,0,0,1,1.3418-5.76465,14.16837,14.16837,0,0,1,3.916-4.79687,19.69124,19.69124,0,0,1,6.293-3.27832,27.49888,27.49888,0,0,1,8.51563-1.21,29.287,29.287,0,0,1,8.03027,1.05664,19.2484,19.2484,0,0,1,6.44629,3.124,14.37522,14.37522,0,0,1,4.26953,5.21484,16.389,16.389,0,0,1,1.53906,7.28223v20.418a34.38145,34.38145,0,0,0,.48438,6.33691,16.19241,16.19241,0,0,0,1.4082,4.3125v.748Zm-11.66113-8.58105a12.78708,12.78708,0,0,0,3.43164-.43945,13.20813,13.20813,0,0,0,2.86133-1.14453,10.10786,10.10786,0,0,0,2.19922-1.60645,8.39414,8.39414,0,0,0,1.45313-1.82617v-8.18457h-6.249a18.84124,18.84124,0,0,0-4.88379.5498,9.32063,9.32063,0,0,0-3.30078,1.54,6.12591,6.12591,0,0,0-1.89258,2.377,7.32786,7.32786,0,0,0-.61523,3.01367,5.36748,5.36748,0,0,0,1.7373,4.09277A7.45071,7.45071,0,0,0,750.14746,604.30078Z"/><rect class="cls-2" x="12.83447" y="151.82422" width="800" height="372"/><rect class="cls-2" x="12.83447" y="523.82422" width="800" height="114"/><line class="cls-2" x1="166.83447" y1="523.82422" x2="166.83447" y2="637.82422"/><path class="cls-3" d="M121.4834,580.33984q-.39111,10.19531-5.07812,16.25a15.01044,15.01044,0,0,1-12.5,6.05469,11.34476,11.34476,0,0,1-5.66406-1.38672,9.65738,9.65738,0,0,1-3.82812-3.92578,12.14886,12.14886,0,0,1-10.27344,5.15625,10.32091,10.32091,0,0,1-6.5625-2.207,12.61568,12.61568,0,0,1-4.12109-6.26953,22.64773,22.64773,0,0,1-.80078-9.21875q1.17188-9.76465,6.28906-15.70312a15.94026,15.94026,0,0,1,12.53906-5.9375,17.91257,17.91257,0,0,1,9.88281,2.65625l2.46094,1.64063L101.835,590.37891q-.665,5.43018,3.75,5.42969,3.31934,0,5.56641-4.23828a24.99314,24.99314,0,0,0,2.48047-10.83984q.66357-13.0459-5.41016-20.15625-6.07471-7.10889-17.793-7.10937A23.61524,23.61524,0,0,0,77.167,557.27344a26.19724,26.19724,0,0,0-9.17969,10.78125,40.52219,40.52219,0,0,0-3.80859,15.87891q-.62549,13.67285,5.46875,20.918,6.09375,7.24512,18.28125,7.24609a34.284,34.284,0,0,0,6.95313-.76172,30.53337,30.53337,0,0,0,5.97656-1.77734l1.44531,6.48438a20.35907,20.35907,0,0,1-6.42578,2.51953,35.098,35.098,0,0,1-8.10547.957q-10.66406,0-18.02734-4.082a25.19324,25.19324,0,0,1-10.957-12.08984q-3.59473-8.00684-3.20312-19.41406a44.97789,44.97789,0,0,1,4.98047-19.31641,32.87054,32.87054,0,0,1,12.34375-13.20312,33.86271,33.86271,0,0,1,17.67578-4.668,33.71338,33.71338,0,0,1,16.99219,4.082,25.77688,25.77688,0,0,1,10.74219,11.73828A37.576,37.576,0,0,1,121.4834,580.33984ZM82.4209,584.793q-.43066,5.07861.80078,7.67578a4.12083,4.12083,0,0,0,3.96484,2.59766,4.58593,4.58593,0,0,0,3.37891-1.64062,12.59776,12.59776,0,0,0,2.55859-4.6875l1.5625-17.8125a9.37483,9.37483,0,0,0-2.42187-.3125,7.70413,7.70413,0,0,0-6.73828,3.418Q83.16211,577.4502,82.4209,584.793Z"/><path class="cls-1" d="M19.76758,1.18945,27.584,32.17188,36.47656,1.18945H56.24414V83.6582H41.63086V59.24609l.67969-38.57227L31.49219,56.4707h-7.873L13.93359,22.20313l.67969,37.043V83.6582H0V1.18945Z"/><path class="cls-1" d="M110.39258,66.43945h-24.752L80.76953,83.6582H64.00391L91.02148,1.18945h14.44336L131.97266,83.6582H115.207ZM89.54883,52.90234H106.6543L98.21484,22.543Z"/><path class="cls-1" d="M167.59961,39.19531,183.85547,1.18945h17.502L175.416,55.11133l-.05664,28.54687H159.5l-.05664-29.22656L133.89844,1.18945h17.44531Z"/><path class="cls-1" d="M317.81055,83.6582h-15.916V20.39063l-20.84375,7.47656v-13.707l35.91016-12.9707h.84961Z"/><path class="cls-1" d="M400.61914,23.10938a19.19185,19.19185,0,0,1-3.03027,10.67676,21.74207,21.74207,0,0,1-8.29785,7.44824,23.62647,23.62647,0,0,1,9.54395,7.92969,20.433,20.433,0,0,1,3.54,11.95117,23.40127,23.40127,0,0,1-2.124,10.252,20.99365,20.99365,0,0,1-5.834,7.3916,25.8036,25.8036,0,0,1-8.751,4.50293,37.29765,37.29765,0,0,1-10.875,1.5293,37.7772,37.7772,0,0,1-10.96-1.5293,26.07544,26.07544,0,0,1-8.80762-4.50293,20.85013,20.85013,0,0,1-5.8623-7.3916,23.40127,23.40127,0,0,1-2.124-10.252,21.69676,21.69676,0,0,1,.93457-6.42871,20.881,20.881,0,0,1,2.63379-5.55078,21.68064,21.68064,0,0,1,4.10645-4.53125,25.09187,25.09187,0,0,1,5.40918-3.42676,21.09551,21.09551,0,0,1-8.26953-7.3916,19.31488,19.31488,0,0,1-3.002-10.67676,23.853,23.853,0,0,1,1.92578-9.88379,20.45435,20.45435,0,0,1,5.35254-7.22168,23.04165,23.04165,0,0,1,8.15625-4.44629,36.4421,36.4421,0,0,1,20.70215,0,23.60558,23.60558,0,0,1,8.24121,4.44629,20.46141,20.46141,0,0,1,5.4375,7.22168A23.55922,23.55922,0,0,1,400.61914,23.10938ZM386.57227,60.03906a14.43688,14.43688,0,0,0-.84961-5.09766,11.1552,11.1552,0,0,0-2.40723-3.87988,10.346,10.346,0,0,0-3.73828-2.46387,14.55145,14.55145,0,0,0-9.79883,0,10.064,10.064,0,0,0-3.71,2.46387,11.37381,11.37381,0,0,0-2.37891,3.87988,14.43688,14.43688,0,0,0-.84961,5.09766q0,5.66455,3.22852,8.89258a11.78614,11.78614,0,0,0,8.72266,3.22852,13.24518,13.24518,0,0,0,4.75781-.82129,10.24756,10.24756,0,0,0,3.71-2.40723,11.24205,11.24205,0,0,0,2.43555-3.82324A13.79234,13.79234,0,0,0,386.57227,60.03906ZM384.92969,23.8457a13.2805,13.2805,0,0,0-.73633-4.53125,10.17745,10.17745,0,0,0-2.06738-3.4834,9.11128,9.11128,0,0,0-3.22852-2.2373,11.00464,11.00464,0,0,0-4.27637-.793,9.38479,9.38479,0,0,0-7.41992,2.94531q-2.606,2.9458-2.60547,8.09961a14.52933,14.52933,0,0,0,.67969,4.55957,9.72472,9.72472,0,0,0,2.01074,3.54,9.20743,9.20743,0,0,0,3.22852,2.29395,10.65714,10.65714,0,0,0,4.27637.82129,10.45569,10.45569,0,0,0,4.248-.82129,9.00788,9.00788,0,0,0,3.17188-2.29395,10.32117,10.32117,0,0,0,2.01074-3.54A14.00369,14.00369,0,0,0,384.92969,23.8457Z"/><path class="cls-1" d="M450.68945,82.41211a26.45754,26.45754,0,0,1-.87793,6.627,35.65471,35.65471,0,0,1-2.40723,6.57031,36.19417,36.19417,0,0,1-3.65332,6.00391,35.722,35.722,0,0,1-4.55957,5.041l-8.32617-4.30469q1.0752-2.03906,2.01074-4.13477a34.94946,34.94946,0,0,0,1.61426-4.418,37.85919,37.85919,0,0,0,1.07617-4.92773,38.24992,38.24992,0,0,0,.39648-5.7207V69.89453h14.7832Z"/><path class="cls-1" d="M526.64453,83.6582h-15.916V20.39063l-20.84375,7.47656v-13.707l35.91016-12.9707h.84961Z"/><path class="cls-1" d="M609.45313,23.10938a19.19185,19.19185,0,0,1-3.03027,10.67676,21.74207,21.74207,0,0,1-8.29785,7.44824,23.62647,23.62647,0,0,1,9.54395,7.92969,20.433,20.433,0,0,1,3.54,11.95117,23.40127,23.40127,0,0,1-2.124,10.252,20.99365,20.99365,0,0,1-5.834,7.3916,25.8036,25.8036,0,0,1-8.751,4.50293,37.29765,37.29765,0,0,1-10.875,1.5293,37.7772,37.7772,0,0,1-10.96-1.5293,26.07543,26.07543,0,0,1-8.80762-4.50293,20.85013,20.85013,0,0,1-5.8623-7.3916,23.40127,23.40127,0,0,1-2.124-10.252,21.69676,21.69676,0,0,1,.93457-6.42871,20.881,20.881,0,0,1,2.63379-5.55078,21.68065,21.68065,0,0,1,4.10645-4.53125,25.09188,25.09188,0,0,1,5.40918-3.42676,21.09551,21.09551,0,0,1-8.26953-7.3916,19.31488,19.31488,0,0,1-3.002-10.67676,23.853,23.853,0,0,1,1.92578-9.88379,20.45435,20.45435,0,0,1,5.35254-7.22168,23.04165,23.04165,0,0,1,8.15625-4.44629,36.4421,36.4421,0,0,1,20.70215,0,23.60558,23.60558,0,0,1,8.24121,4.44629,20.46141,20.46141,0,0,1,5.4375,7.22168A23.55922,23.55922,0,0,1,609.45313,23.10938ZM595.40625,60.03906a14.43688,14.43688,0,0,0-.84961-5.09766,11.1552,11.1552,0,0,0-2.40723-3.87988,10.346,10.346,0,0,0-3.73828-2.46387,14.55145,14.55145,0,0,0-9.79883,0,10.064,10.064,0,0,0-3.71,2.46387,11.37381,11.37381,0,0,0-2.37891,3.87988,14.43688,14.43688,0,0,0-.84961,5.09766q0,5.66455,3.22852,8.89258a11.78614,11.78614,0,0,0,8.72266,3.22852,13.24518,13.24518,0,0,0,4.75781-.82129,10.24756,10.24756,0,0,0,3.71-2.40723,11.24205,11.24205,0,0,0,2.43555-3.82324A13.79234,13.79234,0,0,0,595.40625,60.03906ZM593.76367,23.8457a13.2805,13.2805,0,0,0-.73633-4.53125,10.17745,10.17745,0,0,0-2.06738-3.4834,9.11128,9.11128,0,0,0-3.22852-2.2373,11.00464,11.00464,0,0,0-4.27637-.793,9.38479,9.38479,0,0,0-7.41992,2.94531q-2.606,2.9458-2.60547,8.09961a14.52933,14.52933,0,0,0,.67969,4.55957,9.72472,9.72472,0,0,0,2.01074,3.54,9.20743,9.20743,0,0,0,3.22852,2.29395,10.65714,10.65714,0,0,0,4.27637.82129,10.45569,10.45569,0,0,0,4.248-.82129,9.00788,9.00788,0,0,0,3.17188-2.29395,10.32117,10.32117,0,0,0,2.01074-3.54A14.00369,14.00369,0,0,0,593.76367,23.8457Z"/><path class="cls-1" d="M644.00391,27.75391a11.24889,11.24889,0,0,1,.73633-4.10645,9.19706,9.19706,0,0,1,2.15234-3.28516,10.44291,10.44291,0,0,1,3.45508-2.209,13.2251,13.2251,0,0,1,9.17578,0,10.137,10.137,0,0,1,3.42676,2.209,9.7477,9.7477,0,0,1,2.15234,3.28516,10.886,10.886,0,0,1,.76465,4.10645,10.5152,10.5152,0,0,1-.76465,4.02148,9.551,9.551,0,0,1-5.5791,5.4375,13.6686,13.6686,0,0,1-9.17578,0,10.06731,10.06731,0,0,1-3.45508-2.18066,9.24077,9.24077,0,0,1-2.15234-3.25684A10.86394,10.86394,0,0,1,644.00391,27.75391Zm0,46.78516a11.24889,11.24889,0,0,1,.73633-4.10645,9.19706,9.19706,0,0,1,2.15234-3.28516,10.44291,10.44291,0,0,1,3.45508-2.209,13.2251,13.2251,0,0,1,9.17578,0,10.137,10.137,0,0,1,3.42676,2.209,9.7477,9.7477,0,0,1,2.15234,3.28516,10.886,10.886,0,0,1,.76465,4.10645,10.5152,10.5152,0,0,1-.76465,4.02148,9.551,9.551,0,0,1-5.5791,5.4375,13.6686,13.6686,0,0,1-9.17578,0,10.06731,10.06731,0,0,1-3.45508-2.18066,9.24077,9.24077,0,0,1-2.15234-3.25684A10.86394,10.86394,0,0,1,644.00391,74.53906Z"/><path class="cls-1" d="M750.60156,52.2793a48.75714,48.75714,0,0,1-1.84082,14.0752,28.37631,28.37631,0,0,1-5.2959,10.19531,22.023,22.023,0,0,1-8.43945,6.20215,30.9036,30.9036,0,0,1-22.373,0,22.25175,22.25175,0,0,1-8.46777-6.20215,28.77091,28.77091,0,0,1-5.38086-10.19531,47.35161,47.35161,0,0,1-1.89746-14.0752V32.56836a48.04768,48.04768,0,0,1,1.86914-14.0752,28.45462,28.45462,0,0,1,5.35254-10.19531,22.31894,22.31894,0,0,1,8.43945-6.20215A28.32873,28.32873,0,0,1,723.69727,0a28.69586,28.69586,0,0,1,11.21484,2.0957,22.27959,22.27959,0,0,1,8.46777,6.20215,28.45462,28.45462,0,0,1,5.35254,10.19531,48.04768,48.04768,0,0,1,1.86914,14.0752Zm-37.83594-6.79687,21.97656-16.36914q-.16992-8.32617-2.88867-12.34766a9.18982,9.18982,0,0,0-8.15625-4.02148,9.09305,9.09305,0,0,0-8.21289,4.248q-2.71875,4.248-2.71875,13.084Zm21.97656-5.66406-21.97656,16.3125q.28271,8.15625,3.002,12.09277a9.13939,9.13939,0,0,0,8.043,3.93652,9.046,9.046,0,0,0,8.24121-4.30469q2.68945-4.30371,2.69043-13.19727Z"/><path class="cls-1" d="M820.21289,52.2793a48.75714,48.75714,0,0,1-1.84082,14.0752,28.37631,28.37631,0,0,1-5.2959,10.19531,22.023,22.023,0,0,1-8.43945,6.20215,30.9036,30.9036,0,0,1-22.373,0,22.25175,22.25175,0,0,1-8.46777-6.20215A28.77091,28.77091,0,0,1,768.415,66.35449a47.35161,47.35161,0,0,1-1.89746-14.0752V32.56836a48.04768,48.04768,0,0,1,1.86914-14.0752,28.45462,28.45462,0,0,1,5.35254-10.19531,22.31894,22.31894,0,0,1,8.43945-6.20215A28.32873,28.32873,0,0,1,793.30859,0a28.69586,28.69586,0,0,1,11.21484,2.0957,22.27959,22.27959,0,0,1,8.46777,6.20215,28.45462,28.45462,0,0,1,5.35254,10.19531,48.04768,48.04768,0,0,1,1.86914,14.0752ZM782.377,45.48242l21.97656-16.36914q-.16992-8.32617-2.88867-12.34766a9.18982,9.18982,0,0,0-8.15625-4.02148,9.09305,9.09305,0,0,0-8.21289,4.248q-2.71875,4.248-2.71875,13.084Zm21.97656-5.66406L782.377,56.13086q.28271,8.15625,3.002,12.09277a9.13939,9.13939,0,0,0,8.043,3.93652,9.046,9.046,0,0,0,8.24121-4.30469q2.68945-4.30371,2.69043-13.19727Z"/></g></g></svg>