<svg xmlns="http://www.w3.org/2000/svg" viewBox="2342 2152 128 48"><defs><style>.cls-1{fill:#a9aaab}</style></defs><g id="logo-right-white" transform="translate(2342 2152)"><path id="Path_145" data-name="Path 145" class="cls-1" d="M305.072 64.56l8.844-18.618L308.8 43.6l-12.6 26.512h12.335v11.021h5.657V64.56zm8.03 15.517h-3.491V69.056H297.9l11.424-24.047 3.16 1.449-9.106 19.159h9.722z" transform="translate(-256.229 -38.631)"/><path id="Path_146" data-name="Path 146" class="cls-1" d="M180.13 85.975v-34L177.3 49.2h-12.871l-2.829 2.776v34h5.657V54.751h7.23v31.224zm-13.949-32.293v31.237h-3.491v-32.5l2.194-2.166h11.976l2.194 2.153v32.5h-3.491V53.682z" transform="translate(-140.2 -43.473)"/><path id="Path_147" data-name="Path 147" class="cls-1" d="M95.6 336.8l45.67.041V333H95.6zm44.58-2.749v1.72l-43.5-.041v-1.692z" transform="translate(-83.306 -288.845)"/><path id="Path_148" data-name="Path 148" class="cls-1" d="M18.821 49.4h5.657V32.829h-9.106l10.5-22.26H64.45V6.9H21.484L6.5 38.381h12.335zM8.2 37.311L22.174 7.956h41.2V9.5H25.182L13.675 33.9H23.4v14.447h-3.489V37.325H8.2z" transform="translate(-6.5 -6.9)"/><path id="Path_149" data-name="Path 149" class="cls-1" d="M325.752 58.142l-1.2-.542L314.3 79.156h11.107v11.022h1.311V77.856h-10.335z" transform="translate(-270.934 -49.801)"/><path id="Path_150" data-name="Path 150" class="cls-1" d="M183.773 90.524h1.311V59.53L183.539 58h-11.08l-1.559 1.53v30.994h1.325V59.3h11.549z" transform="translate(-147.32 -50.147)"/><path id="Path_151" data-name="Path 151" class="cls-1" d="M35.693 56.977h1.325V44.656H26.683L38.742 19.2H37.39L24.6 45.955h11.093z" transform="translate(-21.206 -16.6)"/><path id="Path_152" data-name="Path 152" class="cls-1" d="M492.9 75.089a1.592 1.592 0 0 1-.483 1.151 1.62 1.62 0 0 1-1.187.487 1.651 1.651 0 0 1-1.2-.487 1.574 1.574 0 0 1-.5-1.151v-6.432a2.313 2.313 0 0 0-.193-.934 2.677 2.677 0 0 0-.524-.758 2.552 2.552 0 0 0-.773-.515 2.214 2.214 0 0 0-.952-.19 2.468 2.468 0 0 0-.938.19 2.391 2.391 0 0 0-.773.515 2.5 2.5 0 0 0-.524.758 2.1 2.1 0 0 0-.193.934v6.432a1.592 1.592 0 0 1-.483 1.151 1.62 1.62 0 0 1-1.187.487 1.651 1.651 0 0 1-1.2-.487 1.575 1.575 0 0 1-.5-1.151V65.15a1.553 1.553 0 0 1 .51-1.15 1.685 1.685 0 0 1 2.87 1.151c.138-.149.331-.325.552-.528a3.872 3.872 0 0 1 .842-.542 5.96 5.96 0 0 1 1.118-.406 5.654 5.654 0 0 1 1.418-.175 4.56 4.56 0 0 1 1.669.3 4.375 4.375 0 0 1 1.38.826 3.589 3.589 0 0 1 .924 1.273 4.022 4.022 0 0 1 .331 1.652z" transform="translate(-415.789 -55.835)"/><path id="Path_153" data-name="Path 153" class="cls-1" d="M579.4 76.626a6.285 6.285 0 0 1-2.139-1.381 6.53 6.53 0 0 1-1.435-2.139 7.467 7.467 0 0 1 0-5.5 6.343 6.343 0 0 1 3.574-3.52 7.4 7.4 0 0 1 5.284 0 6.286 6.286 0 0 1 2.139 1.381 6.528 6.528 0 0 1 1.435 2.139 7.467 7.467 0 0 1 0 5.5 6.342 6.342 0 0 1-3.574 3.52 7.184 7.184 0 0 1-2.649.487 7.111 7.111 0 0 1-2.635-.487zm6.057-7.921a4.627 4.627 0 0 0-.717-1.395 3.278 3.278 0 0 0-2.693-1.31 3.268 3.268 0 0 0-1.532.352 3.376 3.376 0 0 0-1.145.961 4.365 4.365 0 0 0-.731 1.395 5.522 5.522 0 0 0-.262 1.652 5.139 5.139 0 0 0 .262 1.665 4.226 4.226 0 0 0 .731 1.395 3.643 3.643 0 0 0 1.145.948 3.537 3.537 0 0 0 3.077 0 3.36 3.36 0 0 0 1.145-.948 4.475 4.475 0 0 0 .717-1.395 5.541 5.541 0 0 0 .262-1.665 5.839 5.839 0 0 0-.261-1.66z" transform="translate(-496.819 -55.923)"/><path id="Path_154" data-name="Path 154" class="cls-1" d="M683.122 36.8v.3h1.656a1.063 1.063 0 0 1 .759.311 1 1 0 0 1 .317.745 1.051 1.051 0 0 1-1.076 1.056h-1.656v9.18a1.553 1.553 0 0 1-.5 1.151 1.634 1.634 0 0 1-1.173.487 1.651 1.651 0 0 1-1.2-.487 1.575 1.575 0 0 1-.5-1.151v-9.198h-.98a1.071 1.071 0 0 1-.766-.3 1.063 1.063 0 0 1 .766-1.808h.98v-2.848a1.561 1.561 0 0 1 .5-1.164 1.722 1.722 0 0 1 2.373 0 1.561 1.561 0 0 1 .5 1.164z" transform="translate(-585.09 -29.12)"/><path id="Path_155" data-name="Path 155" class="cls-1" d="M483.322 203.284a1.553 1.553 0 0 1-.5 1.151 1.634 1.634 0 0 1-1.173.487 1.651 1.651 0 0 1-1.2-.487 1.575 1.575 0 0 1-.5-1.151V194.1h-.98a1.071 1.071 0 0 1-.766-.3 1.048 1.048 0 0 1 .007-1.5 1.041 1.041 0 0 1 .759-.311h.98v-.3a9.628 9.628 0 0 1 .179-1.963 3.686 3.686 0 0 1 .621-1.516 2.878 2.878 0 0 1 1.214-.975 4.783 4.783 0 0 1 1.959-.339 5.964 5.964 0 0 1 1.945.257 1.04 1.04 0 0 1 .731 1.1 1.667 1.667 0 0 1-.276.975 1.268 1.268 0 0 1-1.09.379 2.007 2.007 0 0 0-1.449.447 2.386 2.386 0 0 0-.442 1.652v.3h1.656a1.064 1.064 0 0 1 .759.311 1 1 0 0 1 .317.745 1.051 1.051 0 0 1-1.076 1.056h-1.656z" transform="translate(-412.858 -162.528)"/><path id="Path_156" data-name="Path 156" class="cls-1" d="M549.6 235.426a6.287 6.287 0 0 1-2.139-1.381 6.529 6.529 0 0 1-1.435-2.139 7.467 7.467 0 0 1 0-5.5 6.342 6.342 0 0 1 3.574-3.52 7.4 7.4 0 0 1 5.285 0 6.287 6.287 0 0 1 2.139 1.381 6.53 6.53 0 0 1 1.435 2.139 7.467 7.467 0 0 1 0 5.5 6.342 6.342 0 0 1-3.573 3.52 7.185 7.185 0 0 1-2.649.487 7.06 7.06 0 0 1-2.637-.487zm6.043-7.921a4.627 4.627 0 0 0-.717-1.395 3.278 3.278 0 0 0-2.69-1.313 3.268 3.268 0 0 0-1.531.352 3.375 3.375 0 0 0-1.145.961 4.36 4.36 0 0 0-.731 1.395 5.518 5.518 0 0 0-.262 1.652 5.137 5.137 0 0 0 .262 1.665 4.223 4.223 0 0 0 .731 1.395 3.641 3.641 0 0 0 1.145.948 3.537 3.537 0 0 0 3.077 0 3.362 3.362 0 0 0 1.145-.948 4.471 4.471 0 0 0 .717-1.395 5.54 5.54 0 0 0 .262-1.665 5.113 5.113 0 0 0-.265-1.657z" transform="translate(-471.131 -193.221)"/><path id="Path_157" data-name="Path 157" class="cls-1" d="M653.1 224.137a1.552 1.552 0 0 1 .5-1.151 1.685 1.685 0 0 1 2.87 1.151v6.432a2.313 2.313 0 0 0 .193.934 2.678 2.678 0 0 0 .524.758 2.358 2.358 0 0 0 1.711.691 2.429 2.429 0 0 0 .952-.176 2.474 2.474 0 0 0 .773-.515 2.678 2.678 0 0 0 .524-.758 2.1 2.1 0 0 0 .193-.934v-6.432a1.553 1.553 0 0 1 .5-1.151 1.685 1.685 0 0 1 2.87 1.151v9.925a1.592 1.592 0 0 1-.483 1.151 1.693 1.693 0 0 1-1.821.363 1.638 1.638 0 0 1-1.035-1.514 5.143 5.143 0 0 1-.552.542 4.436 4.436 0 0 1-.842.528 5.96 5.96 0 0 1-1.118.406 5.655 5.655 0 0 1-1.421.176 4.854 4.854 0 0 1-1.67-.284 4.052 4.052 0 0 1-2.318-2.1 3.815 3.815 0 0 1-.345-1.652z" transform="translate(-563.881 -193.306)"/><path id="Path_158" data-name="Path 158" class="cls-1" d="M762.4 233.975a1.592 1.592 0 0 1-.483 1.151 1.62 1.62 0 0 1-1.187.487 1.651 1.651 0 0 1-1.2-.487 1.574 1.574 0 0 1-.5-1.151v-6.432a2.312 2.312 0 0 0-.193-.934 2.677 2.677 0 0 0-.524-.758 2.553 2.553 0 0 0-.773-.515 2.214 2.214 0 0 0-.952-.19 2.469 2.469 0 0 0-.938.19 2.391 2.391 0 0 0-.773.515 2.5 2.5 0 0 0-.524.758 2.1 2.1 0 0 0-.193.934v6.432a1.592 1.592 0 0 1-.483 1.151 1.62 1.62 0 0 1-1.187.487 1.651 1.651 0 0 1-1.2-.487 1.574 1.574 0 0 1-.5-1.151v-9.925a1.553 1.553 0 0 1 .5-1.151 1.685 1.685 0 0 1 2.87 1.151c.138-.149.331-.325.552-.528a3.876 3.876 0 0 1 .842-.542 5.963 5.963 0 0 1 1.118-.406 5.655 5.655 0 0 1 1.421-.176 4.561 4.561 0 0 1 1.67.3 4.375 4.375 0 0 1 1.38.826 3.589 3.589 0 0 1 .924 1.273 4.021 4.021 0 0 1 .331 1.652z" transform="translate(-648.105 -193.219)"/><path id="Path_159" data-name="Path 159" class="cls-1" d="M853.311 204.227a2.938 2.938 0 0 1-.69.542 4.321 4.321 0 0 1-1.09.42 7.056 7.056 0 0 1-1.669.176 4.63 4.63 0 0 1-2.1-.474 4.7 4.7 0 0 1-1.587-1.354 6.436 6.436 0 0 1-1.021-2.085 9.534 9.534 0 0 1-.359-2.667 9.638 9.638 0 0 1 .359-2.681 6.375 6.375 0 0 1 1.021-2.1 4.682 4.682 0 0 1 1.587-1.354 4.46 4.46 0 0 1 2.1-.474 4.044 4.044 0 0 1 1.518.257 6.078 6.078 0 0 1 1.118.555 8.547 8.547 0 0 1 .745.555.868.868 0 0 0 .414.257c.083 0 .11-.095.11-.3v-4.468a1.634 1.634 0 0 1 1.669-1.638 1.7 1.7 0 0 1 1.2.474 1.56 1.56 0 0 1 .5 1.164v14.732a1.553 1.553 0 0 1-.5 1.151 1.685 1.685 0 0 1-2.87-1.151 5.029 5.029 0 0 0-.455.46zm-4.636-8.341a5.367 5.367 0 0 0 0 5.728 3.012 3.012 0 0 0 4.581 0 5.367 5.367 0 0 0 0-5.727 3.012 3.012 0 0 0-4.581 0z" transform="translate(-729.133 -162.956)"/></g></svg>
