<svg xmlns="http://www.w3.org/2000/svg" viewBox="0 0 822.834 647.824"><defs><style>.cls-1{fill:#f03957}.cls-2{fill:none;stroke:#f03957;stroke-width:20px;stroke-miterlimit:10}</style></defs><g id="Layer_2" data-name="Layer 2"><g id="Layer_1-2" data-name="Layer 1"><path class="cls-1" d="M112.012 268.886a9.797 9.797 0 0 0-.968-4.356 9.401 9.401 0 0 0-3.477-3.609 29.504 29.504 0 0 0-6.865-3.036 98.486 98.486 0 0 0-11.133-2.728 112.46 112.46 0 0 1-15.27-4.225 49.518 49.518 0 0 1-11.704-5.896 25.414 25.414 0 0 1-7.526-7.965 20.512 20.512 0 0 1-2.64-10.517 23.586 23.586 0 0 1 2.728-11.045 28.188 28.188 0 0 1 7.79-9.197 39.283 39.283 0 0 1 12.32-6.293 52.975 52.975 0 0 1 16.238-2.332 56.478 56.478 0 0 1 17.03 2.376 39.604 39.604 0 0 1 12.718 6.469 28.36 28.36 0 0 1 7.965 9.637 26.209 26.209 0 0 1 2.771 11.88h-21.033a12.5 12.5 0 0 0-1.232-5.412 13.451 13.451 0 0 0-3.698-4.62 18.586 18.586 0 0 0-6.116-3.212 27.168 27.168 0 0 0-8.405-1.188 29.66 29.66 0 0 0-8.229 1.011 19.106 19.106 0 0 0-5.763 2.641 10.432 10.432 0 0 0-3.389 3.828 10.1 10.1 0 0 0-1.1 4.577 10.763 10.763 0 0 0 .835 4.312 8.513 8.513 0 0 0 3.124 3.52 23.858 23.858 0 0 0 6.338 2.86 85.714 85.714 0 0 0 10.473 2.421 115.18 115.18 0 0 1 16.15 3.96 49.423 49.423 0 0 1 12.233 5.81 25.053 25.053 0 0 1 7.789 8.14 21.658 21.658 0 0 1 2.728 11.045 23.714 23.714 0 0 1-2.904 11.617 27.397 27.397 0 0 1-8.273 9.11 41.188 41.188 0 0 1-12.894 5.94 62.343 62.343 0 0 1-16.853 2.112 55.321 55.321 0 0 1-18.306-2.773 42.227 42.227 0 0 1-13.29-7.26 30.78 30.78 0 0 1-8.14-10.21 26.377 26.377 0 0 1-2.773-11.616h20.418a14.996 14.996 0 0 0 2.289 7.48 15.857 15.857 0 0 0 5.192 4.973 23.107 23.107 0 0 0 7.04 2.728 36.943 36.943 0 0 0 7.834.836q9.768 0 14.873-3.3 5.104-3.3 5.105-8.493zM200.284 176.389v23.058h35.996v15.666h-35.996v45.677a26.396 26.396 0 0 0 1.277 8.888 13.971 13.971 0 0 0 3.564 5.633 12.68 12.68 0 0 0 5.368 2.948 25.802 25.802 0 0 0 6.777.836 54.339 54.339 0 0 0 5.676-.308q2.949-.307 5.721-.704 2.773-.396 5.105-.88 2.331-.483 3.916-.924l2.377 14.521a31.448 31.448 0 0 1-5.502 2.42 49.44 49.44 0 0 1-6.996 1.805q-3.785.703-7.877 1.1-4.092.395-8.052.396a41.122 41.122 0 0 1-13.07-1.98 26.208 26.208 0 0 1-10.209-6.16 28.602 28.602 0 0 1-6.688-10.738 45.408 45.408 0 0 1-2.42-15.71v-46.82h-23.234v-15.666h23.234v-23.058zM327.018 294.673a19.38 19.38 0 0 1-1.453-4.136q-.574-2.377-1.011-5.105a35.484 35.484 0 0 1-4.973 4.268 34.633 34.633 0 0 1-6.16 3.477 39.434 39.434 0 0 1-7.306 2.376 38.336 38.336 0 0 1-8.405.88 40.966 40.966 0 0 1-13.685-2.156 31.535 31.535 0 0 1-10.473-5.985 26.481 26.481 0 0 1-9.109-20.286q0-15.314 11.398-23.41 11.396-8.096 32.695-8.097h15.401v-6.249q0-7.568-5.104-12.013-5.106-4.443-14.434-4.445a24.368 24.368 0 0 0-7.392 1.013 15.543 15.543 0 0 0-5.281 2.772 11.348 11.348 0 0 0-3.168 4.136 12.428 12.428 0 0 0-1.057 5.105h-21.033a24.01 24.01 0 0 1 2.595-10.781 28.206 28.206 0 0 1 7.614-9.33 39.096 39.096 0 0 1 12.277-6.556 51.546 51.546 0 0 1 16.59-2.464 56.708 56.708 0 0 1 15.665 2.068 36.654 36.654 0 0 1 12.497 6.16 28.686 28.686 0 0 1 8.273 10.21 32.202 32.202 0 0 1 2.993 14.301v42.42a64.703 64.703 0 0 0 .923 11.398 36.462 36.462 0 0 0 2.684 8.933v1.496zm-25.347-15.226a27.745 27.745 0 0 0 7.613-1.012 28.782 28.782 0 0 0 6.424-2.64 22.235 22.235 0 0 0 4.929-3.74 20.693 20.693 0 0 0 3.3-4.313v-17.866H310.56q-12.85 0-18.966 4.137a13.393 13.393 0 0 0-6.116 11.793 14.898 14.898 0 0 0 .967 5.412 11.211 11.211 0 0 0 2.949 4.313 14.326 14.326 0 0 0 5.016 2.86 22.179 22.179 0 0 0 7.26 1.056zM439.845 197.687q2.551 0 5.105.176 2.552.177 4.884.528 2.33.352 4.269.748a19.263 19.263 0 0 1 3.255.924l-2.992 20.682a86.048 86.048 0 0 0-19.097-2.2q-10.562 0-17.03 4.4a25.767 25.767 0 0 0-9.549 12.234v59.494h-21.035v-95.226h19.715l.968 14.873a43.838 43.838 0 0 1 13.773-12.189 35.779 35.779 0 0 1 17.734-4.444zM524.774 176.389v23.058h35.996v15.666h-35.996v45.677a26.374 26.374 0 0 0 1.276 8.888 13.961 13.961 0 0 0 3.564 5.633 12.69 12.69 0 0 0 5.37 2.948 25.795 25.795 0 0 0 6.776.836 54.386 54.386 0 0 0 5.677-.308q2.947-.307 5.72-.704 2.772-.396 5.104-.88 2.332-.483 3.917-.924l2.376 14.521a31.424 31.424 0 0 1-5.5 2.42 49.454 49.454 0 0 1-6.997 1.805q-3.785.703-7.877 1.1-4.092.395-8.053.396a41.122 41.122 0 0 1-13.07-1.98 26.208 26.208 0 0 1-10.208-6.16 28.59 28.59 0 0 1-6.689-10.738 45.43 45.43 0 0 1-2.42-15.71v-46.82h-23.235v-15.666h23.234v-23.058zM651.858 281.647a35.354 35.354 0 0 1-11.748 10.957 30.782 30.782 0 0 1-15.446 3.917 38.29 38.29 0 0 1-13.509-2.288 25.69 25.69 0 0 1-10.473-7.26 34.756 34.756 0 0 1-6.777-12.674 62.182 62.182 0 0 1-2.42-18.526v-56.326h21.034v56.502a52.974 52.974 0 0 0 1.011 11.353 17.41 17.41 0 0 0 3.125 7.129 11.443 11.443 0 0 0 5.282 3.74 23.126 23.126 0 0 0 7.568 1.1q8.45 0 13.64-3.3a20.851 20.851 0 0 0 7.835-8.933v-67.591h21.12v95.226h-19.01zM782.288 248.028a71.982 71.982 0 0 1-2.464 19.274 46.78 46.78 0 0 1-7.217 15.358 34.113 34.113 0 0 1-11.66 10.12 33.498 33.498 0 0 1-15.886 3.654 36.263 36.263 0 0 1-14.302-2.641 30.357 30.357 0 0 1-10.694-7.569v45.06h-21.033V199.447h19.362l.88 9.593a31.472 31.472 0 0 1 10.87-8.405 34.194 34.194 0 0 1 14.652-2.948 35.284 35.284 0 0 1 16.062 3.52 32.96 32.96 0 0 1 11.75 9.901 45.734 45.734 0 0 1 7.216 15.314 74.25 74.25 0 0 1 2.464 19.758zm-21.034-1.848a53.383 53.383 0 0 0-1.32-12.101 31.634 31.634 0 0 0-4.048-9.945 20.343 20.343 0 0 0-6.953-6.733 19.573 19.573 0 0 0-10.034-2.464q-7.041 0-11.617 2.992a21.163 21.163 0 0 0-7.217 8.009v42.596a22.182 22.182 0 0 0 7.174 8.009q4.531 3.082 11.836 3.08a19.023 19.023 0 0 0 10.033-2.552 20.605 20.605 0 0 0 6.91-6.864 32.026 32.026 0 0 0 3.96-10.034 55.74 55.74 0 0 0 1.276-12.145zM94.321 451.642a51.023 51.023 0 0 1-19.273-3.52 44.597 44.597 0 0 1-14.918-9.682 43.37 43.37 0 0 1-9.637-14.565 47.607 47.607 0 0 1-3.431-18.174v-3.608a54.215 54.215 0 0 1 3.652-20.418 48.381 48.381 0 0 1 9.768-15.49 42.033 42.033 0 0 1 14.257-9.857 43.62 43.62 0 0 1 17.118-3.433 45.186 45.186 0 0 1 18.306 3.477 36.065 36.065 0 0 1 13.246 9.77 42.8 42.8 0 0 1 8.053 14.917 62.53 62.53 0 0 1 2.728 18.921v8.89H68.183a31.422 31.422 0 0 0 2.728 10.297 27.522 27.522 0 0 0 5.765 8.229 26.1 26.1 0 0 0 8.36 5.457 27.31 27.31 0 0 0 10.518 1.979 34.188 34.188 0 0 0 14.742-3.168 29.066 29.066 0 0 0 10.957-8.713l11.441 10.737a34.987 34.987 0 0 1-5.897 6.645 41.024 41.024 0 0 1-8.448 5.72 50.995 50.995 0 0 1-10.87 4.048 53.105 53.105 0 0 1-13.158 1.54zm-2.551-81.76a20.962 20.962 0 0 0-8.185 1.584 20.617 20.617 0 0 0-6.777 4.62 26.769 26.769 0 0 0-5.06 7.393 36.178 36.178 0 0 0-2.948 9.9h44.62v-1.583a30.47 30.47 0 0 0-1.628-8.14 21.551 21.551 0 0 0-4.005-6.998 19.23 19.23 0 0 0-6.644-4.929 22.19 22.19 0 0 0-9.373-1.847zM197.116 423.303l1.496 7.04 1.584-6.952 23.059-68.735h21.738l-37.316 95.226h-18.13l-37.667-95.226h21.738zM310.647 451.642a51.023 51.023 0 0 1-19.273-3.52 44.597 44.597 0 0 1-14.918-9.682 43.37 43.37 0 0 1-9.637-14.565 47.607 47.607 0 0 1-3.431-18.174v-3.608a54.215 54.215 0 0 1 3.652-20.418 48.381 48.381 0 0 1 9.769-15.49 42.033 42.033 0 0 1 14.256-9.857 43.62 43.62 0 0 1 17.119-3.433 45.186 45.186 0 0 1 18.305 3.477 36.065 36.065 0 0 1 13.246 9.77 42.8 42.8 0 0 1 8.053 14.917 62.53 62.53 0 0 1 2.729 18.921v8.89h-66.008a31.422 31.422 0 0 0 2.728 10.297 27.522 27.522 0 0 0 5.765 8.229 26.1 26.1 0 0 0 8.36 5.457 27.31 27.31 0 0 0 10.518 1.979 34.188 34.188 0 0 0 14.742-3.168 29.066 29.066 0 0 0 10.957-8.713l11.441 10.737a34.987 34.987 0 0 1-5.897 6.645 41.024 41.024 0 0 1-8.448 5.72 50.995 50.995 0 0 1-10.87 4.049 53.105 53.105 0 0 1-13.158 1.54zm-2.551-81.76a20.962 20.962 0 0 0-8.185 1.584 20.617 20.617 0 0 0-6.777 4.62 26.769 26.769 0 0 0-5.06 7.393 36.178 36.178 0 0 0-2.948 9.9h44.62v-1.583a30.47 30.47 0 0 0-1.628-8.14 21.551 21.551 0 0 0-4.005-6.998 19.23 19.23 0 0 0-6.644-4.929 22.19 22.19 0 0 0-9.373-1.847zM393.464 354.656l1.32 13.201a36.873 36.873 0 0 1 12.541-11.045 34.169 34.169 0 0 1 16.326-3.917 40.108 40.108 0 0 1 13.334 2.113 26.458 26.458 0 0 1 10.385 6.6 30.438 30.438 0 0 1 6.776 11.618 53.676 53.676 0 0 1 2.421 17.162v59.494h-21.035v-59.143a30.638 30.638 0 0 0-1.363-9.856 15.496 15.496 0 0 0-3.873-6.337 14.382 14.382 0 0 0-6.116-3.389 30.389 30.389 0 0 0-8.185-1.011 23.126 23.126 0 0 0-12.101 3.08 23.894 23.894 0 0 0-8.317 8.36v68.296h-21.123v-95.226zM487.194 354.656h50.782v77.8h28.25v17.426h-79.032v-17.426h29.57V372.17h-29.57zm27.81-24.642a11.117 11.117 0 0 1 3.169-8.141q3.168-3.212 8.889-3.213 5.81 0 9.021 3.213a11.92 11.92 0 0 1 0 16.281q-3.214 3.214-9.021 3.212-5.722 0-8.89-3.212a11.115 11.115 0 0 1-3.167-8.14zM609.79 354.656l1.32 13.201a36.873 36.873 0 0 1 12.541-11.045 34.169 34.169 0 0 1 16.326-3.917 40.108 40.108 0 0 1 13.334 2.113 26.458 26.458 0 0 1 10.385 6.6 30.438 30.438 0 0 1 6.777 11.618 53.676 53.676 0 0 1 2.42 17.162v59.494h-21.035v-59.143a30.638 30.638 0 0 0-1.363-9.856 15.496 15.496 0 0 0-3.873-6.337 14.382 14.382 0 0 0-6.116-3.389 30.389 30.389 0 0 0-8.185-1.011 23.126 23.126 0 0 0-12.101 3.08 23.894 23.894 0 0 0-8.317 8.36v68.296H590.78v-95.226zM696.216 401.564a68.905 68.905 0 0 1 2.683-19.801 46.286 46.286 0 0 1 7.702-15.402 36.768 36.768 0 0 1 42.772-10.561 30.312 30.312 0 0 1 10.737 8.361l.88-9.505h19.098v92.673a43.115 43.115 0 0 1-3.168 17.03 35.125 35.125 0 0 1-8.845 12.541 38.592 38.592 0 0 1-13.598 7.79 54.028 54.028 0 0 1-17.425 2.684 52.532 52.532 0 0 1-8.757-.836 51.814 51.814 0 0 1-9.814-2.728 46.566 46.566 0 0 1-9.416-4.93 30.951 30.951 0 0 1-7.658-7.348l10.033-12.586a32.524 32.524 0 0 0 11.575 9.066 31.503 31.503 0 0 0 12.804 2.728 29.142 29.142 0 0 0 9.594-1.496 18.853 18.853 0 0 0 11.925-11.573 27.435 27.435 0 0 0 1.628-9.814v-6.424a30.79 30.79 0 0 1-10.518 7.569 34.747 34.747 0 0 1-14.037 2.64 33.7 33.7 0 0 1-15.754-3.653 36.438 36.438 0 0 1-12.057-10.076 46.437 46.437 0 0 1-7.7-15.27 65.925 65.925 0 0 1-2.684-19.23zm21.12 1.85a52.805 52.805 0 0 0 1.321 12.057 31.094 31.094 0 0 0 4.049 9.856 19.322 19.322 0 0 0 17.074 9.066q7.304 0 11.881-3.038a22.043 22.043 0 0 0 7.305-8.14v-42.069a22.635 22.635 0 0 0-7.393-8.008q-4.577-2.992-11.617-2.992a19.817 19.817 0 0 0-10.077 2.463 20.46 20.46 0 0 0-7.041 6.778 32.182 32.182 0 0 0-4.136 10.033 52.19 52.19 0 0 0-1.365 12.144zM240.505 589.075h7.436v9.902h-7.436v13.905H228.27v-13.905h-26.623l-.483-7.658 26.93-42.507h12.41zm-27.327 0h15.093V565.27l-1.188 2.112zM305.077 588.503a37.874 37.874 0 0 1-1.43 10.935 22.051 22.051 0 0 1-4.115 7.921 17.116 17.116 0 0 1-6.556 4.819 24.013 24.013 0 0 1-17.382 0 17.296 17.296 0 0 1-6.58-4.819 22.357 22.357 0 0 1-4.179-7.92 36.785 36.785 0 0 1-1.475-10.936v-15.314a37.336 37.336 0 0 1 1.453-10.934 22.09 22.09 0 0 1 4.159-7.921 17.317 17.317 0 0 1 6.556-4.818 22.004 22.004 0 0 1 8.647-1.63 22.295 22.295 0 0 1 8.713 1.63 17.293 17.293 0 0 1 6.578 4.818 22.089 22.089 0 0 1 4.158 7.92 37.302 37.302 0 0 1 1.453 10.935zm-29.395-5.28l17.073-12.717q-.132-6.469-2.244-9.594a7.14 7.14 0 0 0-6.336-3.124 7.065 7.065 0 0 0-6.381 3.3q-2.112 3.301-2.112 10.166zm17.073-4.4l-17.073 12.673q.22 6.336 2.333 9.395a7.1 7.1 0 0 0 6.248 3.058 7.028 7.028 0 0 0 6.402-3.345q2.089-3.344 2.09-10.252zM357.68 589.075h7.436v9.902h-7.435v13.905h-12.235v-13.905h-26.623l-.483-7.658 26.93-42.507h12.41zm-27.327 0h15.093V565.27l-1.187 2.112zM395.277 548.812l6.073 24.07 6.909-24.07h15.357v64.07h-11.353v-18.966l.528-29.967-8.405 27.81h-6.116l-7.525-26.622.527 28.78v18.965H379.92v-64.07zM437.451 588.636a29.81 29.81 0 0 1 1.497-9.615 22.114 22.114 0 0 1 4.378-7.68 20.24 20.24 0 0 1 7.04-5.104 25.53 25.53 0 0 1 19.076 0 20.193 20.193 0 0 1 7.063 5.105 22.147 22.147 0 0 1 4.379 7.679 29.838 29.838 0 0 1 1.496 9.615v.924a29.981 29.981 0 0 1-1.496 9.659 22.335 22.335 0 0 1-4.357 7.678 19.748 19.748 0 0 1-7.04 5.082 23.548 23.548 0 0 1-9.506 1.827 23.806 23.806 0 0 1-9.57-1.827 19.894 19.894 0 0 1-7.085-5.082 22.114 22.114 0 0 1-4.378-7.678 29.954 29.954 0 0 1-1.497-9.66zm12.234.924a26.216 26.216 0 0 0 .572 5.61 14.175 14.175 0 0 0 1.805 4.576 8.825 8.825 0 0 0 7.92 4.247 8.917 8.917 0 0 0 4.62-1.144 9.109 9.109 0 0 0 3.147-3.103 14.516 14.516 0 0 0 1.781-4.576 26.279 26.279 0 0 0 .573-5.61v-.924a25.55 25.55 0 0 0-.573-5.501 14.818 14.818 0 0 0-1.781-4.576 9.587 9.587 0 0 0-12.52-3.125 9.217 9.217 0 0 0-3.168 3.125 14.465 14.465 0 0 0-1.804 4.576 25.489 25.489 0 0 0-.572 5.5zM500.263 545.291h26.623v57.646h13.641v9.945h-40.264v-9.945h14.258V555.28h-14.258zM555.022 588.724a36.736 36.736 0 0 1 1.254-9.902 22.886 22.886 0 0 1 3.675-7.7 16.892 16.892 0 0 1 5.874-4.973 17.152 17.152 0 0 1 7.9-1.76 15.237 15.237 0 0 1 6.579 1.342 15.737 15.737 0 0 1 5.038 3.806v-24.246h12.277v67.59h-11.045l-.616-4.972a16.128 16.128 0 0 1-5.281 4.313 15.364 15.364 0 0 1-7.04 1.54 16.464 16.464 0 0 1-7.812-1.827 17.337 17.337 0 0 1-5.851-5.038 23.516 23.516 0 0 1-3.675-7.634 34.571 34.571 0 0 1-1.276-9.616zm12.234.923a28.818 28.818 0 0 0 .507 5.567 13.867 13.867 0 0 0 1.65 4.488 8.662 8.662 0 0 0 2.947 3.015 8.304 8.304 0 0 0 4.4 1.1 9.439 9.439 0 0 0 5.26-1.364 9.68 9.68 0 0 0 3.322-3.741v-19.274a9.523 9.523 0 0 0-3.3-3.762 9.363 9.363 0 0 0-5.193-1.342 8.287 8.287 0 0 0-4.422 1.122 8.681 8.681 0 0 0-2.97 3.08 14.795 14.795 0 0 0-1.673 4.576 28.408 28.408 0 0 0-.528 5.612zM613.214 588.636a29.81 29.81 0 0 1 1.496-9.615 22.132 22.132 0 0 1 4.379-7.68 20.226 20.226 0 0 1 7.04-5.104 25.53 25.53 0 0 1 19.077 0 20.202 20.202 0 0 1 7.063 5.105 22.145 22.145 0 0 1 4.377 7.679 29.838 29.838 0 0 1 1.497 9.615v.924a29.981 29.981 0 0 1-1.497 9.659 22.335 22.335 0 0 1-4.356 7.678 19.744 19.744 0 0 1-7.041 5.082 23.536 23.536 0 0 1-9.504 1.827 23.815 23.815 0 0 1-9.572-1.827 19.907 19.907 0 0 1-7.084-5.082 22.132 22.132 0 0 1-4.38-7.678 29.955 29.955 0 0 1-1.495-9.66zm12.233.924a26.216 26.216 0 0 0 .573 5.61 14.196 14.196 0 0 0 1.803 4.576 8.832 8.832 0 0 0 7.922 4.247 8.91 8.91 0 0 0 4.62-1.144 9.092 9.092 0 0 0 3.146-3.103 14.565 14.565 0 0 0 1.783-4.576 26.279 26.279 0 0 0 .572-5.61v-.924a25.55 25.55 0 0 0-.572-5.501 14.87 14.87 0 0 0-1.783-4.576 9.586 9.586 0 0 0-12.519-3.125 9.22 9.22 0 0 0-3.169 3.125 14.487 14.487 0 0 0-1.803 4.576 25.489 25.489 0 0 0-.573 5.5zM693.716 598.757l.616 3.431.616-3.3 10.473-33.62h12.762l-18.086 47.614H688.61l-18.173-47.613h12.76zM761.809 612.882a10.74 10.74 0 0 1-.748-2.025q-.31-1.144-.529-2.42a16.025 16.025 0 0 1-2.332 2.069 16.262 16.262 0 0 1-2.926 1.694 17.707 17.707 0 0 1-3.543 1.144 19.816 19.816 0 0 1-4.18.418 20.436 20.436 0 0 1-6.71-1.056 15.933 15.933 0 0 1-5.259-2.948 13.41 13.41 0 0 1-3.433-4.51 13.212 13.212 0 0 1-1.232-5.7q0-7.524 5.611-11.639 5.61-4.113 16.744-4.114h6.82v-2.816a6.916 6.916 0 0 0-2.243-5.435q-2.244-2.002-6.47-2.002-3.74 0-5.456 1.605a5.597 5.597 0 0 0-1.716 4.291h-12.233a12.896 12.896 0 0 1 1.341-5.764 14.168 14.168 0 0 1 3.916-4.797 19.691 19.691 0 0 1 6.293-3.278 27.499 27.499 0 0 1 8.516-1.21 29.287 29.287 0 0 1 8.03 1.056 19.248 19.248 0 0 1 6.447 3.124 14.375 14.375 0 0 1 4.27 5.215 16.389 16.389 0 0 1 1.538 7.282v20.418a34.381 34.381 0 0 0 .485 6.337 16.192 16.192 0 0 0 1.408 4.313v.748zm-11.662-8.581a12.787 12.787 0 0 0 3.432-.44 13.208 13.208 0 0 0 2.861-1.144 10.108 10.108 0 0 0 2.2-1.607 8.394 8.394 0 0 0 1.453-1.826V591.1h-6.25a18.841 18.841 0 0 0-4.883.55 9.32 9.32 0 0 0-3.3 1.54 6.126 6.126 0 0 0-1.893 2.376 7.328 7.328 0 0 0-.616 3.014 5.367 5.367 0 0 0 1.738 4.093 7.45 7.45 0 0 0 5.258 1.628z"/><path class="cls-2" d="M12.834 151.824h800v372h-800z"/><path class="cls-2" d="M12.834 523.824h800v114h-800zM166.834 523.824v114"/><path d="M121.483 580.34q-.39 10.195-5.078 16.25a15.01 15.01 0 0 1-12.5 6.055 11.345 11.345 0 0 1-5.664-1.387 9.657 9.657 0 0 1-3.828-3.926 12.149 12.149 0 0 1-10.273 5.156 10.32 10.32 0 0 1-6.563-2.207 12.616 12.616 0 0 1-4.12-6.27 22.648 22.648 0 0 1-.802-9.218q1.172-9.765 6.29-15.703a15.94 15.94 0 0 1 12.538-5.938 17.913 17.913 0 0 1 9.883 2.657l2.461 1.64-1.992 22.93q-.665 5.43 3.75 5.43 3.32 0 5.566-4.239a24.993 24.993 0 0 0 2.48-10.84q.664-13.045-5.41-20.156-6.074-7.109-17.792-7.11a23.615 23.615 0 0 0-13.262 3.81 26.197 26.197 0 0 0-9.18 10.78 40.522 40.522 0 0 0-3.808 15.88q-.626 13.672 5.468 20.918 6.094 7.245 18.282 7.246a34.284 34.284 0 0 0 6.953-.762 30.533 30.533 0 0 0 5.976-1.777l1.446 6.484a20.36 20.36 0 0 1-6.426 2.52 35.098 35.098 0 0 1-8.106.957q-10.664 0-18.027-4.082a25.193 25.193 0 0 1-10.957-12.09q-3.595-8.007-3.203-19.414a44.978 44.978 0 0 1 4.98-19.317 32.87 32.87 0 0 1 12.344-13.203 33.863 33.863 0 0 1 17.676-4.668 33.713 33.713 0 0 1 16.992 4.082 25.777 25.777 0 0 1 10.742 11.738 37.576 37.576 0 0 1 3.164 17.774zm-39.062 4.453q-.43 5.079.8 7.676a4.12 4.12 0 0 0 3.966 2.597 4.586 4.586 0 0 0 3.378-1.64 12.598 12.598 0 0 0 2.559-4.688l1.563-17.812a9.375 9.375 0 0 0-2.422-.313 7.704 7.704 0 0 0-6.739 3.418q-2.364 3.42-3.105 10.762z" fill="#ef3b58" stroke="#ef3b58" stroke-miterlimit="10"/><path class="cls-1" d="M19.768 1.19l7.816 30.982 8.893-30.983h19.767v82.47H41.631V59.245l.68-38.572L31.492 56.47H23.62l-9.685-34.268.68 37.043v24.412H0V1.19zM110.393 66.44H85.64L80.77 83.657H64.004L91.02 1.19h14.444l26.508 82.47h-16.766zM89.549 52.901h17.105l-8.44-30.359zM167.6 39.195L183.855 1.19h17.502l-25.941 53.922-.057 28.547H159.5l-.057-29.226-25.545-53.243h17.446zM317.81 83.658h-15.915V20.391l-20.844 7.476V14.16l35.91-12.97h.85zM400.62 23.11a19.192 19.192 0 0 1-3.031 10.676 21.742 21.742 0 0 1-8.298 7.448 23.626 23.626 0 0 1 9.544 7.93 20.433 20.433 0 0 1 3.54 11.951 23.401 23.401 0 0 1-2.124 10.252 20.994 20.994 0 0 1-5.834 7.392 25.804 25.804 0 0 1-8.751 4.503 37.298 37.298 0 0 1-10.875 1.53 37.777 37.777 0 0 1-10.96-1.53 26.075 26.075 0 0 1-8.808-4.503 20.85 20.85 0 0 1-5.862-7.392 23.401 23.401 0 0 1-2.124-10.252 21.697 21.697 0 0 1 .935-6.428 20.881 20.881 0 0 1 2.633-5.551 21.68 21.68 0 0 1 4.107-4.532 25.092 25.092 0 0 1 5.409-3.426 21.096 21.096 0 0 1-8.27-7.392 19.315 19.315 0 0 1-3.001-10.677 23.853 23.853 0 0 1 1.925-9.883 20.454 20.454 0 0 1 5.353-7.222 23.042 23.042 0 0 1 8.156-4.446 36.442 36.442 0 0 1 20.702 0 23.606 23.606 0 0 1 8.241 4.446 20.461 20.461 0 0 1 5.438 7.222 23.56 23.56 0 0 1 1.954 9.883zm-14.048 36.93a14.437 14.437 0 0 0-.85-5.099 11.155 11.155 0 0 0-2.407-3.88 10.346 10.346 0 0 0-3.738-2.463 14.551 14.551 0 0 0-9.799 0 10.064 10.064 0 0 0-3.71 2.464 11.374 11.374 0 0 0-2.379 3.88 14.437 14.437 0 0 0-.85 5.097q0 5.665 3.23 8.893a11.786 11.786 0 0 0 8.722 3.228 13.245 13.245 0 0 0 4.758-.821 10.248 10.248 0 0 0 3.71-2.407 11.242 11.242 0 0 0 2.435-3.824 13.792 13.792 0 0 0 .878-5.069zm-1.642-36.194a13.28 13.28 0 0 0-.737-4.532 10.177 10.177 0 0 0-2.067-3.483 9.111 9.111 0 0 0-3.229-2.237 11.005 11.005 0 0 0-4.276-.793 9.385 9.385 0 0 0-7.42 2.945q-2.606 2.946-2.605 8.1a14.53 14.53 0 0 0 .68 4.56 9.725 9.725 0 0 0 2.01 3.54 9.207 9.207 0 0 0 3.229 2.293 10.657 10.657 0 0 0 4.276.821 10.456 10.456 0 0 0 4.248-.82 9.008 9.008 0 0 0 3.172-2.295 10.321 10.321 0 0 0 2.01-3.54 14.004 14.004 0 0 0 .709-4.56zM450.69 82.412a26.458 26.458 0 0 1-.878 6.627 35.655 35.655 0 0 1-2.408 6.57 36.194 36.194 0 0 1-3.653 6.004 35.722 35.722 0 0 1-4.56 5.041l-8.326-4.304q1.075-2.04 2.011-4.135a34.95 34.95 0 0 0 1.614-4.418 37.86 37.86 0 0 0 1.076-4.928 38.25 38.25 0 0 0 .397-5.72V69.894h14.783zM526.645 83.658h-15.916V20.391l-20.844 7.476V14.16l35.91-12.97h.85zM609.453 23.11a19.192 19.192 0 0 1-3.03 10.676 21.742 21.742 0 0 1-8.298 7.448 23.626 23.626 0 0 1 9.544 7.93 20.433 20.433 0 0 1 3.54 11.951 23.401 23.401 0 0 1-2.124 10.252 20.994 20.994 0 0 1-5.834 7.392 25.804 25.804 0 0 1-8.751 4.503 37.298 37.298 0 0 1-10.875 1.53 37.777 37.777 0 0 1-10.96-1.53 26.075 26.075 0 0 1-8.808-4.503 20.85 20.85 0 0 1-5.862-7.392 23.401 23.401 0 0 1-2.124-10.252 21.697 21.697 0 0 1 .935-6.428 20.881 20.881 0 0 1 2.633-5.551 21.68 21.68 0 0 1 4.107-4.532 25.092 25.092 0 0 1 5.409-3.426 21.096 21.096 0 0 1-8.27-7.392 19.315 19.315 0 0 1-3.002-10.677 23.853 23.853 0 0 1 1.926-9.883 20.454 20.454 0 0 1 5.353-7.222 23.042 23.042 0 0 1 8.156-4.446 36.442 36.442 0 0 1 20.702 0 23.606 23.606 0 0 1 8.241 4.446 20.461 20.461 0 0 1 5.438 7.222 23.56 23.56 0 0 1 1.954 9.883zm-14.047 36.93a14.437 14.437 0 0 0-.85-5.099 11.155 11.155 0 0 0-2.407-3.88 10.346 10.346 0 0 0-3.738-2.463 14.551 14.551 0 0 0-9.799 0 10.064 10.064 0 0 0-3.71 2.464 11.374 11.374 0 0 0-2.379 3.88 14.437 14.437 0 0 0-.85 5.097q0 5.665 3.23 8.893a11.786 11.786 0 0 0 8.722 3.228 13.245 13.245 0 0 0 4.758-.821 10.248 10.248 0 0 0 3.71-2.407 11.242 11.242 0 0 0 2.435-3.824 13.792 13.792 0 0 0 .878-5.069zm-1.642-36.194a13.28 13.28 0 0 0-.737-4.532 10.177 10.177 0 0 0-2.067-3.483 9.111 9.111 0 0 0-3.229-2.237 11.005 11.005 0 0 0-4.276-.793 9.385 9.385 0 0 0-7.42 2.945q-2.606 2.946-2.605 8.1a14.53 14.53 0 0 0 .68 4.56 9.725 9.725 0 0 0 2.01 3.54 9.207 9.207 0 0 0 3.229 2.293 10.657 10.657 0 0 0 4.276.821 10.456 10.456 0 0 0 4.248-.82 9.008 9.008 0 0 0 3.172-2.295 10.321 10.321 0 0 0 2.01-3.54 14.004 14.004 0 0 0 .709-4.56zM644.004 27.754a11.249 11.249 0 0 1 .736-4.107 9.197 9.197 0 0 1 2.153-3.285 10.443 10.443 0 0 1 3.455-2.209 13.225 13.225 0 0 1 9.175 0 10.137 10.137 0 0 1 3.427 2.21 9.748 9.748 0 0 1 2.153 3.284 10.886 10.886 0 0 1 .764 4.107 10.515 10.515 0 0 1-.764 4.021 9.551 9.551 0 0 1-5.58 5.438 13.669 13.669 0 0 1-9.175 0 10.067 10.067 0 0 1-3.455-2.18 9.24 9.24 0 0 1-2.153-3.258 10.864 10.864 0 0 1-.736-4.021zm0 46.785a11.249 11.249 0 0 1 .736-4.106 9.197 9.197 0 0 1 2.153-3.286 10.443 10.443 0 0 1 3.455-2.209 13.225 13.225 0 0 1 9.175 0 10.137 10.137 0 0 1 3.427 2.21 9.748 9.748 0 0 1 2.153 3.285 10.886 10.886 0 0 1 .764 4.106 10.515 10.515 0 0 1-.764 4.022 9.551 9.551 0 0 1-5.58 5.437 13.669 13.669 0 0 1-9.175 0 10.067 10.067 0 0 1-3.455-2.18 9.24 9.24 0 0 1-2.153-3.257 10.864 10.864 0 0 1-.736-4.022zM750.602 52.28a48.757 48.757 0 0 1-1.841 14.074 28.376 28.376 0 0 1-5.296 10.196 22.023 22.023 0 0 1-8.44 6.202 30.904 30.904 0 0 1-22.373 0 22.252 22.252 0 0 1-8.467-6.202 28.77 28.77 0 0 1-5.381-10.195 47.352 47.352 0 0 1-1.898-14.076V32.57a48.048 48.048 0 0 1 1.87-14.076 28.455 28.455 0 0 1 5.352-10.195 22.319 22.319 0 0 1 8.44-6.202A28.329 28.329 0 0 1 723.697 0a28.696 28.696 0 0 1 11.214 2.096 22.28 22.28 0 0 1 8.468 6.202 28.455 28.455 0 0 1 5.352 10.195 48.048 48.048 0 0 1 1.87 14.075zm-37.836-6.798l21.976-16.369q-.17-8.326-2.888-12.347a9.19 9.19 0 0 0-8.157-4.022 9.093 9.093 0 0 0-8.213 4.248q-2.718 4.248-2.718 13.084zm21.976-5.664l-21.976 16.313q.282 8.156 3.002 12.093a9.14 9.14 0 0 0 8.043 3.936 9.046 9.046 0 0 0 8.24-4.305q2.69-4.303 2.691-13.197zM820.213 52.28a48.757 48.757 0 0 1-1.84 14.074 28.376 28.376 0 0 1-5.297 10.196 22.023 22.023 0 0 1-8.44 6.202 30.904 30.904 0 0 1-22.372 0 22.252 22.252 0 0 1-8.468-6.202 28.77 28.77 0 0 1-5.381-10.196 47.352 47.352 0 0 1-1.897-14.075V32.57a48.048 48.048 0 0 1 1.869-14.076 28.455 28.455 0 0 1 5.352-10.195 22.319 22.319 0 0 1 8.44-6.202A28.329 28.329 0 0 1 793.309 0a28.696 28.696 0 0 1 11.214 2.096 22.28 22.28 0 0 1 8.468 6.202 28.455 28.455 0 0 1 5.353 10.195 48.048 48.048 0 0 1 1.869 14.075zm-37.836-6.798l21.977-16.369q-.17-8.326-2.89-12.347a9.19 9.19 0 0 0-8.155-4.022 9.093 9.093 0 0 0-8.213 4.248q-2.719 4.248-2.719 13.084zm21.977-5.664l-21.977 16.313q.283 8.156 3.002 12.093a9.14 9.14 0 0 0 8.043 3.936 9.046 9.046 0 0 0 8.241-4.305q2.69-4.303 2.69-13.197z"/></g></g></svg>
