<svg id="Layer_1" data-name="Layer 1" xmlns="http://www.w3.org/2000/svg" viewBox="0 0 927.69995 354.49999"><defs><style>.cls-1{fill:#fff;}</style></defs><title>logo-right-white</title><g id="Layer_1-2" data-name="Layer 1"><path class="cls-1" d="M360.5,198.4,424.6,60.9,387.5,43.6,296.2,239.4h89.4v81.4h41V198.4ZM418.7,313H393.4V231.6H308.5L391.3,54l22.9,10.7-66,141.5h70.5l0,106.8Z" transform="translate(-6.5 -6.9)"/><path class="cls-1" d="M295.9,320.8V69.7L275.4,49.2H182.1L161.6,69.7V320.8h41V90.2H255V320.8ZM194.8,82.3V313H169.5V73l15.9-16h86.8l15.9,15.9v240H262.8V82.3Z" transform="translate(-6.5 -6.9)"/><path class="cls-1" d="M95.6,361.1l331,.3V333H95.6Zm323.1-20.3v12.7l-315.3-.3V340.7l315.3.1Z" transform="translate(-6.5 -6.9)"/><path class="cls-1" d="M95.8,320.8h41V198.4h-66L146.9,34H426.5V6.9H115.1L6.5,239.4H95.9l-.1,81.4Zm-77-89.3L120.1,14.7H418.7V26.1H141.9L58.5,206.3H129V313H103.7V231.6H18.8Z" transform="translate(-6.5 -6.9)"/><polygon class="cls-1" points="397.3 61.6 388.6 57.6 314.3 216.8 394.8 216.8 394.8 298.2 404.3 298.2 404.3 207.2 329.4 207.2 397.3 61.6"/><polygon class="cls-1" points="264.2 298.2 273.7 298.2 273.7 69.3 262.5 58 182.2 58 170.9 69.3 170.9 298.2 180.5 298.2 180.5 67.6 264.2 67.6 264.2 298.2"/><polygon class="cls-1" points="105 298.2 114.6 298.2 114.6 207.2 39.7 207.2 127.1 19.2 117.3 19.2 24.6 216.8 105 216.8 105 298.2"/><path class="cls-1" d="M565.4,149.1a11.869,11.869,0,0,1-3.5,8.5,11.63117,11.63117,0,0,1-8.6,3.6,11.85291,11.85291,0,0,1-8.7-3.6,11.73244,11.73244,0,0,1-3.6-8.5V101.6a17.355,17.355,0,0,0-1.4-6.9,19.787,19.787,0,0,0-3.8-5.6,18.46968,18.46968,0,0,0-5.6-3.8,15.78666,15.78666,0,0,0-6.9-1.4,17.60155,17.60155,0,0,0-6.8,1.4,17.31728,17.31728,0,0,0-5.6,3.8,18.46933,18.46933,0,0,0-3.8,5.6,15.78662,15.78662,0,0,0-1.4,6.9v47.5a11.869,11.869,0,0,1-3.5,8.5,11.63115,11.63115,0,0,1-8.6,3.6,11.853,11.853,0,0,1-8.7-3.6,11.73259,11.73259,0,0,1-3.6-8.5V75.7a11.57034,11.57034,0,0,1,3.6-8.5,11.85289,11.85289,0,0,1,8.7-3.6,12.12,12.12,0,0,1,12.1,12.1c1-1.1,2.4-2.4,4-3.9a28.012,28.012,0,0,1,6.1-4,42.67421,42.67421,0,0,1,8.1-3,40.25925,40.25925,0,0,1,10.3-1.3,32.4975,32.4975,0,0,1,12.1,2.2,31.59385,31.59385,0,0,1,10,6.1,26.48868,26.48868,0,0,1,6.7,9.4,30.18561,30.18561,0,0,1,2.4,12.2v55.7Z" transform="translate(-6.5 -6.9)"/><path class="cls-1" d="M605,159.8a45.47519,45.47519,0,0,1-15.5-10.2,48.2854,48.2854,0,0,1-10.4-15.8,56.12255,56.12255,0,0,1,0-40.6,47.7579,47.7579,0,0,1,10.4-15.8A46.45822,46.45822,0,0,1,605,67.2a52.73335,52.73335,0,0,1,38.3,0,45.4753,45.4753,0,0,1,15.5,10.2,48.2854,48.2854,0,0,1,10.4,15.8,56.12255,56.12255,0,0,1,0,40.6,47.7579,47.7579,0,0,1-10.4,15.8,46.45811,46.45811,0,0,1-15.5,10.2,51.2131,51.2131,0,0,1-19.2,3.6A50.6975,50.6975,0,0,1,605,159.8Zm43.9-58.5A34.40643,34.40643,0,0,0,643.7,91a24.74769,24.74769,0,0,0-8.3-7.1,24.319,24.319,0,0,0-11.2-2.6,23.32415,23.32415,0,0,0-11.1,2.6,24.58512,24.58512,0,0,0-8.3,7.1,32.42926,32.42926,0,0,0-5.3,10.3,41.4803,41.4803,0,0,0-1.9,12.2,38.61119,38.61119,0,0,0,1.9,12.3,31.405,31.405,0,0,0,5.3,10.3,26.52021,26.52021,0,0,0,8.3,7,25.20766,25.20766,0,0,0,22.3,0,24.465,24.465,0,0,0,8.3-7,33.25888,33.25888,0,0,0,5.2-10.3,41.63283,41.63283,0,0,0,1.9-12.3A43.86743,43.86743,0,0,0,648.9,101.3Z" transform="translate(-6.5 -6.9)"/><path class="cls-1" d="M717,63.6v2.2h12a7.63665,7.63665,0,0,1,5.5,2.3,7.47236,7.47236,0,0,1,2.3,5.5,7.69788,7.69788,0,0,1-2.3,5.6,7.38632,7.38632,0,0,1-5.5,2.2H717v67.8a11.57042,11.57042,0,0,1-3.6,8.5,11.73262,11.73262,0,0,1-8.5,3.6,11.85291,11.85291,0,0,1-8.7-3.6,11.73244,11.73244,0,0,1-3.6-8.5V81.3h-7.1a7.68419,7.68419,0,0,1-7.8-7.8,7.63659,7.63659,0,0,1,2.3-5.5,7.47235,7.47235,0,0,1,5.5-2.3h7.1v-21a11.63122,11.63122,0,0,1,3.6-8.6,12.31471,12.31471,0,0,1,17.2,0,11.631,11.631,0,0,1,3.6,8.6Z" transform="translate(-6.5 -6.9)"/><path class="cls-1" d="M517.2,307.9a11.57044,11.57044,0,0,1-3.6,8.5,11.73257,11.73257,0,0,1-8.5,3.6,11.853,11.853,0,0,1-8.7-3.6,11.73257,11.73257,0,0,1-3.6-8.5V240.1h-7.1a7.68419,7.68419,0,0,1-7.8-7.8,7.63658,7.63658,0,0,1,2.3-5.5,7.47235,7.47235,0,0,1,5.5-2.3h7.1v-2.2a72.38307,72.38307,0,0,1,1.3-14.5,27.51177,27.51177,0,0,1,4.5-11.2,20.93525,20.93525,0,0,1,8.8-7.2c3.7-1.7,8.4-2.5,14.2-2.5s10.5.6,14.1,1.9c3.5,1.2,5.3,3.9,5.3,8.1a12.48438,12.48438,0,0,1-2,7.2c-1.3,1.9-4,2.8-7.9,2.8q-7.2,0-10.5,3.3c-2.1,2.2-3.2,6.3-3.2,12.2v2.2h12a7.63665,7.63665,0,0,1,5.5,2.3,7.47236,7.47236,0,0,1,2.3,5.5,7.6979,7.6979,0,0,1-2.3,5.6,7.38632,7.38632,0,0,1-5.5,2.2h-12L517.2,307.9Z" transform="translate(-6.5 -6.9)"/><path class="cls-1" d="M575.2,318.6a45.47479,45.47479,0,0,1-15.5-10.2,48.28581,48.28581,0,0,1-10.4-15.8,56.12251,56.12251,0,0,1,0-40.6,47.7579,47.7579,0,0,1,10.4-15.8A46.45834,46.45834,0,0,1,575.2,226a52.73324,52.73324,0,0,1,38.3,0A45.47519,45.47519,0,0,1,629,236.2,48.2854,48.2854,0,0,1,639.4,252a56.12251,56.12251,0,0,1,0,40.6A47.75767,47.75767,0,0,1,629,308.4a46.45884,46.45884,0,0,1-15.5,10.2,51.2131,51.2131,0,0,1-19.2,3.6A50.32652,50.32652,0,0,1,575.2,318.6ZM619,260.1a34.40652,34.40652,0,0,0-5.2-10.3,24.7478,24.7478,0,0,0-8.3-7.1,24.319,24.319,0,0,0-11.2-2.6,23.324,23.324,0,0,0-11.1,2.6,24.58515,24.58515,0,0,0-8.3,7.1,32.42934,32.42934,0,0,0-5.3,10.3,41.48029,41.48029,0,0,0-1.9,12.2,38.61113,38.61113,0,0,0,1.9,12.3,31.40476,31.40476,0,0,0,5.3,10.3,26.52041,26.52041,0,0,0,8.3,7,25.20766,25.20766,0,0,0,22.3,0,24.46522,24.46522,0,0,0,8.3-7,33.259,33.259,0,0,0,5.2-10.3,41.63277,41.63277,0,0,0,1.9-12.3A38.437,38.437,0,0,0,619,260.1Z" transform="translate(-6.5 -6.9)"/><path class="cls-1" d="M653.1,234.6a11.57042,11.57042,0,0,1,3.6-8.5,11.853,11.853,0,0,1,8.7-3.6,12.12,12.12,0,0,1,12.1,12.1v47.5a17.355,17.355,0,0,0,1.4,6.9,19.78708,19.78708,0,0,0,3.8,5.6,16.92325,16.92325,0,0,0,12.4,5.1,17.3151,17.3151,0,0,0,6.9-1.3,17.9136,17.9136,0,0,0,5.6-3.8,19.78708,19.78708,0,0,0,3.8-5.6,15.78662,15.78662,0,0,0,1.4-6.9V234.6a11.57042,11.57042,0,0,1,3.6-8.5,11.853,11.853,0,0,1,8.7-3.6,12.12,12.12,0,0,1,12.1,12.1v73.3a11.86907,11.86907,0,0,1-3.5,8.5,12.1,12.1,0,0,1-20.7-8.5,37.55446,37.55446,0,0,1-4,4,32.05146,32.05146,0,0,1-6.1,3.9,42.67369,42.67369,0,0,1-8.1,3,40.25994,40.25994,0,0,1-10.3,1.3,34.5857,34.5857,0,0,1-12.1-2.1,28.3514,28.3514,0,0,1-10-6.1,29.081,29.081,0,0,1-6.8-9.4,28.63424,28.63424,0,0,1-2.5-12.2L653.1,234.6Z" transform="translate(-6.5 -6.9)"/><path class="cls-1" d="M834.9,307.9a11.86907,11.86907,0,0,1-3.5,8.5,11.63117,11.63117,0,0,1-8.6,3.6,11.853,11.853,0,0,1-8.7-3.6,11.73242,11.73242,0,0,1-3.6-8.5V260.4a17.35492,17.35492,0,0,0-1.4-6.9,19.78708,19.78708,0,0,0-3.8-5.6,18.46954,18.46954,0,0,0-5.6-3.8,15.78665,15.78665,0,0,0-6.9-1.4,17.60168,17.60168,0,0,0-6.8,1.4,17.31681,17.31681,0,0,0-5.6,3.8,18.46982,18.46982,0,0,0-3.8,5.6,15.78662,15.78662,0,0,0-1.4,6.9v47.5a11.86907,11.86907,0,0,1-3.5,8.5,11.63117,11.63117,0,0,1-8.6,3.6,11.853,11.853,0,0,1-8.7-3.6,11.73242,11.73242,0,0,1-3.6-8.5V234.6a11.57042,11.57042,0,0,1,3.6-8.5,11.853,11.853,0,0,1,8.7-3.6,12.12,12.12,0,0,1,12.1,12.1c1-1.1,2.4-2.4,4-3.9a28.012,28.012,0,0,1,6.1-4,42.67421,42.67421,0,0,1,8.1-3,40.25924,40.25924,0,0,1,10.3-1.3,32.4975,32.4975,0,0,1,12.1,2.2,31.59373,31.59373,0,0,1,10,6.1,26.48879,26.48879,0,0,1,6.7,9.4,30.18561,30.18561,0,0,1,2.4,12.2v55.6Z" transform="translate(-6.5 -6.9)"/><path class="cls-1" d="M906.5,311.7a21.34571,21.34571,0,0,1-5,4,30.96951,30.96951,0,0,1-7.9,3.1,50.221,50.221,0,0,1-12.1,1.3,33.037,33.037,0,0,1-15.2-3.5,34.27728,34.27728,0,0,1-11.5-10,47.90969,47.90969,0,0,1-7.4-15.4,71.6884,71.6884,0,0,1-2.6-19.7,72.42986,72.42986,0,0,1,2.6-19.8,47.46124,47.46124,0,0,1,7.4-15.5,34.12621,34.12621,0,0,1,11.5-10,31.82922,31.82922,0,0,1,15.2-3.5,28.81987,28.81987,0,0,1,11,1.9,43.69962,43.69962,0,0,1,8.1,4.1,62.12041,62.12041,0,0,1,5.4,4.1c1.3,1.2,2.4,1.9,3,1.9s.8-.7.8-2.2v-33a11.93122,11.93122,0,0,1,3.5-8.6,11.54046,11.54046,0,0,1,8.6-3.5,12.16221,12.16221,0,0,1,8.7,3.5,11.631,11.631,0,0,1,3.6,8.6V308.3a11.57044,11.57044,0,0,1-3.6,8.5,11.853,11.853,0,0,1-8.7,3.6,12.12,12.12,0,0,1-12.1-12.1A36.7943,36.7943,0,0,0,906.5,311.7Zm-33.6-61.6c-4,5.2-6,12.3-6,21.2s2,15.9,6,21.1,9.5,7.8,16.6,7.8,12.6-2.6,16.6-7.8,6-12.2,6-21.1c0-9-2-16.1-6-21.2-4-5.2-9.5-7.8-16.6-7.8S876.9,244.9,872.9,250.1Z" transform="translate(-6.5 -6.9)"/></g></svg>