<svg xmlns="http://www.w3.org/2000/svg" viewBox="0 0 39.272 38.187"><defs><style>.cls-2,.cls-3{fill:#e8c237}.cls-2{stroke:#e8c237;stroke-width:.144px}.cls-5{fill:#231f20}</style></defs><g id="Layer_2" data-name="Layer 2"><g id="Layer_1-2" data-name="Layer 1"><path d="M19.641 11.815c3.855 0 6.979-.802 6.979-2.844s-3.124-3.697-6.979-3.697-6.979 1.655-6.979 3.697 3.125 2.844 6.98 2.844z" fill="#942a74"/><path class="cls-2" d="M25.74 10.296c-.771-.01-.783-.442-.783-.442s-.018.446-.938.446c-.804 0-.8-1.207-.8-1.207s-.097 1.189-.931 1.205c-.871-.012-.892-.444-.892-.444s-.026.448-.761.446c-.89-.004-1.014-1.207-1.014-1.207s-.088 1.214-.978 1.204c-.785-.01-.808-.443-.808-.443s-.037.46-.876.446c-.89-.016-.918-1.207-.918-1.207s-.022 1.208-.88 1.207c-.868-.002-.876-.446-.876-.446s-.022.451-.783.442c-.626-.008-.778-1.117-.973-1.187.031.135.362 1.067.382 1.163a10.131 10.131 0 0 1 .134 1.87h13.152a10.163 10.163 0 0 1 .135-1.87c.02-.096.35-1.009.382-1.144-.189.014-.348 1.176-.973 1.168z"/><path class="cls-3" d="M19.762 1.648V.901h.642V.692h-.642V0h-.237v.692h-.654v.209h.654v.747h.237z"/><path class="cls-3" d="M18.638 2.642a1.008 1.008 0 1 1 1.007 1.007 1.008 1.008 0 0 1-1.007-1.007z"/><path d="M27.402 12.146H11.844v8.579a8.288 8.288 0 0 0 5.677 7.948 3.365 3.365 0 0 1 2.102 1.292 3.034 3.034 0 0 1 2.072-1.282 8.301 8.301 0 0 0 5.707-7.958z" fill="#025b9d"/><path class="cls-2" d="M16.331 17.05a.678.678 0 0 0 .562.34.572.572 0 0 0 0-1.142.64.64 0 0 0-.133.016.657.657 0 0 0 .167-.389.59.59 0 1 0-1.181 0 .668.668 0 0 0 .159.388.496.496 0 0 0-.129-.015.572.572 0 0 0 0 1.142.775.775 0 0 0 .555-.34zm-2.099.357a.532.532 0 0 0 .588-.576c-.01-.57-.625-.558-.625-.558a.801.801 0 0 0 .095-.57c-.135-.553-.823-.44-.823-.44.038.122.251 1.116.42 1.965a.472.472 0 0 0 .345.179zm2.11.13a1.346 1.346 0 0 0 .71.317.89.89 0 0 0 .6-.318.681.681 0 0 0 .616.314.62.62 0 0 0 .414-.133c-.023.126-.046.223-.061.311a7.733 7.733 0 0 0-.1 1.337h-4.36a7.698 7.698 0 0 0-.099-1.337c-.014-.088-.037-.185-.061-.311a.62.62 0 0 0 .414.133.68.68 0 0 0 .616-.314.89.89 0 0 0 .6.318 1.348 1.348 0 0 0 .71-.318zm2.454-.309c.169-.849.382-1.843.42-1.965 0 0-.688-.113-.823.44a.801.801 0 0 0 .095.57s-.615-.011-.625.558a.532.532 0 0 0 .588.576.473.473 0 0 0 .345-.179zM22.909 17.05a.676.676 0 0 0 .561.34.572.572 0 0 0 0-1.142.639.639 0 0 0-.133.016.659.659 0 0 0 .167-.389.59.59 0 1 0-1.18 0 .667.667 0 0 0 .159.388.497.497 0 0 0-.13-.015.572.572 0 0 0 0 1.142.774.774 0 0 0 .556-.34zm-2.1.357a.532.532 0 0 0 .589-.576c-.01-.57-.625-.558-.625-.558a.802.802 0 0 0 .094-.57c-.135-.553-.822-.44-.822-.44.037.122.25 1.116.42 1.965a.472.472 0 0 0 .345.179zm2.11.13a1.346 1.346 0 0 0 .71.317.892.892 0 0 0 .6-.318.679.679 0 0 0 .616.314.619.619 0 0 0 .414-.133c-.022.126-.047.223-.061.311a7.758 7.758 0 0 0-.099 1.337h-4.36a7.772 7.772 0 0 0-.1-1.337c-.014-.088-.037-.185-.06-.311a.62.62 0 0 0 .413.133.682.682 0 0 0 .617-.314.891.891 0 0 0 .6.318 1.35 1.35 0 0 0 .71-.318zm2.454-.309c.17-.849.383-1.843.42-1.965 0 0-.688-.113-.822.44a.802.802 0 0 0 .094.57s-.614-.011-.624.558a.531.531 0 0 0 .587.576.473.473 0 0 0 .345-.179zM19.62 22.153a.733.733 0 0 0 .601.346.583.583 0 1 0 0-1.165.71.71 0 0 0-.143.017.655.655 0 0 0 .18-.397.633.633 0 0 0-1.265 0 .663.663 0 0 0 .17.395.528.528 0 0 0-.138-.015.583.583 0 1 0 0 1.165.837.837 0 0 0 .595-.346zm-2.249.363a.56.56 0 0 0 .63-.587c-.01-.58-.67-.57-.67-.57a.783.783 0 0 0 .102-.58c-.144-.566-.88-.45-.88-.45.04.125.268 1.14.45 2.005a.512.512 0 0 0 .368.182zm2.26.132a1.475 1.475 0 0 0 .76.324.965.965 0 0 0 .643-.324.736.736 0 0 0 .66.32.688.688 0 0 0 .443-.136c-.025.128-.05.228-.066.318a7.542 7.542 0 0 0-.106 1.364h-4.67a7.499 7.499 0 0 0-.106-1.364c-.015-.09-.04-.19-.065-.318a.688.688 0 0 0 .443.136.735.735 0 0 0 .66-.32.966.966 0 0 0 .643.324 1.473 1.473 0 0 0 .76-.324zm2.627-.314c.182-.866.411-1.88.45-2.005 0 0-.736-.116-.88.45a.784.784 0 0 0 .101.58s-.658-.01-.67.57a.56.56 0 0 0 .63.587.51.51 0 0 0 .37-.182zM24.619 9.061a.74.74 0 0 1-.787.68.933.933 0 0 1-.635-.386.934.934 0 0 1-.634.386.739.739 0 0 1-.786-.68c0-.357.386-.62.768-.648a.799.799 0 0 1-.134-.346.795.795 0 0 1 1.573 0 .8.8 0 0 1-.134.346c.382.027.769.291.769.648zM17.459 9.061a.739.739 0 0 1-.786.68.933.933 0 0 1-.635-.386.934.934 0 0 1-.634.386.738.738 0 0 1-.786-.68c0-.357.385-.62.767-.648a.795.795 0 0 1-.133-.346.795.795 0 0 1 1.572 0 .795.795 0 0 1-.133.346c.382.027.768.291.768.648zM21.04 9.046a.74.74 0 0 1-.787.68.932.932 0 0 1-.634-.387.934.934 0 0 1-.635.386.739.739 0 0 1-.786-.679c0-.357.386-.621.768-.648a.794.794 0 0 1-.134-.346.795.795 0 0 1 1.573 0 .792.792 0 0 1-.134.346c.382.027.769.29.769.648zM11.998 7.37c.157.002.273-.007.507-.012.49-.01.793.231.815.605a.83.83 0 0 1-.133.42c.383-.002.813.235.846.591a.662.662 0 0 1-.648.735 1.144 1.144 0 0 1-.76-.308zM26.626 9.401a1.143 1.143 0 0 1-.76.308.662.662 0 0 1-.647-.735c.033-.356.464-.593.846-.59a.825.825 0 0 1-.133-.42c.022-.375.325-.616.814-.606.235.005.35.014.509.011z"/><path class="cls-2" d="M19.64 3.522c2.607-.012 4.463.227 5.671.855a2.88 2.88 0 0 1 1.673 2.62v.383l-1.248-.277.001-.106a2.082 2.082 0 0 0-.706-1.596 6.324 6.324 0 0 0-2.936-1.151 3.34 3.34 0 0 1 1.996 2.78v.095l-.845.255-.76-.255V7.03c-.004-1.313-.618-2.151-2.171-2.776A14.606 14.606 0 0 1 20.505 7l-.003.103-.855.277-.87-.277L18.776 7a14.63 14.63 0 0 1 .19-2.746c-1.554.625-2.167 1.462-2.171 2.776v.073l-.761.277-.845-.277V7.03a3.342 3.342 0 0 1 1.996-2.781A6.329 6.329 0 0 0 14.248 5.4a2.081 2.081 0 0 0-.706 1.596l.001.106-1.248.277v-.383a2.88 2.88 0 0 1 1.673-2.62c1.208-.628 3.065-.843 5.672-.855z"/><path class="cls-5" d="M.045 28.257h14.281v.179H.045zM24.883 28.257h14.389v.179H24.883zM0 38.008h39.228v.179H0zM7.463 31.662a1.425 1.425 0 0 0-1.085-.46c-.415 0-.939.16-.939.663 0 .998 2.454.983 2.454 2.33 0 .78-.641 1.507-1.9 1.507a3.767 3.767 0 0 1-1.304-.218l-.211-.91a2.52 2.52 0 0 0 1.594.604c.415 0 .99-.247.99-.757 0-1.136-2.453-.932-2.453-2.475 0-.918.94-1.268 1.827-1.268a3.032 3.032 0 0 1 1.027.16zM10.805 35.804c-.663-.48-.728-.43-.968-1.179l-.86-2.687a2.003 2.003 0 0 0-.604-1.121v-.022h1.063a1.26 1.26 0 0 0 .088.525l1.085 3.385.852-2.767c.138-.444.283-.918-.117-1.121v-.022h1.026a1.474 1.474 0 0 0 .11.735l1.012 3.153.822-2.665c.132-.414.372-1.005-.196-1.201v-.022h1.121l-1.536 5.01c-.67-.46-.72-.423-.961-1.173l-.801-2.505zM17.176 35.07h.925a1.592 1.592 0 0 0 1.303-.438h.022l-.328.954h-2.993v-.022c.372-.131.328-.67.328-.997V31.82c0-.334.044-.866-.328-1.004v-.022h2.418a.74.74 0 0 0 .342-.036h.022v.852h-.022a1.041 1.041 0 0 0-.86-.32 5.14 5.14 0 0 0-.83.05v1.383h.955a.747.747 0 0 0 .32-.043h.022v.728h-.022a.968.968 0 0 0-.735-.204h-.539zM20.387 31.792c0-.335.05-.866-.32-.975v-.022h1.783c1.66 0 2.694.903 2.694 2.352a2.473 2.473 0 0 1-2.73 2.439h-1.747v-.022c.363-.248.32-.597.32-1.026zm.742 3.219a2.606 2.606 0 0 0 .532.05 1.827 1.827 0 0 0 2.053-1.827 1.729 1.729 0 0 0-1.93-1.914 2.902 2.902 0 0 0-.655.08zM26.786 35.07h.925a1.593 1.593 0 0 0 1.304-.438h.021l-.327.954h-2.993v-.022c.371-.131.328-.67.328-.997V31.82c0-.334.043-.866-.328-1.004v-.022h2.418a.74.74 0 0 0 .342-.036h.021v.852h-.021a1.041 1.041 0 0 0-.86-.32 5.152 5.152 0 0 0-.83.05v1.383h.954a.747.747 0 0 0 .32-.043h.022v.728h-.021a.968.968 0 0 0-.736-.204h-.539zM30.857 34.639c0 .408-.008.7.378.925v.022h-1.289v-.022c.386-.225.386-.517.386-.925v-2.905c0-.407 0-.698-.379-.917v-.022h1.064v.007a.448.448 0 0 0 .11.182l.1.146 2.6 3.364v-2.76c0-.407.008-.698-.378-.917v-.022h1.281v.022c-.379.219-.379.51-.379.917v4.085a2.01 2.01 0 0 1-1.062-.83l-2.432-3.168z"/></g></g></svg>
