<?xml version="1.0" encoding="utf-8"?>
<!-- Generator: Adobe Illustrator 21.1.0, SVG Export Plug-In . SVG Version: 6.00 Build 0)  -->
<svg version="1.1" id="Слой_1" xmlns="http://www.w3.org/2000/svg" xmlns:xlink="http://www.w3.org/1999/xlink" x="0px" y="0px"
	 viewBox="0 0 128 128" style="enable-background:new 0 0 128 128;" xml:space="preserve">
<style type="text/css">
	.st0{fill:none;}
	.st1{fill:none;stroke:#000000;stroke-miterlimit:10;}
	.st2{fill:none;stroke:#FC592A;stroke-width:3;stroke-linecap:round;stroke-linejoin:round;}
	.st3{fill:none;stroke:#000000;stroke-width:3;stroke-linecap:round;stroke-linejoin:round;}
	.st4{fill:none;stroke:#000000;stroke-width:2;stroke-linecap:round;stroke-linejoin:round;}
	.st5{fill:none;stroke:#FC592A;stroke-width:2;stroke-linecap:round;stroke-linejoin:round;}
	.st6{fill:none;stroke:#FC592A;stroke-width:2;stroke-linecap:round;stroke-miterlimit:10;}
	.st7{fill:none;stroke:#000000;stroke-width:2;stroke-linecap:round;stroke-miterlimit:10;}
</style>
<title>icon-9</title>
<rect class="st0" width="128" height="128"/>
<path class="st1" d="M51.4,84.9"/>
<path class="st1" d="M83.9,49.9"/>
<path class="st2" d="M51.8,22h-3.4c-2.6,0-4.8-2.1-4.8-4.8l0,0c0-2.6,2.1-4.8,4.8-4.8h30.3c2.6,0,4.8,2.1,4.8,4.8l0,0
	c0,2.6-2.1,4.8-4.8,4.8h-3.4"/>
<path class="st2" d="M48.4,31.6c-2.6,0-4.7-2.1-4.8-4.7l0,0c0-2.6,2.1-4.8,4.8-4.8"/>
<path class="st2" d="M76.2,22h3.4c2.6,0,4.8,2.1,4.8,4.8l0,0c0,2.6-2.1,4.8-4.8,4.8"/>
<path class="st2" d="M48.4,41.1c-2.6,0-4.8-2.1-4.8-4.8l0,0c0-2.6,2.1-4.8,4.8-4.8"/>
<path class="st2" d="M78.7,31.6c2.6,0,4.8,2.1,4.8,4.8l0,0c0,2.6-2.1,4.8-4.8,4.8"/>
<path class="st2" d="M51.8,50.7h-3.4c-2.6,0-4.8-2.1-4.8-4.8l0,0c0-2.6,2.1-4.8,4.8-4.8"/>
<path class="st2" d="M78.7,41.1c2.6,0,4.8,2.1,4.8,4.8l0,0c0,2.6-2.1,4.8-4.8,4.8h-3.4"/>
<rect x="51.8" y="50.7" class="st2" width="23.6" height="3.3"/>
<rect x="38.8" y="55.9" class="st3" width="50.4" height="61.8"/>
<rect x="46.1" y="63.8" class="st4" width="35.8" height="33.3"/>
<rect x="49.8" y="89.3" class="st4" width="28.5" height="4.1"/>
<rect x="53.4" y="67.9" class="st4" width="4.9" height="4.9"/>
<polygon class="st5" points="59.1,89.3 52.6,89.3 51,77.1 60.8,77.1 "/>
<rect x="69.7" y="67.9" class="st4" width="4.9" height="4.9"/>
<rect x="48.6" y="108.5" class="st4" width="30.9" height="4.1"/>
<line class="st6" x1="21" y1="27.4" x2="21" y2="25.6"/>
<line class="st6" x1="21" y1="33" x2="21" y2="31.2"/>
<line class="st6" x1="24.8" y1="29.3" x2="22.9" y2="29.3"/>
<line class="st6" x1="19" y1="29.3" x2="17.1" y2="29.3"/>
<line class="st7" x1="28.7" y1="56.2" x2="30.1" y2="54.8"/>
<line class="st7" x1="24.6" y1="60.1" x2="26" y2="58.8"/>
<line class="st7" x1="30.1" y1="60.1" x2="28.7" y2="58.8"/>
<line class="st7" x1="26" y1="56.2" x2="24.6" y2="54.8"/>
<line class="st7" x1="114.5" y1="106.1" x2="115.8" y2="104.8"/>
<line class="st7" x1="110.4" y1="110" x2="111.7" y2="108.7"/>
<line class="st7" x1="115.8" y1="110" x2="114.5" y2="108.7"/>
<line class="st7" x1="111.7" y1="106.1" x2="110.4" y2="104.8"/>
<line class="st6" x1="110.6" y1="45.4" x2="110.6" y2="43.5"/>
<line class="st6" x1="110.6" y1="51" x2="110.6" y2="49.1"/>
<line class="st6" x1="114.4" y1="47.2" x2="112.5" y2="47.2"/>
<line class="st6" x1="108.6" y1="47.2" x2="106.7" y2="47.2"/>
<line class="st6" x1="15.8" y1="104.2" x2="15.8" y2="102.4"/>
<line class="st6" x1="15.8" y1="109.8" x2="15.8" y2="108"/>
<line class="st6" x1="19.7" y1="106.1" x2="17.8" y2="106.1"/>
<line class="st6" x1="13.9" y1="106.1" x2="12" y2="106.1"/>
<path class="st5" d="M47,17.9c0-1.4,1.1-2.3,2.5-2.3l0,0"/>
<path class="st5" d="M49.9,38.1c1.4,0.4,2.2,1.8,1.8,3.1"/>
<line class="st5" x1="62" y1="47.4" x2="60.2" y2="47.4"/>
<line class="st5" x1="78.9" y1="47.4" x2="65.4" y2="47.4"/>
<line class="st5" x1="57.2" y1="47.4" x2="56.8" y2="47.4"/>
</svg>
