<svg id="Слой_1" data-name="Слой 1" xmlns="http://www.w3.org/2000/svg" viewBox="0 0 100 100">
  <defs>
    <style>
      .cls-1, .cls-2, .cls-3, .cls-4, .cls-5, .cls-6, .cls-7 {
        fill: none;
      }

      .cls-2, .cls-4, .cls-6 {
        stroke: #000;
      }

      .cls-2, .cls-5, .cls-6 {
        stroke-miterlimit: 10;
      }

      .cls-3, .cls-5, .cls-7 {
        stroke: #fc592a;
      }

      .cls-3, .cls-4, .cls-5, .cls-6, .cls-7 {
        stroke-linecap: round;
      }

      .cls-3, .cls-4, .cls-7 {
        stroke-linejoin: round;
      }

      .cls-3, .cls-4 {
        stroke-width: 2px;
      }
    </style>
  </defs>
  <title>icon-9</title>
  <g>
    <rect class="cls-1" width="100" height="100"/>
    <path class="cls-2" d="M40.15,66.29"/>
    <path class="cls-2" d="M65.56,39"/>
    <path class="cls-3" d="M39.79,17.21H37.16a3.74,3.74,0,0,1-3.73-3.73h0a3.74,3.74,0,0,1,3.73-3.73H60.84a3.74,3.74,0,0,1,3.73,3.73h0a3.74,3.74,0,0,1-3.73,3.73H58.21"/>
    <path class="cls-3" d="M37.16,24.68A3.74,3.74,0,0,1,33.44,21h0a3.74,3.74,0,0,1,3.73-3.73"/>
    <path class="cls-3" d="M58.89,17.21h2.62a3.74,3.74,0,0,1,3.73,3.73h0a3.74,3.74,0,0,1-3.73,3.73"/>
    <path class="cls-3" d="M37.16,32.14a3.74,3.74,0,0,1-3.73-3.73h0a3.74,3.74,0,0,1,3.73-3.73"/>
    <path class="cls-3" d="M60.84,24.68a3.74,3.74,0,0,1,3.73,3.73h0a3.74,3.74,0,0,1-3.73,3.73"/>
    <path class="cls-3" d="M39.79,39.61H37.16a3.74,3.74,0,0,1-3.73-3.73h0a3.74,3.74,0,0,1,3.73-3.73"/>
    <path class="cls-3" d="M60.84,32.14a3.74,3.74,0,0,1,3.73,3.73h0a3.74,3.74,0,0,1-3.73,3.73H58.21"/>
    <rect class="cls-3" x="39.79" y="39.61" width="18.42" height="2.54"/>
    <rect class="cls-4" x="29.31" y="42.86" width="39.39" height="48.28"/>
    <rect class="cls-4" x="35.02" y="49.85" width="27.95" height="26.05"/>
    <rect class="cls-4" x="37.88" y="69.8" width="22.24" height="3.18"/>
    <rect class="cls-4" x="40.74" y="53.02" width="3.81" height="3.81"/>
    <polygon class="cls-3" points="45.19 69.54 40.11 69.54 38.84 60.01 46.46 60.01 45.19 69.54"/>
    <rect class="cls-4" x="53.45" y="53.02" width="3.81" height="3.81"/>
    <rect class="cls-4" x="37.25" y="84.79" width="24.14" height="3.18"/>
    <g>
      <line class="cls-5" x1="16.38" y1="21.43" x2="16.38" y2="19.98"/>
      <line class="cls-5" x1="16.38" y1="25.81" x2="16.38" y2="24.35"/>
      <line class="cls-5" x1="19.38" y1="22.89" x2="17.88" y2="22.89"/>
      <line class="cls-5" x1="14.87" y1="22.89" x2="13.37" y2="22.89"/>
    </g>
    <g>
      <line class="cls-6" x1="22.43" y1="43.88" x2="23.49" y2="42.85"/>
      <line class="cls-6" x1="19.24" y1="46.97" x2="20.3" y2="45.94"/>
      <line class="cls-6" x1="23.49" y1="46.97" x2="22.43" y2="45.94"/>
      <line class="cls-6" x1="20.3" y1="43.88" x2="19.24" y2="42.85"/>
    </g>
    <g>
      <line class="cls-6" x1="89.43" y1="82.88" x2="90.49" y2="81.85"/>
      <line class="cls-6" x1="86.24" y1="85.97" x2="87.3" y2="84.94"/>
      <line class="cls-6" x1="90.49" y1="85.97" x2="89.43" y2="84.94"/>
      <line class="cls-6" x1="87.3" y1="82.88" x2="86.24" y2="81.85"/>
    </g>
    <g>
      <line class="cls-5" x1="86.38" y1="35.43" x2="86.38" y2="33.98"/>
      <line class="cls-5" x1="86.38" y1="39.81" x2="86.38" y2="38.35"/>
      <line class="cls-5" x1="89.38" y1="36.89" x2="87.88" y2="36.89"/>
      <line class="cls-5" x1="84.87" y1="36.89" x2="83.37" y2="36.89"/>
    </g>
    <g>
      <line class="cls-5" x1="12.38" y1="81.43" x2="12.38" y2="79.98"/>
      <line class="cls-5" x1="12.38" y1="85.81" x2="12.38" y2="84.35"/>
      <line class="cls-5" x1="15.38" y1="82.89" x2="13.88" y2="82.89"/>
      <line class="cls-5" x1="10.87" y1="82.89" x2="9.37" y2="82.89"/>
    </g>
    <path class="cls-7" d="M36,14a2,2,0,0,1,2-2"/>
    <path class="cls-7" d="M38.29,29.78a2,2,0,0,1,1.43,2.44"/>
    <line class="cls-7" x1="51" y1="37" x2="61" y2="37"/>
  </g>
</svg>
