<?xml version="1.0" encoding="utf-8"?>
<!-- Generator: Adobe Illustrator 21.1.0, SVG Export Plug-In . SVG Version: 6.00 Build 0)  -->
<svg version="1.1" id="Слой_1" xmlns="http://www.w3.org/2000/svg" xmlns:xlink="http://www.w3.org/1999/xlink" x="0px" y="0px"
	 viewBox="0 0 128 128" style="enable-background:new 0 0 128 128;" xml:space="preserve">
<style type="text/css">
	.st0{fill:none;}
	.st1{fill:none;stroke:#000000;stroke-width:3;stroke-linecap:round;stroke-linejoin:round;}
	.st2{fill:none;stroke:#FC592A;stroke-width:3;stroke-linecap:round;stroke-linejoin:round;}
	.st3{fill:none;stroke:#FC592A;stroke-width:2;stroke-linecap:round;stroke-miterlimit:10;}
	.st4{fill:none;stroke:#000000;stroke-width:2;stroke-linecap:round;stroke-miterlimit:10;}
	.st5{fill:none;stroke:#000000;stroke-width:2;stroke-linecap:round;stroke-linejoin:round;}
	.st6{fill:#FFFFFF;}
	.st7{fill:none;stroke:#FC592A;stroke-width:2;stroke-linecap:round;stroke-linejoin:round;}
	.st8{fill:none;stroke:#FC592A;stroke-miterlimit:10;}
</style>
<title>icon-4</title>
<rect class="st0" width="128" height="128"/>
<line class="st1" x1="41" y1="66.6" x2="41" y2="35.8"/>
<circle class="st1" cx="41" cy="28.8" r="6.4"/>
<path class="st2" d="M32.9,36.9c-4.4-4.3-4.6-11.2-0.6-15.8"/>
<path class="st2" d="M49.6,21.1c4,4.6,3.7,11.5-0.6,15.8"/>
<path class="st2" d="M28.7,40.1c-6.1-6-6.4-15.8-0.6-22.2"/>
<path class="st2" d="M53.8,17.9c5.8,6.4,5.5,16.1-0.6,22.2"/>
<line class="st3" x1="85" y1="23.6" x2="85" y2="21.7"/>
<line class="st3" x1="85" y1="29.2" x2="85" y2="27.3"/>
<line class="st3" x1="88.8" y1="25.5" x2="86.9" y2="25.5"/>
<line class="st3" x1="83" y1="25.5" x2="81.1" y2="25.5"/>
<line class="st4" x1="113.2" y1="47.2" x2="114.5" y2="45.9"/>
<line class="st4" x1="109.1" y1="51.2" x2="110.5" y2="49.8"/>
<line class="st4" x1="114.5" y1="51.2" x2="113.2" y2="49.8"/>
<line class="st4" x1="110.5" y1="47.2" x2="109.1" y2="45.9"/>
<line class="st3" x1="45.3" y1="110.6" x2="45.3" y2="108.8"/>
<line class="st3" x1="45.3" y1="116.2" x2="45.3" y2="114.4"/>
<line class="st3" x1="49.1" y1="112.5" x2="47.2" y2="112.5"/>
<line class="st3" x1="43.4" y1="112.5" x2="41.4" y2="112.5"/>
<line class="st3" x1="114.4" y1="99.1" x2="114.4" y2="97.3"/>
<line class="st3" x1="114.4" y1="104.7" x2="114.4" y2="102.8"/>
<line class="st3" x1="118.2" y1="101" x2="116.3" y2="101"/>
<line class="st3" x1="112.5" y1="101" x2="110.6" y2="101"/>
<line class="st4" x1="18.5" y1="54.9" x2="19.8" y2="53.6"/>
<line class="st4" x1="14.4" y1="58.8" x2="15.7" y2="57.5"/>
<line class="st4" x1="19.8" y1="58.8" x2="18.5" y2="57.5"/>
<line class="st4" x1="15.7" y1="54.9" x2="14.4" y2="53.6"/>
<path class="st5" d="M39.5,31.3c-1.4-1.1-1.7-3.2-0.5-4.7c0.1-0.1,0.2-0.2,0.3-0.3"/>
<path class="st6" d="M85.6,90.2h10.6c0.8,0,1.5,0.7,1.5,1.5v3.5c0,0.8-0.7,1.5-1.5,1.5H85.6c-0.8,0-1.5-0.7-1.5-1.5v-3.5
	C84.1,90.9,84.8,90.2,85.6,90.2z"/>
<path d="M96.2,91.7v3.5H85.6v-3.5H96.2 M96.2,88.7H85.6c-1.7,0-3,1.3-3,3v3.5c0,1.7,1.3,3,3,3h10.6c1.7,0,3-1.3,3-3v-3.5
	C99.2,90,97.8,88.7,96.2,88.7z"/>
<path class="st6" d="M29.3,90.2h10.6c0.8,0,1.5,0.7,1.5,1.5v3.5c0,0.8-0.7,1.5-1.5,1.5H29.3c-0.8,0-1.5-0.7-1.5-1.5v-3.5
	C27.8,90.9,28.4,90.2,29.3,90.2z"/>
<path d="M39.8,91.7v3.5H29.3v-3.5H39.8 M39.8,88.7H29.3c-1.7,0-3,1.3-3,3v3.5c0,1.7,1.3,3,3,3h10.6c1.7,0,3-1.3,3-3v-3.5
	C42.8,90,41.5,88.7,39.8,88.7z"/>
<path class="st6" d="M22.8,68.1h79.8c0.8,0,1.5,0.7,1.5,1.5v20.9c0,0.8-0.7,1.5-1.5,1.5H22.8c-0.8,0-1.5-0.7-1.5-1.5V69.6
	C21.3,68.7,22,68.1,22.8,68.1z"/>
<path d="M102.6,69.6v20.9H22.8V69.6H102.6 M102.6,66.6H22.8c-1.7,0-3,1.3-3,3v20.9c0,1.7,1.3,3,3,3h79.8c1.7,0,3-1.3,3-3V69.6
	C105.6,67.9,104.3,66.6,102.6,66.6z"/>
<path class="st6" d="M33.1,68.1h59.2c0.8,0,1.5,0.7,1.5,1.5v11.9c0,0.8-0.7,1.5-1.5,1.5H33.1c-0.8,0-1.5-0.7-1.5-1.5V69.6
	C31.6,68.7,32.3,68.1,33.1,68.1z"/>
<path d="M92.3,69.6v11.9H33.1V69.6H92.3 M92.3,66.6H33.1c-1.7,0-3,1.3-3,3v11.9c0,1.7,1.3,3,3,3h59.2c1.7,0,3-1.3,3-3V69.6
	C95.3,67.9,94,66.6,92.3,66.6z"/>
<line class="st7" x1="58.5" y1="75.5" x2="86.9" y2="75.5"/>
<line class="st7" x1="38.5" y1="75.5" x2="39.8" y2="75.5"/>
<line class="st7" x1="45.2" y1="75.5" x2="46.4" y2="75.5"/>
<line class="st7" x1="51.8" y1="75.5" x2="53.1" y2="75.5"/>
<path class="st8" d="M32.9,37.7"/>
<path class="st8" d="M49,37.7"/>
</svg>
