<?xml version="1.0" encoding="utf-8"?>
<!-- Generator: Adobe Illustrator 21.1.0, SVG Export Plug-In . SVG Version: 6.00 Build 0)  -->
<svg version="1.1" id="Слой_1" xmlns="http://www.w3.org/2000/svg" xmlns:xlink="http://www.w3.org/1999/xlink" x="0px" y="0px"
	 viewBox="0 0 128 128" style="enable-background:new 0 0 128 128;" xml:space="preserve">
<style type="text/css">
	.st0{fill:none;stroke:#000000;stroke-width:3;stroke-linecap:round;stroke-linejoin:round;}
	.st1{fill:none;stroke:#FF5533;stroke-width:3;stroke-linecap:round;stroke-linejoin:round;}
	.st2{fill:none;stroke:#000000;stroke-width:2;stroke-linecap:round;stroke-linejoin:round;}
	.st3{fill:none;stroke:#FF5533;stroke-width:2;stroke-linecap:round;stroke-linejoin:round;}
	.st4{fill:none;stroke:#FF5533;stroke-width:2;stroke-linecap:round;stroke-miterlimit:10;}
	.st5{fill:none;stroke:#000000;stroke-width:2;stroke-linecap:round;stroke-miterlimit:10;}
	.st6{fill:none;}
	.st7{fill:none;stroke:#000000;stroke-width:2;stroke-linecap:round;stroke-linejoin:round;stroke-miterlimit:10;}
</style>
<title>icon-2</title>
<path class="st0" d="M52.6,120.5H22.5c-1.4,0-2.5-0.9-2.8-2.3l-6.8-39.7c-0.2-1.5,0.8-2.9,2.3-3.2c0.2,0,0.3,0,0.5,0h43.7
	c1.5,0,2.8,1.2,2.8,2.7c0,0.2,0,0.3,0,0.5l-6.8,39.7C55.2,119.5,54,120.5,52.6,120.5z"/>
<path class="st1" d="M24,71.5c0.1-7.4,6.2-13.3,13.5-13.2l0,0"/>
<path class="st1" d="M51.1,71.5C51,64.2,45,58.3,37.6,58.3"/>
<path class="st1" d="M68.6,97.9c0-7.3,8.7-13.2,19.3-13.2"/>
<path class="st1" d="M107.4,97.9c0-7.3-8.7-13.2-19.3-13.2"/>
<line class="st1" x1="68.6" y1="97.9" x2="68.6" y2="114.8"/>
<line class="st1" x1="107.4" y1="97.9" x2="107.4" y2="114.8"/>
<path class="st1" d="M68.6,114.8c0,3.1-3.5,6.6-7.7,6.6"/>
<path class="st1" d="M107.4,114.8c0,3.1,3.5,6.6,7.7,6.6"/>
<line class="st1" x1="101.5" y1="103.5" x2="101.5" y2="114.8"/>
<path class="st1" d="M101.5,114.8c0,3.1,3.5,6.6,7.7,6.6"/>
<line class="st1" x1="95.7" y1="103.5" x2="95.7" y2="114.8"/>
<path class="st1" d="M95.7,114.8c0,3.1,3.5,6.6,7.7,6.6"/>
<line class="st1" x1="89.9" y1="103.5" x2="89.9" y2="114.8"/>
<path class="st1" d="M89.9,114.8c0,3.1,3.5,6.6,7.7,6.6"/>
<line class="st1" x1="74.4" y1="103.5" x2="74.4" y2="114.8"/>
<path class="st1" d="M74.4,114.8c0,3.1-3.5,6.6-7.7,6.6"/>
<line class="st1" x1="80.2" y1="103.5" x2="80.2" y2="114.8"/>
<path class="st1" d="M80.2,114.8c0,3.1-3.5,6.6-7.7,6.6"/>
<line class="st1" x1="86" y1="103.5" x2="86" y2="114.8"/>
<path class="st1" d="M86,114.8c0,3.1-3.5,6.6-7.7,6.6"/>
<line class="st0" x1="88" y1="80.9" x2="88" y2="7.5"/>
<path class="st2" d="M25.8,115.6c-1.1,0-2-0.8-2.2-1.8l-3.1-18.2"/>
<line class="st2" x1="25.9" y1="115.6" x2="33.7" y2="115.6"/>
<path class="st3" d="M103.5,99.9c0-5.8-6.9-10.5-15.5-10.5"/>
<line class="st4" x1="117.4" y1="55.5" x2="117.4" y2="53.7"/>
<line class="st4" x1="117.4" y1="61.2" x2="117.4" y2="59.3"/>
<line class="st4" x1="121.3" y1="57.4" x2="119.3" y2="57.4"/>
<line class="st4" x1="115.4" y1="57.4" x2="113.5" y2="57.4"/>
<line class="st5" x1="28.3" y1="27.9" x2="29.7" y2="26.5"/>
<line class="st5" x1="24.2" y1="31.8" x2="25.6" y2="30.5"/>
<line class="st5" x1="29.7" y1="31.8" x2="28.3" y2="30.5"/>
<line class="st5" x1="25.6" y1="27.9" x2="24.2" y2="26.5"/>
<line class="st5" x1="116.2" y1="101.3" x2="117.5" y2="99.9"/>
<line class="st5" x1="112" y1="105.2" x2="113.4" y2="103.9"/>
<line class="st5" x1="117.5" y1="105.2" x2="116.2" y2="103.9"/>
<line class="st5" x1="113.4" y1="101.3" x2="112" y2="99.9"/>
<line class="st4" x1="70.9" y1="8.5" x2="70.9" y2="6.6"/>
<line class="st4" x1="70.9" y1="14.1" x2="70.9" y2="12.2"/>
<line class="st4" x1="74.7" y1="10.4" x2="72.8" y2="10.4"/>
<line class="st4" x1="68.9" y1="10.4" x2="67" y2="10.4"/>
<rect class="st6" width="128" height="128"/>
<line class="st4" x1="59.3" y1="42" x2="59.3" y2="40.1"/>
<line class="st4" x1="59.3" y1="47.7" x2="59.3" y2="45.8"/>
<line class="st4" x1="63.1" y1="43.9" x2="61.2" y2="43.9"/>
<line class="st4" x1="57.3" y1="43.9" x2="55.4" y2="43.9"/>
<line class="st7" x1="37.2" y1="115.6" x2="39.8" y2="115.6"/>
<line class="st7" x1="42.9" y1="115.6" x2="43.5" y2="115.6"/>
</svg>
