<svg id="Слой_1" data-name="Слой 1" xmlns="http://www.w3.org/2000/svg" viewBox="0 0 128 128"><defs><style>.cls-1,.cls-10,.cls-2,.cls-3,.cls-4,.cls-8,.cls-9{fill:none;}.cls-2,.cls-6,.cls-9{stroke:#f53;}.cls-10,.cls-2,.cls-3,.cls-4,.cls-7,.cls-8,.cls-9{stroke-linecap:round;}.cls-2,.cls-3,.cls-5,.cls-6{stroke-miterlimit:10;}.cls-10,.cls-2,.cls-3,.cls-6,.cls-8,.cls-9{stroke-width:2px;}.cls-10,.cls-3,.cls-4,.cls-5,.cls-7{stroke:#000;}.cls-10,.cls-4,.cls-7,.cls-8,.cls-9{stroke-linejoin:round;}.cls-4,.cls-5,.cls-7{stroke-width:3px;}.cls-5,.cls-7{fill:#fff;}.cls-6{fill:#fc592a;}.cls-8{stroke:#fc592a;}</style></defs><title>icon-6</title><rect class="cls-1" width="128" height="128"/><line class="cls-2" x1="13.2864" y1="9.5104" x2="13.2864" y2="7.6544"/><line class="cls-2" x1="13.2864" y1="15.1168" x2="13.2864" y2="13.248"/><line class="cls-2" x1="17.1264" y1="11.3792" x2="15.2064" y2="11.3792"/><line class="cls-2" x1="11.3536" y1="11.3792" x2="9.4336" y2="11.3792"/><line class="cls-2" x1="116.9664" y1="40.2304" x2="116.9664" y2="38.3744"/><line class="cls-2" x1="116.9664" y1="45.8368" x2="116.9664" y2="43.968"/><line class="cls-2" x1="120.8064" y1="42.0992" x2="118.8864" y2="42.0992"/><line class="cls-2" x1="115.0336" y1="42.0992" x2="113.1136" y2="42.0992"/><line class="cls-2" x1="27.3664" y1="115.7504" x2="27.3664" y2="113.8944"/><line class="cls-2" x1="27.3664" y1="121.3568" x2="27.3664" y2="119.488"/><line class="cls-2" x1="31.2064" y1="117.6192" x2="29.2864" y2="117.6192"/><line class="cls-2" x1="25.4336" y1="117.6192" x2="23.5136" y2="117.6192"/><line class="cls-3" x1="23.5904" y1="34.4064" x2="24.9472" y2="33.088"/><line class="cls-3" x1="19.5072" y1="38.3616" x2="20.864" y2="37.0432"/><line class="cls-3" x1="24.9472" y1="38.3616" x2="23.5904" y2="37.0432"/><line class="cls-3" x1="20.864" y1="34.4064" x2="19.5072" y2="33.088"/><line class="cls-3" x1="100.3904" y1="13.9264" x2="101.7472" y2="12.608"/><line class="cls-3" x1="96.3072" y1="17.8816" x2="97.664" y2="16.5632"/><line class="cls-3" x1="101.7472" y1="17.8816" x2="100.3904" y2="16.5632"/><line class="cls-3" x1="97.664" y1="13.9264" x2="96.3072" y2="12.608"/><rect class="cls-4" x="33.28" y="34.56" width="61.44" height="15.36"/><path class="cls-4" d="M111.36,53.76V99.7248a3.84,3.84,0,0,1-3.97348,3.70172l-.05853-.00252H89.7152v-.8832H38.2848v.8832H20.672a3.84,3.84,0,0,1-4.02948-3.64067L16.64,99.7248V53.76a3.84,3.84,0,0,1,3.97347-3.70172l.05853.00252h86.656a3.84,3.84,0,0,1,4.02948,3.64067Z"/><path class="cls-5" d="M89.7152,25.7024V49.92H38.2848V14.1568a1.7024,1.7024,0,0,1,1.7024-1.6896h36.352a2.88,2.88,0,0,1,2.0352.8448L88.9728,23.9104A2.56,2.56,0,0,1,89.7152,25.7024Z"/><circle class="cls-6" cx="101.888" cy="58.624" r="1.28"/><circle class="cls-6" cx="95.1168" cy="58.624" r="1.28"/><circle class="cls-6" cx="88.3584" cy="58.624" r="1.28"/><path class="cls-7" d="M89.7152,91.1744v21.76a2.56,2.56,0,0,1-2.56,2.56H40.96a2.56,2.56,0,0,1-2.56-2.56v-21.76Z"/><line class="cls-8" x1="44.367" y1="109.44" x2="83.633" y2="109.44"/><line class="cls-8" x1="65.528" y1="98" x2="83.633" y2="98"/><path class="cls-9" d="M47.03481,97.61882H58.96519c1.10457,0,2,.63149,2,1.41048v3.9414c0,.779-.89543,1.41048-2,1.41048H47.03481c-1.10457,0-2-.63149-2-1.41048V99.0293C45.03481,98.25032,45.93024,97.61882,47.03481,97.61882Z"/><path class="cls-4" d="M87.68,24.6528H79.36a1.856,1.856,0,0,1-1.856-1.856h0V14.08a.6912.6912,0,0,1,1.1648-.4864L88.32,23.2064a.8448.8448,0,0,1-.64,1.4464Z"/><path class="cls-10" d="M21.76,65.92v-9.6a1.28,1.28,0,0,1,1.28-1.28H35.2"/><path class="cls-10" d="M106.8,81.3408V97.3792a1.28,1.28,0,0,1-1.28,1.28H97.2"/><line class="cls-8" x1="65.528" y1="104" x2="83.633" y2="104"/></svg>