<svg id="Слой_1" data-name="Слой 1" xmlns="http://www.w3.org/2000/svg" viewBox="0 0 128 128"><defs><style>.cls-1,.cls-2,.cls-3,.cls-4,.cls-5,.cls-6,.cls-7{fill:none;}.cls-2,.cls-4,.cls-6{stroke:#000;}.cls-2,.cls-3,.cls-4,.cls-5,.cls-6,.cls-7{stroke-linecap:round;}.cls-2,.cls-3,.cls-4,.cls-5{stroke-linejoin:bevel;}.cls-2,.cls-3{stroke-width:3px;}.cls-3,.cls-5,.cls-7{stroke:#fc592a;}.cls-4,.cls-5,.cls-6,.cls-7{stroke-width:2px;}.cls-6,.cls-7{stroke-miterlimit:10;}.cls-8{fill:#fff;}</style></defs><title>icon-5</title><rect class="cls-1" width="128" height="128"/><path class="cls-2" d="M47.0272,49.984c0-5.7216,7.9488-10.368,17.7664-10.368"/><path class="cls-2" d="M82.5472,49.984c0-5.7216-7.9488-10.368-17.7664-10.368"/><line class="cls-3" x1="9.28" y1="50" x2="9.28" y2="78.1216"/><line class="cls-3" x1="20.3776" y1="91.4464" x2="35.1872" y2="91.4464"/><line class="cls-3" x1="24.8192" y1="104.0288" x2="24.8192" y2="92.1888"/><line class="cls-3" x1="47.0208" y1="66.2656" x2="66.2656" y2="66.2656"/><line class="cls-2" x1="49.2416" y1="106.24" x2="40.3712" y2="85.5168"/><line class="cls-2" x1="24.0768" y1="85.5168" x2="40.3712" y2="85.5168"/><line class="cls-2" x1="15.2064" y1="51.4688" x2="15.2064" y2="78.1184"/><line class="cls-3" x1="23.3472" y1="70.7232" x2="10.0224" y2="70.7232"/><line class="cls-2" x1="32.96" y1="73.6768" x2="44.8128" y2="73.6768"/><line class="cls-2" x1="58.1248" y1="103.2832" x2="49.2416" y2="76.6336"/><line class="cls-2" x1="32.96" y1="66.2656" x2="32.96" y2="73.6768"/><line class="cls-2" x1="27.8016" y1="59.0848" x2="38.144" y2="66.2656"/><line class="cls-2" x1="52.2112" y1="57.3952" x2="40.3712" y2="57.3952"/><line class="cls-2" x1="31.488" y1="48.512" x2="40.3712" y2="57.3952"/><line class="cls-3" x1="24.8192" y1="104.0288" x2="28.1472" y2="106.98561"/><line class="cls-3" x1="35.9296" y1="106.98561" x2="28.5184" y2="106.98561"/><line class="cls-3" x1="24.8192" y1="104.0288" x2="21.4912" y2="106.98561"/><line class="cls-3" x1="13.7216" y1="106.98561" x2="21.12" y2="106.98561"/><path class="cls-3" d="M9.28,78.1216c0,7.36,5.2992,13.32479,11.84,13.32479"/><path class="cls-2" d="M15.2064,78.08c0,4.096,3.968,7.3984,8.8832,7.3984"/><path class="cls-2" d="M49.2416,76.6336C48.64,74.24,47.2576,73.6768,44.8,73.6768"/><path class="cls-3" d="M26.304,75.1648c0-2.4576-1.28-4.4416-2.9568-4.4416"/><path class="cls-2" d="M15.2064,51.4688c0-7.3984,10.368-10.368,16.2816-2.9568"/><path class="cls-2" d="M52.2112,57.3952c0,7.3984-2.6496,8.8832-5.9264,8.8832"/><path class="cls-4" d="M49.2416,106.24"/><path class="cls-4" d="M49.984,106.24"/><path class="cls-4" d="M57.3952,103.2832"/><path class="cls-2" d="M58.1248,103.2832c.7424,2.9568-5.12,4.4416-8.8832,2.9568"/><line class="cls-3" x1="118.08" y1="50" x2="118.08" y2="78.1216"/><line class="cls-3" x1="106.9824" y1="91.4464" x2="92.1728" y2="91.4464"/><line class="cls-3" x1="102.5408" y1="104.0288" x2="102.5408" y2="92.1888"/><line class="cls-3" x1="80.3008" y1="66.2656" x2="61.0944" y2="66.2656"/><line class="cls-2" x1="78.1184" y1="106.24" x2="86.9888" y2="85.5168"/><line class="cls-2" x1="103.2832" y1="85.5168" x2="86.9888" y2="85.5168"/><line class="cls-2" x1="112.1536" y1="51.4688" x2="112.1536" y2="78.1184"/><line class="cls-3" x1="104.0128" y1="70.7232" x2="117.3376" y2="70.7232"/><line class="cls-2" x1="94.4" y1="73.6768" x2="82.5472" y2="73.6768"/><line class="cls-2" x1="69.2352" y1="103.2832" x2="78.1184" y2="76.6336"/><line class="cls-2" x1="94.4" y1="66.2656" x2="94.4" y2="73.6768"/><line class="cls-2" x1="99.5584" y1="59.0848" x2="89.216" y2="66.2656"/><line class="cls-2" x1="75.1488" y1="57.3952" x2="86.9888" y2="57.3952"/><line class="cls-2" x1="95.872" y1="48.512" x2="86.9888" y2="57.3952"/><line class="cls-3" x1="102.5408" y1="104.0288" x2="99.2128" y2="106.98561"/><line class="cls-3" x1="91.4304" y1="106.98561" x2="98.8416" y2="106.98561"/><line class="cls-3" x1="102.5408" y1="104.0288" x2="105.8688" y2="106.98561"/><line class="cls-3" x1="113.6384" y1="106.98561" x2="106.24" y2="106.98561"/><path class="cls-3" d="M118.08,78.1216c0,7.36-5.2992,13.32479-11.84,13.32479"/><path class="cls-2" d="M112.1536,78.08c0,4.096-3.968,7.3984-8.8832,7.3984"/><path class="cls-2" d="M78.08,76.6336c1.28-2.3936,1.984-2.9568,4.4416-2.9568"/><path class="cls-3" d="M101.12,75.1648c0-2.4576,1.28-4.4416,2.9568-4.4416"/><path class="cls-2" d="M112.1536,51.4688c0-7.3984-10.368-10.368-16.2816-2.9568"/><path class="cls-2" d="M75.1488,57.3952c0,7.3984,2.6496,8.8832,5.9264,8.8832"/><path class="cls-4" d="M78.08,106.24"/><path class="cls-4" d="M77.376,106.24"/><path class="cls-4" d="M69.9648,103.2832"/><path class="cls-2" d="M69.2352,103.2832c-.7424,2.9568,5.1712,4.4288,8.8448,2.9568"/><line class="cls-2" x1="47.0272" y1="49.984" x2="47.0272" y2="52.9536"/><line class="cls-2" x1="82.5472" y1="49.984" x2="82.5472" y2="52.9536"/><path class="cls-5" d="M33.28,66.56"/><line class="cls-2" x1="32.96" y1="66.2656" x2="45.76" y2="66.2656"/><line class="cls-2" x1="81.6" y1="66.2656" x2="94.4" y2="66.2656"/><line class="cls-6" x1="47.9104" y1="10.0864" x2="49.2672" y2="8.768"/><line class="cls-6" x1="43.8272" y1="14.0416" x2="45.184" y2="12.7232"/><line class="cls-6" x1="49.2672" y1="14.0416" x2="47.9104" y2="12.7232"/><line class="cls-6" x1="45.184" y1="10.0864" x2="43.8272" y2="8.768"/><line class="cls-7" x1="87.5264" y1="15.9104" x2="87.5264" y2="14.0544"/><line class="cls-7" x1="87.5264" y1="21.5168" x2="87.5264" y2="19.648"/><line class="cls-7" x1="91.3664" y1="17.7792" x2="89.4464" y2="17.7792"/><line class="cls-7" x1="85.5936" y1="17.7792" x2="83.6736" y2="17.7792"/><line class="cls-6" x1="91.4304" y1="118.8864" x2="92.7872" y2="117.568"/><line class="cls-6" x1="87.3472" y1="122.8416" x2="88.704" y2="121.5232"/><line class="cls-6" x1="92.7872" y1="122.8416" x2="91.4304" y2="121.5232"/><line class="cls-6" x1="88.704" y1="118.8864" x2="87.3472" y2="117.568"/><line class="cls-7" x1="44.0064" y1="35.1104" x2="44.0064" y2="33.2544"/><line class="cls-7" x1="44.0064" y1="40.7168" x2="44.0064" y2="38.848"/><line class="cls-7" x1="47.8464" y1="36.9792" x2="45.9264" y2="36.9792"/><line class="cls-7" x1="42.0736" y1="36.9792" x2="40.1536" y2="36.9792"/><line class="cls-7" x1="44.0064" y1="111.9104" x2="44.0064" y2="110.0544"/><line class="cls-7" x1="44.0064" y1="117.5168" x2="44.0064" y2="115.648"/><line class="cls-7" x1="47.8464" y1="113.7792" x2="45.9264" y2="113.7792"/><line class="cls-7" x1="42.0736" y1="113.7792" x2="40.1536" y2="113.7792"/><circle class="cls-8" cx="64.81921" cy="27.04639" r="6.64075"/><path d="M64.8192,21.9056a5.1408,5.1408,0,1,1-5.1408,5.14079,5.14662,5.14662,0,0,1,5.1408-5.14079m0-3A8.1408,8.1408,0,1,0,72.96,27.04639a8.1408,8.1408,0,0,0-8.1408-8.14079Z"/><circle class="cls-8" cx="101.73438" cy="32.95996" r="8.12524"/><path d="M101.7344,26.33439a6.62547,6.62547,0,1,1-6.62547,6.62547,6.633,6.633,0,0,1,6.62547-6.62547m0-3a9.62547,9.62547,0,1,0,9.62547,9.62547,9.62549,9.62549,0,0,0-9.62547-9.62547Z"/><circle class="cls-8" cx="25.59986" cy="32.9729" r="8.12537"/><path d="M25.6,26.34732a6.62547,6.62547,0,1,1-6.62547,6.62547A6.633,6.633,0,0,1,25.6,26.34732m0-3a9.62547,9.62547,0,1,0,9.62547,9.62547A9.62548,9.62548,0,0,0,25.6,23.34732Z"/></svg>