<svg id="Слой_1" data-name="Слой 1" xmlns="http://www.w3.org/2000/svg" viewBox="0 0 128 128"><defs><style>.cls-1,.cls-2,.cls-3,.cls-4,.cls-5,.cls-6,.cls-8{fill:none;}.cls-2,.cls-5,.cls-6{stroke:#000;}.cls-2,.cls-3,.cls-4,.cls-5,.cls-6{stroke-linecap:round;}.cls-2,.cls-3,.cls-6{stroke-linejoin:round;}.cls-2,.cls-3{stroke-width:3px;}.cls-3,.cls-4,.cls-8{stroke:#fc592a;}.cls-4,.cls-5,.cls-8{stroke-miterlimit:10;}.cls-4,.cls-5,.cls-6{stroke-width:2px;}.cls-7{fill:#fff;}</style></defs><title>icon-4</title><rect class="cls-1" width="128" height="128"/><line class="cls-2" x1="40.96" y1="66.56" x2="40.96" y2="35.84"/><circle class="cls-2" cx="40.96" cy="28.802" r="6.4"/><path class="cls-3" d="M32.9216,36.9024a11.52,11.52,0,0,1-.6272-15.808"/><path class="cls-3" d="M49.6256,21.0944a11.52,11.52,0,0,1-.6272,15.808"/><path class="cls-3" d="M28.7472,40.0768A15.9744,15.9744,0,0,1,28.12,17.92"/><path class="cls-3" d="M53.8,17.92a15.9744,15.9744,0,0,1-.6272,22.1568"/><line class="cls-4" x1="84.9664" y1="23.5904" x2="84.9664" y2="21.7344"/><line class="cls-4" x1="84.9664" y1="29.1968" x2="84.9664" y2="27.328"/><line class="cls-4" x1="88.8064" y1="25.4592" x2="86.8864" y2="25.4592"/><line class="cls-4" x1="83.0336" y1="25.4592" x2="81.1136" y2="25.4592"/><line class="cls-5" x1="113.1904" y1="47.2064" x2="114.5472" y2="45.888"/><line class="cls-5" x1="109.1072" y1="51.1616" x2="110.464" y2="49.8432"/><line class="cls-5" x1="114.5472" y1="51.1616" x2="113.1904" y2="49.8432"/><line class="cls-5" x1="110.464" y1="47.2064" x2="109.1072" y2="45.888"/><line class="cls-4" x1="45.2864" y1="110.6304" x2="45.2864" y2="108.7744"/><line class="cls-4" x1="45.2864" y1="116.2368" x2="45.2864" y2="114.368"/><line class="cls-4" x1="49.1264" y1="112.4992" x2="47.2064" y2="112.4992"/><line class="cls-4" x1="43.3536" y1="112.4992" x2="41.4336" y2="112.4992"/><line class="cls-4" x1="114.4064" y1="99.1104" x2="114.4064" y2="97.2544"/><line class="cls-4" x1="114.4064" y1="104.7168" x2="114.4064" y2="102.848"/><line class="cls-4" x1="118.2464" y1="100.9792" x2="116.3264" y2="100.9792"/><line class="cls-4" x1="112.4736" y1="100.9792" x2="110.5536" y2="100.9792"/><line class="cls-5" x1="18.4704" y1="54.8864" x2="19.8272" y2="53.568"/><line class="cls-5" x1="14.3872" y1="58.8416" x2="15.744" y2="57.5232"/><line class="cls-5" x1="19.8272" y1="58.8416" x2="18.4704" y2="57.5232"/><line class="cls-5" x1="15.744" y1="54.8864" x2="14.3872" y2="53.568"/><path class="cls-6" d="M39.47079,31.302a3.325,3.325,0,0,1-.225-5"/><rect class="cls-7" x="84.09473" y="90.19434" width="13.56348" height="6.49219" rx="1.5" ry="1.5"/><path d="M96.1584,91.69389v3.49222H85.5952V91.69389H96.1584m0-3H85.5952a3,3,0,0,0-3,3v3.49222a3,3,0,0,0,3,3H96.1584a3,3,0,0,0,3-3V91.69389a3,3,0,0,0-3-3Z"/><rect class="cls-7" x="27.77539" y="90.19043" width="13.56299" height="6.49219" rx="1.5" ry="1.5"/><path d="M39.8384,91.69018v3.49222H29.2752V91.69018H39.8384m0-3H29.2752a3,3,0,0,0-3,3v3.49222a3,3,0,0,0,3,3H39.8384a3,3,0,0,0,3-3V91.69018a3,3,0,0,0-3-3Z"/><rect class="cls-7" x="21.33057" y="68.05957" width="82.77295" height="23.88086" rx="1.5" ry="1.5"/><path d="M102.6032,69.56V90.44H22.8304V69.56h79.7728m0-3H22.8304a3,3,0,0,0-3,3V90.44a3,3,0,0,0,3,3h79.7728a3,3,0,0,0,3-3V69.56a3,3,0,0,0-3-3Z"/><rect class="cls-7" x="31.64404" y="68.05957" width="62.15186" height="14.9209" rx="1.5" ry="1.5"/><path d="M92.296,69.56V81.48H33.144V69.56H92.296m0-3H33.144a3,3,0,0,0-3,3V81.48a3,3,0,0,0,3,3H92.296a3,3,0,0,0,3-3V69.56a3,3,0,0,0-3-3Z"/><line class="cls-3" x1="58.52" y1="75.52" x2="86.8864" y2="75.52"/><line class="cls-3" x1="38.48" y1="75.52" x2="39.76" y2="75.52"/><line class="cls-3" x1="45.16" y1="75.52" x2="46.44" y2="75.52"/><line class="cls-3" x1="51.84" y1="75.52" x2="53.12" y2="75.52"/><path class="cls-8" d="M32.9216,37.6704"/><path class="cls-8" d="M48.9984,37.6704"/></svg>