<svg id="Слой_1" data-name="Слой 1" xmlns="http://www.w3.org/2000/svg" viewBox="0 0 129 129"><defs><style>.cls-1,.cls-2,.cls-3,.cls-4,.cls-5,.cls-6,.cls-7{fill:none;}.cls-1,.cls-3,.cls-6{stroke:#000;}.cls-1,.cls-2,.cls-3,.cls-4,.cls-5,.cls-6{stroke-linecap:round;}.cls-1,.cls-2,.cls-3,.cls-4{stroke-linejoin:round;}.cls-1,.cls-2{stroke-width:3px;}.cls-2,.cls-4,.cls-5{stroke:#f53;}.cls-3,.cls-4,.cls-5,.cls-6{stroke-width:2px;}.cls-5,.cls-6{stroke-miterlimit:10;}</style></defs><title>icon-2</title><path class="cls-1" d="M53.1222,120.9633H23.0394a2.81221,2.81221,0,0,1-2.7993-2.2833L13.4289,78.9996a2.7864,2.7864,0,0,1,2.7993-3.2121H59.9205a2.7864,2.7864,0,0,1,2.7993,3.2121L55.9215,118.68A2.8122,2.8122,0,0,1,53.1222,120.9633Z"/><path class="cls-2" d="M24.51,72.0336A13.3644,13.3644,0,0,1,38.05219,58.84939l.02862.00041"/><path class="cls-2" d="M51.6,72.0336A13.3644,13.3644,0,0,0,38.0808,58.8498"/><path class="cls-2" d="M69.0924,98.3754c0-7.2885,8.6688-13.1709,19.35-13.1709"/><path class="cls-2" d="M107.8569,98.3754c0-7.2885-8.6688-13.1709-19.35-13.1709"/><line class="cls-2" x1="69.0924" y1="98.3754" x2="69.0924" y2="115.3131"/><line class="cls-2" x1="107.8569" y1="98.3754" x2="107.8569" y2="115.3131"/><path class="cls-2" d="M69.0924,115.3131c0,3.1218-3.4701,6.5919-7.74,6.5919"/><path class="cls-2" d="M107.8569,115.3131c0,3.1218,3.4701,6.5919,7.74,6.5919"/><line class="cls-2" x1="102.039" y1="104.0256" x2="102.039" y2="115.3131"/><path class="cls-2" d="M102.039,115.3131c0,3.1218,3.4701,6.5919,7.74,6.5919"/><line class="cls-2" x1="96.2211" y1="104.0256" x2="96.2211" y2="115.3131"/><path class="cls-2" d="M96.2211,115.3131c0,3.1218,3.4701,6.5919,7.74,6.5919"/><line class="cls-2" x1="90.4032" y1="104.0256" x2="90.4032" y2="115.3131"/><path class="cls-2" d="M90.4032,115.3131c0,3.1218,3.4701,6.5919,7.74,6.5919"/><line class="cls-2" x1="74.8974" y1="104.0256" x2="74.8974" y2="115.3131"/><path class="cls-2" d="M74.8974,115.3131c0,3.1218-3.4701,6.5919-7.74,6.5919"/><line class="cls-2" x1="80.7153" y1="104.0256" x2="80.7153" y2="115.3131"/><path class="cls-2" d="M80.7153,115.3131c0,3.1218-3.4701,6.5919-7.74,6.5919"/><line class="cls-2" x1="86.5332" y1="104.0256" x2="86.5332" y2="115.3131"/><path class="cls-2" d="M86.5332,115.3131c0,3.1218-3.4701,6.5919-7.74,6.5919"/><line class="cls-1" x1="88.4682" y1="81.4377" x2="88.4682" y2="8.0367"/><path class="cls-3" d="M26.2902,116.1a2.2188,2.2188,0,0,1-2.193-1.806L20.9754,96.105"/><line class="cls-3" x1="26.445" y1="116.1" x2="34.185" y2="116.1"/><path class="cls-4" d="M103.9611,100.4265c0-5.8179-6.9273-10.52639-15.48-10.52639"/><line class="cls-5" x1="117.8802" y1="56.0247" x2="117.8802" y2="54.1542"/><line class="cls-5" x1="117.8802" y1="61.6749" x2="117.8802" y2="59.7915"/><line class="cls-5" x1="121.7502" y1="57.9081" x2="119.8152" y2="57.9081"/><line class="cls-5" x1="115.9323" y1="57.9081" x2="113.9973" y2="57.9081"/><line class="cls-6" x1="28.8315" y1="28.3542" x2="30.1989" y2="27.0126"/><line class="cls-6" x1="24.7164" y1="32.3403" x2="26.0838" y2="31.0116"/><line class="cls-6" x1="30.1989" y1="32.3403" x2="28.8315" y2="31.0116"/><line class="cls-6" x1="26.0838" y1="28.3542" x2="24.7164" y2="27.0126"/><line class="cls-6" x1="116.6547" y1="101.7552" x2="118.0221" y2="100.4265"/><line class="cls-6" x1="112.5396" y1="105.7413" x2="113.907" y2="104.4126"/><line class="cls-6" x1="118.0221" y1="105.7413" x2="116.6547" y2="104.4126"/><line class="cls-6" x1="113.907" y1="101.7552" x2="112.5396" y2="100.4265"/><line class="cls-5" x1="71.3628" y1="8.9784" x2="71.3628" y2="7.095"/><line class="cls-5" x1="71.3628" y1="14.6286" x2="71.3628" y2="12.7452"/><line class="cls-5" x1="75.2328" y1="10.8618" x2="73.2978" y2="10.8618"/><line class="cls-5" x1="69.4278" y1="10.8618" x2="67.4799" y2="10.8618"/><rect class="cls-7" width="129" height="129"/><line class="cls-5" x1="59.7528" y1="42.5184" x2="59.7528" y2="40.635"/><line class="cls-5" x1="59.7528" y1="48.1686" x2="59.7528" y2="46.2852"/><line class="cls-5" x1="63.6228" y1="44.4018" x2="61.6878" y2="44.4018"/><line class="cls-5" x1="57.8178" y1="44.4018" x2="55.8699" y2="44.4018"/></svg>