<svg id="Слой_1" data-name="Слой 1" xmlns="http://www.w3.org/2000/svg" viewBox="0 0 100 100">
  <defs>
    <style>
      .cls-1, .cls-2, .cls-3, .cls-4, .cls-5, .cls-6, .cls-8 {
        fill: none;
      }

      .cls-2, .cls-6, .cls-7 {
        stroke: #fc592a;
      }

      .cls-2, .cls-3, .cls-4, .cls-6, .cls-8 {
        stroke-linecap: round;
      }

      .cls-2, .cls-3, .cls-5, .cls-7 {
        stroke-miterlimit: 10;
      }

      .cls-3, .cls-4, .cls-5, .cls-8 {
        stroke: #000;
      }

      .cls-4, .cls-6, .cls-8 {
        stroke-linejoin: round;
      }

      .cls-4, .cls-5, .cls-6, .cls-7 {
        stroke-width: 2px;
      }

      .cls-7 {
        fill: #fc592a;
      }
    </style>
  </defs>
  <title>icon-6</title>
  <g>
    <rect class="cls-1" width="100" height="100"/>
    <g>
      <line class="cls-2" x1="10.38" y1="7.43" x2="10.38" y2="5.98"/>
      <line class="cls-2" x1="10.38" y1="11.81" x2="10.38" y2="10.35"/>
      <line class="cls-2" x1="13.38" y1="8.89" x2="11.88" y2="8.89"/>
      <line class="cls-2" x1="8.87" y1="8.89" x2="7.37" y2="8.89"/>
    </g>
    <g>
      <line class="cls-2" x1="91.38" y1="31.43" x2="91.38" y2="29.98"/>
      <line class="cls-2" x1="91.38" y1="35.81" x2="91.38" y2="34.35"/>
      <line class="cls-2" x1="94.38" y1="32.89" x2="92.88" y2="32.89"/>
      <line class="cls-2" x1="89.87" y1="32.89" x2="88.37" y2="32.89"/>
    </g>
    <g>
      <line class="cls-2" x1="21.38" y1="90.43" x2="21.38" y2="88.98"/>
      <line class="cls-2" x1="21.38" y1="94.81" x2="21.38" y2="93.35"/>
      <line class="cls-2" x1="24.38" y1="91.89" x2="22.88" y2="91.89"/>
      <line class="cls-2" x1="19.87" y1="91.89" x2="18.37" y2="91.89"/>
    </g>
    <g>
      <line class="cls-3" x1="18.43" y1="26.88" x2="19.49" y2="25.85"/>
      <line class="cls-3" x1="15.24" y1="29.97" x2="16.3" y2="28.94"/>
      <line class="cls-3" x1="19.49" y1="29.97" x2="18.43" y2="28.94"/>
      <line class="cls-3" x1="16.3" y1="26.88" x2="15.24" y2="25.85"/>
    </g>
    <g>
      <line class="cls-3" x1="78.43" y1="10.88" x2="79.49" y2="9.85"/>
      <line class="cls-3" x1="75.24" y1="13.97" x2="76.3" y2="12.94"/>
      <line class="cls-3" x1="79.49" y1="13.97" x2="78.43" y2="12.94"/>
      <line class="cls-3" x1="76.3" y1="10.88" x2="75.24" y2="9.85"/>
    </g>
    <g>
      <path class="cls-4" d="M87,42V77.91a3,3,0,0,1-3.15,2.89H70.09V71.11H29.91V80.8H16.15A3,3,0,0,1,13,77.91V42a3,3,0,0,1,3.15-2.89h67.7A3,3,0,0,1,87,42Z"/>
      <path class="cls-5" d="M70.09,20.08V39H29.91V11.06a1.33,1.33,0,0,1,1.33-1.32h28.4a2.25,2.25,0,0,1,1.59.66l8.28,8.28A2,2,0,0,1,70.09,20.08Z"/>
      <rect class="cls-6" x="35.2" y="71.23" width="12.46" height="9.51"/>
      <line class="cls-6" x1="34.14" y1="85.5" x2="65.86" y2="85.5"/>
      <line class="cls-6" x1="51.06" y1="76.57" x2="65.86" y2="76.57"/>
      <circle class="cls-7" cx="79.6" cy="45.8" r="1"/>
      <circle class="cls-7" cx="74.31" cy="45.8" r="1"/>
      <circle class="cls-7" cx="69.03" cy="45.8" r="1"/>
      <path class="cls-4" d="M70.09,71.23v17a2,2,0,0,1-2,2H32a2,2,0,0,1-2-2v-17Z"/>
      <path class="cls-4" d="M68.5,19.26H62a1.45,1.45,0,0,1-1.45-1.45V11a.54.54,0,0,1,.91-.38L69,18.13A.66.66,0,0,1,68.5,19.26Z"/>
      <rect class="cls-4" x="26" y="27" width="3.91" height="12"/>
      <rect class="cls-4" x="70.09" y="27" width="3.91" height="12"/>
    </g>
    <path class="cls-8" d="M17,51.5V44a1,1,0,0,1,1-1H27.5"/>
    <path class="cls-8" d="M83.5,64V76.53a1,1,0,0,1-1,1H76"/>
  </g>
</svg>
