<svg id="Слой_1" data-name="Слой 1" xmlns="http://www.w3.org/2000/svg" viewBox="0 0 100 100">
  <defs>
    <style>
      .cls-1, .cls-2, .cls-3, .cls-4, .cls-5, .cls-6, .cls-7, .cls-8 {
        fill: none;
      }

      .cls-1, .cls-4, .cls-7 {
        stroke: #000;
      }

      .cls-1, .cls-2, .cls-3, .cls-4, .cls-5, .cls-6, .cls-7 {
        stroke-linecap: round;
      }

      .cls-1, .cls-2, .cls-3, .cls-4, .cls-5 {
        stroke-linejoin: round;
      }

      .cls-1, .cls-2, .cls-3 {
        stroke-width: 2px;
      }

      .cls-2, .cls-5, .cls-6 {
        stroke: #fc592a;
      }

      .cls-3 {
        stroke: #ff4132;
      }

      .cls-6, .cls-7 {
        stroke-miterlimit: 10;
      }
    </style>
  </defs>
  <title>icon-2</title>
  <g>
    <path class="cls-1" d="M41.18,93.77H17.86A2.18,2.18,0,0,1,15.69,92L10.41,61.24a2.16,2.16,0,0,1,2.17-2.49H46.45a2.16,2.16,0,0,1,2.17,2.49L43.35,92A2.18,2.18,0,0,1,41.18,93.77Z"/>
    <g>
      <path class="cls-2" d="M19,55.84A10.36,10.36,0,0,1,29.52,45.62"/>
      <path class="cls-2" d="M40,55.84A10.36,10.36,0,0,0,29.52,45.62"/>
    </g>
    <path class="cls-2" d="M53.56,76.26c0-5.65,6.72-10.21,15-10.21"/>
    <path class="cls-2" d="M83.61,76.26c0-5.65-6.72-10.21-15-10.21"/>
    <line class="cls-2" x1="53.56" y1="76.26" x2="53.56" y2="89.39"/>
    <line class="cls-2" x1="83.61" y1="76.26" x2="83.61" y2="89.39"/>
    <path class="cls-2" d="M53.56,89.39c0,2.42-2.69,5.11-6,5.11"/>
    <path class="cls-2" d="M83.61,89.39c0,2.42,2.69,5.11,6,5.11"/>
    <line class="cls-2" x1="79.1" y1="80.64" x2="79.1" y2="89.39"/>
    <path class="cls-2" d="M79.1,89.39c0,2.42,2.69,5.11,6,5.11"/>
    <line class="cls-2" x1="74.59" y1="80.64" x2="74.59" y2="89.39"/>
    <path class="cls-2" d="M74.59,89.39c0,2.42,2.69,5.11,6,5.11"/>
    <line class="cls-2" x1="70.08" y1="80.64" x2="70.08" y2="89.39"/>
    <path class="cls-2" d="M70.08,89.39c0,2.42,2.69,5.11,6,5.11"/>
    <line class="cls-2" x1="58.06" y1="80.64" x2="58.06" y2="89.39"/>
    <path class="cls-3" d="M58.06,89.39c0,2.42-2.69,5.11-6,5.11"/>
    <line class="cls-2" x1="62.57" y1="80.64" x2="62.57" y2="89.39"/>
    <path class="cls-2" d="M62.57,89.39c0,2.42-2.69,5.11-6,5.11"/>
    <line class="cls-2" x1="67.08" y1="80.64" x2="67.08" y2="89.39"/>
    <path class="cls-2" d="M67.08,89.39c0,2.42-2.69,5.11-6,5.11"/>
    <line class="cls-1" x1="68.58" y1="63.13" x2="68.58" y2="6.23"/>
    <path class="cls-4" d="M20.38,90a1.72,1.72,0,0,1-1.7-1.4L16.26,74.5"/>
    <line class="cls-4" x1="20.5" y1="90" x2="26.5" y2="90"/>
    <path class="cls-5" d="M81.09,77.23c0-4.51-5.37-8.16-12-8.16"/>
    <g>
      <line class="cls-6" x1="91.38" y1="43.43" x2="91.38" y2="41.98"/>
      <line class="cls-6" x1="91.38" y1="47.81" x2="91.38" y2="46.35"/>
      <line class="cls-6" x1="94.38" y1="44.89" x2="92.88" y2="44.89"/>
      <line class="cls-6" x1="89.87" y1="44.89" x2="88.37" y2="44.89"/>
    </g>
    <g>
      <line class="cls-7" x1="22.35" y1="21.98" x2="23.41" y2="20.94"/>
      <line class="cls-7" x1="19.16" y1="25.07" x2="20.22" y2="24.04"/>
      <line class="cls-7" x1="23.41" y1="25.07" x2="22.35" y2="24.04"/>
      <line class="cls-7" x1="20.22" y1="21.98" x2="19.16" y2="20.94"/>
    </g>
    <g>
      <line class="cls-7" x1="90.43" y1="78.88" x2="91.49" y2="77.85"/>
      <line class="cls-7" x1="87.24" y1="81.97" x2="88.3" y2="80.94"/>
      <line class="cls-7" x1="91.49" y1="81.97" x2="90.43" y2="80.94"/>
      <line class="cls-7" x1="88.3" y1="78.88" x2="87.24" y2="77.85"/>
    </g>
    <g>
      <line class="cls-6" x1="55.32" y1="6.96" x2="55.32" y2="5.5"/>
      <line class="cls-6" x1="55.32" y1="11.34" x2="55.32" y2="9.88"/>
      <line class="cls-6" x1="58.32" y1="8.42" x2="56.82" y2="8.42"/>
      <line class="cls-6" x1="53.82" y1="8.42" x2="52.31" y2="8.42"/>
    </g>
    <rect class="cls-8" width="100" height="100"/>
    <g>
      <line class="cls-6" x1="46.32" y1="32.96" x2="46.32" y2="31.5"/>
      <line class="cls-6" x1="46.32" y1="37.34" x2="46.32" y2="35.88"/>
      <line class="cls-6" x1="49.32" y1="34.42" x2="47.82" y2="34.42"/>
      <line class="cls-6" x1="44.82" y1="34.42" x2="43.31" y2="34.42"/>
    </g>
  </g>
</svg>
