<svg id="Слой_1" data-name="Слой 1" xmlns="http://www.w3.org/2000/svg" viewBox="0 0 128 128"><defs><style>.cls-1,.cls-2,.cls-3,.cls-4,.cls-5,.cls-6,.cls-7{fill:none;}.cls-2,.cls-5,.cls-7{stroke:#000;}.cls-2,.cls-3,.cls-4,.cls-5,.cls-6,.cls-7{stroke-linecap:round;}.cls-2,.cls-3,.cls-6,.cls-7{stroke-miterlimit:10;}.cls-2,.cls-3,.cls-4,.cls-5{stroke-width:3px;}.cls-3,.cls-4,.cls-6{stroke:#fc592a;}.cls-4,.cls-5{stroke-linejoin:round;}.cls-6,.cls-7{stroke-width:2px;}</style></defs><title>icon-3</title><rect class="cls-1" width="128" height="128"/><line class="cls-2" x1="94.08" y1="118.4" x2="94.08" y2="18.56"/><line class="cls-3" x1="82.7776" y1="118.4" x2="82.7776" y2="76.16"/><line class="cls-2" x1="77.12" y1="72.9344" x2="77.12" y2="19.2256"/><line class="cls-2" x1="51.2" y1="118.4" x2="51.2" y2="50.56"/><line class="cls-4" x1="51.2" y1="41.3312" x2="51.2" y2="10.24"/><path class="cls-2" d="M77.12,18.7776a8.4736,8.4736,0,0,1,8.40935-8.53737q.03853-.00029.07705-.00023"/><path class="cls-2" d="M94.08,18.7776a8.4736,8.4736,0,0,0-8.40936-8.53736Q85.63852,10.24,85.6064,10.24"/><path class="cls-2" d="M60.8,41.6a8.96,8.96,0,0,1-8.96,8.96"/><line class="cls-2" x1="42.24" y1="118.4" x2="42.24" y2="50.56"/><path class="cls-2" d="M32.64,41.6a8.96,8.96,0,0,0,8.96,8.96"/><line class="cls-5" x1="60.8" y1="41.152" x2="60.8" y2="10.048"/><line class="cls-4" x1="42.24" y1="41.3312" x2="42.24" y2="10.24"/><line class="cls-5" x1="32.64" y1="41.3824" x2="32.64" y2="10.2912"/><line class="cls-6" x1="17.1264" y1="28.7104" x2="17.1264" y2="26.8544"/><line class="cls-6" x1="17.1264" y1="34.3168" x2="17.1264" y2="32.448"/><line class="cls-6" x1="20.9664" y1="30.5792" x2="19.0464" y2="30.5792"/><line class="cls-6" x1="15.1936" y1="30.5792" x2="13.2736" y2="30.5792"/><line class="cls-6" x1="113.1264" y1="59.4304" x2="113.1264" y2="57.5744"/><line class="cls-6" x1="113.1264" y1="65.0368" x2="113.1264" y2="63.168"/><line class="cls-6" x1="116.9664" y1="61.2992" x2="115.0464" y2="61.2992"/><line class="cls-6" x1="111.1936" y1="61.2992" x2="109.2736" y2="61.2992"/><line class="cls-6" x1="67.0464" y1="110.6304" x2="67.0464" y2="108.7744"/><line class="cls-6" x1="67.0464" y1="116.2368" x2="67.0464" y2="114.368"/><line class="cls-6" x1="70.8864" y1="112.4992" x2="68.9664" y2="112.4992"/><line class="cls-6" x1="65.1136" y1="112.4992" x2="63.1936" y2="112.4992"/><line class="cls-7" x1="27.4304" y1="83.0464" x2="28.7872" y2="81.728"/><line class="cls-7" x1="23.3472" y1="87.0016" x2="24.704" y2="85.6832"/><line class="cls-7" x1="28.7872" y1="87.0016" x2="27.4304" y2="85.6832"/><line class="cls-7" x1="24.704" y1="83.0464" x2="23.3472" y2="81.728"/><line class="cls-7" x1="61.9904" y1="58.7264" x2="63.3472" y2="57.408"/><line class="cls-7" x1="57.9072" y1="62.6816" x2="59.264" y2="61.3632"/><line class="cls-7" x1="63.3472" y1="62.6816" x2="61.9904" y2="61.3632"/><line class="cls-7" x1="59.264" y1="58.7264" x2="57.9072" y2="57.408"/><path class="cls-7" d="M81.3568,19.648a5.12,5.12,0,0,1,5.12-5.12"/></svg>