<svg id="Слой_1" data-name="Слой 1" xmlns="http://www.w3.org/2000/svg" viewBox="0 0 100 100">
  <defs>
    <style>
      .cls-1, .cls-2, .cls-3, .cls-4, .cls-5, .cls-6 {
        fill: none;
      }

      .cls-2, .cls-5 {
        stroke: #000;
      }

      .cls-2, .cls-3, .cls-4, .cls-5, .cls-6 {
        stroke-linecap: round;
      }

      .cls-2, .cls-3, .cls-6 {
        stroke-linejoin: round;
      }

      .cls-2, .cls-3 {
        stroke-width: 2px;
      }

      .cls-3, .cls-4, .cls-6 {
        stroke: #fc592a;
      }

      .cls-4, .cls-5 {
        stroke-miterlimit: 10;
      }
    </style>
  </defs>
  <title>icon-8</title>
  <g>
    <rect class="cls-1" width="100" height="100"/>
    <g>
      <path class="cls-2" d="M80.34,26V83.39H55.09V60.87l1.72-2.16a22.93,22.93,0,0,0-1.72-29.56V26Z"/>
      <rect class="cls-2" x="59.11" y="22.57" width="17.21" height="3.44"/>
      <line class="cls-2" x1="67.71" y1="14.11" x2="67.71" y2="22.14"/>
      <line class="cls-2" x1="85.5" y1="83.39" x2="18.94" y2="83.39"/>
      <line class="cls-2" x1="60.25" y1="31.75" x2="75.17" y2="31.75"/>
      <line class="cls-2" x1="60.25" y1="36.34" x2="75.17" y2="36.34"/>
      <line class="cls-2" x1="61.4" y1="40.93" x2="75.17" y2="40.93"/>
      <line class="cls-2" x1="61.4" y1="45.52" x2="75.17" y2="45.52"/>
      <line class="cls-2" x1="61.17" y1="50.11" x2="75.17" y2="50.11"/>
      <line class="cls-2" x1="60.25" y1="54.7" x2="75.17" y2="54.7"/>
      <line class="cls-2" x1="60.25" y1="59.29" x2="75.17" y2="59.29"/>
      <line class="cls-2" x1="60.25" y1="63.88" x2="75.17" y2="63.88"/>
      <line class="cls-2" x1="60.25" y1="68.47" x2="75.17" y2="68.47"/>
      <line class="cls-2" x1="60.25" y1="73.06" x2="75.17" y2="73.06"/>
      <line class="cls-2" x1="60.25" y1="77.65" x2="75.17" y2="77.65"/>
      <path class="cls-2" d="M16.65,51.83"/>
      <path class="cls-3" d="M61.4,44.95a22.86,22.86,0,0,1-4.59,13.77l-1.72,2.16L38.45,81.67l-18.36-23A22.95,22.95,0,1,1,61.4,44.95Z"/>
      <circle class="cls-2" cx="38.45" cy="44.95" r="14.92"/>
      <polygon class="cls-3" points="38.45 49 42.71 51.24 41.89 46.5 45.34 43.14 40.58 42.45 38.45 38.14 36.32 42.45 31.57 43.14 35.01 46.5 34.2 51.24 38.45 49"/>
      <line class="cls-2" x1="38.45" y1="64.6" x2="38.45" y2="65.6"/>
      <line class="cls-2" x1="38.45" y1="69.19" x2="38.45" y2="70.19"/>
      <line class="cls-2" x1="38.45" y1="73.78" x2="38.45" y2="74.78"/>
    </g>
    <g>
      <line class="cls-4" x1="85.38" y1="11.43" x2="85.38" y2="9.98"/>
      <line class="cls-4" x1="85.38" y1="15.81" x2="85.38" y2="14.35"/>
      <line class="cls-4" x1="88.38" y1="12.89" x2="86.88" y2="12.89"/>
      <line class="cls-4" x1="83.87" y1="12.89" x2="82.37" y2="12.89"/>
    </g>
    <g>
      <line class="cls-4" x1="11.38" y1="21.43" x2="11.38" y2="19.98"/>
      <line class="cls-4" x1="11.38" y1="25.81" x2="11.38" y2="24.35"/>
      <line class="cls-4" x1="14.38" y1="22.89" x2="12.88" y2="22.89"/>
      <line class="cls-4" x1="9.87" y1="22.89" x2="8.37" y2="22.89"/>
    </g>
    <g>
      <line class="cls-4" x1="73.38" y1="89.43" x2="73.38" y2="87.98"/>
      <line class="cls-4" x1="73.38" y1="93.81" x2="73.38" y2="92.35"/>
      <line class="cls-4" x1="76.38" y1="90.89" x2="74.88" y2="90.89"/>
      <line class="cls-4" x1="71.87" y1="90.89" x2="70.37" y2="90.89"/>
    </g>
    <g>
      <line class="cls-5" x1="15.43" y1="72.88" x2="16.49" y2="71.85"/>
      <line class="cls-5" x1="12.24" y1="75.97" x2="13.3" y2="74.94"/>
      <line class="cls-5" x1="16.49" y1="75.97" x2="15.43" y2="74.94"/>
      <line class="cls-5" x1="13.3" y1="72.88" x2="12.24" y2="71.85"/>
    </g>
    <g>
      <line class="cls-5" x1="46.43" y1="7.88" x2="47.49" y2="6.85"/>
      <line class="cls-5" x1="43.24" y1="10.97" x2="44.3" y2="9.94"/>
      <line class="cls-5" x1="47.49" y1="10.97" x2="46.43" y2="9.94"/>
      <line class="cls-5" x1="44.3" y1="7.88" x2="43.24" y2="6.85"/>
    </g>
    <path class="cls-6" d="M18.5,44.5a19,19,0,0,1,19-19"/>
  </g>
</svg>
