<?xml version="1.0" encoding="utf-8"?>
<!-- Generator: Adobe Illustrator 21.1.0, SVG Export Plug-In . SVG Version: 6.00 Build 0)  -->
<svg version="1.1" id="Слой_1" xmlns="http://www.w3.org/2000/svg" xmlns:xlink="http://www.w3.org/1999/xlink" x="0px" y="0px"
	 viewBox="0 0 128 128" style="enable-background:new 0 0 128 128;" xml:space="preserve">
<style type="text/css">
	.st0{fill:none;}
	.st1{fill:none;stroke:#FC592A;stroke-width:2;stroke-linecap:round;stroke-miterlimit:10;}
	.st2{fill:none;stroke:#000000;stroke-width:2;stroke-linecap:round;stroke-miterlimit:10;}
	.st3{fill:none;stroke:#FC592A;stroke-miterlimit:10;}
	.st4{fill:#FFFFFF;}
	.st5{fill:#FFFFFF;stroke:#000000;stroke-width:3;stroke-linecap:round;stroke-linejoin:round;}
	.st6{fill:none;stroke:#000000;stroke-width:3;stroke-linecap:round;stroke-linejoin:round;}
	.st7{fill:none;stroke:#000000;stroke-width:2;stroke-linecap:round;stroke-linejoin:round;}
	.st8{fill:none;stroke:#FC592A;stroke-width:2;stroke-linecap:round;stroke-linejoin:round;}
</style>
<title>icon-4</title>
<rect class="st0" width="128" height="128"/>
<g>
	<line class="st1" x1="52.5" y1="34.3" x2="52.5" y2="32.4"/>
	<line class="st1" x1="52.5" y1="39.9" x2="52.5" y2="38"/>
	<line class="st1" x1="56.3" y1="36.2" x2="54.4" y2="36.2"/>
	<line class="st1" x1="50.5" y1="36.2" x2="48.6" y2="36.2"/>
</g>
<g>
	<line class="st2" x1="117.7" y1="39.3" x2="119" y2="38"/>
	<line class="st2" x1="113.6" y1="43.3" x2="115" y2="41.9"/>
	<line class="st2" x1="119" y1="43.3" x2="117.7" y2="41.9"/>
	<line class="st2" x1="115" y1="39.3" x2="113.6" y2="38"/>
</g>
<g>
	<line class="st1" x1="35" y1="105.5" x2="35" y2="103.8"/>
	<line class="st1" x1="35" y1="111.1" x2="35" y2="109.3"/>
	<line class="st1" x1="38.8" y1="107.4" x2="36.9" y2="107.4"/>
	<line class="st1" x1="33.1" y1="107.4" x2="31.1" y2="107.4"/>
</g>
<g>
	<line class="st1" x1="114.4" y1="99.1" x2="114.4" y2="97.3"/>
	<line class="st1" x1="114.4" y1="104.7" x2="114.4" y2="102.8"/>
	<line class="st1" x1="118.2" y1="101" x2="116.3" y2="101"/>
	<line class="st1" x1="112.5" y1="101" x2="110.6" y2="101"/>
</g>
<g>
	<line class="st2" x1="18.5" y1="20.4" x2="19.8" y2="19.1"/>
	<line class="st2" x1="14.4" y1="24.3" x2="15.7" y2="23"/>
	<line class="st2" x1="19.8" y1="24.3" x2="18.5" y2="23"/>
	<line class="st2" x1="15.7" y1="20.4" x2="14.4" y2="19.1"/>
</g>
<path class="st3" d="M32.9,37.7"/>
<path class="st3" d="M49,37.7"/>
<g>
	<path class="st4" d="M86.9,76.2h10.6c0.8,0,1.5,0.7,1.5,1.5v3.5c0,0.8-0.7,1.5-1.5,1.5H86.9c-0.8,0-1.5-0.7-1.5-1.5v-3.5
		C85.4,76.9,86.1,76.2,86.9,76.2z"/>
	<path d="M97.5,77.7v3.5H86.9v-3.5H97.5 M97.5,74.7H86.9c-1.7,0-3,1.3-3,3v3.5c0,1.7,1.3,3,3,3h10.6c1.7,0,3-1.3,3-3v-3.5
		C100.5,76,99.1,74.7,97.5,74.7z"/>
	<path class="st4" d="M30.6,76.2h10.6c0.8,0,1.5,0.7,1.5,1.5v3.5c0,0.8-0.7,1.5-1.5,1.5H30.6c-0.8,0-1.5-0.7-1.5-1.5v-3.5
		C29.1,76.9,29.7,76.2,30.6,76.2z"/>
	<path d="M41.1,77.7v3.5H30.6v-3.5H41.1 M41.1,74.7H30.6c-1.7,0-3,1.3-3,3v3.5c0,1.7,1.3,3,3,3h10.6c1.7,0,3-1.3,3-3v-3.5
		C44.1,76,42.8,74.7,41.1,74.7z"/>
	<path class="st4" d="M24.1,54.1h79.8c0.8,0,1.5,0.7,1.5,1.5v20.9c0,0.8-0.7,1.5-1.5,1.5H24.1c-0.8,0-1.5-0.7-1.5-1.5V55.6
		C22.6,54.7,23.3,54.1,24.1,54.1z"/>
	<path d="M103.9,55.4v20.9H24.1V55.4H103.9 M103.9,52.4H24.1c-1.7,0-3,1.3-3,3v20.9c0,1.7,1.3,3,3,3h79.8c1.7,0,3-1.3,3-3V55.4
		C106.9,53.7,105.6,52.4,103.9,52.4z"/>
	<circle class="st5" cx="77.3" cy="66" r="14"/>
	<circle class="st6" cx="77.3" cy="66" r="8"/>
	<path class="st7" d="M74.8,68.5c-1.4-1.1-1.7-3.2-0.5-4.7c0.1-0.1,0.2-0.2,0.3-0.3"/>
	<g>
		<line class="st8" x1="33" y1="62.4" x2="36.9" y2="62.4"/>
		<line class="st8" x1="40.5" y1="62.4" x2="48.3" y2="62.4"/>
		<line class="st8" x1="33" y1="66" x2="43.7" y2="66"/>
		<line class="st8" x1="47.7" y1="65.9" x2="52.4" y2="65.9"/>
		<line class="st8" x1="52.1" y1="62.4" x2="52.4" y2="62.4"/>
		<line class="st8" x1="48.5" y1="69.3" x2="52.4" y2="69.3"/>
		<line class="st8" x1="37.1" y1="69.3" x2="44.9" y2="69.3"/>
		<line class="st8" x1="33" y1="69.3" x2="33.3" y2="69.3"/>
	</g>
</g>
</svg>
