<svg id="Layer_1" data-name="Layer 1" xmlns="http://www.w3.org/2000/svg" viewBox="0 0 128 128"><defs><style>.cls-1,.cls-2{fill:#fff;}.cls-2,.cls-4{stroke:#f53;}.cls-2,.cls-3,.cls-4,.cls-5,.cls-6{stroke-linecap:round;}.cls-2,.cls-3,.cls-4{stroke-linejoin:round;stroke-width:3px;}.cls-3,.cls-4,.cls-5,.cls-6{fill:none;}.cls-3,.cls-6{stroke:#000;}.cls-5{stroke:#fc592a;}.cls-5,.cls-6{stroke-miterlimit:10;stroke-width:2px;}</style></defs><title>icon-10</title><rect class="cls-1" width="128" height="128"/><path class="cls-2" d="M25.67168,45.091c15.3096-13.274,22.96439-3.31852,14.21606,13.27409C34.34525,68.8773,23.48463,73.85151,25.67168,73.85151H48.636"/><path class="cls-2" d="M60.665,38.454C53.01022,45.091,45.35544,56.15273,49.7296,56.15273h12.936"/><path class="cls-2" d="M75.97459,39.56013a113.18056,113.18056,0,0,0-12.029,35.39754"/><line class="cls-3" x1="90.19062" y1="36.24161" x2="57.38439" y2="103.71818"/><path class="cls-4" d="M86.91,58.36508c4.37416,0,10.37-.76508,15.30957,0,4.32256.66952-3.28064,15.48643-12.029,30.97285"/><line class="cls-4" x1="92.19123" y1="74.95769" x2="85.62999" y2="74.95769"/><line class="cls-4" x1="103.49956" y1="74.95769" x2="108.96727" y2="74.95769"/><path class="cls-3" d="M16.92339,41.77248C31.13942,14.11814,65.00816,5.122,88.00354,17.43666c18.5902,9.95556,29.5256,34.11754,26.245,54.02867"/><path class="cls-3" d="M14.73631,48.75717C6.52111,75.8641,20.95263,102.19891,46.449,111.46141c26.67074,9.68913,57.27842-5.07264,66.706-33.18521"/><line class="cls-5" x1="114.83322" y1="10.15858" x2="114.83322" y2="8.30258"/><line class="cls-5" x1="114.83322" y1="15.76498" x2="114.83322" y2="13.89618"/><line class="cls-5" x1="118.67322" y1="12.02738" x2="116.75322" y2="12.02738"/><line class="cls-5" x1="112.90042" y1="12.02738" x2="110.98042" y2="12.02738"/><line class="cls-5" x1="39.94682" y1="94.7624" x2="39.94682" y2="92.9064"/><line class="cls-5" x1="39.94682" y1="100.3688" x2="39.94682" y2="98.5"/><line class="cls-5" x1="43.78682" y1="96.6312" x2="41.86682" y2="96.6312"/><line class="cls-5" x1="38.01402" y1="96.6312" x2="36.09402" y2="96.6312"/><line class="cls-5" x1="106.23981" y1="112.55858" x2="106.23981" y2="110.70258"/><line class="cls-5" x1="106.23981" y1="118.16498" x2="106.23981" y2="116.29618"/><line class="cls-5" x1="110.07981" y1="114.42738" x2="108.15981" y2="114.42738"/><line class="cls-5" x1="104.30701" y1="114.42738" x2="102.38701" y2="114.42738"/><line class="cls-6" x1="21.9764" y1="18.1132" x2="23.33321" y2="16.7948"/><line class="cls-6" x1="17.8932" y1="22.0684" x2="19.25" y2="20.75"/><line class="cls-6" x1="23.33321" y1="22.0684" x2="21.9764" y2="20.75"/><line class="cls-6" x1="19.25" y1="18.1132" x2="17.8932" y2="16.7948"/><line class="cls-6" x1="31" y1="114.97778" x2="32.3568" y2="113.65938"/><line class="cls-6" x1="26.9168" y1="118.93298" x2="28.2736" y2="117.61458"/><line class="cls-6" x1="32.3568" y1="118.93298" x2="31" y2="117.61458"/><line class="cls-6" x1="28.2736" y1="114.97778" x2="26.9168" y2="113.65938"/></svg>