<svg id="Слой_1" data-name="Слой 1" xmlns="http://www.w3.org/2000/svg" viewBox="0 0 100 100">
  <defs>
    <style>
      .cls-1, .cls-2, .cls-3, .cls-6, .cls-7, .cls-8 {
        fill: none;
      }

      .cls-2, .cls-7, .cls-8 {
        stroke: #000;
      }

      .cls-2, .cls-3, .cls-6, .cls-7, .cls-8 {
        stroke-linecap: round;
      }

      .cls-2, .cls-3, .cls-8 {
        stroke-linejoin: round;
      }

      .cls-2, .cls-3 {
        stroke-width: 2px;
      }

      .cls-3, .cls-6 {
        stroke: #fc592a;
      }

      .cls-4 {
        isolation: isolate;
      }

      .cls-5 {
        fill: #fc592a;
      }

      .cls-6, .cls-7 {
        stroke-miterlimit: 10;
      }
    </style>
  </defs>
  <title>icon-7</title>
  <g>
    <rect class="cls-1" width="100" height="100"/>
    <path class="cls-2" d="M86.5,20.79V81.51a4.65,4.65,0,0,1-4.65,4.65H20.15a4.65,4.65,0,0,1-4.65-4.65h0V20.79h13v8.45h6.76V20.79H66.78v8.45h6.76V20.79Z"/>
    <rect class="cls-3" x="28.46" y="12.34" width="6.76" height="16.9"/>
    <rect class="cls-3" x="66.78" y="12.34" width="6.76" height="16.9"/>
    <rect class="cls-2" x="26.77" y="45.37" width="48.46" height="30.87"/>
    <line class="cls-2" x1="15.56" y1="36.01" x2="85.44" y2="36.01"/>
    <line class="cls-2" x1="45.99" y1="29.25" x2="43.74" y2="29.25"/>
    <line class="cls-2" x1="51.63" y1="29.25" x2="49.37" y2="29.25"/>
    <line class="cls-2" x1="57.26" y1="29.25" x2="55.01" y2="29.25"/>
    <g class="cls-4">
      <path class="cls-5" d="M44.44092,53.85742a5.49471,5.49471,0,0,1,1.83105.28906,4.19067,4.19067,0,0,1,1.395.80273,3.52492,3.52492,0,0,1,.8877,1.20117,3.60978,3.60978,0,0,1,.30908,1.49219,4.35946,4.35946,0,0,1-.15723,1.23242,2.8602,2.8602,0,0,1-.45654.92773,2.77958,2.77958,0,0,1-.73047.66992,4.5287,4.5287,0,0,1-.979.457,3.82849,3.82849,0,0,1,1.96826,1.26758,3.4314,3.4314,0,0,1,.64941,2.14063,4.40852,4.40852,0,0,1-.40576,1.9375,4.18009,4.18009,0,0,1-1.0957,1.416,4.82,4.82,0,0,1-1.59766.86719,6.226,6.226,0,0,1-1.92285.293,6.59821,6.59821,0,0,1-1.92725-.252,4.19133,4.19133,0,0,1-1.43066-.752,4.509,4.509,0,0,1-1.03467-1.2168,8.2059,8.2059,0,0,1-.73047-1.66406l1.106-.457a1.4707,1.4707,0,0,1,.57813-.12109.98378.98378,0,0,1,.47168.11133.76733.76733,0,0,1,.31982.32422c.12158.23633.25488.4707.40039.70117a2.893,2.893,0,0,0,.52246.61328,2.47232,2.47232,0,0,0,.71533.43555,2.59353,2.59353,0,0,0,.979.168,2.77027,2.77027,0,0,0,1.11572-.209,2.39761,2.39761,0,0,0,.79639-.541,2.24392,2.24392,0,0,0,.47705-.74609,2.29144,2.29144,0,0,0,.15723-.82812,3.79707,3.79707,0,0,0-.11182-.957,1.41825,1.41825,0,0,0-.46631-.73633,2.53674,2.53674,0,0,0-1.01953-.47656,7.34885,7.34885,0,0,0-1.78076-.17187V60.2793a6.01908,6.01908,0,0,0,1.53223-.16211,2.5875,2.5875,0,0,0,.96875-.45117,1.53117,1.53117,0,0,0,.502-.69531,2.68213,2.68213,0,0,0,.14209-.89258A2.06228,2.06228,0,0,0,45.85107,56.5a2.18614,2.18614,0,0,0-1.55225-.53125,2.29284,2.29284,0,0,0-1.48145.4707,2.46357,2.46357,0,0,0-.82178,1.21094,1.107,1.107,0,0,1-.33447.55273.87869.87869,0,0,1-.55811.166,2.17613,2.17613,0,0,1-.34473-.0293l-1.31885-.23047a5.43287,5.43287,0,0,1,.58838-1.85156,4.44271,4.44271,0,0,1,1.09033-1.33008,4.5536,4.5536,0,0,1,1.50146-.80078A5.97568,5.97568,0,0,1,44.44092,53.85742Z"/>
      <path class="cls-5" d="M52.59668,66.8125h2.97266V58.26172c0-.332.00977-.67969.03027-1.04492l-2.11035,1.76367a.72228.72228,0,0,1-.26855.15234.92992.92992,0,0,1-.26855.041.80391.80391,0,0,1-.37012-.08594.68385.68385,0,0,1-.249-.19727l-.791-1.08594L56.01563,54H58.0752V66.8125h2.6377v1.877H52.59668Z"/>
    </g>
    <g>
      <line class="cls-6" x1="11.38" y1="8.43" x2="11.38" y2="6.98"/>
      <line class="cls-6" x1="11.38" y1="12.81" x2="11.38" y2="11.35"/>
      <line class="cls-6" x1="14.38" y1="9.89" x2="12.88" y2="9.89"/>
      <line class="cls-6" x1="9.87" y1="9.89" x2="8.37" y2="9.89"/>
    </g>
    <g>
      <line class="cls-6" x1="93.38" y1="71.43" x2="93.38" y2="69.98"/>
      <line class="cls-6" x1="93.38" y1="75.81" x2="93.38" y2="74.35"/>
      <line class="cls-6" x1="96.38" y1="72.89" x2="94.88" y2="72.89"/>
      <line class="cls-6" x1="91.87" y1="72.89" x2="90.37" y2="72.89"/>
    </g>
    <g>
      <line class="cls-6" x1="25.38" y1="91.43" x2="25.38" y2="89.98"/>
      <line class="cls-6" x1="25.38" y1="95.81" x2="25.38" y2="94.35"/>
      <line class="cls-6" x1="28.38" y1="92.89" x2="26.88" y2="92.89"/>
      <line class="cls-6" x1="23.87" y1="92.89" x2="22.37" y2="92.89"/>
    </g>
    <g>
      <line class="cls-7" x1="5.43" y1="55.88" x2="6.49" y2="54.85"/>
      <line class="cls-7" x1="2.24" y1="58.97" x2="3.3" y2="57.94"/>
      <line class="cls-7" x1="6.49" y1="58.97" x2="5.43" y2="57.94"/>
      <line class="cls-7" x1="3.3" y1="55.88" x2="2.24" y2="54.85"/>
    </g>
    <g>
      <line class="cls-7" x1="63.43" y1="3.88" x2="64.49" y2="2.85"/>
      <line class="cls-7" x1="60.24" y1="6.97" x2="61.3" y2="5.94"/>
      <line class="cls-7" x1="64.49" y1="6.97" x2="63.43" y2="5.94"/>
      <line class="cls-7" x1="61.3" y1="3.88" x2="60.24" y2="2.85"/>
    </g>
    <line class="cls-8" x1="19.5" y1="78.5" x2="19.5" y2="53.5"/>
    <line class="cls-8" x1="23.5" y1="82.5" x2="32.5" y2="82.5"/>
    <path class="cls-8" d="M19.5,78.5c0,3,1,4,4,4"/>
    <line class="cls-8" x1="35" y1="82.5" x2="37" y2="82.5"/>
    <line class="cls-8" x1="39.5" y1="82.5" x2="40.5" y2="82.5"/>
    <line class="cls-8" x1="83.5" y1="33" x2="64.5" y2="33"/>
  </g>
</svg>
