<svg id="Слой_1" data-name="Слой 1" xmlns="http://www.w3.org/2000/svg" viewBox="0 0 128 128"><defs><style>.cls-1,.cls-2,.cls-3,.cls-4,.cls-5,.cls-6,.cls-7,.cls-8{fill:none;}.cls-2,.cls-4,.cls-5,.cls-8{stroke:#000;}.cls-2,.cls-7,.cls-8{stroke-miterlimit:10;}.cls-3,.cls-6,.cls-7{stroke:#fc592a;}.cls-3,.cls-4,.cls-5,.cls-6,.cls-7,.cls-8{stroke-linecap:round;}.cls-3,.cls-4,.cls-5,.cls-6{stroke-linejoin:round;}.cls-3,.cls-4{stroke-width:3px;}.cls-5,.cls-6,.cls-7,.cls-8{stroke-width:2px;}</style></defs><title>icon-9</title><rect class="cls-1" width="128" height="128"/><path class="cls-2" d="M51.392,84.8512"/><path class="cls-2" d="M83.9168,49.92"/><path class="cls-3" d="M51.7824,22.0288H48.416a4.7872,4.7872,0,0,1-4.7744-4.7744h0A4.7872,4.7872,0,0,1,48.416,12.48H78.7264a4.7872,4.7872,0,0,1,4.7744,4.7744h0a4.7872,4.7872,0,0,1-4.7744,4.7744H75.36"/><path class="cls-3" d="M48.416,31.5904A4.7872,4.7872,0,0,1,43.6544,26.88h0a4.7872,4.7872,0,0,1,4.7744-4.7744"/><path class="cls-3" d="M76.2304,22.0288H79.584a4.7872,4.7872,0,0,1,4.7744,4.7744h0a4.7872,4.7872,0,0,1-4.7744,4.7744"/><path class="cls-3" d="M48.416,41.1392a4.7872,4.7872,0,0,1-4.7744-4.7744h0a4.7872,4.7872,0,0,1,4.7744-4.7744"/><path class="cls-3" d="M78.7264,31.5904a4.7872,4.7872,0,0,1,4.7744,4.7744h0a4.7872,4.7872,0,0,1-4.7744,4.7744"/><path class="cls-3" d="M51.7824,50.7008H48.416a4.78719,4.78719,0,0,1-4.7744-4.7744h0A4.78719,4.78719,0,0,1,48.416,41.152"/><path class="cls-3" d="M78.7264,41.1392a4.78719,4.78719,0,0,1,4.7744,4.7744h0a4.78719,4.78719,0,0,1-4.7744,4.7744H75.36"/><rect class="cls-3" x="51.7824" y="50.7008" width="23.5776" height="3.2512"/><rect class="cls-4" x="38.7904" y="54.8608" width="50.4192" height="61.7984"/><rect class="cls-5" x="46.112" y="63.808" width="35.776" height="33.34399"/><rect class="cls-4" x="49.7728" y="89.344" width="28.4672" height="4.0704"/><rect class="cls-4" x="53.4336" y="67.8656" width="4.8768" height="4.8768"/><polygon class="cls-6" points="59.13 89.011 52.627 89.011 51.002 76.813 60.755 76.813 59.13 89.011"/><rect class="cls-4" x="69.7024" y="67.8656" width="4.8768" height="4.8768"/><rect class="cls-4" x="48.5504" y="108.5312" width="30.8992" height="4.0704"/><line class="cls-7" x1="20.9664" y1="27.4304" x2="20.9664" y2="25.5744"/><line class="cls-7" x1="20.9664" y1="33.0368" x2="20.9664" y2="31.168"/><line class="cls-7" x1="24.8064" y1="29.2992" x2="22.8864" y2="29.2992"/><line class="cls-7" x1="19.0336" y1="29.2992" x2="17.1136" y2="29.2992"/><line class="cls-8" x1="28.7104" y1="56.1664" x2="30.0672" y2="54.848"/><line class="cls-8" x1="24.6272" y1="60.1216" x2="25.984" y2="58.8032"/><line class="cls-8" x1="30.0672" y1="60.1216" x2="28.7104" y2="58.8032"/><line class="cls-8" x1="25.984" y1="56.1664" x2="24.6272" y2="54.848"/><line class="cls-8" x1="114.4704" y1="106.0864" x2="115.8272" y2="104.768"/><line class="cls-8" x1="110.3872" y1="110.0416" x2="111.744" y2="108.7232"/><line class="cls-8" x1="115.8272" y1="110.0416" x2="114.4704" y2="108.7232"/><line class="cls-8" x1="111.744" y1="106.0864" x2="110.3872" y2="104.768"/><line class="cls-7" x1="110.5664" y1="45.3504" x2="110.5664" y2="43.4944"/><line class="cls-7" x1="110.5664" y1="50.9568" x2="110.5664" y2="49.088"/><line class="cls-7" x1="114.4064" y1="47.2192" x2="112.4864" y2="47.2192"/><line class="cls-7" x1="108.6336" y1="47.2192" x2="106.7136" y2="47.2192"/><line class="cls-7" x1="15.8464" y1="104.2304" x2="15.8464" y2="102.3744"/><line class="cls-7" x1="15.8464" y1="109.8368" x2="15.8464" y2="107.968"/><line class="cls-7" x1="19.6864" y1="106.0992" x2="17.7664" y2="106.0992"/><line class="cls-7" x1="13.9136" y1="106.0992" x2="11.9936" y2="106.0992"/><path class="cls-6" d="M46.9312,17.92a2.56,2.56,0,0,1,2.56-2.56"/><path class="cls-6" d="M49.8624,38.1184a2.56,2.56,0,0,1,1.8304,3.1232"/><line class="cls-6" x1="66.1312" y1="47.36" x2="78.9312" y2="47.36"/></svg>