<svg id="Слой_1" data-name="Слой 1" xmlns="http://www.w3.org/2000/svg" viewBox="0 0 100 100">
  <defs>
    <style>
      .cls-1, .cls-2, .cls-3, .cls-4, .cls-5 {
        fill: none;
      }

      .cls-2, .cls-4 {
        stroke: #000;
      }

      .cls-2, .cls-3, .cls-4, .cls-5 {
        stroke-linecap: round;
      }

      .cls-2, .cls-3 {
        stroke-linejoin: bevel;
        stroke-width: 2px;
      }

      .cls-3, .cls-5 {
        stroke: #fc592a;
      }

      .cls-4, .cls-5 {
        stroke-miterlimit: 10;
      }
    </style>
  </defs>
  <title>icon-5</title>
  <g>
    <rect class="cls-1" width="100" height="100"/>
    <path class="cls-2" d="M36.74,39.05c0-4.47,6.21-8.1,13.88-8.1"/>
    <path class="cls-2" d="M64.49,39.05c0-4.47-6.21-8.1-13.88-8.1"/>
    <g>
      <line class="cls-3" x1="7.25" y1="40.21" x2="7.25" y2="62.18"/>
      <line class="cls-3" x1="15.92" y1="72.59" x2="27.49" y2="72.59"/>
      <line class="cls-3" x1="19.39" y1="82.42" x2="19.39" y2="73.17"/>
      <line class="cls-3" x1="25.75" y1="51.77" x2="51.77" y2="51.77"/>
      <line class="cls-2" x1="38.47" y1="83" x2="31.54" y2="66.81"/>
      <line class="cls-2" x1="18.81" y1="66.81" x2="31.54" y2="66.81"/>
      <line class="cls-2" x1="11.88" y1="40.21" x2="11.88" y2="61.03"/>
      <line class="cls-3" x1="18.24" y1="56.4" x2="7.83" y2="56.4"/>
      <line class="cls-2" x1="25.75" y1="57.56" x2="35.01" y2="57.56"/>
      <line class="cls-2" x1="45.41" y1="80.69" x2="38.47" y2="59.87"/>
      <line class="cls-2" x1="25.75" y1="51.77" x2="25.75" y2="57.56"/>
      <line class="cls-2" x1="21.72" y1="46.16" x2="29.8" y2="51.77"/>
      <line class="cls-2" x1="40.79" y1="44.84" x2="31.54" y2="44.84"/>
      <line class="cls-2" x1="24.6" y1="37.9" x2="31.54" y2="44.84"/>
      <line class="cls-3" x1="19.39" y1="82.42" x2="21.99" y2="84.73"/>
      <line class="cls-3" x1="28.07" y1="84.73" x2="22.28" y2="84.73"/>
      <line class="cls-3" x1="19.39" y1="82.42" x2="16.79" y2="84.73"/>
      <line class="cls-3" x1="10.72" y1="84.73" x2="16.5" y2="84.73"/>
      <path class="cls-3" d="M7.25,62.18c0,5.75,4.14,10.41,9.25,10.41"/>
      <path class="cls-2" d="M11.88,61c0,3.2,3.1,5.78,6.94,5.78"/>
      <path class="cls-2" d="M38.47,59.87C38,58,36.92,57.56,35,57.56"/>
      <path class="cls-3" d="M20.55,59.87c0-1.92-1-3.47-2.31-3.47"/>
      <path class="cls-2" d="M11.88,40.21c0-5.78,8.1-8.1,12.72-2.31"/>
      <path class="cls-2" d="M40.79,44.84c0,5.78-2.07,6.94-4.63,6.94"/>
      <path d="M20,20.24a5.52,5.52,0,1,1-5.52,5.52A5.52,5.52,0,0,1,20,20.24m0-2a7.52,7.52,0,1,0,7.52,7.52A7.52,7.52,0,0,0,20,18.24Z"/>
      <path class="cls-2" d="M38.47,83"/>
      <path class="cls-2" d="M39.05,83"/>
      <path class="cls-2" d="M44.84,80.69"/>
      <path class="cls-2" d="M45.41,80.69c.58,2.31-4,3.47-6.94,2.31"/>
    </g>
    <g>
      <line class="cls-3" x1="92.25" y1="40.21" x2="92.25" y2="62.18"/>
      <line class="cls-3" x1="83.58" y1="72.59" x2="72.01" y2="72.59"/>
      <line class="cls-3" x1="80.11" y1="82.42" x2="80.11" y2="73.17"/>
      <line class="cls-3" x1="73.75" y1="51.77" x2="47.73" y2="51.77"/>
      <line class="cls-2" x1="61.03" y1="83" x2="67.96" y2="66.81"/>
      <line class="cls-2" x1="80.69" y1="66.81" x2="67.96" y2="66.81"/>
      <line class="cls-2" x1="87.62" y1="40.21" x2="87.62" y2="61.03"/>
      <line class="cls-3" x1="81.26" y1="56.4" x2="91.67" y2="56.4"/>
      <line class="cls-2" x1="73.75" y1="57.56" x2="64.49" y2="57.56"/>
      <line class="cls-2" x1="54.09" y1="80.69" x2="61.03" y2="59.87"/>
      <line class="cls-2" x1="73.75" y1="51.77" x2="73.75" y2="57.56"/>
      <line class="cls-2" x1="77.78" y1="46.16" x2="69.7" y2="51.77"/>
      <line class="cls-2" x1="58.71" y1="44.84" x2="67.96" y2="44.84"/>
      <line class="cls-2" x1="74.9" y1="37.9" x2="67.96" y2="44.84"/>
      <line class="cls-3" x1="80.11" y1="82.42" x2="77.51" y2="84.73"/>
      <line class="cls-3" x1="71.43" y1="84.73" x2="77.22" y2="84.73"/>
      <line class="cls-3" x1="80.11" y1="82.42" x2="82.71" y2="84.73"/>
      <line class="cls-3" x1="88.78" y1="84.73" x2="83" y2="84.73"/>
      <path class="cls-3" d="M92.25,62.18c0,5.75-4.14,10.41-9.25,10.41"/>
      <path class="cls-2" d="M87.62,61c0,3.2-3.1,5.78-6.94,5.78"/>
      <path class="cls-2" d="M61,59.87c1-1.87,1.55-2.31,3.47-2.31"/>
      <path class="cls-3" d="M79,59.87c0-1.92,1-3.47,2.31-3.47"/>
      <path class="cls-2" d="M87.62,40.21c0-5.78-8.1-8.1-12.72-2.31"/>
      <path class="cls-2" d="M58.71,44.84c0,5.78,2.07,6.94,4.63,6.94"/>
      <path d="M79.53,20.24A5.52,5.52,0,1,1,74,25.75a5.52,5.52,0,0,1,5.52-5.52m0-2A7.52,7.52,0,1,0,87,25.75a7.52,7.52,0,0,0-7.52-7.52Z"/>
      <path class="cls-2" d="M61,83"/>
      <path class="cls-2" d="M60.45,83"/>
      <path class="cls-2" d="M54.66,80.69"/>
      <path class="cls-2" d="M54.09,80.69C53.51,83,58.13,84.15,61,83"/>
    </g>
    <line class="cls-2" x1="36.74" y1="39.05" x2="36.74" y2="41.37"/>
    <line class="cls-2" x1="64.49" y1="39.05" x2="64.49" y2="41.37"/>
    <path d="M50.62,16.77a4.36,4.36,0,1,1-4.36,4.36,4.37,4.37,0,0,1,4.36-4.36m0-2A6.36,6.36,0,1,0,57,21.13a6.36,6.36,0,0,0-6.36-6.36Z"/>
    <path class="cls-3" d="M26,52"/>
    <line class="cls-2" x1="25.75" y1="51.77" x2="35.75" y2="51.77"/>
    <line class="cls-2" x1="63.75" y1="51.77" x2="73.75" y2="51.77"/>
    <g>
      <line class="cls-4" x1="37.43" y1="7.88" x2="38.49" y2="6.85"/>
      <line class="cls-4" x1="34.24" y1="10.97" x2="35.3" y2="9.94"/>
      <line class="cls-4" x1="38.49" y1="10.97" x2="37.43" y2="9.94"/>
      <line class="cls-4" x1="35.3" y1="7.88" x2="34.24" y2="6.85"/>
    </g>
    <g>
      <line class="cls-5" x1="68.38" y1="12.43" x2="68.38" y2="10.98"/>
      <line class="cls-5" x1="68.38" y1="16.81" x2="68.38" y2="15.35"/>
      <line class="cls-5" x1="71.38" y1="13.89" x2="69.88" y2="13.89"/>
      <line class="cls-5" x1="66.87" y1="13.89" x2="65.37" y2="13.89"/>
    </g>
    <g>
      <line class="cls-4" x1="71.43" y1="92.88" x2="72.49" y2="91.85"/>
      <line class="cls-4" x1="68.24" y1="95.97" x2="69.3" y2="94.94"/>
      <line class="cls-4" x1="72.49" y1="95.97" x2="71.43" y2="94.94"/>
      <line class="cls-4" x1="69.3" y1="92.88" x2="68.24" y2="91.85"/>
    </g>
    <g>
      <line class="cls-5" x1="34.38" y1="27.43" x2="34.38" y2="25.98"/>
      <line class="cls-5" x1="34.38" y1="31.81" x2="34.38" y2="30.35"/>
      <line class="cls-5" x1="37.38" y1="28.89" x2="35.88" y2="28.89"/>
      <line class="cls-5" x1="32.87" y1="28.89" x2="31.37" y2="28.89"/>
    </g>
    <g>
      <line class="cls-5" x1="34.38" y1="87.43" x2="34.38" y2="85.98"/>
      <line class="cls-5" x1="34.38" y1="91.81" x2="34.38" y2="90.35"/>
      <line class="cls-5" x1="37.38" y1="88.89" x2="35.88" y2="88.89"/>
      <line class="cls-5" x1="32.87" y1="88.89" x2="31.37" y2="88.89"/>
    </g>
  </g>
</svg>
