<svg id="Слой_1" data-name="Слой 1" xmlns="http://www.w3.org/2000/svg" viewBox="0 0 128 128"><defs><style>.cls-1,.cls-2,.cls-3,.cls-5,.cls-6,.cls-7,.cls-8{fill:none;}.cls-2,.cls-3,.cls-7{stroke:#000;}.cls-2,.cls-3,.cls-4,.cls-5,.cls-6,.cls-7,.cls-8{stroke-linecap:round;}.cls-2,.cls-3,.cls-4,.cls-5,.cls-8{stroke-linejoin:round;}.cls-2,.cls-4,.cls-5{stroke-width:3px;}.cls-3,.cls-6,.cls-7,.cls-8{stroke-width:2px;}.cls-4{fill:#fff;}.cls-4,.cls-5,.cls-6,.cls-8{stroke:#fc592a;}.cls-6,.cls-7{stroke-miterlimit:10;}</style></defs><title>icon-8</title><rect class="cls-1" width="128" height="128"/><path class="cls-2" d="M102.8352,33.28v74.4592h-32.32V78.5212l1.2016-2.80244c-3.08049-12.45936-1.19036-28.53855-1.2016-38.35188V33.28Z"/><rect class="cls-2" x="75.3786" y="28.8896" width="22.0288" height="4.4032"/><line class="cls-2" x1="86.393" y1="18.0608" x2="86.393" y2="28.3392"/><line class="cls-2" x1="109.44" y1="107.7392" x2="24.2432" y2="107.7392"/><line class="cls-3" x1="76.8442" y1="40.64" x2="95.9418" y2="40.64"/><line class="cls-3" x1="76.8442" y1="46.5152" x2="95.9418" y2="46.5152"/><line class="cls-3" x1="78.3162" y1="52.3904" x2="95.9418" y2="52.3904"/><line class="cls-3" x1="78.3162" y1="58.2656" x2="95.9418" y2="58.2656"/><line class="cls-3" x1="78.0218" y1="64.1408" x2="95.9418" y2="64.1408"/><line class="cls-3" x1="76.8442" y1="70.016" x2="95.9418" y2="70.016"/><line class="cls-3" x1="76.8442" y1="75.8912" x2="95.9418" y2="75.8912"/><line class="cls-3" x1="76.8442" y1="81.7664" x2="95.9418" y2="81.7664"/><line class="cls-3" x1="76.8442" y1="87.6416" x2="95.9418" y2="87.6416"/><line class="cls-3" x1="76.8442" y1="93.5168" x2="95.9418" y2="93.5168"/><line class="cls-3" x1="76.8442" y1="99.392" x2="95.9418" y2="99.392"/><path class="cls-3" d="M21.312,66.3424"/><path class="cls-4" d="M78.592,57.536a29.2608,29.2608,0,0,1-5.8752,17.6256l-2.2016,2.7648L49.216,104.5376l-23.5008-29.44A29.376,29.376,0,1,1,78.592,57.536Z"/><circle class="cls-2" cx="49.216" cy="57.536" r="19.0976"/><polygon class="cls-5" points="49.216 62.72 54.669 65.587 53.619 59.52 58.035 55.219 51.942 54.336 49.216 48.819 46.49 54.336 40.41 55.219 44.813 59.52 43.776 65.587 49.216 62.72"/><line class="cls-2" x1="49.216" y1="82.688" x2="49.216" y2="83.968"/><line class="cls-2" x1="49.216" y1="88.5632" x2="49.216" y2="89.8432"/><line class="cls-2" x1="49.216" y1="94.4384" x2="49.216" y2="95.7184"/><line class="cls-6" x1="109.2864" y1="14.6304" x2="109.2864" y2="12.7744"/><line class="cls-6" x1="109.2864" y1="20.2368" x2="109.2864" y2="18.368"/><line class="cls-6" x1="113.1264" y1="16.4992" x2="111.2064" y2="16.4992"/><line class="cls-6" x1="107.3536" y1="16.4992" x2="105.4336" y2="16.4992"/><line class="cls-6" x1="14.5664" y1="27.4304" x2="14.5664" y2="25.5744"/><line class="cls-6" x1="14.5664" y1="33.0368" x2="14.5664" y2="31.168"/><line class="cls-6" x1="18.4064" y1="29.2992" x2="16.4864" y2="29.2992"/><line class="cls-6" x1="12.6336" y1="29.2992" x2="10.7136" y2="29.2992"/><line class="cls-6" x1="93.9264" y1="114.4704" x2="93.9264" y2="112.6144"/><line class="cls-6" x1="93.9264" y1="120.0768" x2="93.9264" y2="118.208"/><line class="cls-6" x1="97.7664" y1="116.3392" x2="95.8464" y2="116.3392"/><line class="cls-6" x1="91.9936" y1="116.3392" x2="90.0736" y2="116.3392"/><line class="cls-7" x1="19.7504" y1="93.2864" x2="21.1072" y2="91.968"/><line class="cls-7" x1="15.6672" y1="97.2416" x2="17.024" y2="95.9232"/><line class="cls-7" x1="21.1072" y1="97.2416" x2="19.7504" y2="95.9232"/><line class="cls-7" x1="17.024" y1="93.2864" x2="15.6672" y2="91.968"/><line class="cls-7" x1="59.4304" y1="10.0864" x2="60.7872" y2="8.768"/><line class="cls-7" x1="55.3472" y1="14.0416" x2="56.704" y2="12.7232"/><line class="cls-7" x1="60.7872" y1="14.0416" x2="59.4304" y2="12.7232"/><line class="cls-7" x1="56.704" y1="10.0864" x2="55.3472" y2="8.768"/><path class="cls-8" d="M24.68,57.96A24.32,24.32,0,0,1,49,33.64"/></svg>