<svg id="Слой_1" data-name="Слой 1" xmlns="http://www.w3.org/2000/svg" viewBox="0 0 100 100">
  <defs>
    <style>
      .cls-1, .cls-3, .cls-4, .cls-5, .cls-6, .cls-7 {
        fill: none;
      }

      .cls-1, .cls-5 {
        stroke: #ff4132;
      }

      .cls-1, .cls-5, .cls-6 {
        stroke-miterlimit: 10;
      }

      .cls-1 {
        stroke-width: 1.25px;
      }

      .cls-2 {
        fill: #fc592a;
      }

      .cls-3, .cls-4 {
        stroke: #fc592a;
        stroke-linejoin: round;
      }

      .cls-3, .cls-4, .cls-5, .cls-6 {
        stroke-linecap: round;
      }

      .cls-4 {
        stroke-width: 2px;
      }

      .cls-6 {
        stroke: #000;
      }
    </style>
  </defs>
  <title>icon-1</title>
  <g>
    <path class="cls-1" d="M40.69,39.48"/>
    <path d="M43.06,28.23a1.41,1.41,0,0,1,1.24.8l4.26,8.26a.87.87,0,0,0,.78.5.88.88,0,0,0,.79-.51L54.37,29a1.32,1.32,0,0,1,1.17-.75,1.25,1.25,0,0,1,.67.2,26.88,26.88,0,0,1,8.74,8.74,20.25,20.25,0,0,1,2.84,9.44H30.9a21,21,0,0,1,2.84-9.44,26.61,26.61,0,0,1,8.64-8.81,1.33,1.33,0,0,1,.68-.19m0-2a3.34,3.34,0,0,0-1.7.47A28.66,28.66,0,0,0,32,36.2,23,23,0,0,0,28.9,46.64a2,2,0,0,0,2,2H67.78a2,2,0,0,0,2-2A22.23,22.23,0,0,0,66.65,36.2a28.72,28.72,0,0,0-9.39-9.4,3.25,3.25,0,0,0-1.73-.5,3.32,3.32,0,0,0-2.95,1.84l-2.58,5-.67,1.3-3.26-6.32a3.41,3.41,0,0,0-3-1.89Z"/>
    <path d="M55.62,28.23a1.33,1.33,0,0,1,.68.19,26.61,26.61,0,0,1,8.64,8.81,21,21,0,0,1,2.84,9.44H30.9a20.25,20.25,0,0,1,2.84-9.44,26.88,26.88,0,0,1,8.74-8.74,1.25,1.25,0,0,1,.67-.2,1.32,1.32,0,0,1,1.17.75l4.25,8.24a.88.88,0,0,0,.79.51.87.87,0,0,0,.78-.5L54.37,29a1.41,1.41,0,0,1,1.24-.8m0-2h0a3.41,3.41,0,0,0-3,1.89l-3.26,6.32-.79-1.52-2.46-4.78a3.32,3.32,0,0,0-2.95-1.84,3.25,3.25,0,0,0-1.73.5A28.72,28.72,0,0,0,32,36.2,22.23,22.23,0,0,0,28.9,46.67a2,2,0,0,0,2,2H67.78a2,2,0,0,0,2-2A23,23,0,0,0,66.65,36.2a28.66,28.66,0,0,0-9.34-9.51,3.34,3.34,0,0,0-1.7-.47Z"/>
    <path class="cls-2" d="M81.44,48.67V58H18.78V48.67H81.44m1-2H17.79a1,1,0,0,0-1,1V59a1,1,0,0,0,1,1H82.43a1,1,0,0,0,1-1V47.68a1,1,0,0,0-1-1Z"/>
    <path class="cls-2" d="M77.3,60V91.56H22.92V60H77.3m1-2H21.92a1,1,0,0,0-1,1V92.56a1,1,0,0,0,1,1H78.3a1,1,0,0,0,1-1V59a1,1,0,0,0-1-1Z"/>
    <path d="M49.34,6.4A8.56,8.56,0,1,1,40.78,15,8.57,8.57,0,0,1,49.34,6.4m0-2A10.56,10.56,0,1,0,59.89,15,10.56,10.56,0,0,0,49.34,4.4Z"/>
    <path class="cls-2" d="M59.22,36.44v.44H56.56v-.44h2.67m1-2H55.56a1,1,0,0,0-1,1v2.44a1,1,0,0,0,1,1h4.67a1,1,0,0,0,1-1V35.44a1,1,0,0,0-1-1Z"/>
    <line class="cls-3" x1="24.92" y1="62.22" x2="28" y2="62.22"/>
    <line class="cls-3" x1="30.77" y1="62.22" x2="36.92" y2="62.22"/>
    <line class="cls-3" x1="27.19" y1="65" x2="33.33" y2="65"/>
    <line class="cls-3" x1="36.41" y1="65" x2="39.48" y2="65"/>
    <line class="cls-3" x1="39.89" y1="62.22" x2="40.11" y2="62.22"/>
    <line class="cls-3" x1="74.83" y1="80.7" x2="74.83" y2="74.56"/>
    <line class="cls-3" x1="65.61" y1="80.7" x2="74.83" y2="80.7"/>
    <line class="cls-3" x1="71.76" y1="77.63" x2="68.69" y2="77.63"/>
    <line class="cls-4" x1="22.11" y1="84.44" x2="78.11" y2="84.44"/>
    <g>
      <line class="cls-5" x1="90.63" y1="77.12" x2="90.63" y2="75.58"/>
      <line class="cls-5" x1="90.63" y1="81.73" x2="90.63" y2="80.19"/>
      <line class="cls-5" x1="93.7" y1="78.66" x2="92.17" y2="78.66"/>
      <line class="cls-5" x1="89.09" y1="78.66" x2="87.56" y2="78.66"/>
    </g>
    <g>
      <line class="cls-5" x1="9.2" y1="38.71" x2="9.2" y2="37.17"/>
      <line class="cls-5" x1="9.2" y1="43.32" x2="9.2" y2="41.78"/>
      <line class="cls-5" x1="12.27" y1="40.24" x2="10.73" y2="40.24"/>
      <line class="cls-5" x1="7.66" y1="40.24" x2="6.12" y2="40.24"/>
    </g>
    <g>
      <line class="cls-5" x1="29.17" y1="4.48" x2="29.17" y2="2.94"/>
      <line class="cls-5" x1="29.17" y1="9.09" x2="29.17" y2="7.55"/>
      <line class="cls-5" x1="32.24" y1="6.02" x2="30.71" y2="6.02"/>
      <line class="cls-5" x1="27.63" y1="6.02" x2="26.1" y2="6.02"/>
    </g>
    <g>
      <line class="cls-6" x1="15.32" y1="93.36" x2="16.4" y2="92.27"/>
      <line class="cls-6" x1="12.06" y1="96.62" x2="13.14" y2="95.53"/>
      <line class="cls-6" x1="16.4" y1="96.62" x2="15.32" y2="95.53"/>
      <line class="cls-6" x1="13.14" y1="93.36" x2="12.06" y2="92.27"/>
    </g>
    <g>
      <line class="cls-6" x1="89.92" y1="25.33" x2="91" y2="24.24"/>
      <line class="cls-6" x1="86.66" y1="28.59" x2="87.75" y2="27.5"/>
      <line class="cls-6" x1="91" y1="28.59" x2="89.92" y2="27.5"/>
      <line class="cls-6" x1="87.75" y1="25.33" x2="86.66" y2="24.24"/>
    </g>
    <rect class="cls-7" width="100" height="100"/>
  </g>
</svg>
