<svg xmlns="http://www.w3.org/2000/svg" viewBox="0 0 400 400"><defs><style>.cls-1{fill:none;}.cls-2{fill:#2b3e52;}.cls-3{fill:#355468;}.cls-4{fill:#465f70;}.cls-5{fill:#253749;}.cls-6{fill:#bc153f;}.cls-7{fill:#e62852;}</style></defs><title>impact</title><g id="Layer_2" data-name="Layer 2"><g id="Layer_1-2" data-name="Layer 1"><rect class="cls-1" width="400" height="400"/><path class="cls-2" d="M279.3159,137.18045a13.74072,13.74072,0,0,0-.3935-4.5156l-.0859-.2945c6.3613-6.3994,9.2626-11.5756,7.663-14.7094-1.374-2.6909-5.914-3.5752-12.8095-2.8867l-.002.0043a120.41615,120.41615,0,0,0-22.71579,5.189l3.94729,3.3101c.51271.4301.3964.9013-.2559,1.0468l-6.64939,1.4805a2.59742,2.59742,0,0,0-1.64361,1.3941l-2.5498,6.3164c-.2519.6206-.7343.6572-1.0752.0805l-3.4629-5.8667a2.60093,2.60093,0,0,0-1.8339-1.1328l-6.7959-.4726c-.667-.0469-.8506-.4952-.4073-.9976l4.5088-5.1055a2.59818,2.59818,0,0,0,.51081-2.0937l-1.65041-6.6094c-.1612-.6499.208-.9634.8222-.6968l6.25,2.71a2.599,2.599,0,0,0,2.1485-.1607l5.7763-3.6123c.56841-.3544.9795-.0991.917.5674l-.5263,5.5044c2.71971-1.2578,7.13471-3.2075,13.539-5.7749.4024-.1611,1.2295-.4912,1.2295-.4912,7.5156-2.8218,11.9727-9.9785,6.8594-15.5796l-19.9727-19.7153a9.047,9.047,0,0,0-3.6464-2.5117l-22.1622-7.1202c-1.21089-.3886-3.2187-.9252-4.46089-1.1928l-22.043-4.7373a14.72369,14.72369,0,0,0-4.54291-.1148l-30.542,4.9668a10.16221,10.16221,0,0,0-4.0674,1.8394l-25.8398,21.2431a9.71565,9.71565,0,0,0-2.545,3.6519l-2.2754,6.5498a26.96548,26.96548,0,0,1-1.9482,4.166l-9.0049,15.0147a19.73648,19.73648,0,0,0-1.7851,4.2158l-2.6045,9.7637a13.35181,13.35181,0,0,0-.2559,4.5205l1.3584,9.1157a15.76917,15.76917,0,0,1-.1201,4.5517l-1.11819,5.504c-.25291,1.246-3.29491,15.1098,11.02829,9.4013,0,0,.6055-.2637.9092-.396,15.2354-6.6225,33.10651-13.6675,47.7207-19.2573l-.48919-1.0669a.66817.66817,0,0,1,.32909-.8857l2.83-1.2969-2-6.5313a.66935.66935,0,0,1,.3614-.8042l2.4287-1.1137c2.5781-1.1817,6.1924-.8018,10.375-.3618l.0342.0024c5.2881.5561,11.2763,1.1787,16.8759-1.1187a.68043.68043,0,0,1,.1006-.0307c4.9034-2.0518,9.2715-1.9126,10.32911.396,1.05859,2.3105-1.68651,5.7095-6.44331,8.084a.63464.63464,0,0,1-.0879.0556c-5.3965,2.7417-8.835,7.6861-11.8653,12.0552l-.02049.0264c-2.39741,3.456-4.46871,6.4404-7.04681,7.622l-2.4297,1.1143a.66894.66894,0,0,1-.8447-.2515l-3.6407-5.7788-2.83009,1.2969a.67.67,0,0,1-.88671-.3291l-.5986-1.3052c-20.5459,11.5869-37.415,23.2534-47.7158,32.7251l-.003-.001c-8.3564,7.6812-12.3916,13.9185-10.5644,17.4952,2.0312,3.9785,10.9863,4.0078,24.2519.8359l3.2413,4.791a7.985,7.985,0,0,0,3.4892,2.6465l35.459,11.8184a11.74555,11.74555,0,0,0,4.4824.4121l32.4219-4.5391a14.1494,14.1494,0,0,0,4.2871-1.4844l11.5244-6.707a15.87486,15.87486,0,0,1,4.2735-1.5762l11.1357-2.0273a5.29582,5.29582,0,0,0,3.33011-2.4688l8.50779-16.5825a20.74527,20.74527,0,0,1,2.61621-3.7612l10.08109-11.0078a5.83785,5.83785,0,0,0,1.3105-4.003l-1.5381-14.1162a25.25886,25.25886,0,0,1,.0059-4.5957Zm-40.0205-29.3584,1.0577-1.1963a.61089.61089,0,0,0,.11911-.4907l-.38571-1.5483c-.0391-.1519.0488-.2256.1923-.1631l1.4639.6347a.60651.60651,0,0,0,.5029-.0376l1.3535-.8457c.1329-.0835.2286-.0239.2139.1324l-.1514,1.5888a.61342.61342,0,0,0,.1915.4668l1.2236,1.0259c.1201.1001.0928.2109-.06149.2451l-1.55671.3462a.61331.61331,0,0,0-.3847.3267l-.5967,1.4799c-.0596.1456-.17289.1534-.253.0191l-.8115-1.3745a.60781.60781,0,0,0-.4287-.2656l-1.5918-.1104C239.2349,108.04425,239.1919,107.93875,239.2954,107.82205Zm-113.9873,93.895c-1.123-2.1987,1.794-6.2827,7.7832-11.5654l2.2295,2.7178c.8067.9824,2.0498,2.6484,2.7627,3.7016l3.4375,5.0816C132.4273,203.93975,126.5376,204.12525,125.3081,201.71705Zm103.9844-83.6875-1.0254-.0713c-.1015-.0073-.12889-.0752-.0615-.1508l.68161-.7715a.39418.39418,0,0,0,.07519-.3164l-.248-.9981c-.0254-.0981.0312-.1455.124-.1055l.9434.4092a.39452.39452,0,0,0,.3252-.0239l.872-.5454c.086-.0537.1475-.0156.1387.0854l-.0977,1.024a.39185.39185,0,0,0,.1241.3017l.78811.6607c.07709.0649.06049.1362-.03911.1587l-1.00489.2231a.3926.3926,0,0,0-.24711.2109l-.3857.9541c-.0381.0938-.1113.0992-.1621.0123l-.5235-.8863A.38765.38765,0,0,0,229.2925,118.02955Zm8.9541,16.2866-1.5566.3472a.615.615,0,0,0-.38579.3267l-.59571,1.4795c-.0595.1455-.1738.1543-.2529.0185l-.8115-1.374a.609.609,0,0,0-.4297-.2651l-1.5908-.1109c-.1573-.0107-.2002-.1157-.0967-.2339l1.0566-1.1958a.60973.60973,0,0,0,.1201-.4902l-.3867-1.5483c-.0381-.1524.0488-.2261.1934-.1631l1.4638.6347a.60863.60863,0,0,0,.503-.0376l1.3535-.8462c.1318-.083.2285-.0234.2139.1333l-.1514,1.5875a.61148.61148,0,0,0,.1914.4677l1.22271,1.0249C238.4273,134.17265,238.4009,134.28205,238.2466,134.31615Zm14.3828-2.978-1.0039.2236a.39182.39182,0,0,0-.248.2105l-.3868.9536c-.0371.0942-.1103.0996-.1611.0127l-.52439-.8862a.38546.38546,0,0,0-.27541-.1709l-1.0273-.0723c-.1006-.0063-.128-.0747-.0616-.1504l.6817-.7715a.3934.3934,0,0,0,.0771-.3159l-.25-.9985c-.0234-.0977.0313-.1455.1231-.105l.9453.4097a.3947.3947,0,0,0,.3252-.0244l.8721-.5455c.0859-.0542.1484-.0156.1386.0855l-.0986,1.0239a.39651.39651,0,0,0,.124.3013l.7891.6616C252.7456,131.24445,252.7281,131.31575,252.6294,131.33815Zm22.6641-11.0762c3.3672-.1943,5.5303.3379,6.21971,1.689.81249,1.5923-.48631,4.1704-3.53811,7.4775Z"/><path class="cls-3" d="M274.30321,159.89775l-.70991-16.086a35.84754,35.84754,0,0,0-.5606-4.5751l-2.6533-13.1021a19.36256,19.36256,0,0,0-1.5381-4.311l-3.0478-5.7915c-1.3008.27-2.6592.5796-4.0586.9204a4.54284,4.54284,0,0,1-2.2451-5.8599c.9638-.3955,1.9765-.8071,3.0517-1.2383l-3.77829-7.1738c-.59181-1.1255-1.65921-2.9077-2.37111-3.9609l-9.543-14.1114a11.1533,11.1533,0,0,0-3.33-3.0107l-20.3018-10.9238a10.90872,10.90872,0,0,0-4.3467-1.0952H185.7847a15.56173,15.56173,0,0,0-4.48049.7988L156.1665,79.637a16.501,16.501,0,0,0-3.958,2.2637l-17.2656,14.1416a9.034,9.034,0,0,0-2.47069,3.6734l-5.93261,19.2182c-.375,1.2149-.9356,3.2178-1.2442,4.4512l-3.24119,12.9297a15.516,15.516,0,0,0-.31151,4.5405l1.9453,17.8306a11.28416,11.28416,0,0,0,1.3037,3.8144c15.2354-6.6225,33.10651-13.6675,47.7207-19.2573l-.48919-1.0669a.66874.66874,0,0,1,.32909-.8862l2.83-1.2964-2-6.5317a.66925.66925,0,0,1,.3614-.8042l2.4287-1.1133c2.5781-1.1822,6.1924-.8023,10.375-.3623l.0342.0029c5.2881.5561,11.2763,1.1787,16.8759-1.1187a.74847.74847,0,0,1,.1006-.0312c4.9034-2.0518,9.2715-1.9121,10.32911.3965,1.05859,2.3105-1.68651,5.7095-6.44331,8.084a.63464.63464,0,0,1-.0879.0556c-5.3965,2.7412-8.835,7.6861-11.8653,12.0552l-.02049.0259c-2.39741,3.4565-4.46871,6.4409-7.04681,7.6225l-2.4297,1.1143a.66894.66894,0,0,1-.8447-.2515l-3.6407-5.7788-2.83009,1.2964a.66972.66972,0,0,1-.88671-.3286l-.5986-1.3071c-16.3398,9.2138-30.3516,18.4795-40.585,26.6499l2.3448,3.4594a37.7106,37.7106,0,0,1,2.2968,3.9981l5.9639,12.4443a5.97714,5.97714,0,0,0,3.21481,2.7456l12.33309,3.6758a13.626,13.626,0,0,1,4,2.1328l6.33391,5.2207a7.87579,7.87579,0,0,0,4.09479,1.5352l10.0927.2734c1.27051.0332,3.3496.1153,4.6202.1778l11.6884.5839a15.98454,15.98454,0,0,0,4.5215-.5527l13.10841-3.9629a12.14326,12.14326,0,0,0,3.92189-2.2265l7.418-6.754a6.87232,6.87232,0,0,1,4.0214-1.5444l10.8575.0576a3.80432,3.80432,0,0,0,3.2304-2.1093l4.4102-10.189a11.47758,11.47758,0,0,1,2.6982-3.5972l9.753-8.0849a10.49334,10.49334,0,0,0,2.6093-3.6329l3.4366-8.9545A13.27184,13.27184,0,0,0,274.30321,159.89775Zm-35.00781-52.0757,1.0577-1.1963a.61089.61089,0,0,0,.11911-.4907l-.38571-1.5483c-.0391-.1519.0488-.2256.1923-.1631l1.4639.6347a.60651.60651,0,0,0,.5029-.0376l1.3535-.8457c.1329-.0835.2286-.0239.2139.1324l-.1514,1.5888a.61342.61342,0,0,0,.1915.4668l1.2236,1.0259c.1201.1001.0928.2109-.06149.2451l-1.55671.3462a.61331.61331,0,0,0-.3847.3267l-.5967,1.4799c-.0596.1456-.17289.1534-.253.0191l-.8115-1.3745a.60781.60781,0,0,0-.4287-.2656l-1.5918-.1104C239.2349,108.04425,239.1919,107.93875,239.2954,107.82205Zm-10.0029,10.2075-1.0254-.0713c-.1015-.0073-.12889-.0752-.0615-.1508l.68161-.7715a.39418.39418,0,0,0,.07519-.3164l-.248-.9981c-.0254-.0981.0312-.1455.124-.1055l.9434.4092a.39452.39452,0,0,0,.3252-.0239l.872-.5454c.086-.0537.1475-.0156.1387.0854l-.0977,1.024a.39185.39185,0,0,0,.1241.3017l.78811.6607c.07709.0649.06049.1362-.03911.1587l-1.00489.2231a.3926.3926,0,0,0-.24711.2109l-.3857.9541c-.0381.0938-.1113.0992-.1621.0123l-.5235-.8863A.38765.38765,0,0,0,229.2925,118.02955Zm8.9541,16.2866-1.5566.3472a.615.615,0,0,0-.38579.3267l-.59571,1.4795c-.0595.1455-.1738.1543-.2529.0185l-.8115-1.374a.609.609,0,0,0-.4297-.2651l-1.5908-.1109c-.1573-.0107-.2002-.1157-.0967-.2339l1.0566-1.1958a.60973.60973,0,0,0,.1201-.4902l-.3867-1.5483c-.0381-.1524.0488-.2261.1934-.1631l1.4638.6347a.60863.60863,0,0,0,.503-.0376l1.3535-.8462c.1318-.083.2285-.0234.2139.1333l-.1514,1.5875a.61148.61148,0,0,0,.1914.4677l1.22271,1.0249C238.4273,134.17265,238.4009,134.28205,238.2466,134.31615Zm14.3828-2.978-1.0039.2236a.39182.39182,0,0,0-.248.2105l-.3868.9536c-.0371.0942-.1103.0996-.1611.0127l-.52439-.8862a.38546.38546,0,0,0-.27541-.1709l-1.0273-.0723c-.1006-.0063-.128-.0747-.0616-.1504l.6817-.7715a.3934.3934,0,0,0,.0771-.3159l-.25-.9985c-.0234-.0977.0313-.1455.1231-.105l.9453.4097a.3947.3947,0,0,0,.3252-.0244l.8721-.5455c.0859-.0542.1484-.0156.1386.0855l-.0986,1.0239a.39651.39651,0,0,0,.124.3013l.7891.6616C252.7456,131.24445,252.7281,131.31575,252.6294,131.33815Zm-1.65619-11.3696,3.94629,3.3091c.51271.4301.3964.9013-.2559,1.0468l-6.64939,1.4805a2.59742,2.59742,0,0,0-1.64361,1.3941l-2.5498,6.3164c-.2519.6206-.7343.6572-1.0752.0805l-3.4629-5.8667a2.60093,2.60093,0,0,0-1.8339-1.1328l-6.7959-.4726c-.667-.0469-.8506-.4952-.4073-.9976l4.5088-5.1055a2.59818,2.59818,0,0,0,.51081-2.0937l-1.65041-6.6094c-.1612-.6499.208-.9634.8222-.6968l6.25,2.71a2.599,2.599,0,0,0,2.1485-.1607l5.7763-3.6123c.56841-.3544.9795-.0991.917.5674l-.5263,5.5044c1.9658-.9082,4.8193-2.1802,8.664-3.7832a4.58184,4.58184,0,0,0,2.169,5.5825Q255.6475,118.51,250.97321,119.96855Z"/><path class="cls-4" d="M270.6255,164.74055l-.5849-12.9786a28.2717,28.2717,0,0,0-.462-3.6904l-2.1855-10.5698a15.43679,15.43679,0,0,0-1.2647-3.478l-8.2998-15.4444c-.0879-.1635-.1923-.3481-.3017-.5395q-3.1494.8628-6.55369,1.9287l3.94629,3.3091c.51271.4301.3964.9013-.2559,1.0468l-6.64939,1.4805a2.59742,2.59742,0,0,0-1.64361,1.3941l-2.5498,6.3164c-.2519.6206-.7343.6572-1.0752.0805l-3.4629-5.8667a2.60093,2.60093,0,0,0-1.8339-1.1328l-6.7959-.4726c-.667-.0469-.8506-.4952-.4073-.9976l4.5088-5.1055a2.59818,2.59818,0,0,0,.51081-2.0937l-1.65041-6.6094c-.1612-.6499.208-.9634.8222-.6968l6.25,2.71a2.599,2.599,0,0,0,2.1485-.1607l5.7763-3.6123c.56841-.3544.9795-.0991.917.5674l-.5263,5.5044c1.3603-.6289,3.1416-1.4292,5.38671-2.396l-6.37311-9.2339a9.13542,9.13542,0,0,0-2.7421-2.4292l-16.72079-8.812a9.12552,9.12552,0,0,0-3.57911-.8838h-27.248a13.05754,13.05754,0,0,0-3.6904.6446l-20.7012,7.4697a13.67358,13.67358,0,0,0-3.2598,1.8271L155.856,113.224a7.29358,7.29358,0,0,0-2.0352,2.9643l-4.8857,15.5034c-.3086.9805-.7695,2.5962-1.0244,3.5913l-2.669,10.4312a12.24661,12.24661,0,0,0-.2568,3.6626l.5078,4.5537c9.4043-3.8057,18.8447-7.4854,27.2197-10.6885l-.48919-1.0659a.66874.66874,0,0,1,.32909-.8862l2.83-1.2964-2-6.5317a.66925.66925,0,0,1,.3614-.8042l2.4287-1.1133c2.5781-1.1822,6.1924-.8023,10.375-.3623l.0342.0029c5.2881.5561,11.2763,1.1787,16.8759-1.1187a.74847.74847,0,0,1,.1006-.0312c4.9034-2.0518,9.2715-1.9121,10.32911.3965,1.05859,2.3105-1.68651,5.7095-6.44331,8.084a.63464.63464,0,0,1-.0879.0556c-5.3965,2.7412-8.835,7.6861-11.8653,12.0552l-.02049.0259c-2.39741,3.4565-4.46871,6.4409-7.04681,7.6225l-2.4297,1.1143a.66894.66894,0,0,1-.8447-.2515l-3.6407-5.7788-2.83009,1.2964a.66972.66972,0,0,1-.88671-.3286l-.5976-1.3042c-10.14069,5.7187-19.39069,11.4565-27.3916,16.9409l9.3554,13.5181a30.01324,30.01324,0,0,1,1.8916,3.2256l4.9122,10.039a4.90994,4.90994,0,0,0,2.6474,2.2159l10.1572,2.9663a11.32777,11.32777,0,0,1,3.294,1.7187l5.2158,4.2129a6.57769,6.57769,0,0,0,3.3721,1.2383l8.3125.2207c1.0459.0273,2.7578.0918,3.80471.1426l9.62589.4726a13.45871,13.45871,0,0,0,3.7246-.4472l10.795-3.1973a10.06953,10.06953,0,0,0,3.22951-1.7949l6.10929-5.4497a5.72011,5.72011,0,0,1,3.3106-1.2461l8.9414.0468a3.13243,3.13243,0,0,0,2.6601-1.7026l3.6329-8.2187a9.26854,9.26854,0,0,1,2.2226-2.9019l8.0313-6.523a8.44257,8.44257,0,0,0,2.1484-2.9311l2.8301-7.2246A10.48988,10.48988,0,0,0,270.6255,164.74055Zm-31.3301-56.9185,1.0577-1.1963a.61089.61089,0,0,0,.11911-.4907l-.38571-1.5483c-.0391-.1519.0488-.2256.1923-.1631l1.4639.6347a.60651.60651,0,0,0,.5029-.0376l1.3535-.8457c.1329-.0835.2286-.0239.2139.1324l-.1514,1.5888a.61342.61342,0,0,0,.1915.4668l1.2236,1.0259c.1201.1001.0928.2109-.06149.2451l-1.55671.3462a.61331.61331,0,0,0-.3847.3267l-.5967,1.4799c-.0596.1456-.17289.1534-.253.0191l-.8115-1.3745a.60781.60781,0,0,0-.4287-.2656l-1.5918-.1104C239.2349,108.04425,239.1919,107.93875,239.2954,107.82205Zm-10.0029,10.2075-1.0254-.0713c-.1015-.0073-.12889-.0752-.0615-.1508l.68161-.7715a.39418.39418,0,0,0,.07519-.3164l-.248-.9981c-.0254-.0981.0312-.1455.124-.1055l.9434.4092a.39452.39452,0,0,0,.3252-.0239l.872-.5454c.086-.0537.1475-.0156.1387.0854l-.0977,1.024a.39185.39185,0,0,0,.1241.3017l.78811.6607c.07709.0649.06049.1362-.03911.1587l-1.00489.2231a.3926.3926,0,0,0-.24711.2109l-.3857.9541c-.0381.0938-.1113.0992-.1621.0123l-.5235-.8863A.38765.38765,0,0,0,229.2925,118.02955Zm8.9541,16.2866-1.5566.3472a.615.615,0,0,0-.38579.3267l-.59571,1.4795c-.0595.1455-.1738.1543-.2529.0185l-.8115-1.374a.609.609,0,0,0-.4297-.2651l-1.5908-.1109c-.1573-.0107-.2002-.1157-.0967-.2339l1.0566-1.1958a.60973.60973,0,0,0,.1201-.4902l-.3867-1.5483c-.0381-.1524.0488-.2261.1934-.1631l1.4638.6347a.60863.60863,0,0,0,.503-.0376l1.3535-.8462c.1318-.083.2285-.0234.2139.1333l-.1514,1.5875a.61148.61148,0,0,0,.1914.4677l1.22271,1.0249C238.4273,134.17265,238.4009,134.28205,238.2466,134.31615Zm14.3828-2.978-1.0039.2236a.39182.39182,0,0,0-.248.2105l-.3868.9536c-.0371.0942-.1103.0996-.1611.0127l-.52439-.8862a.38546.38546,0,0,0-.27541-.1709l-1.0273-.0723c-.1006-.0063-.128-.0747-.0616-.1504l.6817-.7715a.3934.3934,0,0,0,.0771-.3159l-.25-.9985c-.0234-.0977.0313-.1455.1231-.105l.9453.4097a.3947.3947,0,0,0,.3252-.0244l.8721-.5455c.0859-.0542.1484-.0156.1386.0855l-.0986,1.0239a.39651.39651,0,0,0,.124.3013l.7891.6616C252.7456,131.24445,252.7281,131.31575,252.6294,131.33815Z"/><path class="cls-4" d="M205.9019,136.54475l.6582-.3008a.39926.39926,0,0,0,.209-.2486,3.2344,3.2344,0,0,0-1.7432-3.8037.40127.40127,0,0,0-.3252-.0024l-.6562.2998a.41165.41165,0,0,0-.2198.5923l1.4864,3.2427A.41132.41132,0,0,0,205.9019,136.54475Z"/><polygon class="cls-2" points="184.526 194.827 188.364 199.377 190.073 199.948 193.061 201.698 195.29 202.258 197.809 202.227 198.995 202.217 199.701 199.1 203.15 199.948 205.03 198.369 207.535 196.637 209.536 190.387 208.661 184.614 205.304 183.021 205.27 180.204 201.219 176.102 195.437 176.17 189.383 178.014 185.705 181.015 184.42 185.183 184.472 189.338 184.526 194.827"/><polygon class="cls-5" points="186.698 195.66 189.779 198.836 191.076 199.17 193.382 200.315 195.063 200.616 196.931 200.461 197.809 200.393 198.171 198.045 200.774 198.494 202.086 197.227 203.855 195.813 205.015 191.074 204.067 186.838 201.497 185.83 201.326 183.743 198.109 180.911 193.824 181.26 189.43 182.941 186.858 185.356 186.121 188.514 186.374 191.593 186.698 195.66"/><polygon class="cls-2" points="149.764 98.016 146.665 98.423 145.922 99.02 144.305 99.844 143.421 100.67 142.717 101.795 142.392 102.326 143.575 103.52 142.218 104.804 142.384 106.087 142.44 107.686 144.641 110.341 147.44 111.591 149.099 110.554 150.353 111.338 153.32 110.709 154.932 108.13 155.831 104.931 155.536 102.449 154.056 100.7 152.212 99.547 149.764 98.016"/><polygon class="cls-2" points="200.351 104.803 197.252 105.211 196.51 105.808 194.892 106.631 194.008 107.458 193.304 108.582 192.979 109.114 194.161 110.308 192.805 111.592 192.972 112.875 193.027 114.474 195.228 117.129 198.027 118.379 199.687 117.342 200.94 118.126 203.907 117.497 205.519 114.917 206.417 111.719 206.123 109.237 204.643 107.488 202.798 106.335 200.351 104.803"/><polygon class="cls-5" points="148.722 99.978 146.407 100.283 145.853 100.728 144.645 101.344 143.985 101.961 143.459 102.801 143.216 103.198 144.099 104.09 143.087 105.049 143.211 106.008 143.252 107.202 144.896 109.185 146.987 110.118 148.226 109.344 149.163 109.929 151.379 109.46 152.583 107.533 153.253 105.143 153.034 103.29 151.928 101.984 150.551 101.122 148.722 99.978"/><polygon class="cls-2" points="157.144 134.632 158.151 131.674 157.943 130.745 157.922 128.928 157.57 127.772 156.873 126.645 156.541 126.113 154.946 126.645 154.393 124.867 153.17 124.443 151.711 123.787 148.358 124.591 145.996 126.55 146.195 128.494 144.93 129.274 144.187 132.214 145.79 134.795 148.267 137.018 150.617 137.853 152.839 137.297 154.694 136.151 157.144 134.632"/><polygon class="cls-5" points="154.855 134.796 155.537 132.792 155.396 132.164 155.382 130.933 155.143 130.15 154.671 129.387 154.446 129.027 153.366 129.387 152.992 128.182 152.163 127.895 151.175 127.451 148.905 127.995 147.304 129.322 147.439 130.639 146.584 131.167 146.08 133.158 147.165 134.907 148.843 136.412 150.434 136.978 151.939 136.601 153.195 135.825 154.855 134.796"/><polygon class="cls-2" points="245.035 187.088 247.293 185.342 247.606 184.533 248.505 183.136 248.816 182.081 248.853 180.874 248.874 180.307 247.395 179.901 247.874 178.269 247.151 177.334 246.374 176.102 243.421 175.013 240.633 175.314 239.803 176.891 238.457 176.849 236.407 178.708 236.323 181.478 237.081 184.416 238.445 186.24 240.414 186.938 242.407 186.998 245.035 187.088"/><polygon class="cls-2" points="184.94 91.875 187.2 90.129 187.512 89.319 188.412 87.923 188.721 86.869 188.758 85.661 188.779 85.095 187.3 84.688 187.779 83.056 187.056 82.121 186.281 80.889 183.327 79.801 180.539 80.102 179.709 81.679 178.362 81.637 176.312 83.496 176.228 86.265 176.986 89.203 178.351 91.027 180.319 91.725 182.313 91.786 184.94 91.875"/><polygon class="cls-5" points="244.561 187.036 246.381 185.629 246.633 184.977 247.358 183.851 247.608 183.002 247.638 182.028 247.655 181.572 246.462 181.244 246.848 179.929 246.267 179.175 245.641 178.183 243.261 177.306 241.013 177.548 240.344 178.819 239.26 178.785 237.607 180.283 237.541 182.515 238.151 184.884 239.249 186.353 240.836 186.915 242.444 186.965 244.561 187.036"/><polygon class="cls-2" points="227.039 84.628 226.493 83.233 226.133 82.954 225.564 82.292 225.079 81.981 224.476 81.782 224.191 81.688 223.769 82.373 223.019 81.889 222.442 82.114 221.706 82.322 220.72 83.649 220.457 85.098 221.127 85.75 220.907 86.421 221.538 87.73 222.919 88.184 224.511 88.238 225.634 87.82 226.278 86.932 226.604 85.939 227.039 84.628"/><polygon class="cls-2" points="261.601 147.689 261.055 146.294 260.696 146.015 260.126 145.354 259.641 145.043 259.039 144.844 258.753 144.75 258.332 145.435 257.582 144.951 257.004 145.176 256.268 145.384 255.283 146.711 255.019 148.159 255.69 148.812 255.469 149.483 256.1 150.791 257.482 151.246 259.074 151.299 260.197 150.881 260.84 149.994 261.166 149 261.601 147.689"/><polygon class="cls-2" points="219.707 160.244 219.163 158.849 218.802 158.571 218.233 157.909 217.749 157.598 217.146 157.398 216.861 157.305 216.439 157.99 215.688 157.506 215.11 157.731 214.374 157.939 213.389 159.266 213.125 160.715 213.796 161.367 213.576 162.038 214.206 163.347 215.589 163.801 217.18 163.854 218.303 163.436 218.946 162.549 219.273 161.555 219.707 160.244"/><polygon class="cls-5" points="226.112 85.053 225.739 84.098 225.492 83.908 225.102 83.455 224.77 83.242 224.358 83.106 224.164 83.041 223.874 83.51 223.36 83.179 222.965 83.333 222.462 83.475 221.788 84.383 221.607 85.375 222.067 85.822 221.915 86.28 222.346 87.176 223.292 87.487 224.382 87.523 225.15 87.237 225.591 86.63 225.814 85.95 226.112 85.053"/><polygon class="cls-2" points="133.941 120.938 135.233 121.925 135.725 121.973 136.627 122.263 137.253 122.281 137.923 122.121 138.237 122.051 138.242 121.177 139.211 121.195 139.617 120.661 140.181 120.051 140.342 118.269 139.768 116.783 138.776 116.554 138.602 115.806 137.275 114.955 135.739 115.315 134.238 116.173 133.431 117.19 133.338 118.375 133.601 119.478 133.941 120.938"/><polygon class="cls-2" points="149.628 183.423 150.92 184.41 151.411 184.457 152.313 184.748 152.94 184.765 153.609 184.606 153.923 184.536 153.927 183.662 154.897 183.679 155.302 183.146 155.868 182.535 156.028 180.754 155.454 179.267 154.462 179.039 154.288 178.291 152.962 177.44 151.425 177.799 149.924 178.657 149.118 179.675 149.025 180.86 149.288 181.963 149.628 183.423"/><polygon class="cls-2" points="220.741 145.878 221.884 145.994 222.199 145.841 222.849 145.681 223.234 145.46 223.578 145.116 223.741 144.957 223.419 144.429 224.009 144.081 224.056 143.608 224.17 143.031 223.607 141.899 222.71 141.216 222.029 141.446 221.646 141.06 220.532 141.039 219.739 141.825 219.153 142.898 219.044 143.81 219.428 144.558 219.996 145.125 220.741 145.878"/><polygon class="cls-5" points="135.296 120.48 136.175 121.151 136.51 121.183 137.123 121.381 137.549 121.393 138.004 121.284 138.218 121.237 138.221 120.643 138.879 120.654 139.156 120.291 139.54 119.876 139.649 118.665 139.259 117.654 138.585 117.498 138.466 116.99 137.564 116.411 136.519 116.656 135.499 117.239 134.95 117.931 134.886 118.737 135.066 119.487 135.296 120.48"/><path class="cls-6" d="M115.2095,122.23225l.585-2.1929a14.37616,14.37616,0,0,1,1.4502-3.6128c-2.504-2.9785-2.9532-5.9756-2.5342-7.6548.55471-2.2192,3.4033-4.2266,8.0215-5.6528.9091-.2803,1.8906-.5366,2.9296-.7715l.9229-1.5386a26.96548,26.96548,0,0,0,1.9482-4.166l.3877-1.1167c-9.8701,1.4639-18.40519,4.7983-20.1435,11.7637C107.6255,111.90215,109.8296,116.94805,115.2095,122.23225Z"/><path class="cls-6" d="M279.0816,133.32985a14.04662,14.04662,0,0,1,.2343,3.8506l-.4336,3.8848c4.9024,4.4292,6.4483,7.9355,5.8926,10.164-.5068,2.0288-2.8769,4.4263-6.8193,5.8189l.6182,5.6714c6.1855-1.9121,10.8935-5.0347,12.1347-10.0088C292.17921,146.82205,288.1831,140.22585,279.0816,133.32985Z"/><path class="cls-6" d="M181.5083,153.35865l-2.83009,1.2964a.66972.66972,0,0,1-.88671-.3286l-1.6699-3.6455a.66709.66709,0,0,1-.0498-.2095c-52.3525-15.0386-90.7393-35.3706-90.626-48.5483-.4287,4.4018,1.9795,9.1758,7.1973,14.2168,5.0078,4.8393,12.5459,9.9214,22.4043,15.1064,17.9941,9.4629,42.1191,18.4424,68.6592,25.6016Z"/><path class="cls-6" d="M193.4663,155.138c-.3593-.0903-.7168-.1816-1.0752-.272a12.24354,12.24354,0,0,1-3.7314,3.2886q1.8999.4908,3.81151.9697C222.9136,166.72435,252.1704,170.91,274.855,170.91c10.8779,0,19.7041-.9732,26.2334-2.8921,6.80081-1.999,11.0713-5.0518,12.7373-9.0806C307.0786,171.88355,254.4917,170.37285,193.4663,155.138Z"/><path class="cls-7" d="M176.4507,149.79425l1.8223-.8345-1.6699-3.6445-1.8223.834a.66822.66822,0,0,1-.8867-.3277l-1.3994-3.0537c-36.68949-11.603-62.1758-26.291-59.8506-35.606.9238-3.6967,6.1132-6.08,14.3984-7.1752a27.5047,27.5047,0,0,0,1.4902-3.3438l2.1241-6.1143c-25.7159-1.3217-43.0391,1.9273-45.0274,9.8887-3.2685,13.0928,36.05081,34.4317,90.4434,50.0552A.6634.6634,0,0,1,176.4507,149.79425Z"/><path class="cls-7" d="M277.1636,126.65555l1.7588,6.0093a13.74072,13.74072,0,0,1,.3935,4.5156l-.1484,1.3379c6.0371,4.5434,9.0566,8.7773,8.1865,12.2607-2.75,11.0176-43.3701,10.3833-91.0361-1.3403-.2793.3984-.55569.7959-.8272,1.1875l-.02049.0259c-1.06641,1.5376-2.06831,2.9804-3.07911,4.2138.3594.0904.7159.1822,1.0752.272,63.1651,15.7691,117.295,16.8364,120.9034,2.3848C316.4156,149.325,301.7593,137.89335,277.1636,126.65555Z"/><path class="cls-7" d="M36.9224,303.94555a5.16852,5.16852,0,0,1-1.4971-3.7168v-71.3261a4.98065,4.98065,0,0,1,1.4971-3.6621,5.1653,5.1653,0,0,1,3.71581-1.4961,5.10144,5.10144,0,0,1,3.66109,1.4961,4.98065,4.98065,0,0,1,1.4971,3.6621v71.3261a5.16852,5.16852,0,0,1-1.4971,3.7168,5.10144,5.10144,0,0,1-3.66109,1.4961A5.1653,5.1653,0,0,1,36.9224,303.94555Z"/><path class="cls-7" d="M118.4634,248.70345a23.101,23.101,0,0,1,23.0723,23.0722v28.4531a5.17726,5.17726,0,0,1-8.8741,3.6602,4.97987,4.97987,0,0,1-1.497-3.6602v-28.4531a12.68673,12.68673,0,0,0-12.7012-12.7012h-.3887a12.685,12.685,0,0,0-12.7011,12.7012v28.4531a5.0769,5.0769,0,0,1-1.5528,3.7168,5.22648,5.22648,0,0,1-7.3213,0,5.16566,5.16566,0,0,1-1.498-3.7168v-28.4531a12.685,12.685,0,0,0-12.7012-12.7012h-.3877a12.68674,12.68674,0,0,0-12.7021,12.7012v28.4531a5.14107,5.14107,0,0,1-8.9844,3.4942,5.594,5.594,0,0,1-1.3867-3.7715v-45.4258a4.93526,4.93526,0,0,1,1.8857-3.9922,5.06872,5.06872,0,0,1,4.3262-1.1093,4.93745,4.93745,0,0,1,3.8271,3.3281l.3321-.2227a22.49843,22.49843,0,0,1,12.7021-3.8261h.3877a22.018,22.018,0,0,1,17.8594,8.4843h.0557l.0556-.0547c0-.0371.03621-.0742.1104-.1113a.15667.15667,0,0,0,.0556-.1113.04891.04891,0,0,0,.0557-.0547c.0361-.0371.0732-.0742.1104-.1113a22.089,22.089,0,0,1,17.4716-8.041Z"/><path class="cls-7" d="M160.1333,319.08235a5.113,5.113,0,0,1-5.2138-5.2129V253.971a5.10046,5.10046,0,0,1,1.497-3.6601,5.168,5.168,0,0,1,3.7168-1.4981,4.70492,4.70492,0,0,1,4.9912,3.9395,22.48282,22.48282,0,0,1,12.8682-3.9395h.3887a23.1044,23.1044,0,0,1,23.0722,23.0742v10.5918a23.10114,23.10114,0,0,1-23.0722,23.0743h-.3887a22.49355,22.49355,0,0,1-12.7012-3.8262v12.1426a5.16583,5.16583,0,0,1-1.498,3.7168A5.1,5.1,0,0,1,160.1333,319.08235Zm5.1582-36.6036a12.68827,12.68827,0,0,0,12.7012,12.7032h.3887a12.78564,12.78564,0,0,0,12.7011-12.7032V271.887a12.78217,12.78217,0,0,0-12.7011-12.7011h-.3887a12.68486,12.68486,0,0,0-12.7012,12.7011Z"/><path class="cls-7" d="M256.0923,248.70345a5.2079,5.2079,0,0,1,5.21391,5.1582v46.3671a5.07137,5.07137,0,0,1-1.55471,3.7168,4.9766,4.9766,0,0,1-3.6592,1.4961,4.65592,4.65592,0,0,1-4.9912-3.9375,22.48089,22.48089,0,0,1-12.8682,3.9375h-.3886a23.10423,23.10423,0,0,1-23.0733-23.0722v-10.5938a23.101,23.101,0,0,1,23.0733-23.0722h.3886a22.63864,22.63864,0,0,1,12.8682,3.9375A4.65433,4.65433,0,0,1,256.0923,248.70345Zm-5.1582,23.0722a12.78077,12.78077,0,0,0-12.7012-12.7012h-.3886a12.685,12.685,0,0,0-12.7012,12.7012v10.5938a12.68826,12.68826,0,0,0,12.7012,12.7011h.3886a12.7841,12.7841,0,0,0,12.7012-12.7011Z"/><path class="cls-7" d="M310.9615,284.42015a5.02123,5.02123,0,0,1,4.21771,2.1641,4.80057,4.80057,0,0,1,.71979,4.6035,21.13445,21.13445,0,0,1-19.8565,14.2539h-.332a21.02031,21.02031,0,0,1-21.0215-21.0215v-14.5859a21.02044,21.02044,0,0,1,21.0215-20.9648h.332a20.93423,20.93423,0,0,1,19.8565,14.2539,4.8303,4.8303,0,0,1-.71979,4.6035,5.05763,5.05763,0,0,1-4.21771,2.1074,4.6904,4.6904,0,0,1-4.879-3.3828,10.19673,10.19673,0,0,0-3.8281-5.2148,10.38262,10.38262,0,0,0-6.2119-1.9961h-.332a10.60268,10.60268,0,0,0-10.6494,10.5937v14.5859a10.60622,10.60622,0,0,0,10.6494,10.6504h.332a10.73982,10.73982,0,0,0,10.04-7.2109A4.69852,4.69852,0,0,1,310.9615,284.42015Z"/><path class="cls-7" d="M359.4165,223.74445a4.9811,4.9811,0,0,1,3.6612,1.4961,5.1017,5.1017,0,0,1,1.497,3.6621,4.97965,4.97965,0,0,1-1.497,3.6601,4.89259,4.89259,0,0,1-3.6612,1.5528H345.5503v66.1132a5.16856,5.16856,0,0,1-1.49709,3.7168,5.10089,5.10089,0,0,1-3.66011,1.4961,4.97912,4.97912,0,0,1-3.6611-1.4961,5.06915,5.06915,0,0,1-1.55279-3.7168v-66.1132H321.3677a5.07241,5.07241,0,0,1-3.7158-1.5528,4.97935,4.97935,0,0,1-1.4971-3.6601,5.10138,5.10138,0,0,1,1.4971-3.6621,5.167,5.167,0,0,1,3.7158-1.4961Zm0,0a4.9811,4.9811,0,0,1,3.6612,1.4961,5.1017,5.1017,0,0,1,1.497,3.6621,4.97965,4.97965,0,0,1-1.497,3.6601,4.89259,4.89259,0,0,1-3.6612,1.5528H345.5503v66.1132a5.16856,5.16856,0,0,1-1.49709,3.7168,5.10089,5.10089,0,0,1-3.66011,1.4961,4.97912,4.97912,0,0,1-3.6611-1.4961,5.06915,5.06915,0,0,1-1.55279-3.7168v-66.1132H321.3677a5.07241,5.07241,0,0,1-3.7158-1.5528,4.97935,4.97935,0,0,1-1.4971-3.6601,5.10138,5.10138,0,0,1,1.4971-3.6621,5.167,5.167,0,0,1,3.7158-1.4961Z"/><path class="cls-7" d="M283.897,58.32005a.52681.52681,0,0,1,.3867.1587.53643.53643,0,0,1,.1592.3868.52332.52332,0,0,1-.1592.3872.51555.51555,0,0,1-.3867.1645h-1.46779v6.9155a.545.545,0,0,1-.15721.3931.53776.53776,0,0,1-.3877.1587.52979.52979,0,0,1-.3877-.1587.53889.53889,0,0,1-.1631-.3931v-6.9155h-1.4609a.53445.53445,0,0,1-.3926-.1645.52632.52632,0,0,1-.1582-.3872.53958.53958,0,0,1,.1582-.3868.54646.54646,0,0,1,.3926-.1587Zm0,0a.52681.52681,0,0,1,.3867.1587.53643.53643,0,0,1,.1592.3868.52332.52332,0,0,1-.1592.3872.51555.51555,0,0,1-.3867.1645h-1.46779v6.9155a.545.545,0,0,1-.15721.3931.53776.53776,0,0,1-.3877.1587.52979.52979,0,0,1-.3877-.1587.53889.53889,0,0,1-.1631-.3931v-6.9155h-1.4609a.53445.53445,0,0,1-.3926-.1645.52632.52632,0,0,1-.1582-.3872.53958.53958,0,0,1,.1582-.3868.54646.54646,0,0,1,.3926-.1587Z"/><path class="cls-7" d="M291.9829,58.26735a.5348.5348,0,0,1,.3916.1641.52384.52384,0,0,1,.1592.3872v7.5141a.5484.5484,0,1,1-1.0967,0v-5.2436l-1.6074,3.1382a.43144.43144,0,0,1-.06439.0879.48642.48642,0,0,1-.17.1528.54653.54653,0,0,1-.42281.0288.513.513,0,0,1-.3174-.2695l-1.5937-3.1265v5.2319a.55094.55094,0,0,1-.1592.3931.55891.55891,0,0,1-.7803,0,.54681.54681,0,0,1-.1592-.3931v-7.5141a.52769.52769,0,0,1,.1592-.3872.53722.53722,0,0,1,.3926-.1641.50968.50968,0,0,1,.4746.2818.01575.01575,0,0,0,.0078.0117l.0039.0058,2.1406,4.2002,2.1543-4.2002c0,.0039.0078-.0092.0225-.041.0127-.0156.0166-.0215.0127-.0176a.59474.59474,0,0,1,.04-.0468c.11041-.1289.1651-.1939.1651-.1939Z"/><path class="cls-2" d="M65.68221,338.051H61.065l-.8535,3.4102H58.8394l3.8271-14.5586h1.4141l3.8271,14.5586h-1.373Zm-.292-1.1641-1.49711-6.0332c-.2285-.8925-.4365-1.9336-.499-2.2871h-.041c-.0625.3535-.2706,1.3946-.4991,2.2871l-1.498,6.0332Z"/><path class="cls-2" d="M75.2925,337.34405v-6.3242c0-2.8067,1.6006-4.3672,3.88871-4.3672,2.37109,0,3.88959,1.498,4.03509,4.2011h-1.248c-.1455-2.0586-1.1445-3.0351-2.78709-3.0351-1.55961,0-2.64061,1.039-2.64061,3.2012v6.3242c0,2.1621,1.123,3.2011,2.72361,3.2011,1.664,0,2.62009-1.0175,2.82809-3.0351h1.2481c-.2071,2.6621-1.6836,4.2012-4.07619,4.2012C76.9351,341.71125,75.2925,340.15065,75.2925,337.34405Z"/><path class="cls-2" d="M96.9654,338.051H92.34821l-.85261,3.4102h-1.373l3.8271-14.5586h1.4141l3.8271,14.5586h-1.373Zm-.2911-1.1641-1.498-6.0332c-.2285-.8925-.4365-1.9336-.499-2.2871h-.041c-.0625.3535-.2706,1.3946-.49909,2.2871l-1.497,6.0332Z"/><path class="cls-2" d="M107.26221,326.90265h3.26469c2.7461,0,4.3262,1.5605,4.3262,4.2636v6.0528c0,2.6816-1.6221,4.2422-4.3262,4.2422h-3.26469Zm3.26469,13.332a2.74521,2.74521,0,0,0,3.0361-3.0781v-5.9278c0-2.0586-1.081-3.0996-3.0361-3.0996h-1.9756v12.1055Z"/><path class="cls-2" d="M130.9107,340.27565v1.1856h-7.0088v-14.5586h6.78031v1.1855H125.1919v5.3867h5.1367v1.1856h-5.1367v5.6152Z"/><path class="cls-2" d="M149.9419,326.90265v14.5586h-1.289v-7.6934c0-1.541.0419-2.8301.125-4.1191l-.0831-.0215c-.375,1.041-.957,2.4336-1.498,3.8262l-1.7881,4.5761h-1.289l-1.7891-4.5761c-.541-1.3926-1.1231-2.7852-1.4971-3.8262l-.084.0215c.084,1.289.125,2.5781.125,4.1191v7.6934h-1.289v-14.5586h1.372l2.59971,6.2812c.375.9356.89449,2.4336,1.165,3.2442h.083c.27049-.8106.79-2.3086,1.165-3.2442l2.59959-6.2812Z"/><path class="cls-2" d="M160.6763,326.90265v14.5586h-1.28909v-14.5586Z"/><path class="cls-2" d="M177.1284,340.27565v1.1856h-7.0087v-14.5586h6.7793v1.1855h-5.4903v5.3867h5.1367v1.1856h-5.1367v5.6152Z"/><path class="cls-2" d="M184.8667,337.717h1.2891a2.55561,2.55561,0,0,0,2.7246,2.7676,2.4388,2.4388,0,0,0,2.6416-2.6836c0-3.3691-6.4473-3.3906-6.4473-7.6113a3.54319,3.54319,0,0,1,3.7637-3.5567c2.2881,0,3.7022,1.6231,3.8076,3.9102h-1.29c-.084-1.8301-1.082-2.6621-2.4756-2.6621a2.22833,2.22833,0,0,0-2.4961,2.3086c0,3.3672,6.4473,3.2441,6.4473,7.6113a3.789,3.789,0,0,1-3.9092,3.9316A3.8543,3.8543,0,0,1,184.8667,337.717Z"/><path class="cls-2" d="M220.5786,341.46125c-.3955-.5821-.791-1.1641-1.206-1.7481a4.57268,4.57268,0,0,1-3.6192,2.0195,3.22979,3.22979,0,0,1-3.3271-3.5156c0-2.039,1.2685-3.4101,2.5781-4.6172a8.429,8.429,0,0,1-1.6221-4.0957,2.71635,2.71635,0,0,1,2.9112-2.8711,2.79311,2.79311,0,0,1,2.914,3.0977c-.0634,1.707-1.29,2.9121-2.539,4.0781.7705,1.1641,1.665,2.4121,2.5791,3.6387a13.19476,13.19476,0,0,0,.7285-1.8301h1.4355a16.97446,16.97446,0,0,1-1.3115,3.0156c.75.9981,1.4356,1.9746,1.99611,2.8282Zm-2.0175-2.8496c-.9971-1.3711-1.9961-2.6836-2.8487-3.9297a4.86949,4.86949,0,0,0-1.914,3.3886,2.1943,2.1943,0,0,0,2.08,2.4141A3.55931,3.55931,0,0,0,218.5611,338.61165Zm-2.5996-5.8848c1.0615-.957,1.956-1.8731,1.956-3.0371a1.648,1.648,0,0,0-1.624-1.8086,1.55955,1.55955,0,0,0-1.6221,1.6621A7.47922,7.47922,0,0,0,215.9615,332.72685Z"/><path class="cls-2" d="M241.1704,337.34405v-6.3242c0-2.8067,1.6036-4.3672,3.8897-4.3672,2.37211,0,3.8896,1.498,4.03511,4.2011h-1.247c-.14651-2.0586-1.14461-3.0351-2.78811-3.0351-1.5596,0-2.6406,1.039-2.6406,3.2012v6.3242c0,2.1621,1.123,3.2011,2.7246,3.2011,1.664,0,2.62011-1.0175,2.82911-3.0351h1.247c-.208,2.6621-1.68451,4.2012-4.07611,4.2012C242.815,341.71125,241.1704,340.15065,241.1704,337.34405Z"/><path class="cls-2" d="M262.8443,338.051h-4.6172l-.8516,3.4102h-1.373l3.8261-14.5586h1.4141l3.8281,14.5586h-1.374Zm-.29009-1.1641-1.498-6.0332c-.22851-.8925-.43751-1.9336-.499-2.2871h-.042c-.06161.3535-.26861,1.3946-.49911,2.2871l-1.497,6.0332Z"/><path class="cls-2" d="M283.4986,326.90265v14.5586h-1.2901v-7.6934c0-1.541.043-2.8301.126-4.1191l-.083-.0215c-.375,1.041-.957,2.4336-1.4981,3.8262l-1.789,4.5761h-1.2891l-1.789-4.5761c-.54009-1.3926-1.12309-2.7852-1.49809-3.8262l-.083.0215c.083,1.289.126,2.5781.126,4.1191v7.6934H273.1421v-14.5586h1.37111l2.59959,6.2812c.375.9356.8955,2.4336,1.1651,3.2442h.0839c.2705-.8106.7901-2.3086,1.1651-3.2442l2.5986-6.2812Z"/><path class="cls-2" d="M300.59521,331.37525c0,2.9942-1.47551,4.5742-4.15821,4.5742h-2.2041v5.5118h-1.29v-14.5586h3.4941C299.1197,326.90265,300.59521,328.52565,300.59521,331.37525Zm-1.289,0c0-2.164-.91511-3.2461-2.86921-3.2461h-2.2041v6.5938h2.2041C298.3911,334.723,299.30621,333.68385,299.30621,331.37525Z"/><path class="cls-2" d="M308.232,337.717h1.288a2.55689,2.55689,0,0,0,2.7256,2.7676,2.43784,2.43784,0,0,0,2.6397-2.6836c0-3.3691-6.4463-3.3906-6.4463-7.6113a3.54345,3.54345,0,0,1,3.7646-3.5567c2.2881,0,3.7022,1.6231,3.8057,3.9102h-1.28909c-.08391-1.8301-1.082-2.6621-2.47461-2.6621a2.22814,2.22814,0,0,0-2.497,2.3086c0,3.3672,6.4482,3.2441,6.4482,7.6113a3.79042,3.79042,0,0,1-3.9102,3.9316A3.85293,3.85293,0,0,1,308.232,337.717Z"/></g></g></svg>