<?xml version="1.0" encoding="utf-8"?>
<!-- Generator: Adobe Illustrator 21.0.1, SVG Export Plug-In . SVG Version: 6.00 Build 0)  -->
<svg version="1.1" id="Layer_1" xmlns="http://www.w3.org/2000/svg" xmlns:xlink="http://www.w3.org/1999/xlink" x="0px" y="0px"
	 viewBox="0 0 292.1 37" style="enable-background:new 0 0 292.1 37;" xml:space="preserve">
<style type="text/css">
	.st0{fill:#5590CC;}
	.st1{clip-path:url(#SVGID_2_);}
	.st2{fill:#FFFFFF;}
</style>
<title>py_vector</title>
<path class="st0" d="M36.7,1h5.1c1.4,0,2.6,0.7,3.4,1.8l10.2,15.4c0.1,0.2,0.5,0.3,0.7,0.1c0.1,0,0.1-0.1,0.1-0.1L66.5,2.8
	c0.7-1.1,2-1.8,3.3-1.8h5c0.3,0,0.5,0.2,0.5,0.5c0,0.1,0,0.2-0.1,0.3L59.5,25.7c-0.1,0.1-0.1,0.2-0.1,0.3v6.3c0,2.2-1.8,4-4,4h-2.7
	c-0.3,0-0.5-0.2-0.5-0.5V25.6c0-0.1,0-0.2-0.1-0.3L36.3,1.8c-0.2-0.2-0.1-0.5,0.1-0.7C36.5,1,36.6,1,36.7,1z"/>
<path class="st0" d="M95.3,33.3c2.2,0,4.4-0.4,6.5-1.2c1.4-0.5,2.6-1.2,3.8-2.1c1.3-0.9,3-0.7,4,0.5l0.6,0.7c-2,1.8-4.3,3.3-6.9,4.2
	c-2.7,1-5.7,1.6-8.6,1.5c-2.9,0-5.7-0.4-8.5-1.2c-2.4-0.7-4.6-1.9-6.4-3.5c-1.8-1.6-3.2-3.6-4.1-5.8c-1-2.5-1.5-5.3-1.4-8
	c-0.1-2.7,0.4-5.5,1.4-8c0.9-2.2,2.2-4.2,4-5.8c1.8-1.6,4-2.8,6.3-3.5c2.7-0.8,5.4-1.2,8.2-1.2c2.9,0,5.9,0.5,8.6,1.5
	c2.5,0.9,4.9,2.4,6.9,4.2l-0.6,0.7c-1,1.2-2.8,1.4-4.1,0.5c-1.2-0.8-2.5-1.5-3.8-2.1c-2.1-0.8-4.3-1.2-6.5-1.2
	c-1.7,0-3.4,0.3-5.1,0.9c-1.5,0.6-2.9,1.5-4,2.7c-1.2,1.4-2.1,3-2.6,4.7c-1.3,4.3-1.3,8.9,0,13.2c0.6,1.7,1.5,3.3,2.8,4.6
	c1.2,1.2,2.6,2.1,4.2,2.7C91.7,33,93.5,33.3,95.3,33.3z"/>
<path class="st0" d="M132.9,0.1c2.8,0,5.5,0.4,8.1,1.2c2.3,0.7,4.4,1.9,6.3,3.5c1.8,1.6,3.2,3.6,4.1,5.8c1.9,5.1,1.9,10.7,0,15.8
	c-0.9,2.2-2.3,4.2-4.1,5.8c-1.8,1.6-4,2.8-6.3,3.5c-5.3,1.6-11,1.6-16.3,0c-2.3-0.7-4.5-1.9-6.3-3.5c-1.8-1.6-3.1-3.6-4-5.8
	c-1.9-5.1-1.9-10.7,0-15.8c0.9-2.2,2.2-4.2,4-5.8c1.8-1.6,4-2.8,6.3-3.5C127.4,0.5,130.1,0.1,132.9,0.1z M132.9,3.6
	c-1.6,0-3.2,0.3-4.8,0.9c-1.5,0.6-2.8,1.5-3.8,2.7c-1.2,1.4-2.1,2.9-2.6,4.6c-1.3,4.3-1.3,8.9,0,13.3c0.6,1.7,1.4,3.3,2.6,4.7
	c1.1,1.2,2.4,2.1,3.8,2.7c3.1,1.2,6.4,1.2,9.5,0c1.5-0.6,2.8-1.5,3.9-2.7c1.2-1.4,2.1-2.9,2.6-4.7c1.3-4.3,1.3-8.9,0-13.3
	c-0.6-1.7-1.4-3.3-2.6-4.6c-1.1-1.2-2.4-2.1-3.9-2.7C136.1,3.9,134.5,3.6,132.9,3.6z"/>
<path class="st0" d="M204.5,36.3h-2.8c-0.3,0-0.5-0.2-0.5-0.5V5c0-2.2,1.8-4,4-4h2.8c0.3,0,0.5,0.2,0.5,0.5v30.8
	C208.6,34.5,206.8,36.3,204.5,36.3C204.5,36.3,204.5,36.3,204.5,36.3z"/>
<path class="st0" d="M250.6,1.5v34.3c0,0.3-0.2,0.5-0.5,0.5h-6.9c-1.3,0-2.6-0.7-3.3-1.8L222.5,9c-0.2-0.2-0.5-0.3-0.7-0.1
	c-0.1,0.1-0.2,0.2-0.2,0.4v26.6c0,0.3-0.2,0.5-0.5,0.5h-6.3c-0.3,0-0.5-0.2-0.5-0.5V1.5c0-0.3,0.2-0.5,0.5-0.5h6.9
	c1.4,0,2.6,0.7,3.4,1.9l17.3,25.6c0.2,0.2,0.5,0.3,0.7,0.1c0.1-0.1,0.2-0.2,0.2-0.4V1.6c0-0.3,0.2-0.5,0.5-0.5h6.3
	C250.3,1.1,250.5,1.3,250.6,1.5z"/>
<path class="st0" d="M275.1,0.2c2.9,0,5.8,0.5,8.6,1.5c2.5,0.9,4.9,2.4,6.9,4.2l-0.7,0.9c-0.9,1.1-2.5,1.3-3.7,0.5
	c-1.2-0.9-2.6-1.7-4-2.2c-2.1-0.8-4.3-1.2-6.5-1.2c-1.6,0-3.2,0.3-4.7,0.9c-1.4,0.6-2.7,1.5-3.7,2.7c-1.1,1.3-2,2.9-2.4,4.5
	c-0.6,2.1-0.9,4.4-0.9,6.6c0,2.3,0.3,4.6,0.9,6.7c0.5,1.7,1.3,3.3,2.5,4.6c1,1.2,2.4,2.1,3.9,2.7c1.6,0.6,3.3,0.9,5,0.9
	c1.3,0,2.6-0.1,3.9-0.4c0.9-0.2,1.8-0.5,2.7-0.9c0.7-0.3,1.4-0.7,2-1.2c0.1-0.1,0.2-0.2,0.2-0.4v-8.6c0-0.3-0.2-0.5-0.5-0.5l0,0
	h-2.7c-1.8,0-3.2-1.4-3.2-3.2h9.5c2.3,0,4.2,1.9,4.2,4.2v7c0,1.7-0.9,3.2-2.3,4.1c-0.6,0.4-1.3,0.7-2,1.1c-1.7,0.8-3.4,1.4-5.1,1.8
	c-2.3,0.6-4.6,0.8-7,0.8c-2.7,0-5.5-0.4-8.1-1.2c-2.3-0.7-4.4-1.9-6.1-3.5c-1.7-1.6-3-3.6-3.9-5.8c-1.8-5.1-1.8-10.7,0-15.8
	c0.8-2.2,2.1-4.2,3.8-5.8c1.7-1.6,3.8-2.8,6-3.5C270,0.6,272.5,0.2,275.1,0.2z"/>
<path class="st0" d="M175.2,1c2.8,0,5.6,0.3,8.2,1.1c2.3,0.7,4.5,1.8,6.3,3.4c1.8,1.5,3.2,3.4,4.1,5.5c1.9,4.9,1.9,10.4,0,15.3
	c-0.9,2.1-2.3,4-4.1,5.5c-1.9,1.5-4,2.7-6.3,3.3c-2.7,0.8-5.5,1.2-8.2,1.1h-16.1c-0.3,0-0.5-0.2-0.5-0.5V5c0-2.2,1.8-4,4-4H175.2z
	 M165.9,5.3V32c0,0.3,0.2,0.5,0.5,0.5h8.8c1.6,0,3.3-0.3,4.8-0.8c1.5-0.5,2.8-1.4,3.9-2.5c1.2-1.2,2.1-2.7,2.7-4.3
	c1.3-4.1,1.3-8.5,0-12.6c-0.6-1.6-1.5-3.1-2.7-4.3c-1.1-1.1-2.4-2-3.9-2.5c-1.5-0.5-3.2-0.8-4.8-0.8h-8.8
	C166.1,4.8,165.9,5.1,165.9,5.3L165.9,5.3z"/>
<g>
	<defs>
		<path id="SVGID_1_" d="M0.1,35.8V24.1c0-2.6,2.1-4.7,4.7-4.7h17.3c1.9,0,3.8-0.8,5.1-2.2c0.9-1.1,1.4-2.4,1.3-3.8
			c0-4.6-3-6.5-6.5-6.5H0.4C0.2,6.8,0,6.7,0,6.4c0,0,0,0,0,0V5.2C0,2.9,1.9,1,4.2,1H25c0.4,0,0.9,0,1.3,0.1
			c2.2,0.5,8.3,2.8,8.3,12.7c0,11.8-13.1,11.7-13.1,11.7H6.7c-0.2,0-0.4,0.2-0.4,0.4l0,0v6.3c0,2.2-1.8,4-4,4H0.4
			C0.2,36.2,0.1,36,0.1,35.8z"/>
	</defs>
	<clipPath id="SVGID_2_">
		<use xlink:href="#SVGID_1_"  style="overflow:visible;"/>
	</clipPath>
	<g class="st1">
		<path class="st0" d="M0.1,35.8V24.1c0-2.6,2.1-4.7,4.7-4.7h17.3c1.9,0,3.8-0.8,5.1-2.2c0.9-1.1,1.4-2.4,1.3-3.8
			c0-4.6-3-6.5-6.5-6.5H0.4C0.2,6.8,0,6.7,0,6.4c0,0,0,0,0,0V5.2C0,2.9,1.9,1,4.2,1H25c0.4,0,0.9,0,1.3,0.1
			c2.2,0.5,8.3,2.8,8.3,12.7c0,11.8-13.1,11.7-13.1,11.7H6.7c-0.2,0-0.4,0.2-0.4,0.4l0,0v6.3c0,2.2-1.8,4-4,4H0.4
			C0.2,36.2,0.1,36,0.1,35.8z"/>
		<path class="st2" d="M31.3,1c0.4,0,0.9,0,1.3,0.1c2.2,0.5,8.1,2.8,8.1,12.7c0,11.6-12.3,11.7-12.7,11.7H13.7
			c-0.2,0-0.4,0.2-0.4,0.4v6.3c0,2.2-1.7,3.9-3.9,4H7.5c-0.2,0-0.4-0.2-0.4-0.4V24.1c0-2.6,2-4.7,4.5-4.7c0,0,0,0,0,0h16.8
			c1.9,0,3.7-0.8,4.9-2.2c0.9-1.1,1.3-2.4,1.3-3.8c0-4.6-2.9-6.5-6.3-6.5H7.5c-0.2,0-0.4-0.2-0.4-0.4V5.2C7.1,3,8.9,1.1,11.2,1
			c0,0,0,0,0,0L31.3,1 M31.3,0.3H11.2c-2.7,0-4.9,2.3-4.8,5c0,0,0,0,0,0v1.2c0,0.6,0.5,1.2,1.2,1.2h20.9c1.7,0,5.5,0.6,5.5,5.7
			c0,1.2-0.4,2.4-1.1,3.3c-1.1,1.3-2.7,2-4.3,2H11.7c-3,0-5.3,2.5-5.3,5.4v11.8c0,0.6,0.5,1.2,1.2,1.2h1.8c2.6,0,4.7-2.2,4.6-4.8v-6
			h13.9c2.3-0.1,4.7-0.6,6.8-1.6c3-1.4,6.6-4.5,6.6-10.9c0-4.4-1.2-7.9-3.4-10.4c-1.4-1.5-3.2-2.6-5.2-3C32.2,0.3,31.8,0.3,31.3,0.3
			L31.3,0.3L31.3,0.3z"/>
	</g>
</g>
</svg>
