<svg id="Layer_1" data-name="Layer 1" xmlns="http://www.w3.org/2000/svg" viewBox="0 0 1029.83 304.7"><defs><style>.cls-1{fill:#6da844;}.cls-2{fill:#88c65a;}.cls-3{fill:#737373;}</style></defs><title>logo mitoc-03</title><rect class="cls-1" width="119.6" height="304.5"/><rect class="cls-1" x="255.9" width="119.6" height="304.5"/><polygon class="cls-2" points="0 0 119.5 0 187.7 115.5 255.9 0 375.4 0 187.7 304.7 0 0"/><path class="cls-3" d="M614.52,117.94a5.82,5.82,0,0,1,7.44-3.1,5.43,5.43,0,0,1,3.41,5.89v92a5.89,5.89,0,0,1-11.77,0V139.94l-32.54,51.13a6.26,6.26,0,0,1-8.06,3.1,6,6,0,0,1-3.1-3.1l-32.23-50.82v72.51a5.89,5.89,0,0,1-11.77,0v-92a5.59,5.59,0,0,1,5-6.2,5.83,5.83,0,0,1,5.89,3.41l39,60.73Z" transform="translate(-84.5 -84.92)"/><path class="cls-3" d="M662.55,117.63a5.89,5.89,0,0,1,11.77,0v96.06a5.89,5.89,0,0,1-11.77,0Z" transform="translate(-84.5 -84.92)"/><path class="cls-3" d="M783.08,115.15a5.58,5.58,0,1,1,0,11.15H747.45v86.76a5.88,5.88,0,0,1-5.89,5.89h-.31a6,6,0,0,1-5.89-5.58V126.3H699.73a5.58,5.58,0,1,1,0-11.15Z" transform="translate(-84.5 -84.92)"/><path class="cls-3" d="M801.37,164.41a49.92,49.92,0,0,1,42.45-50.51,78.34,78.34,0,0,1,17,0,51,51,0,0,1,43.69,50.51,51.39,51.39,0,0,1-48.65,54.23h-2.79C824.29,219,801.37,198.5,801.37,164.41Zm11.77.62c0,26.34,17.35,42.76,40,42.76s39.35-16.11,39.35-42.76a40,40,0,0,0-33.16-40,52.52,52.52,0,0,0-13.94,0,37.75,37.75,0,0,0-32.23,40Z" transform="translate(-84.5 -84.92)"/><path class="cls-3" d="M1006.49,213.06A64.36,64.36,0,0,1,982.63,219c-29.13-.31-52.37-24.48-52.06-53.61v-.62A50.81,50.81,0,0,1,974,113.91a52.46,52.46,0,0,1,48,15.49c4.65,5.58-3.72,12.08-8.06,7.13a41.12,41.12,0,0,0-37.49-11.77,37.67,37.67,0,0,0-33.47,40,41.8,41.8,0,0,0,40.59,42.76h.31a39.37,39.37,0,0,0,18.59-4.65,36.48,36.48,0,0,0,13-10.85c3.72-5.58,13.32.62,9.3,6.51A46.07,46.07,0,0,1,1006.49,213.06Z" transform="translate(-84.5 -84.92)"/><path class="cls-3" d="M617.32,349.28c-17.66,22-50.2,25.72-72.2,7.75a51.22,51.22,0,0,1-19.21-41.83,53,53,0,0,1,42.76-51.13,70.5,70.5,0,0,1,8.06-.62,49.33,49.33,0,0,1,37.49,15.18c4.65,5.58-3.41,13.32-8.06,7.44a37,37,0,0,0-35.94-11.16c-22.62,5-36.56,27.58-31.61,49.89a41.85,41.85,0,0,0,37.8,32.54,39.38,39.38,0,0,0,31.3-14.25V321.7H578.89a5.27,5.27,0,0,1,0-10.54h33.77c4.65,0,6.2,2.48,6.2,5.89V343.7A7,7,0,0,1,617.32,349.28Z" transform="translate(-84.5 -84.92)"/><path class="cls-3" d="M666.58,331.31v31a5.89,5.89,0,0,1-11.77,0V270.58a5.3,5.3,0,0,1,5.27-5.58H698.5c27.58,0,41.83,16.11,41.83,34.39,0,16.11-8.68,27.89-28.51,31.3l26,27.89a5.7,5.7,0,0,1-8.06,8.06l-31.92-35Zm0-10.23H698.5c21.07,0,30.06-9.61,29.75-21.69s-11.16-23.86-29.75-23.86H666.58Z" transform="translate(-84.5 -84.92)"/><path class="cls-3" d="M767,314.27a49.92,49.92,0,0,1,42.45-50.51,78.34,78.34,0,0,1,17,0,52.85,52.85,0,0,1-5,104.73h-2.79C789.91,368.8,767,348.35,767,314.27Zm11.77.62c0,26.34,17.35,42.76,40,42.76s39.35-16.11,39.35-42.76a40,40,0,0,0-33.16-40,52.52,52.52,0,0,0-13.94,0,37.75,37.75,0,0,0-32.23,40Z" transform="translate(-84.5 -84.92)"/><path class="cls-3" d="M984.19,269.34a5.88,5.88,0,0,1,5.89-5.89,6.09,6.09,0,0,1,5.89,5.89V322a47.1,47.1,0,1,1-94.2,0V269.34c0-7.13,12.08-7.13,12.08,0V321.7c0,46.17,70.34,46.17,70.34,0V269.34Z" transform="translate(-84.5 -84.92)"/><path class="cls-3" d="M1044.61,336.89V362.6a5.88,5.88,0,0,1-5.89,5.89,5.7,5.7,0,0,1-5.89-5.89v-92a5.63,5.63,0,0,1,5.89-5.58h35c27.58,0,40.59,18.28,40.59,36.87s-13,35-41.21,35Zm0-10.54h28.51c21.38,0,30.06-12.39,29.75-24.48a27.12,27.12,0,0,0-28.2-26.34h-30.06Z" transform="translate(-84.5 -84.92)"/></svg>