<?xml version="1.0" encoding="utf-8"?>
<!-- Generator: Adobe Illustrator 21.0.2, SVG Export Plug-In . SVG Version: 6.00 Build 0)  -->
<svg version="1.1" id="Layer_1" xmlns="http://www.w3.org/2000/svg" xmlns:xlink="http://www.w3.org/1999/xlink" x="0px" y="0px"
	 viewBox="0 0 835.3 663.4" style="enable-background:new 0 0 835.3 663.4;" xml:space="preserve">
<style type="text/css">
	.st0{enable-background:new    ;}
	.st1{fill:#F03957;}
	.st2{font-family:'RobotoMono-Bold';}
	.st3{font-size:90.1213px;}
	.st4{fill:none;stroke:#F03957;stroke-width:20;stroke-miterlimit:10;}
	.st5{fill:#EF3B58;}
</style>
<title>logo_1</title>
<g id="Layer_2">
	<g id="Layer_1-2">
		<g class="st0">
			<path class="st1" d="M119.2,284.5c0-1.6-0.3-3-1-4.4c-0.6-1.3-1.8-2.5-3.5-3.6s-4-2.1-6.9-3s-6.6-1.8-11.1-2.7
				c-5.6-1.2-10.7-2.6-15.3-4.2c-4.5-1.6-8.4-3.6-11.7-5.9c-3.3-2.3-5.8-4.9-7.5-8c-1.8-3-2.6-6.5-2.6-10.5c0-3.9,0.9-7.6,2.7-11
				c1.8-3.5,4.4-6.6,7.8-9.2c3.4-2.6,7.5-4.7,12.3-6.3s10.3-2.3,16.2-2.3c6.3,0,12,0.8,17,2.4c5,1.6,9.3,3.7,12.7,6.5
				c3.5,2.7,6.1,5.9,8,9.6s2.8,7.7,2.8,11.9h-21c0-1.9-0.4-3.7-1.2-5.4c-0.8-1.7-2.1-3.3-3.7-4.6s-3.7-2.4-6.1-3.2s-5.2-1.2-8.4-1.2
				s-5.9,0.3-8.2,1c-2.3,0.7-4.2,1.6-5.8,2.6c-1.5,1.1-2.7,2.4-3.4,3.8c-0.7,1.5-1.1,3-1.1,4.6s0.3,3,0.8,4.3
				c0.6,1.3,1.6,2.5,3.1,3.5c1.5,1.1,3.6,2,6.3,2.9c2.7,0.9,6.2,1.7,10.5,2.4c6,1.1,11.4,2.4,16.1,4c4.8,1.6,8.9,3.5,12.2,5.8
				c3.4,2.3,6,5,7.8,8.1s2.7,6.8,2.7,11s-1,8.1-2.9,11.6s-4.7,6.6-8.3,9.1c-3.6,2.6-7.9,4.5-12.9,5.9s-10.6,2.1-16.9,2.1
				c-6.9,0-13-0.9-18.3-2.8c-5.3-1.8-9.7-4.3-13.3-7.3c-3.6-3-6.3-6.4-8.1-10.2c-1.8-3.8-2.8-7.7-2.8-11.6h20.4
				c0.2,2.9,0.9,5.4,2.3,7.5c1.3,2.1,3.1,3.7,5.2,5s4.5,2.2,7,2.7c2.6,0.6,5.2,0.8,7.8,0.8c6.5,0,11.5-1.1,14.9-3.3
				C117.5,290.8,119.2,287.9,119.2,284.5z"/>
			<path class="st1" d="M207.5,192v23h36v15.7h-36v45.7c0,3.6,0.4,6.5,1.3,8.9c0.9,2.3,2,4.2,3.6,5.6c1.5,1.4,3.3,2.4,5.4,2.9
				c2.1,0.6,4.3,0.8,6.8,0.8c1.8,0,3.7-0.1,5.7-0.3c2-0.2,3.9-0.4,5.7-0.7s3.5-0.6,5.1-0.9s2.9-0.6,3.9-0.9l2.4,14.5
				c-1.5,0.9-3.4,1.7-5.5,2.4c-2.1,0.7-4.5,1.3-7,1.8s-5.1,0.8-7.9,1.1c-2.7,0.3-5.4,0.4-8.1,0.4c-4.8,0-9.1-0.7-13.1-2
				s-7.4-3.4-10.2-6.2c-2.8-2.8-5.1-6.4-6.7-10.7c-1.6-4.4-2.4-9.6-2.4-15.7v-46.8h-23.2V215h23.2v-23H207.5z"/>
			<path class="st1" d="M334.2,310.2c-0.6-1.2-1.1-2.6-1.5-4.1c-0.4-1.6-0.7-3.3-1-5.1c-1.5,1.5-3.1,2.9-5,4.3
				c-1.8,1.3-3.9,2.5-6.2,3.5c-2.3,1-4.7,1.8-7.3,2.4c-2.6,0.6-5.4,0.9-8.4,0.9c-5,0-9.6-0.7-13.7-2.2c-4.1-1.4-7.6-3.4-10.5-6
				s-5.1-5.6-6.7-9s-2.4-7.2-2.4-11.3c0-10.2,3.8-18,11.4-23.4c7.6-5.4,18.5-8.1,32.7-8.1H331v-6.2c0-5-1.7-9-5.1-12
				s-8.2-4.4-14.4-4.4c-2.8,0-5.3,0.3-7.4,1s-3.9,1.6-5.3,2.8s-2.5,2.6-3.2,4.1c-0.7,1.6-1.1,3.3-1.1,5.1h-21
				c0-3.7,0.9-7.3,2.6-10.8s4.3-6.6,7.6-9.3s7.4-4.9,12.3-6.6s10.4-2.5,16.6-2.5c5.6,0,10.9,0.7,15.7,2.1c4.8,1.4,9,3.4,12.5,6.2
				c3.5,2.7,6.3,6.1,8.3,10.2c2,4.1,3,8.8,3,14.3v42.4c0,4.2,0.3,8,0.9,11.4s1.5,6.4,2.7,8.9v1.5L334.2,310.2L334.2,310.2z
				 M308.9,295c2.7,0,5.2-0.3,7.6-1s4.5-1.6,6.4-2.6c1.9-1.1,3.5-2.3,4.9-3.7c1.4-1.4,2.5-2.8,3.3-4.3v-17.9h-13.4
				c-8.6,0-14.9,1.4-19,4.1c-4.1,2.8-6.1,6.7-6.1,11.8c0,1.9,0.3,3.7,1,5.4c0.6,1.7,1.6,3.1,2.9,4.3c1.3,1.2,3,2.2,5,2.9
				C303.6,294.7,306,295,308.9,295z"/>
			<path class="st1" d="M447,213.3c1.7,0,3.4,0.1,5.1,0.2c1.7,0.1,3.3,0.3,4.9,0.5s3,0.5,4.3,0.7c1.3,0.3,2.4,0.6,3.3,0.9l-3,20.7
				c-6.5-1.5-12.8-2.2-19.1-2.2c-7,0-12.7,1.5-17,4.4s-7.5,7-9.5,12.2v59.5h-21V215h19.7l1,14.9c3.9-5.2,8.5-9.2,13.8-12.2
				C434.6,214.7,440.5,213.3,447,213.3z"/>
			<path class="st1" d="M532,192v23h36v15.7h-36v45.7c0,3.6,0.4,6.5,1.3,8.9c0.8,2.3,2,4.2,3.6,5.6s3.3,2.4,5.4,2.9
				c2.1,0.6,4.3,0.8,6.8,0.8c1.8,0,3.7-0.1,5.7-0.3c2-0.2,3.9-0.4,5.7-0.7c1.8-0.3,3.5-0.6,5.1-0.9s2.9-0.6,3.9-0.9l2.4,14.5
				c-1.5,0.9-3.4,1.7-5.5,2.4c-2.1,0.7-4.5,1.3-7,1.8s-5.2,0.8-7.9,1.1c-2.7,0.3-5.4,0.4-8.1,0.4c-4.8,0-9.1-0.7-13.1-2
				s-7.4-3.4-10.2-6.2c-2.8-2.8-5.1-6.4-6.7-10.7s-2.4-9.6-2.4-15.7v-46.8h-23.2V215H511v-23H532z"/>
			<path class="st1" d="M659.1,297.2c-3.2,4.7-7.1,8.3-11.8,11s-9.8,3.9-15.4,3.9c-4.9,0-9.4-0.8-13.5-2.3s-7.6-3.9-10.5-7.3
				c-2.9-3.3-5.2-7.5-6.8-12.7c-1.6-5.1-2.4-11.3-2.4-18.5V215h21v56.5c0,4.6,0.3,8.4,1,11.4s1.7,5.4,3.1,7.1c1.4,1.8,3.2,3,5.3,3.7
				s4.6,1.1,7.6,1.1c5.6,0,10.2-1.1,13.6-3.3c3.5-2.2,6.1-5.2,7.8-8.9V215h21.1v95.2h-19L659.1,297.2z"/>
			<path class="st1" d="M789.5,263.6c0,6.9-0.8,13.3-2.5,19.3c-1.6,5.9-4,11-7.2,15.4s-7.1,7.7-11.7,10.1c-4.6,2.4-9.9,3.7-15.9,3.7
				c-5.4,0-10.2-0.9-14.3-2.6c-4.1-1.8-7.7-4.3-10.7-7.6V347h-21V215h19.4l0.9,9.6c3.1-3.6,6.7-6.4,10.9-8.4s9.1-2.9,14.7-2.9
				c6,0,11.4,1.2,16.1,3.5c4.7,2.3,8.6,5.6,11.8,9.9c3.2,4.3,5.6,9.4,7.2,15.3c1.6,6,2.5,12.5,2.5,19.8v1.8H789.5z M768.4,261.8
				c0-4.3-0.4-8.3-1.3-12.1c-0.9-3.8-2.2-7.1-4-9.9c-1.8-2.8-4.1-5.1-7-6.7c-2.8-1.6-6.2-2.5-10-2.5c-4.7,0-8.6,1-11.6,3
				c-3.1,2-5.5,4.7-7.2,8v42.6c1.8,3.3,4.2,6,7.2,8c3,2.1,7,3.1,11.8,3.1c3.9,0,7.2-0.8,10-2.6c2.8-1.7,5.1-4,6.9-6.9
				c1.8-2.9,3.1-6.2,4-10c0.8-3.8,1.3-7.9,1.3-12.1v-1.9H768.4z"/>
		</g>
		<g class="st0">
			<path class="st1" d="M101.5,467.2c-7,0-13.5-1.2-19.3-3.5s-10.8-5.6-14.9-9.7s-7.3-9-9.6-14.6s-3.4-11.7-3.4-18.2v-3.6
				c0-7.6,1.2-14.4,3.7-20.4c2.4-6,5.7-11.2,9.8-15.5s8.8-7.6,14.3-9.9c5.4-2.3,11.1-3.4,17.1-3.4c6.9,0,13,1.2,18.3,3.5
				s9.7,5.6,13.2,9.8c3.5,4.2,6.2,9.2,8.1,14.9c1.8,5.8,2.7,12.1,2.7,18.9v8.9h-66c0.4,3.7,1.3,7.1,2.7,10.3
				c1.5,3.2,3.4,5.9,5.8,8.2c2.4,2.3,5.2,4.1,8.4,5.5c3.2,1.3,6.7,2,10.5,2c5.3,0,10.3-1.1,14.7-3.2s8.1-5,11-8.7l11.4,10.7
				c-1.5,2.3-3.5,4.5-5.9,6.6s-5.2,4-8.4,5.7c-3.2,1.7-6.9,3-10.9,4C110.7,466.7,106.3,467.2,101.5,467.2z M99,385.5
				c-2.9,0-5.7,0.5-8.2,1.6s-4.8,2.6-6.8,4.6s-3.7,4.5-5.1,7.4s-2.4,6.2-2.9,9.9h44.6v-1.6c-0.2-2.8-0.7-5.5-1.6-8.1s-2.2-4.9-4-7
				s-4-3.7-6.6-4.9C105.7,386.1,102.5,385.5,99,385.5z"/>
			<path class="st1" d="M204.3,438.9l1.5,7l1.6-7l23.1-68.7h21.7l-37.3,95.2h-18.1l-37.7-95.2h21.7L204.3,438.9z"/>
			<path class="st1" d="M317.8,467.2c-7,0-13.5-1.2-19.3-3.5s-10.8-5.6-14.9-9.7s-7.3-9-9.6-14.6c-2.3-5.6-3.4-11.7-3.4-18.2v-3.6
				c0-7.6,1.2-14.4,3.7-20.4c2.4-6,5.7-11.2,9.8-15.5c4.1-4.3,8.8-7.6,14.3-9.9c5.4-2.3,11.1-3.4,17.1-3.4c6.9,0,13,1.2,18.3,3.5
				s9.7,5.6,13.2,9.8c3.5,4.2,6.2,9.2,8.1,14.9c1.8,5.8,2.7,12.1,2.7,18.9v8.9h-66c0.4,3.7,1.3,7.1,2.7,10.3
				c1.5,3.2,3.4,5.9,5.8,8.2c2.4,2.3,5.2,4.1,8.4,5.5c3.2,1.3,6.7,2,10.5,2c5.3,0,10.3-1.1,14.7-3.2s8.1-5,11-8.7l11.4,10.7
				c-1.5,2.3-3.5,4.5-5.9,6.6s-5.2,4-8.4,5.7c-3.2,1.7-6.9,3-10.9,4C327,466.7,322.6,467.2,317.8,467.2z M315.3,385.5
				c-2.9,0-5.7,0.5-8.2,1.6s-4.8,2.6-6.8,4.6s-3.7,4.5-5.1,7.4s-2.4,6.2-2.9,9.9h44.6v-1.6c-0.2-2.8-0.7-5.5-1.6-8.1s-2.2-4.9-4-7
				s-4-3.7-6.6-4.9C322,386.1,318.9,385.5,315.3,385.5z"/>
			<path class="st1" d="M400.7,370.2l1.3,13.2c3.5-4.8,7.6-8.4,12.5-11s10.3-3.9,16.3-3.9c4.9,0,9.3,0.7,13.3,2.1s7.5,3.6,10.4,6.6
				s5.2,6.9,6.8,11.6c1.6,4.8,2.4,10.5,2.4,17.2v59.5h-21v-59.1c0-3.9-0.5-7.2-1.4-9.9c-0.9-2.6-2.2-4.8-3.9-6.3s-3.7-2.7-6.1-3.4
				c-2.4-0.7-5.1-1-8.2-1c-4.6,0-8.7,1-12.1,3.1s-6.2,4.8-8.3,8.4v68.3h-21.1v-95.2h19.1V370.2z"/>
			<path class="st1" d="M494.4,370.2h50.8V448h28.2v17.4h-79V448H524v-60.3h-29.6V370.2z M522.2,345.6c0-3.3,1.1-6,3.2-8.1
				c2.1-2.1,5.1-3.2,8.9-3.2c3.9,0,6.9,1.1,9,3.2s3.2,4.9,3.2,8.1c0,3.3-1.1,6-3.2,8.1c-2.1,2.1-5.1,3.2-9,3.2
				c-3.8,0-6.8-1.1-8.9-3.2S522.2,348.9,522.2,345.6z"/>
			<path class="st1" d="M617,370.2l1.3,13.2c3.5-4.8,7.6-8.4,12.5-11s10.3-3.9,16.3-3.9c4.9,0,9.3,0.7,13.3,2.1s7.5,3.6,10.4,6.6
				s5.2,6.9,6.8,11.6c1.6,4.8,2.4,10.5,2.4,17.2v59.5h-21v-59.1c0-3.9-0.5-7.2-1.4-9.9s-2.2-4.8-3.9-6.3c-1.7-1.6-3.7-2.7-6.1-3.4
				c-2.4-0.7-5.1-1-8.2-1c-4.6,0-8.7,1-12.1,3.1c-3.4,2.1-6.2,4.8-8.3,8.4v68.3h-21v-95.2h19V370.2z"/>
			<path class="st1" d="M703.4,417.1c0-7.2,0.9-13.8,2.7-19.8s4.4-11.1,7.7-15.4s7.4-7.6,12.1-9.9c4.7-2.3,10-3.5,15.9-3.5
				c5.7,0,10.6,1,14.8,2.9s7.7,4.7,10.7,8.4l0.9-9.5h19.1V463c0,6.4-1.1,12.1-3.2,17c-2.1,5-5.1,9.1-8.8,12.5
				c-3.8,3.4-8.3,6-13.6,7.8s-11.1,2.7-17.4,2.7c-2.6,0-5.5-0.3-8.8-0.8c-3.3-0.6-6.5-1.5-9.8-2.7c-3.3-1.3-6.4-2.9-9.4-4.9
				s-5.5-4.5-7.7-7.3l10-12.6c3.6,4.2,7.4,7.2,11.6,9.1c4.1,1.8,8.4,2.7,12.8,2.7c3.5,0,6.7-0.5,9.6-1.5c2.9-1,5.3-2.5,7.3-4.4
				s3.5-4.3,4.6-7.2c1.1-2.8,1.6-6.1,1.6-9.8V457c-3,3.3-6.5,5.8-10.5,7.6c-4,1.8-8.7,2.6-14,2.6c-5.8,0-11.1-1.2-15.8-3.7
				c-4.7-2.4-8.7-5.8-12.1-10.1c-3.3-4.3-5.9-9.4-7.7-15.3s-2.7-12.3-2.7-19.2v-1.8H703.4z M724.5,419c0,4.3,0.4,8.3,1.3,12.1
				c0.9,3.8,2.2,7,4,9.9c1.8,2.8,4.1,5,7,6.6c2.8,1.6,6.2,2.4,10.1,2.4c4.9,0,8.8-1,11.9-3c3.1-2,5.5-4.7,7.3-8.1v-42.1
				c-1.9-3.3-4.3-6-7.4-8c-3.1-2-6.9-3-11.6-3c-3.9,0-7.2,0.8-10.1,2.5c-2.8,1.6-5.2,3.9-7,6.8s-3.2,6.2-4.1,10
				c-0.9,3.8-1.4,7.9-1.4,12.1V419z"/>
		</g>
		<text transform="matrix(1 0 0 1 43.5181 628.458)" class="st1 st2 st3">   </text>
		<g class="st0">
			<path class="st1" d="M247.7,604.7h7.4v9.9h-7.4v13.9h-12.2v-13.9h-26.6l-0.5-7.7l26.9-42.5h12.4L247.7,604.7L247.7,604.7z
				 M220.4,604.7h15.1v-23.8l-1.2,2.1L220.4,604.7z"/>
			<path class="st1" d="M312.3,604.1c0,4.1-0.5,7.8-1.4,10.9c-1,3.2-2.3,5.8-4.1,7.9c-1.8,2.1-4,3.7-6.6,4.8s-5.5,1.6-8.7,1.6
				s-6.1-0.5-8.7-1.6s-4.8-2.7-6.6-4.8s-3.2-4.8-4.2-7.9c-1-3.2-1.5-6.8-1.5-10.9v-15.3c0-4.1,0.5-7.8,1.5-10.9s2.4-5.8,4.2-7.9
				s4-3.7,6.6-4.8s5.4-1.6,8.6-1.6s6.1,0.5,8.7,1.6s4.8,2.7,6.6,4.8s3.2,4.8,4.2,7.9s1.5,6.8,1.5,10.9v15.3H312.3z M282.9,598.8
				l17.1-12.7c-0.1-4.3-0.8-7.5-2.2-9.6c-1.4-2.1-3.5-3.1-6.3-3.1s-5,1.1-6.4,3.3s-2.1,5.6-2.1,10.2v11.9H282.9z M300,594.4
				l-17.1,12.7c0.1,4.2,0.9,7.4,2.3,9.4s3.5,3.1,6.2,3.1c2.9,0,5-1.1,6.4-3.3s2.1-5.6,2.1-10.3v-11.6H300z"/>
			<path class="st1" d="M364.9,604.7h7.4v9.9h-7.4v13.9h-12.2v-13.9H326l-0.5-7.7l26.9-42.5h12.4v40.3H364.9z M337.5,604.7h15.1
				v-23.8l-1.2,2.1L337.5,604.7z"/>
			<path class="st1" d="M402.5,564.4l6.1,24.1l6.9-24.1h15.4v64.1h-11.4v-19l0.5-30l-8.4,27.8h-6.1l-7.5-26.6l0.5,28.8v19h-11.4
				v-64.1H402.5z"/>
			<path class="st1" d="M444.6,604.2c0-3.5,0.5-6.7,1.5-9.6c1-2.9,2.5-5.5,4.4-7.7s4.3-3.9,7-5.1c2.8-1.2,5.9-1.8,9.5-1.8
				s6.8,0.6,9.5,1.8c2.8,1.2,5.1,2.9,7.1,5.1s3.4,4.7,4.4,7.7c1,2.9,1.5,6.2,1.5,9.6v0.9c0,3.5-0.5,6.7-1.5,9.7
				c-1,2.9-2.4,5.5-4.4,7.7s-4.3,3.9-7,5.1c-2.8,1.2-6,1.8-9.5,1.8c-3.6,0-6.8-0.6-9.6-1.8c-2.8-1.2-5.2-2.9-7.1-5.1
				c-1.9-2.2-3.4-4.7-4.4-7.7c-1-2.9-1.5-6.2-1.5-9.7v-0.9H444.6z M456.9,605.1c0,2,0.2,3.9,0.6,5.6c0.4,1.7,1,3.3,1.8,4.6
				s1.9,2.3,3.2,3.1c1.3,0.8,2.9,1.1,4.7,1.1c1.8,0,3.3-0.4,4.6-1.1c1.3-0.8,2.3-1.8,3.1-3.1c0.8-1.3,1.4-2.8,1.8-4.6
				c0.4-1.7,0.6-3.6,0.6-5.6v-0.9c0-1.9-0.2-3.8-0.6-5.5s-1-3.3-1.8-4.6s-1.9-2.4-3.1-3.1c-1.3-0.8-2.9-1.1-4.7-1.1
				c-1.8,0-3.4,0.4-4.7,1.1c-1.3,0.8-2.3,1.8-3.2,3.1c-0.8,1.3-1.4,2.8-1.8,4.6c-0.4,1.7-0.6,3.6-0.6,5.5v0.9H456.9z"/>
			<path class="st1" d="M507.5,560.9h26.6v57.6h13.6v9.9h-40.3v-9.9h14.3v-47.7h-14.3v-9.9H507.5z"/>
			<path class="st1" d="M562.2,604.3c0-3.6,0.4-6.9,1.3-9.9s2.1-5.6,3.7-7.7c1.6-2.1,3.6-3.8,5.9-5c2.3-1.2,4.9-1.8,7.9-1.8
				c2.5,0,4.7,0.4,6.6,1.3c1.9,0.9,3.6,2.2,5,3.8v-24.2h12.3v67.6h-11l-0.6-5c-1.5,1.8-3.3,3.3-5.3,4.3s-4.4,1.5-7,1.5
				c-2.9,0-5.5-0.6-7.8-1.8s-4.3-2.9-5.9-5c-1.6-2.1-2.8-4.7-3.7-7.6c-0.9-2.9-1.3-6.2-1.3-9.6v-0.9H562.2z M574.5,605.2
				c0,2,0.2,3.9,0.5,5.6c0.3,1.7,0.9,3.2,1.7,4.5s1.7,2.3,2.9,3s2.7,1.1,4.4,1.1c2.1,0,3.9-0.5,5.3-1.4c1.4-0.9,2.5-2.2,3.3-3.7V595
				c-0.8-1.6-1.9-2.9-3.3-3.8c-1.4-0.9-3.1-1.3-5.2-1.3c-1.7,0-3.2,0.4-4.4,1.1c-1.2,0.7-2.2,1.8-3,3.1s-1.3,2.8-1.7,4.6
				c-0.4,1.7-0.5,3.6-0.5,5.6V605.2z"/>
			<path class="st1" d="M620.4,604.2c0-3.5,0.5-6.7,1.5-9.6s2.5-5.5,4.4-7.7s4.3-3.9,7-5.1c2.8-1.2,5.9-1.8,9.5-1.8s6.8,0.6,9.5,1.8
				c2.8,1.2,5.1,2.9,7.1,5.1c1.9,2.2,3.4,4.7,4.4,7.7s1.5,6.2,1.5,9.6v0.9c0,3.5-0.5,6.7-1.5,9.7s-2.4,5.5-4.4,7.7s-4.3,3.9-7,5.1
				s-6,1.8-9.5,1.8c-3.6,0-6.8-0.6-9.6-1.8s-5.2-2.9-7.1-5.1c-1.9-2.2-3.4-4.7-4.4-7.7s-1.5-6.2-1.5-9.7L620.4,604.2L620.4,604.2z
				 M632.6,605.1c0,2,0.2,3.9,0.6,5.6c0.4,1.7,1,3.3,1.8,4.6s1.9,2.3,3.2,3.1s2.9,1.1,4.7,1.1s3.3-0.4,4.6-1.1
				c1.3-0.8,2.3-1.8,3.1-3.1s1.4-2.8,1.8-4.6c0.4-1.7,0.6-3.6,0.6-5.6v-0.9c0-1.9-0.2-3.8-0.6-5.5c-0.4-1.7-1-3.3-1.8-4.6
				s-1.9-2.4-3.1-3.1c-1.3-0.8-2.9-1.1-4.7-1.1s-3.4,0.4-4.7,1.1c-1.3,0.8-2.3,1.8-3.2,3.1s-1.4,2.8-1.8,4.6
				c-0.4,1.7-0.6,3.6-0.6,5.5v0.9H632.6z"/>
			<path class="st1" d="M700.9,614.3l0.6,3.4l0.6-3.3l10.5-33.6h12.8l-18.1,47.6h-11.5l-18.2-47.6h12.8L700.9,614.3z"/>
			<path class="st1" d="M769,628.5c-0.3-0.6-0.5-1.3-0.7-2c-0.2-0.8-0.4-1.6-0.5-2.4c-0.7,0.7-1.5,1.4-2.3,2.1
				c-0.9,0.6-1.9,1.2-2.9,1.7c-1.1,0.5-2.3,0.9-3.5,1.1c-1.3,0.3-2.7,0.4-4.2,0.4c-2.4,0-4.7-0.4-6.7-1.1s-3.8-1.7-5.3-2.9
				s-2.6-2.8-3.4-4.5c-0.8-1.7-1.2-3.6-1.2-5.7c0-5,1.9-8.9,5.6-11.6c3.7-2.7,9.3-4.1,16.7-4.1h6.8v-2.8c0-2.3-0.7-4.1-2.2-5.4
				s-3.7-2-6.5-2c-2.5,0-4.3,0.5-5.5,1.6c-1.1,1.1-1.7,2.5-1.7,4.3h-12.2c0-2,0.4-3.9,1.3-5.8c0.9-1.8,2.2-3.4,3.9-4.8
				c1.7-1.4,3.8-2.5,6.3-3.3s5.3-1.2,8.5-1.2c2.9,0,5.6,0.4,8,1.1c2.5,0.7,4.6,1.7,6.4,3.1c1.8,1.4,3.2,3.1,4.3,5.2
				c1,2.1,1.5,4.5,1.5,7.3v20.4c0,2.6,0.2,4.7,0.5,6.3c0.3,1.7,0.8,3.1,1.4,4.3v0.7L769,628.5L769,628.5z M757.3,619.9
				c1.2,0,2.4-0.1,3.4-0.4c1.1-0.3,2-0.7,2.9-1.1c0.9-0.5,1.6-1,2.2-1.6c0.6-0.6,1.1-1.2,1.5-1.8v-8.2H761c-1.9,0-3.5,0.2-4.9,0.5
				c-1.3,0.4-2.5,0.9-3.3,1.5s-1.5,1.5-1.9,2.4s-0.6,1.9-0.6,3c0,1.6,0.6,3,1.7,4.1C753.2,619.3,755,619.9,757.3,619.9z"/>
		</g>
		<rect x="20" y="167.4" class="st4" width="800" height="372"/>
		<rect x="20" y="539.4" class="st4" width="800" height="114"/>
		<line class="st4" x1="174" y1="539.4" x2="174" y2="653.4"/>
		<g class="st0">
			<path class="st5" d="M128.7,595.9c-0.3,6.8-2,12.2-5.1,16.2c-3.1,4-7.3,6.1-12.5,6.1c-2.1,0-4-0.5-5.7-1.4s-2.9-2.2-3.8-3.9
				c-2.6,3.4-6,5.2-10.3,5.2c-2.5,0-4.7-0.7-6.6-2.2c-1.9-1.5-3.2-3.6-4.1-6.3c-0.9-2.7-1.1-5.8-0.8-9.2c0.8-6.5,2.9-11.7,6.3-15.7
				c3.4-4,7.6-5.9,12.5-5.9c3.8,0,7.1,0.9,9.9,2.7l2.5,1.6l-2,22.9c-0.4,3.6,0.8,5.4,3.8,5.4c2.2,0,4.1-1.4,5.6-4.2
				c1.5-2.8,2.3-6.4,2.5-10.8c0.4-8.7-1.4-15.4-5.4-20.2c-4-4.7-10-7.1-17.8-7.1c-5,0-9.4,1.3-13.3,3.8s-6.9,6.1-9.2,10.8
				c-2.3,4.6-3.5,9.9-3.8,15.9c-0.4,9.1,1.4,16.1,5.5,20.9s10.2,7.2,18.3,7.2c2.2,0,4.5-0.3,7-0.8c2.4-0.5,4.4-1.1,6-1.8l1.4,6.5
				c-1.6,1-3.7,1.9-6.4,2.5c-2.7,0.6-5.4,1-8.1,1c-7.1,0-13.1-1.4-18-4.1c-4.9-2.7-8.6-6.8-11-12.1c-2.4-5.3-3.5-11.8-3.2-19.4
				c0.3-7.2,2-13.6,5-19.3c3-5.7,7.1-10.1,12.3-13.2c5.2-3.1,11.1-4.7,17.7-4.7s12.2,1.4,17,4.1c4.8,2.7,8.3,6.6,10.7,11.7
				C127.9,583.2,129,589.2,128.7,595.9z M89.6,600.4c-0.3,3.4,0,5.9,0.8,7.7c0.8,1.7,2.1,2.6,4,2.6c1.2,0,2.3-0.5,3.4-1.6
				c1-1.1,1.9-2.7,2.6-4.7l1.6-17.8c-0.8-0.2-1.6-0.3-2.4-0.3c-2.9,0-5.2,1.1-6.7,3.4C91.1,591.9,90.1,595.5,89.6,600.4z"/>
		</g>
		<g class="st0">
			<path class="st1" d="M46.6,99.2h-16V36L9.8,43.4V29.7l35.9-13h0.8L46.6,99.2L46.6,99.2z"/>
			<path class="st1" d="M129.4,38.7c0,4-1,7.6-3,10.7c-2,3.1-4.8,5.6-8.3,7.4c4,1.9,7.2,4.5,9.5,7.9c2.4,3.4,3.5,7.4,3.5,12
				c0,3.9-0.7,7.3-2.1,10.3s-3.4,5.4-5.8,7.4c-2.5,2-5.4,3.5-8.8,4.5s-7,1.5-10.9,1.5s-7.6-0.5-11-1.5s-6.3-2.5-8.8-4.5
				S79.3,90,77.8,87s-2.1-6.4-2.1-10.3c0-2.3,0.3-4.4,0.9-6.4s1.5-3.9,2.6-5.6c1.1-1.7,2.5-3.2,4.1-4.5s3.4-2.5,5.4-3.4
				c-3.5-1.8-6.3-4.3-8.3-7.4c-2-3.1-3-6.7-3-10.7c0-3.7,0.6-7,1.9-9.9s3.1-5.3,5.4-7.2c2.3-2,5-3.4,8.2-4.4s6.6-1.5,10.3-1.5
				s7.2,0.5,10.4,1.5c3.2,1,5.9,2.5,8.2,4.4c2.3,2,4.1,4.4,5.4,7.2C128.7,31.7,129.4,34.9,129.4,38.7z M115.3,75.6
				c0-1.9-0.3-3.6-0.8-5.1c-0.6-1.5-1.4-2.8-2.4-3.9s-2.3-1.9-3.7-2.5c-1.5-0.6-3.1-0.8-4.9-0.8s-3.4,0.3-4.9,0.8
				c-1.5,0.6-2.7,1.4-3.7,2.5S93,69,92.4,70.5s-0.8,3.2-0.8,5.1c0,3.8,1.1,6.7,3.2,8.9s5.1,3.2,8.7,3.2c1.7,0,3.3-0.3,4.8-0.8
				c1.4-0.5,2.7-1.3,3.7-2.4s1.8-2.3,2.4-3.8C115,79.2,115.3,77.5,115.3,75.6z M113.7,39.4c0-1.7-0.2-3.2-0.7-4.5
				c-0.5-1.4-1.2-2.5-2.1-3.5s-2-1.7-3.2-2.2c-1.3-0.5-2.7-0.8-4.3-0.8c-3.2,0-5.7,1-7.4,2.9c-1.7,2-2.6,4.7-2.6,8.1
				c0,1.7,0.2,3.2,0.7,4.6c0.5,1.4,1.1,2.6,2,3.5c0.9,1,2,1.7,3.2,2.3c1.3,0.5,2.7,0.8,4.3,0.8s3-0.3,4.2-0.8s2.3-1.3,3.2-2.3
				c0.9-1,1.5-2.2,2-3.5C113.4,42.6,113.7,41.1,113.7,39.4z"/>
			<path class="st1" d="M235.8,16.8l7.8,31l8.9-31h19.8v82.5h-14.6V74.8l0.7-38.6L247.5,72h-7.9L230,37.8l0.7,37v24.4H216V16.8
				H235.8z"/>
			<path class="st1" d="M326.4,82h-24.8l-4.9,17.2H280l27-82.5h14.4L348,99.2h-16.8L326.4,82z M305.6,68.5h17.1l-8.4-30.4
				L305.6,68.5z"/>
			<path class="st1" d="M383.6,54.8l16.3-38h17.5l-25.9,53.9l-0.1,28.5h-15.9V70L350,16.8h17.4L383.6,54.8z"/>
			<path class="st1" d="M457.9,98c0,2.2-0.3,4.4-0.9,6.6c-0.6,2.3-1.4,4.5-2.4,6.6s-2.2,4.1-3.7,6c-1.4,1.9-2.9,3.6-4.6,5l-8.3-4.3
				c0.7-1.4,1.4-2.7,2-4.1s1.2-2.9,1.6-4.4c0.5-1.5,0.8-3.2,1.1-4.9c0.3-1.7,0.4-3.6,0.4-5.7V85.5h14.8V98z"/>
			<path class="st1" d="M533.8,99.2h-15.9V36l-20.8,7.5V29.7l35.9-13h0.8V99.2z"/>
			<path class="st1" d="M616.6,38.7c0,4-1,7.6-3,10.7c-2,3.1-4.8,5.6-8.3,7.4c4,1.9,7.2,4.5,9.5,7.9c2.4,3.4,3.5,7.4,3.5,12
				c0,3.9-0.7,7.3-2.1,10.3s-3.4,5.4-5.8,7.4c-2.5,2-5.4,3.5-8.8,4.5s-7,1.5-10.9,1.5s-7.6-0.5-11-1.5s-6.3-2.5-8.8-4.5
				S566.5,90,565,87s-2.1-6.4-2.1-10.3c0-2.3,0.3-4.4,0.9-6.4c0.6-2,1.5-3.9,2.6-5.6c1.1-1.7,2.5-3.2,4.1-4.5s3.4-2.5,5.4-3.4
				c-3.5-1.8-6.3-4.3-8.3-7.4s-3-6.7-3-10.7c0-3.7,0.6-7,1.9-9.9c1.3-2.9,3.1-5.3,5.4-7.2c2.3-2,5-3.4,8.2-4.4s6.6-1.5,10.3-1.5
				s7.2,0.5,10.4,1.5s5.9,2.5,8.2,4.4c2.3,2,4.1,4.4,5.4,7.2C616,31.7,616.6,34.9,616.6,38.7z M602.6,75.6c0-1.9-0.3-3.6-0.8-5.1
				c-0.6-1.5-1.4-2.8-2.4-3.9s-2.3-1.9-3.7-2.5c-1.5-0.6-3.1-0.8-4.9-0.8s-3.4,0.3-4.9,0.8c-1.5,0.6-2.7,1.4-3.7,2.5
				s-1.8,2.4-2.4,3.9c-0.6,1.5-0.8,3.2-0.8,5.1c0,3.8,1.1,6.7,3.2,8.9s5.1,3.2,8.7,3.2c1.7,0,3.3-0.3,4.8-0.8
				c1.4-0.5,2.7-1.3,3.7-2.4s1.8-2.3,2.4-3.8C602.3,79.2,602.6,77.5,602.6,75.6z M601,39.4c0-1.7-0.2-3.2-0.7-4.5s-1.2-2.5-2.1-3.5
				c-0.9-1-2-1.7-3.2-2.2c-1.3-0.5-2.7-0.8-4.3-0.8c-3.2,0-5.7,1-7.4,2.9c-1.7,2-2.6,4.7-2.6,8.1c0,1.7,0.2,3.2,0.7,4.6
				c0.5,1.4,1.1,2.6,2,3.5c0.9,1,2,1.7,3.2,2.3c1.3,0.5,2.7,0.8,4.3,0.8s3-0.3,4.2-0.8s2.3-1.3,3.2-2.3s1.5-2.2,2-3.5
				C600.7,42.6,601,41.1,601,39.4z"/>
			<path class="st1" d="M651.2,43.3c0-1.5,0.2-2.8,0.7-4.1s1.2-2.4,2.2-3.3c0.9-0.9,2.1-1.7,3.5-2.2s2.9-0.8,4.6-0.8
				s3.2,0.3,4.6,0.8c1.4,0.5,2.5,1.3,3.4,2.2s1.6,2,2.2,3.3c0.5,1.3,0.8,2.6,0.8,4.1c0,1.4-0.3,2.8-0.8,4s-1.2,2.3-2.2,3.3
				c-0.9,0.9-2.1,1.7-3.4,2.2c-1.4,0.5-2.9,0.8-4.6,0.8s-3.2-0.3-4.6-0.8c-1.4-0.5-2.5-1.3-3.5-2.2c-0.9-0.9-1.7-2-2.2-3.3
				S651.2,44.8,651.2,43.3z M651.2,90.1c0-1.5,0.2-2.8,0.7-4.1c0.5-1.3,1.2-2.4,2.2-3.3c0.9-0.9,2.1-1.7,3.5-2.2s2.9-0.8,4.6-0.8
				s3.2,0.3,4.6,0.8c1.4,0.5,2.5,1.3,3.4,2.2c0.9,0.9,1.6,2,2.2,3.3c0.5,1.3,0.8,2.6,0.8,4.1c0,1.4-0.3,2.8-0.8,4s-1.2,2.3-2.2,3.3
				c-0.9,0.9-2.1,1.7-3.4,2.2s-2.9,0.8-4.6,0.8s-3.2-0.3-4.6-0.8s-2.5-1.3-3.5-2.2c-0.9-0.9-1.7-2-2.2-3.3S651.2,91.6,651.2,90.1z"
				/>
			<path class="st1" d="M757.8,67.9c0,5.3-0.6,10-1.8,14.1s-3,7.5-5.3,10.2s-5.1,4.8-8.4,6.2s-7.1,2.1-11.2,2.1
				c-4.1,0-7.8-0.7-11.2-2.1s-6.1-3.5-8.5-6.2c-2.3-2.7-4.1-6.1-5.4-10.2c-1.3-4.1-1.9-8.8-1.9-14.1V48.1c0-5.3,0.6-10,1.9-14.1
				c1.2-4.1,3-7.5,5.4-10.2c2.3-2.7,5.1-4.8,8.4-6.2c3.3-1.4,7-2.1,11.1-2.1c4.2,0,7.9,0.7,11.2,2.1s6.1,3.5,8.5,6.2
				c2.3,2.7,4.1,6.1,5.4,10.2c1.2,4.1,1.9,8.8,1.9,14.1v19.8H757.8z M720,61.1l22-16.4c-0.1-5.6-1.1-9.7-2.9-12.3
				c-1.8-2.7-4.5-4-8.2-4s-6.4,1.4-8.2,4.2s-2.7,7.2-2.7,13.1L720,61.1L720,61.1z M741.9,55.4l-22,16.3c0.2,5.4,1.2,9.5,3,12.1
				s4.5,3.9,8,3.9c3.7,0,6.4-1.4,8.2-4.3s2.7-7.3,2.7-13.2L741.9,55.4L741.9,55.4z"/>
			<path class="st1" d="M827.4,67.9c0,5.3-0.6,10-1.8,14.1s-3,7.5-5.3,10.2s-5.1,4.8-8.4,6.2s-7.1,2.1-11.2,2.1
				c-4.1,0-7.8-0.7-11.2-2.1s-6.1-3.5-8.5-6.2c-2.3-2.7-4.1-6.1-5.4-10.2c-1.3-4.1-1.9-8.8-1.9-14.1V48.1c0-5.3,0.6-10,1.9-14.1
				c1.2-4.1,3-7.5,5.4-10.2c2.3-2.7,5.1-4.8,8.4-6.2c3.3-1.4,7-2.1,11.1-2.1c4.2,0,7.9,0.7,11.2,2.1s6.1,3.5,8.5,6.2
				c2.3,2.7,4.1,6.1,5.4,10.2c1.2,4.1,1.9,8.8,1.9,14.1v19.8H827.4z M789.6,61.1l22-16.4c-0.1-5.6-1.1-9.7-2.9-12.3
				c-1.8-2.7-4.5-4-8.2-4s-6.4,1.4-8.2,4.2s-2.7,7.2-2.7,13.1L789.6,61.1L789.6,61.1z M811.5,55.4l-22,16.3c0.2,5.4,1.2,9.5,3,12.1
				s4.5,3.9,8,3.9c3.7,0,6.4-1.4,8.2-4.3s2.7-7.3,2.7-13.2L811.5,55.4L811.5,55.4z"/>
		</g>
	</g>
</g>
</svg>
