<svg xmlns="http://www.w3.org/2000/svg" viewBox="0 0 39.27235 38.18723"><defs><style>.cls-1{fill:#942a74;}.cls-2,.cls-3{fill:#e8c237;}.cls-2{stroke:#e8c237;stroke-width:0.144px;}.cls-4{fill:#025b9d;}.cls-5{fill:#231f20;}</style></defs><title>sweden</title><g id="Layer_2" data-name="Layer 2"><g id="Layer_1-2" data-name="Layer 1"><path class="cls-1" d="M19.64142,11.81459c3.85457,0,6.97853-.80164,6.97853-2.8434S23.496,5.2743,19.64142,5.2743,12.662,6.92937,12.662,8.97119,15.78679,11.81459,19.64142,11.81459Z"/><path class="cls-2" d="M25.7406,10.296c-.77166-.01079-.78388-.4417-.78388-.4417s-.01806.44522-.93751.44522c-.80426,0-.80081-1.20615-.80081-1.20615s-.0966,1.1884-.93054,1.20437c-.87118-.01192-.89216-.44343-.89216-.44343s-.02616.44814-.76118.44522c-.89043-.00352-1.01319-1.20615-1.01319-1.20615s-.0879,1.214-.97857,1.20353c-.78448-.00906-.80808-.44259-.80808-.44259s-.03665.45946-.87524.44522c-.88984-.01514-.91832-1.20615-.91832-1.20615s-.02241,1.20788-.88078,1.20615c-.86773-.00179-.8753-.44522-.8753-.44522s-.02181.4507-.783.4417c-.6259-.00757-.77774-1.11736-.97333-1.1875.03176.13593.362,1.0679.38181,1.16366a10.13135,10.13135,0,0,1,.13438,1.86954H26.19744a10.16261,10.16261,0,0,1,.13444-1.86954c.01978-.09577.34975-1.00884.38181-1.14442C26.52514,9.14228,26.36626,10.30445,25.7406,10.296Z"/><polygon class="cls-3" points="19.762 1.648 19.762 0.901 20.404 0.901 20.404 0.692 19.762 0.692 19.762 0 19.525 0 19.525 0.692 18.871 0.692 18.871 0.901 19.525 0.901 19.525 1.648 19.762 1.648"/><path class="cls-3" d="M18.63782,2.6418a1.00765,1.00765,0,1,1,1.00765,1.00765A1.00764,1.00764,0,0,1,18.63782,2.6418Z"/><path class="cls-4" d="M27.4021,12.146H11.84432V20.725a8.28831,8.28831,0,0,0,5.677,7.9484,3.36455,3.36455,0,0,1,2.102,1.292,3.03369,3.03369,0,0,1,2.07209-1.28207A8.30125,8.30125,0,0,0,27.4021,20.725Z"/><path class="cls-2" d="M16.33123,17.05051a.67757.67757,0,0,0,.5619.33986.57155.57155,0,0,0,0-1.14269.63937.63937,0,0,0-.13361.01657.657.657,0,0,0,.16734-.389.59075.59075,0,1,0-1.18107,0,.66814.66814,0,0,0,.15917.38759.49583.49583,0,0,0-.12866-.01514.57155.57155,0,0,0,0,1.14269A.7746.7746,0,0,0,16.33123,17.05051Zm-2.09915.35642a.5318.5318,0,0,0,.58836-.57584c-.01043-.56917-.62531-.55838-.62531-.55838a.80112.80112,0,0,0,.09457-.56947c-.13474-.55373-.82232-.44021-.82232-.44021.03725.12193.25112,1.11617.42049,1.96524A.47246.47246,0,0,0,14.23208,17.40694Zm2.10964.12949a1.34634,1.34634,0,0,0,.71028.31745.89068.89068,0,0,0,.6-.31745.68137.68137,0,0,0,.61631.314.62.62,0,0,0,.41375-.13384c-.02354.126-.04654.22317-.06138.31191a7.73291,7.73291,0,0,0-.09892,1.337H14.1614a7.69775,7.69775,0,0,0-.09892-1.337c-.01484-.08873-.03784-.18593-.06144-.31191a.62047.62047,0,0,0,.41411.13384.6806.6806,0,0,0,.616-.314.89068.89068,0,0,0,.6.31745A1.348,1.348,0,0,0,16.34172,17.53643Zm2.45384-.30815c.1693-.84908.38288-1.84332.42013-1.96524,0,0-.68758-.11352-.82232.44021a.80112.80112,0,0,0,.09457.56947s-.61452-.01079-.62531.55838a.53191.53191,0,0,0,.58836.57584A.47284.47284,0,0,0,18.79556,17.22828Z"/><path class="cls-2" d="M22.90882,17.05051a.67642.67642,0,0,0,.5616.33986.57155.57155,0,0,0,0-1.14269.639.639,0,0,0-.13331.01657.65853.65853,0,0,0,.167-.389.5906.5906,0,1,0-1.18077,0,.66652.66652,0,0,0,.15947.38759.49719.49719,0,0,0-.1292-.01514.57155.57155,0,0,0,0,1.14269A.774.774,0,0,0,22.90882,17.05051Zm-2.09915.35642a.532.532,0,0,0,.58836-.57584c-.01043-.56917-.625-.55838-.625-.55838a.80181.80181,0,0,0,.09428-.56947c-.135-.55373-.82232-.44021-.82232-.44021.03671.12193.25083,1.11617.42019,1.96524A.47187.47187,0,0,0,20.80967,17.40694Zm2.10964.12949a1.34624,1.34624,0,0,0,.71.31745.89187.89187,0,0,0,.60057-.31745.67883.67883,0,0,0,.61511.314.61859.61859,0,0,0,.41381-.13384c-.02217.126-.0466.22317-.06114.31191a7.75809,7.75809,0,0,0-.09833,1.337h-4.36a7.77157,7.77157,0,0,0-.09952-1.337c-.01454-.08873-.03784-.18593-.06114-.31191a.62064.62064,0,0,0,.41381.13384.68192.68192,0,0,0,.61631-.314.89139.89139,0,0,0,.6.31745A1.34939,1.34939,0,0,0,22.91931,17.53643Zm2.45355-.30815c.1693-.84908.38288-1.84332.42013-1.96524,0,0-.68788-.11352-.82226.44021a.80181.80181,0,0,0,.09428.56947s-.614-.01079-.62447.55838a.53116.53116,0,0,0,.58776.57584A.47346.47346,0,0,0,25.37286,17.22828Z"/><path class="cls-2" d="M19.61961,22.15253a.73266.73266,0,0,0,.60171.34683.583.583,0,1,0,0-1.16563.70989.70989,0,0,0-.14314.01686.655.655,0,0,0,.17925-.39689.63261.63261,0,0,0-1.26491,0,.66346.66346,0,0,0,.17049.39569.528.528,0,0,0-.1379-.01567.583.583,0,1,0,0,1.16563A.83655.83655,0,0,0,19.61961,22.15253Zm-2.24843.36375a.56.56,0,0,0,.63025-.58723c-.01132-.58079-.66982-.5703-.66982-.5703a.78265.78265,0,0,0,.10125-.58025c-.14433-.56506-.88048-.44927-.88048-.44927.03987.12455.26858,1.13893.45016,2.00487A.51183.51183,0,0,0,17.37118,22.51628Zm2.25915.13206a1.47466,1.47466,0,0,0,.76094.32359.96465.96465,0,0,0,.64247-.32359.736.736,0,0,0,.65993.32007.68817.68817,0,0,0,.44349-.13617c-.02562.12806-.05006.22758-.06579.31775a7.54172,7.54172,0,0,0-.1059,1.36413H17.29556A7.4986,7.4986,0,0,0,17.1893,23.15c-.01567-.09016-.04011-.18968-.06543-.31775a.688.688,0,0,0,.44343.13617.73454.73454,0,0,0,.65963-.32007.96576.96576,0,0,0,.64283.32359A1.47313,1.47313,0,0,0,19.63033,22.64834Zm2.62785-.31423c.18158-.86594.41089-1.88032.45046-2.00487,0,0-.73621-.11579-.88054.44927a.78421.78421,0,0,0,.10125.58025s-.6582-.01049-.66982.5703a.56.56,0,0,0,.63025.58723A.51023.51023,0,0,0,22.25819,22.33411Z"/><path class="cls-2" d="M24.61859,9.06135a.73923.73923,0,0,1-.7868.67918.9334.9334,0,0,1-.6343-.38586.93366.93366,0,0,1-.63436.38586.73866.73866,0,0,1-.78621-.67918c0-.35732.3858-.62119.76761-.648a.79864.79864,0,0,1-.13331-.34623.795.795,0,0,1,1.57307,0,.79948.79948,0,0,1-.13384.34623C24.23219,8.44016,24.61859,8.704,24.61859,9.06135Z"/><path class="cls-2" d="M17.45878,9.06135a.73866.73866,0,0,1-.78621.67918.93287.93287,0,0,1-.63436-.38586.93353.93353,0,0,1-.63436.38586.73847.73847,0,0,1-.78621-.67918c0-.35732.38586-.62119.76761-.648a.79486.79486,0,0,1-.13325-.34623.79464.79464,0,0,1,1.57241,0,.79486.79486,0,0,1-.13325.34623C17.07292,8.44016,17.45878,8.704,17.45878,9.06135Z"/><path class="cls-2" d="M21.03958,9.046a.73922.73922,0,0,1-.7868.67912.93225.93225,0,0,1-.63407-.38586.93353.93353,0,0,1-.63436.38586.73865.73865,0,0,1-.78621-.67912c0-.35738.38586-.62125.76761-.64807a.7943.7943,0,0,1-.13325-.34623.79486.79486,0,0,1,1.57271,0,.79157.79157,0,0,1-.13384.34623C20.65312,8.42472,21.03958,8.6886,21.03958,9.046Z"/><path class="cls-2" d="M11.99766,7.36934c.15744.00262.27323-.00673.50779-.01138.48884-.00989.79264.231.81445.60552a.83027.83027,0,0,1-.133.41989c.38264-.00286.81332.23426.84562.59068a.662.662,0,0,1-.64771.73448,1.14355,1.14355,0,0,1-.75921-.30756Z"/><path class="cls-2" d="M26.62639,9.401a1.143,1.143,0,0,1-.75945.30756.66239.66239,0,0,1-.64777-.73448c.0326-.35642.46387-.59354.84621-.59068a.82509.82509,0,0,1-.13331-.41989c.02211-.37448.32532-.61541.81415-.60552.23515.00465.35034.014.50868.01138Z"/><path class="cls-2" d="M19.63969,3.52168c2.60688-.01192,4.46331.22758,5.67143.85581A2.88049,2.88049,0,0,1,26.9837,6.99718v.38318L25.736,7.10278l.00119-.10619a2.082,2.082,0,0,0-.70593-1.59517,6.32448,6.32448,0,0,0-2.93654-1.15169,3.34061,3.34061,0,0,1,1.99671,2.78089l-.0006.09487-.84443.25488-.76064-.25488-.00054-.09517c-.00352-1.31378-.6169-2.15147-2.17072-2.77594A14.606,14.606,0,0,1,20.50414,7l-.00232.10274-.85432.27758-.86969-.27758L18.77459,7a14.63014,14.63014,0,0,1,.19-2.74567c-1.55352.62447-2.16691,1.46216-2.171,2.77594l-.0003.07246-.76034.27758-.84472-.27758-.00054-.07217a3.34213,3.34213,0,0,1,1.99665-2.78089,6.32853,6.32853,0,0,0-2.93684,1.15169,2.081,2.081,0,0,0-.70564,1.59517l.00149.10619-1.248.27758.0003-.38318a2.8799,2.8799,0,0,1,1.672-2.61969C15.176,3.74927,17.03252,3.5339,19.63969,3.52168Z"/><rect class="cls-5" x="0.04511" y="28.25726" width="14.28124" height="0.17925"/><rect class="cls-5" x="24.88342" y="28.25726" width="14.38893" height="0.17925"/><rect class="cls-5" y="38.00797" width="39.22813" height="0.17925"/><path class="cls-5" d="M7.463,31.66172a1.4246,1.4246,0,0,0-1.08476-.45916c-.41494,0-.93924.16007-.93924.66285,0,.99752,2.45378.98292,2.45378,2.33019,0,.77864-.64074,1.50668-1.90035,1.50668A3.7667,3.7667,0,0,1,4.68916,35.484l-.21126-.91016a2.52069,2.52069,0,0,0,1.59458.604c.41488,0,.99019-.24731.99019-.75712,0-1.13542-2.45355-.93173-2.45355-2.47506,0-.91773.9393-1.26753,1.82735-1.26753a3.03179,3.03179,0,0,1,1.02654.16066Z"/><path class="cls-5" d="M10.80521,35.80412c-.66285-.48014-.72828-.42948-.96838-1.179l-.85921-2.68691a2.00308,2.00308,0,0,0-.60439-1.12141v-.02211h1.063a1.26087,1.26087,0,0,0,.0876.52489l1.08476,3.38528.852-2.76665c.1382-.444.28366-.91773-.11668-1.12141v-.02211h1.02654a1.474,1.474,0,0,0,.10941.73555l1.012,3.153.82262-2.66534c.13122-.41435.37162-1.00449-.19642-1.20115v-.02211H15.2392l-1.53636,5.00947c-.66988-.45856-.72077-.42192-.96087-1.17207l-.801-2.50474Z"/><path class="cls-5" d="M17.176,35.06911h.9247a1.59226,1.59226,0,0,0,1.30329-.43705h.02187l-.32764.95384H16.10543v-.02211c.37156-.13092.32764-.66982.32764-.99692V31.82119c0-.33461.04392-.86594-.32764-1.00443v-.02211h2.41743a.73942.73942,0,0,0,.34218-.03611h.02187v.852H18.865a1.04147,1.04147,0,0,0-.85921-.32007,5.13992,5.13992,0,0,0-.82989.05059v1.38332h.95384a.74658.74658,0,0,0,.32037-.04362H18.472v.728h-.02181a.968.968,0,0,0-.73561-.20369H17.176Z"/><path class="cls-5" d="M20.38662,31.79211c0-.33461.05119-.86594-.32007-.97535v-.02211h1.78367c1.66037,0,2.69388.90319,2.69388,2.35224a2.47259,2.47259,0,0,1-2.73053,2.439h-1.747v-.02211c.36369-.24737.32007-.59652.32007-1.026Zm.74258,3.21883a2.60582,2.60582,0,0,0,.53186.05059,1.82681,1.82681,0,0,0,2.0532-1.82735,1.72868,1.72868,0,0,0-1.92979-1.91465,2.902,2.902,0,0,0-.65528.07973Z"/><path class="cls-5" d="M26.78639,35.06911h.92476a1.593,1.593,0,0,0,1.30359-.43705h.02151l-.32764.95384H25.71617v-.02211c.37132-.13092.32764-.66982.32764-.99692V31.82119c0-.33461.04368-.86594-.32764-1.00443v-.02211h2.41749a.7396.7396,0,0,0,.34218-.03611h.02151v.852h-.02151a1.04133,1.04133,0,0,0-.859-.32007,5.152,5.152,0,0,0-.83048.05059v1.38332h.95384a.7473.7473,0,0,0,.32067-.04362h.02151v.728H28.0609a.96837.96837,0,0,0-.73561-.20369h-.5389Z"/><path class="cls-5" d="M30.85662,34.639c0,.408-.00757.69956.37829.92476v.02211H29.94647v-.02211c.3858-.2252.3858-.51679.3858-.92476V31.73389c0-.40737,0-.69831-.37883-.91713v-.02211h1.06325v.00757a.44818.44818,0,0,0,.10941.18211l.10184.14553,2.599,3.3637V31.73389c0-.40737.00757-.69831-.37829-.91713v-.02211h1.28148v.02211c-.37883.21882-.37883.50975-.37883.91713v4.08477a2.00956,2.00956,0,0,1-1.06266-.82989l-2.432-3.16758Z"/></g></g></svg>